<?xml version="1.0" encoding="UTF-8" standalone="no"?>
<!DOCTYPE svg PUBLIC "-//W3C//DTD SVG 1.0//EN"
 "http://www.w3.org/TR/2001/REC-SVG-20010904/DTD/svg10.dtd" [
 <!ATTLIST svg xmlns:xlink CDATA #FIXED "http://www.w3.org/1999/xlink">
]>
<!-- Generated by dot version 1.8.5 (Tue Apr 23 17:19:23  2002)
     For user: (Administrator) ,S-1-5-21-1454471165-688789844-1708537768-500   Title: yads    Pages: 1 -->
<svg width="676px" height="448px"
 xmlns="http://www.w3.org/2000/svg" xmlns:xlink="http://www.w3.org/1999/xlink">
<g id="graph0" class="graph" style="font-family:Times-Roman;font-size:11.00">
<title>yads</title>
<text text-anchor="middle" x="338" y="437" style="font-family:arial;font-size:24.00">YADS - A Description Service</text>
<g id="graph2" class="cluster"><title>cluster_1</title>
<polygon style="fill:none;stroke:#d2d2d2;stroke-dasharray:5,2" points="213,405 463,405 463,43 213,43 213,405"/>
<text text-anchor="middle" x="316" y="55" style="font-family:arial">Nest - OpenURL Resolver + Query</text>
</g>
<g id="graph3" class="cluster"><title>cluster_3</title>
<polygon style="fill:none;stroke:#d2d2d2;stroke-dasharray:5,2" points="293,397 455,397 455,238 293,238 293,397"/>
<text text-anchor="middle" x="340" y="250" style="font-family:arial">Item - Referent</text>
</g>
<g id="node2" class="node"><title>:_1</title>
<ellipse cx="324" cy="86" rx="35" ry="18" style="fill:#eedb82;stroke:#eedb82"/>
<text text-anchor="middle" x="324" y="90" style="font-family:arial">OpenURL</text>
</g>
<g id="node4" class="node"><title>http://openurl.org/resolver?</title>
<a xlink:href="http://openurl.org/resolver?" target="_blank" onmouseover="show_status('http://openurl.org/resolver?');">
<ellipse cx="301" cy="176" rx="80" ry="18" style="fill:#dca0dd;stroke:#dca0dd"/>
<text text-anchor="middle" x="301" y="180" style="font-family:arial">http://openurl.org/resolver?</text>
</a></g>
<g id="edge3" class="edge"><title>:_1-&gt;http://openurl.org/resolver?</title>
<a xlink:href="http://www2.elsevier.co.uk/~tony/1014/yads-schema-2002-04-03#resource" target="_blank" onmouseover="show_status('http://www2.elsevier.co.uk/~tony/1014/yads-schema-2002-04-03#resource');">
<path style="fill:none;stroke:#add9e6" d="M305,101C299,107 293,114 289,122 285,130 286,140 289,149"/>
<polygon style="fill:#add9e6;stroke:#add9e6" points="286,149 292,158 291,148 286,149"/>
<text text-anchor="middle" x="333" y="135" style="font-family:arial">has:resource</text>
</a></g>
<g id="node6" class="node"><title>:_2</title>
<a xlink:href="http://www.w3.org/1999/02/22-rdf-syntax-ns#Bag" target="_blank" onmouseover="show_status('http://www.w3.org/1999/02/22-rdf-syntax-ns#Bag');">
<ellipse cx="427" cy="176" rx="28" ry="18" style="fill:#d2d2d2;stroke:#d2d2d2"/>
<text text-anchor="middle" x="427" y="180" style="font-family:arial">rdf:Bag</text>
</a></g>
<g id="edge5" class="edge"><title>:_1-&gt;:_2</title>
<a xlink:href="http://www2.elsevier.co.uk/~tony/1014/yads-schema-2002-04-03#collection" target="_blank" onmouseover="show_status('http://www2.elsevier.co.uk/~tony/1014/yads-schema-2002-04-03#collection');">
<path style="fill:none;stroke:#add9e6" d="M343,101C350,108 359,115 366,122 373,130 374,133 382,140 388,146 394,151 401,156"/>
<polygon style="fill:#add9e6;stroke:#add9e6" points="399,157 408,162 402,154 399,157"/>
<text text-anchor="middle" x="423" y="135" style="font-family:arial">has:collection</text>
</a></g>
<g id="node8" class="node"><title>:_3</title>
<ellipse cx="378" cy="281" rx="27" ry="18" style="fill:#eedb82;stroke:#eedb82"/>
<text text-anchor="middle" x="378" y="285" style="font-family:arial">ref_id</text>
</g>
<g id="edge7" class="edge"><title>:_2-&gt;:_3</title>
<a xlink:href="http://www.w3.org/1999/02/22-rdf-syntax-ns#_1" target="_blank" onmouseover="show_status('http://www.w3.org/1999/02/22-rdf-syntax-ns#_1');">
<path style="fill:none;stroke:#add9e6" d="M419,193C411,210 399,236 390,256"/>
<polygon style="fill:#add9e6;stroke:#add9e6" points="388,254 386,264 393,256 388,254"/>
<text text-anchor="middle" x="429" y="225" style="font-family:arial">rdf:_1</text>
</a></g>
<g id="node11" class="node"><title>doi:10.1045/july99-caplan</title>
<a xlink:href="http://dx.doi.org/10.1045/july99-caplan" target="_blank" onmouseover="show_status('http://dx.doi.org/10.1045/july99-caplan');">
<ellipse cx="374" cy="371" rx="73" ry="18" style="fill:#dca0dd;stroke:#dca0dd"/>
<text text-anchor="middle" x="374" y="375" style="font-family:arial">doi:10.1045/july99-caplan</text>
</a></g>
<g id="edge10" class="edge"><title>:_3-&gt;doi:10.1045/july99-caplan</title>
<a xlink:href="http://www2.elsevier.co.uk/~tony/1014/yads-schema-2002-04-03#resource" target="_blank" onmouseover="show_status('http://www2.elsevier.co.uk/~tony/1014/yads-schema-2002-04-03#resource');">
<path style="fill:none;stroke:#add9e6" d="M375,299C375,305 374,311 374,317 373,326 373,335 373,343"/>
<polygon style="fill:#add9e6;stroke:#add9e6" points="371,343 373,353 376,343 371,343"/>
<text text-anchor="middle" x="415" y="330" style="font-family:arial">has:resource</text>
</a></g>
</g>
</svg>
