<?xml version="1.0" encoding="UTF-8" standalone="no"?>
<!DOCTYPE svg PUBLIC "-//W3C//DTD SVG 1.0//EN"
 "http://www.w3.org/TR/2001/REC-SVG-20010904/DTD/svg10.dtd" [
 <!ATTLIST svg xmlns:xlink CDATA #FIXED "http://www.w3.org/1999/xlink">
]>
<!-- Generated by dot version 1.8.5 (Tue Apr 23 17:19:23  2002)
     For user: (Administrator) ,S-1-5-21-1454471165-688789844-1708537768-500   Title: yads    Pages: 1 -->
<svg width="556px" height="448px"
 xmlns="http://www.w3.org/2000/svg" xmlns:xlink="http://www.w3.org/1999/xlink">
<g id="graph0" class="graph" style="font-family:Times-Roman;font-size:11.00">
<title>yads</title>
<text text-anchor="middle" x="278" y="437" style="font-family:arial;font-size:24.00">YADS - A Description Service</text>
<g id="graph2" class="cluster"><title>cluster_1</title>
<polygon style="fill:none;stroke:#d2d2d2;stroke-dasharray:5,2" points="19,405 537,405 537,43 19,43 19,405"/>
<text text-anchor="middle" x="122" y="55" style="font-family:arial">Nest - OpenURL Resolver + Query</text>
</g>
<g id="graph3" class="cluster"><title>cluster_3</title>
<polygon style="fill:none;stroke:#d2d2d2;stroke-dasharray:5,2" points="27,397 189,397 189,238 27,238 27,397"/>
<text text-anchor="middle" x="74" y="250" style="font-family:arial">Item - Referent</text>
</g>
<g id="graph4" class="cluster"><title>cluster_4</title>
<polygon style="fill:none;stroke:#d2d2d2;stroke-dasharray:5,2" points="197,397 313,397 313,238 197,238 197,397"/>
<text text-anchor="middle" x="241" y="250" style="font-family:arial">Item - Referer</text>
</g>
<g id="graph5" class="cluster"><title>cluster_5</title>
<polygon style="fill:none;stroke:#d2d2d2;stroke-dasharray:5,2" points="321,397 529,397 529,238 321,238 321,397"/>
<text text-anchor="middle" x="385" y="250" style="font-family:arial">Item - Referring-Entity</text>
</g>
<g id="node2" class="node"><title>:_1</title>
<ellipse cx="163" cy="86" rx="35" ry="18" style="fill:#eedb82;stroke:#eedb82"/>
<text text-anchor="middle" x="163" y="90" style="font-family:arial">OpenURL</text>
</g>
<g id="node4" class="node"><title>http://openurl.org/resolver?</title>
<a xlink:href="http://openurl.org/resolver?" target="_blank" onmouseover="show_status('http://openurl.org/resolver?');">
<ellipse cx="107" cy="176" rx="80" ry="18" style="fill:#dca0dd;stroke:#dca0dd"/>
<text text-anchor="middle" x="107" y="180" style="font-family:arial">http://openurl.org/resolver?</text>
</a></g>
<g id="edge3" class="edge"><title>:_1-&gt;http://openurl.org/resolver?</title>
<a xlink:href="http://www2.elsevier.co.uk/~tony/1014/yads-schema-2002-04-03#resource" target="_blank" onmouseover="show_status('http://www2.elsevier.co.uk/~tony/1014/yads-schema-2002-04-03#resource');">
<path style="fill:none;stroke:#add9e6" d="M152,103C144,117 132,135 123,150"/>
<polygon style="fill:#add9e6;stroke:#add9e6" points="121,148 118,158 125,151 121,148"/>
<text text-anchor="middle" x="182" y="135" style="font-family:arial">has:resource</text>
</a></g>
<g id="node6" class="node"><title>:_2</title>
<a xlink:href="http://www.w3.org/1999/02/22-rdf-syntax-ns#Bag" target="_blank" onmouseover="show_status('http://www.w3.org/1999/02/22-rdf-syntax-ns#Bag');">
<ellipse cx="233" cy="176" rx="28" ry="18" style="fill:#d2d2d2;stroke:#d2d2d2"/>
<text text-anchor="middle" x="233" y="180" style="font-family:arial">rdf:Bag</text>
</a></g>
<g id="edge5" class="edge"><title>:_1-&gt;:_2</title>
<a xlink:href="http://www2.elsevier.co.uk/~tony/1014/yads-schema-2002-04-03#collection" target="_blank" onmouseover="show_status('http://www2.elsevier.co.uk/~tony/1014/yads-schema-2002-04-03#collection');">
<path style="fill:none;stroke:#add9e6" d="M192,96C205,102 218,110 226,122 231,130 234,140 235,149"/>
<polygon style="fill:#add9e6;stroke:#add9e6" points="233,148 235,158 238,148 233,148"/>
<text text-anchor="middle" x="276" y="135" style="font-family:arial">has:collection</text>
</a></g>
<g id="node8" class="node"><title>:_3</title>
<ellipse cx="127" cy="281" rx="27" ry="18" style="fill:#eedb82;stroke:#eedb82"/>
<text text-anchor="middle" x="127" y="285" style="font-family:arial">ref_id</text>
</g>
<g id="edge7" class="edge"><title>:_2-&gt;:_3</title>
<a xlink:href="http://www.w3.org/1999/02/22-rdf-syntax-ns#_1" target="_blank" onmouseover="show_status('http://www.w3.org/1999/02/22-rdf-syntax-ns#_1');">
<path style="fill:none;stroke:#add9e6" d="M215,190C207,196 197,204 189,212 174,227 158,245 146,259"/>
<polygon style="fill:#add9e6;stroke:#add9e6" points="145,256 140,265 149,260 145,256"/>
<text text-anchor="middle" x="214" y="225" style="font-family:arial">rdf:_1</text>
</a></g>
<g id="node10" class="node"><title>:_4</title>
<ellipse cx="232" cy="281" rx="27" ry="18" style="fill:#eedb82;stroke:#eedb82"/>
<text text-anchor="middle" x="232" y="285" style="font-family:arial">rfr_id</text>
</g>
<g id="edge9" class="edge"><title>:_2-&gt;:_4</title>
<a xlink:href="http://www.w3.org/1999/02/22-rdf-syntax-ns#_2" target="_blank" onmouseover="show_status('http://www.w3.org/1999/02/22-rdf-syntax-ns#_2');">
<path style="fill:none;stroke:#add9e6" d="M233,194C233,210 233,235 232,254"/>
<polygon style="fill:#add9e6;stroke:#add9e6" points="230,253 232,263 235,253 230,253"/>
<text text-anchor="middle" x="254" y="225" style="font-family:arial">rdf:_2</text>
</a></g>
<g id="node12" class="node"><title>:_5</title>
<ellipse cx="390" cy="281" rx="27" ry="18" style="fill:#eedb82;stroke:#eedb82"/>
<text text-anchor="middle" x="390" y="285" style="font-family:arial">rfe_id</text>
</g>
<g id="edge11" class="edge"><title>:_2-&gt;:_5</title>
<a xlink:href="http://www.w3.org/1999/02/22-rdf-syntax-ns#_3" target="_blank" onmouseover="show_status('http://www.w3.org/1999/02/22-rdf-syntax-ns#_3');">
<path style="fill:none;stroke:#add9e6" d="M253,189C281,208 333,243 365,264"/>
<polygon style="fill:#add9e6;stroke:#add9e6" points="361,265 371,268 364,260 361,265"/>
<text text-anchor="middle" x="334" y="225" style="font-family:arial">rdf:_3</text>
</a></g>
<g id="node15" class="node"><title>doi:10.1045/july99-caplan</title>
<a xlink:href="http://dx.doi.org/10.1045/july99-caplan" target="_blank" onmouseover="show_status('http://dx.doi.org/10.1045/july99-caplan');">
<ellipse cx="108" cy="371" rx="73" ry="18" style="fill:#dca0dd;stroke:#dca0dd"/>
<text text-anchor="middle" x="108" y="375" style="font-family:arial">doi:10.1045/july99-caplan</text>
</a></g>
<g id="edge14" class="edge"><title>:_3-&gt;doi:10.1045/july99-caplan</title>
<a xlink:href="http://www2.elsevier.co.uk/~tony/1014/yads-schema-2002-04-03#resource" target="_blank" onmouseover="show_status('http://www2.elsevier.co.uk/~tony/1014/yads-schema-2002-04-03#resource');">
<path style="fill:none;stroke:#add9e6" d="M119,298C117,304 114,311 112,317 110,326 109,335 108,344"/>
<polygon style="fill:#add9e6;stroke:#add9e6" points="106,343 108,353 111,343 106,343"/>
<text text-anchor="middle" x="156" y="330" style="font-family:arial">has:resource</text>
</a></g>
<g id="node18" class="node"><title>data:,dns:dlib.org</title>
<a xlink:href="" onclick="show_data('dns:dlib.org');" onmouseover="show_status('data:,dns:dlib.org');">
<ellipse cx="255" cy="371" rx="50" ry="18" style="fill:#dca0dd;stroke:#dca0dd"/>
<text text-anchor="middle" x="255" y="375" style="font-family:arial">data:,dns:dlib.org</text>
</a></g>
<g id="edge17" class="edge"><title>:_4-&gt;data:,dns:dlib.org</title>
<a xlink:href="http://www2.elsevier.co.uk/~tony/1014/yads-schema-2002-04-03#resource" target="_blank" onmouseover="show_status('http://www2.elsevier.co.uk/~tony/1014/yads-schema-2002-04-03#resource');">
<path style="fill:none;stroke:#add9e6" d="M232,299C232,310 233,323 236,335 237,338 238,341 240,344"/>
<polygon style="fill:#add9e6;stroke:#add9e6" points="238,345 244,353 242,343 238,345"/>
<text text-anchor="middle" x="277" y="330" style="font-family:arial">has:resource</text>
</a></g>
<g id="node21" class="node"><title>doi:10.1045/march2001-vandeso...l</title>
<a xlink:href="http://dx.doi.org/10.1045/march2001-vandesompel" target="_blank" onmouseover="show_status('http://dx.doi.org/10.1045/march2001-vandesompel');">
<ellipse cx="425" cy="371" rx="96" ry="18" style="fill:#dca0dd;stroke:#dca0dd"/>
<text text-anchor="middle" x="425" y="375" style="font-family:arial">doi:10.1045/march2001-vandeso...l</text>
</a></g>
<g id="edge20" class="edge"><title>:_5-&gt;doi:10.1045/march2001-vandeso...l</title>
<a xlink:href="http://www2.elsevier.co.uk/~tony/1014/yads-schema-2002-04-03#resource" target="_blank" onmouseover="show_status('http://www2.elsevier.co.uk/~tony/1014/yads-schema-2002-04-03#resource');">
<path style="fill:none;stroke:#add9e6" d="M397,299C402,312 409,330 415,344"/>
<polygon style="fill:#add9e6;stroke:#add9e6" points="412,344 418,353 417,343 412,344"/>
<text text-anchor="middle" x="450" y="330" style="font-family:arial">has:resource</text>
</a></g>
</g>
</svg>
