<?xml version="1.0" encoding="UTF-8" standalone="no"?>
<!DOCTYPE svg PUBLIC "-//W3C//DTD SVG 1.0//EN"
 "http://www.w3.org/TR/2001/REC-SVG-20010904/DTD/svg10.dtd" [
 <!ATTLIST svg xmlns:xlink CDATA #FIXED "http://www.w3.org/1999/xlink">
]>
<!-- Generated by dot version 1.8.5 (Tue Apr 23 17:19:23  2002)
     For user: (Administrator) ,S-1-5-21-1454471165-688789844-1708537768-500   Title: yads    Pages: 1 -->
<svg width="919px" height="448px"
 xmlns="http://www.w3.org/2000/svg" xmlns:xlink="http://www.w3.org/1999/xlink">
<g id="graph0" class="graph" style="font-family:Times-Roman;font-size:11.00">
<title>yads</title>
<text text-anchor="middle" x="459" y="437" style="font-family:arial;font-size:24.00">YADS - A Description Service</text>
<g id="graph2" class="cluster"><title>cluster_1</title>
<polygon style="fill:none;stroke:#d2d2d2;stroke-dasharray:5,2" points="19,405 900,405 900,43 19,43 19,405"/>
<text text-anchor="middle" x="122" y="55" style="font-family:arial">Nest - OpenURL Resolver + Query</text>
</g>
<g id="graph3" class="cluster"><title>cluster_3</title>
<polygon style="fill:none;stroke:#d2d2d2;stroke-dasharray:5,2" points="27,397 124,397 124,238 27,238 27,397"/>
<text text-anchor="middle" x="74" y="250" style="font-family:arial">Item - Referent</text>
</g>
<g id="graph4" class="cluster"><title>cluster_4</title>
<polygon style="fill:none;stroke:#d2d2d2;stroke-dasharray:5,2" points="132,397 229,397 229,238 132,238 132,397"/>
<text text-anchor="middle" x="179" y="250" style="font-family:arial">Item - Referent</text>
</g>
<g id="graph5" class="cluster"><title>cluster_5</title>
<polygon style="fill:none;stroke:#d2d2d2;stroke-dasharray:5,2" points="237,397 334,397 334,238 237,238 237,397"/>
<text text-anchor="middle" x="284" y="250" style="font-family:arial">Item - Referent</text>
</g>
<g id="graph6" class="cluster"><title>cluster_6</title>
<polygon style="fill:none;stroke:#d2d2d2;stroke-dasharray:5,2" points="342,397 454,397 454,238 342,238 342,397"/>
<text text-anchor="middle" x="389" y="250" style="font-family:arial">Item - Referent</text>
</g>
<g id="graph7" class="cluster"><title>cluster_7</title>
<polygon style="fill:none;stroke:#d2d2d2;stroke-dasharray:5,2" points="462,397 559,397 559,238 462,238 462,397"/>
<text text-anchor="middle" x="509" y="250" style="font-family:arial">Item - Referent</text>
</g>
<g id="graph8" class="cluster"><title>cluster_8</title>
<polygon style="fill:none;stroke:#d2d2d2;stroke-dasharray:5,2" points="567,397 664,397 664,238 567,238 567,397"/>
<text text-anchor="middle" x="614" y="250" style="font-family:arial">Item - Referent</text>
</g>
<g id="graph9" class="cluster"><title>cluster_9</title>
<polygon style="fill:none;stroke:#d2d2d2;stroke-dasharray:5,2" points="672,397 892,397 892,238 672,238 672,397"/>
<text text-anchor="middle" x="719" y="250" style="font-family:arial">Item - Referent</text>
</g>
<g id="node2" class="node"><title>:_1</title>
<ellipse cx="307" cy="86" rx="35" ry="18" style="fill:#eedb82;stroke:#eedb82"/>
<text text-anchor="middle" x="307" y="90" style="font-family:arial">OpenURL</text>
</g>
<g id="node4" class="node"><title>http://openurl.org/resolver?</title>
<a xlink:href="http://openurl.org/resolver?" target="_blank" onmouseover="show_status('http://openurl.org/resolver?');">
<ellipse cx="251" cy="176" rx="80" ry="18" style="fill:#dca0dd;stroke:#dca0dd"/>
<text text-anchor="middle" x="251" y="180" style="font-family:arial">http://openurl.org/resolver?</text>
</a></g>
<g id="edge3" class="edge"><title>:_1-&gt;http://openurl.org/resolver?</title>
<a xlink:href="http://www2.elsevier.co.uk/~tony/1014/yads-schema-2002-04-03#resource" target="_blank" onmouseover="show_status('http://www2.elsevier.co.uk/~tony/1014/yads-schema-2002-04-03#resource');">
<path style="fill:none;stroke:#add9e6" d="M296,103C288,117 276,135 267,150"/>
<polygon style="fill:#add9e6;stroke:#add9e6" points="265,148 262,158 269,151 265,148"/>
<text text-anchor="middle" x="326" y="135" style="font-family:arial">has:resource</text>
</a></g>
<g id="node6" class="node"><title>:_2</title>
<a xlink:href="http://www.w3.org/1999/02/22-rdf-syntax-ns#Bag" target="_blank" onmouseover="show_status('http://www.w3.org/1999/02/22-rdf-syntax-ns#Bag');">
<ellipse cx="377" cy="176" rx="28" ry="18" style="fill:#d2d2d2;stroke:#d2d2d2"/>
<text text-anchor="middle" x="377" y="180" style="font-family:arial">rdf:Bag</text>
</a></g>
<g id="edge5" class="edge"><title>:_1-&gt;:_2</title>
<a xlink:href="http://www2.elsevier.co.uk/~tony/1014/yads-schema-2002-04-03#collection" target="_blank" onmouseover="show_status('http://www2.elsevier.co.uk/~tony/1014/yads-schema-2002-04-03#collection');">
<path style="fill:none;stroke:#add9e6" d="M336,96C349,102 362,110 370,122 375,130 378,140 379,149"/>
<polygon style="fill:#add9e6;stroke:#add9e6" points="377,148 379,158 382,148 377,148"/>
<text text-anchor="middle" x="420" y="135" style="font-family:arial">has:collection</text>
</a></g>
<g id="node8" class="node"><title>:_3</title>
<ellipse cx="76" cy="281" rx="38" ry="18" style="fill:#eedb82;stroke:#eedb82"/>
<text text-anchor="middle" x="76" y="285" style="font-family:arial">ref_valfmt</text>
</g>
<g id="edge7" class="edge"><title>:_2-&gt;:_3</title>
<a xlink:href="http://www.w3.org/1999/02/22-rdf-syntax-ns#_1" target="_blank" onmouseover="show_status('http://www.w3.org/1999/02/22-rdf-syntax-ns#_1');">
<path style="fill:none;stroke:#add9e6" d="M351,182C347,187 346,191 339,194 284,221 263,198 203,212 169,221 159,221 128,238 118,243 108,251 100,259"/>
<polygon style="fill:#add9e6;stroke:#add9e6" points="99,257 93,265 102,260 99,257"/>
<text text-anchor="middle" x="235" y="225" style="font-family:arial">rdf:_1</text>
</a></g>
<g id="node10" class="node"><title>:_4</title>
<ellipse cx="181" cy="281" rx="27" ry="18" style="fill:#eedb82;stroke:#eedb82"/>
<text text-anchor="middle" x="181" y="285" style="font-family:arial">aulast</text>
</g>
<g id="edge9" class="edge"><title>:_2-&gt;:_4</title>
<a xlink:href="http://www.w3.org/1999/02/22-rdf-syntax-ns#_2" target="_blank" onmouseover="show_status('http://www.w3.org/1999/02/22-rdf-syntax-ns#_2');">
<path style="fill:none;stroke:#add9e6" d="M351,183C348,187 347,191 340,194 313,210 300,199 271,212 253,221 250,226 233,238 224,245 214,253 205,261"/>
<polygon style="fill:#add9e6;stroke:#add9e6" points="204,259 198,267 207,262 204,259"/>
<text text-anchor="middle" x="300" y="225" style="font-family:arial">rdf:_2</text>
</a></g>
<g id="node12" class="node"><title>:_5</title>
<ellipse cx="286" cy="281" rx="27" ry="18" style="fill:#eedb82;stroke:#eedb82"/>
<text text-anchor="middle" x="286" y="285" style="font-family:arial">aufirst</text>
</g>
<g id="edge11" class="edge"><title>:_2-&gt;:_5</title>
<a xlink:href="http://www.w3.org/1999/02/22-rdf-syntax-ns#_3" target="_blank" onmouseover="show_status('http://www.w3.org/1999/02/22-rdf-syntax-ns#_3');">
<path style="fill:none;stroke:#add9e6" d="M357,189C348,195 338,204 330,212 318,225 307,242 299,256"/>
<polygon style="fill:#add9e6;stroke:#add9e6" points="297,254 295,264 302,256 297,254"/>
<text text-anchor="middle" x="355" y="225" style="font-family:arial">rdf:_3</text>
</a></g>
<g id="node14" class="node"><title>:_6</title>
<ellipse cx="377" cy="281" rx="27" ry="18" style="fill:#eedb82;stroke:#eedb82"/>
<text text-anchor="middle" x="377" y="285" style="font-family:arial">issn</text>
</g>
<g id="edge13" class="edge"><title>:_2-&gt;:_6</title>
<a xlink:href="http://www.w3.org/1999/02/22-rdf-syntax-ns#_4" target="_blank" onmouseover="show_status('http://www.w3.org/1999/02/22-rdf-syntax-ns#_4');">
<path style="fill:none;stroke:#add9e6" d="M377,194C377,210 377,235 377,254"/>
<polygon style="fill:#add9e6;stroke:#add9e6" points="375,253 377,263 380,253 375,253"/>
<text text-anchor="middle" x="398" y="225" style="font-family:arial">rdf:_4</text>
</a></g>
<g id="node16" class="node"><title>:_7</title>
<ellipse cx="498" cy="281" rx="28" ry="18" style="fill:#eedb82;stroke:#eedb82"/>
<text text-anchor="middle" x="498" y="285" style="font-family:arial">volume</text>
</g>
<g id="edge15" class="edge"><title>:_2-&gt;:_7</title>
<a xlink:href="http://www.w3.org/1999/02/22-rdf-syntax-ns#_5" target="_blank" onmouseover="show_status('http://www.w3.org/1999/02/22-rdf-syntax-ns#_5');">
<path style="fill:none;stroke:#add9e6" d="M396,189C413,201 438,220 458,238 465,245 472,252 478,258"/>
<polygon style="fill:#add9e6;stroke:#add9e6" points="476,259 484,265 479,256 476,259"/>
<text text-anchor="middle" x="470" y="225" style="font-family:arial">rdf:_5</text>
</a></g>
<g id="node18" class="node"><title>:_8</title>
<ellipse cx="602" cy="281" rx="27" ry="18" style="fill:#eedb82;stroke:#eedb82"/>
<text text-anchor="middle" x="602" y="285" style="font-family:arial">issue</text>
</g>
<g id="edge17" class="edge"><title>:_2-&gt;:_8</title>
<a xlink:href="http://www.w3.org/1999/02/22-rdf-syntax-ns#_6" target="_blank" onmouseover="show_status('http://www.w3.org/1999/02/22-rdf-syntax-ns#_6');">
<path style="fill:none;stroke:#add9e6" d="M404,180C476,195 501,196 563,238 571,243 578,251 584,258"/>
<polygon style="fill:#add9e6;stroke:#add9e6" points="582,259 590,265 585,256 582,259"/>
<text text-anchor="middle" x="572" y="225" style="font-family:arial">rdf:_6</text>
</a></g>
<g id="node20" class="node"><title>:_9</title>
<ellipse cx="744" cy="281" rx="27" ry="18" style="fill:#eedb82;stroke:#eedb82"/>
<text text-anchor="middle" x="744" y="285" style="font-family:arial">atitle</text>
</g>
<g id="edge19" class="edge"><title>:_2-&gt;:_9</title>
<a xlink:href="http://www.w3.org/1999/02/22-rdf-syntax-ns#_7" target="_blank" onmouseover="show_status('http://www.w3.org/1999/02/22-rdf-syntax-ns#_7');">
<path style="fill:none;stroke:#add9e6" d="M405,178C406,178 407,178 408,178 526,193 561,188 668,238 685,246 702,256 717,265"/>
<polygon style="fill:#add9e6;stroke:#add9e6" points="714,266 724,269 717,262 714,266"/>
<text text-anchor="middle" x="670" y="225" style="font-family:arial">rdf:_7</text>
</a></g>
<g id="node23" class="node"><title>data:,article</title>
<a xlink:href="" onclick="show_data('article');" onmouseover="show_status('data:,article');">
<ellipse cx="73" cy="371" rx="38" ry="18" style="fill:#dca0dd;stroke:#dca0dd"/>
<text text-anchor="middle" x="73" y="375" style="font-family:arial">data:,article</text>
</a></g>
<g id="edge22" class="edge"><title>:_3-&gt;data:,article</title>
<a xlink:href="http://www2.elsevier.co.uk/~tony/1014/yads-schema-2002-04-03#resource" target="_blank" onmouseover="show_status('http://www2.elsevier.co.uk/~tony/1014/yads-schema-2002-04-03#resource');">
<path style="fill:none;stroke:#add9e6" d="M59,297C54,303 50,310 47,317 44,327 47,337 52,346"/>
<polygon style="fill:#add9e6;stroke:#add9e6" points="50,347 57,354 54,344 50,347"/>
<text text-anchor="middle" x="91" y="330" style="font-family:arial">has:resource</text>
</a></g>
<g id="node26" class="node"><title>data:,caplan</title>
<a xlink:href="" onclick="show_data('caplan');" onmouseover="show_status('data:,caplan');">
<ellipse cx="180" cy="371" rx="40" ry="18" style="fill:#dca0dd;stroke:#dca0dd"/>
<text text-anchor="middle" x="180" y="375" style="font-family:arial">data:,caplan</text>
</a></g>
<g id="edge25" class="edge"><title>:_4-&gt;data:,caplan</title>
<a xlink:href="http://www2.elsevier.co.uk/~tony/1014/yads-schema-2002-04-03#resource" target="_blank" onmouseover="show_status('http://www2.elsevier.co.uk/~tony/1014/yads-schema-2002-04-03#resource');">
<path style="fill:none;stroke:#add9e6" d="M165,296C160,302 155,309 152,317 150,325 150,328 152,335 154,339 156,343 158,346"/>
<polygon style="fill:#add9e6;stroke:#add9e6" points="156,347 163,354 160,344 156,347"/>
<text text-anchor="middle" x="196" y="330" style="font-family:arial">has:resource</text>
</a></g>
<g id="node29" class="node"><title>data:,priscilla</title>
<a xlink:href="" onclick="show_data('priscilla');" onmouseover="show_status('data:,priscilla');">
<ellipse cx="285" cy="371" rx="40" ry="18" style="fill:#dca0dd;stroke:#dca0dd"/>
<text text-anchor="middle" x="285" y="375" style="font-family:arial">data:,priscilla</text>
</a></g>
<g id="edge28" class="edge"><title>:_5-&gt;data:,priscilla</title>
<a xlink:href="http://www2.elsevier.co.uk/~tony/1014/yads-schema-2002-04-03#resource" target="_blank" onmouseover="show_status('http://www2.elsevier.co.uk/~tony/1014/yads-schema-2002-04-03#resource');">
<path style="fill:none;stroke:#add9e6" d="M270,296C265,302 260,309 257,317 255,325 255,328 257,335 259,339 261,343 263,346"/>
<polygon style="fill:#add9e6;stroke:#add9e6" points="261,347 268,354 265,344 261,347"/>
<text text-anchor="middle" x="301" y="330" style="font-family:arial">has:resource</text>
</a></g>
<g id="node32" class="node"><title>data:,10829873</title>
<a xlink:href="" onclick="show_data('10829873');" onmouseover="show_status('data:,10829873');">
<ellipse cx="398" cy="371" rx="48" ry="18" style="fill:#dca0dd;stroke:#dca0dd"/>
<text text-anchor="middle" x="398" y="375" style="font-family:arial">data:,10829873</text>
</a></g>
<g id="edge31" class="edge"><title>:_6-&gt;data:,10829873</title>
<a xlink:href="http://www2.elsevier.co.uk/~tony/1014/yads-schema-2002-04-03#resource" target="_blank" onmouseover="show_status('http://www2.elsevier.co.uk/~tony/1014/yads-schema-2002-04-03#resource');">
<path style="fill:none;stroke:#add9e6" d="M375,299C374,310 374,323 377,335 378,338 379,341 381,345"/>
<polygon style="fill:#add9e6;stroke:#add9e6" points="379,346 385,354 383,344 379,346"/>
<text text-anchor="middle" x="418" y="330" style="font-family:arial">has:resource</text>
</a></g>
<g id="node35" class="node"><title>data:,5</title>
<a xlink:href="" onclick="show_data('5');" onmouseover="show_status('data:,5');">
<ellipse cx="497" cy="371" rx="27" ry="18" style="fill:#dca0dd;stroke:#dca0dd"/>
<text text-anchor="middle" x="497" y="375" style="font-family:arial">data:,5</text>
</a></g>
<g id="edge34" class="edge"><title>:_7-&gt;data:,5</title>
<a xlink:href="http://www2.elsevier.co.uk/~tony/1014/yads-schema-2002-04-03#resource" target="_blank" onmouseover="show_status('http://www2.elsevier.co.uk/~tony/1014/yads-schema-2002-04-03#resource');">
<path style="fill:none;stroke:#add9e6" d="M489,298C486,304 483,311 482,317 481,325 481,328 482,335 483,338 484,341 485,345"/>
<polygon style="fill:#add9e6;stroke:#add9e6" points="483,346 489,354 487,344 483,346"/>
<text text-anchor="middle" x="526" y="330" style="font-family:arial">has:resource</text>
</a></g>
<g id="node38" class="node"><title>data:,7</title>
<a xlink:href="" onclick="show_data('7');" onmouseover="show_status('data:,7');">
<ellipse cx="602" cy="371" rx="27" ry="18" style="fill:#dca0dd;stroke:#dca0dd"/>
<text text-anchor="middle" x="602" y="375" style="font-family:arial">data:,7</text>
</a></g>
<g id="edge37" class="edge"><title>:_8-&gt;data:,7</title>
<a xlink:href="http://www2.elsevier.co.uk/~tony/1014/yads-schema-2002-04-03#resource" target="_blank" onmouseover="show_status('http://www2.elsevier.co.uk/~tony/1014/yads-schema-2002-04-03#resource');">
<path style="fill:none;stroke:#add9e6" d="M594,298C591,304 589,311 587,317 586,325 586,328 587,335 588,338 589,341 590,345"/>
<polygon style="fill:#add9e6;stroke:#add9e6" points="588,346 594,354 592,344 588,346"/>
<text text-anchor="middle" x="631" y="330" style="font-family:arial">has:resource</text>
</a></g>
<g id="node41" class="node"><title>data:,Reference%20Linking%20f...s</title>
<a xlink:href="" onclick="show_data('Reference%20Linking%20for%20Journal%20Articles');" onmouseover="show_status('data:,Reference%20Linking%20for%20Journal%20Articles');">
<ellipse cx="782" cy="371" rx="102" ry="18" style="fill:#dca0dd;stroke:#dca0dd"/>
<text text-anchor="middle" x="782" y="375" style="font-family:arial">data:,Reference%20Linking%20f...s</text>
</a></g>
<g id="edge40" class="edge"><title>:_9-&gt;data:,Reference%20Linking%20f...s</title>
<a xlink:href="http://www2.elsevier.co.uk/~tony/1014/yads-schema-2002-04-03#resource" target="_blank" onmouseover="show_status('http://www2.elsevier.co.uk/~tony/1014/yads-schema-2002-04-03#resource');">
<path style="fill:none;stroke:#add9e6" d="M751,298C757,311 764,329 770,344"/>
<polygon style="fill:#add9e6;stroke:#add9e6" points="768,345 774,353 772,343 768,345"/>
<text text-anchor="middle" x="806" y="330" style="font-family:arial">has:resource</text>
</a></g>
</g>
</svg>
