<?xml version="1.0" encoding="UTF-8" standalone="no"?>
<!DOCTYPE svg PUBLIC "-//W3C//DTD SVG 1.0//EN"
 "http://www.w3.org/TR/2001/REC-SVG-20010904/DTD/svg10.dtd" [
 <!ATTLIST svg xmlns:xlink CDATA #FIXED "http://www.w3.org/1999/xlink">
]>
<!-- Generated by dot version 1.8.5 (Tue Apr 23 17:19:23  2002)
     For user: (Administrator) ,S-1-5-21-1454471165-688789844-1708537768-500   Title: yads    Pages: 1 -->
<svg width="1138px" height="448px"
 xmlns="http://www.w3.org/2000/svg" xmlns:xlink="http://www.w3.org/1999/xlink">
<g id="graph0" class="graph" style="font-family:Times-Roman;font-size:11.00">
<title>yads</title>
<text text-anchor="middle" x="569" y="437" style="font-family:arial;font-size:24.00">YADS - A Description Service</text>
<g id="graph2" class="cluster"><title>cluster_1</title>
<polygon style="fill:none;stroke:#d2d2d2;stroke-dasharray:5,2" points="19,405 1119,405 1119,43 19,43 19,405"/>
<text text-anchor="middle" x="122" y="55" style="font-family:arial">Nest - OpenURL Resolver + Query</text>
</g>
<g id="graph3" class="cluster"><title>cluster_3</title>
<polygon style="fill:none;stroke:#d2d2d2;stroke-dasharray:5,2" points="27,397 171,397 171,238 27,238 27,397"/>
<text text-anchor="middle" x="74" y="250" style="font-family:arial">Item - Referent</text>
</g>
<g id="graph4" class="cluster"><title>cluster_4</title>
<polygon style="fill:none;stroke:#d2d2d2;stroke-dasharray:5,2" points="179,397 377,397 377,238 179,238 179,397"/>
<text text-anchor="middle" x="230" y="250" style="font-family:arial">Item - Requester</text>
</g>
<g id="graph5" class="cluster"><title>cluster_5</title>
<polygon style="fill:none;stroke:#d2d2d2;stroke-dasharray:5,2" points="385,397 537,397 537,238 385,238 385,397"/>
<text text-anchor="middle" x="429" y="250" style="font-family:arial">Item - Referer</text>
</g>
<g id="graph6" class="cluster"><title>cluster_6</title>
<polygon style="fill:none;stroke:#d2d2d2;stroke-dasharray:5,2" points="545,397 773,397 773,238 545,238 545,397"/>
<text text-anchor="middle" x="615" y="250" style="font-family:arial">Item - Refererring-Entity</text>
</g>
<g id="graph7" class="cluster"><title>cluster_7</title>
<polygon style="fill:none;stroke:#d2d2d2;stroke-dasharray:5,2" points="781,397 921,397 921,238 781,238 781,397"/>
<text text-anchor="middle" x="841" y="250" style="font-family:arial">Item - Service-Type</text>
</g>
<g id="graph8" class="cluster"><title>cluster_8</title>
<polygon style="fill:none;stroke:#d2d2d2;stroke-dasharray:5,2" points="929,397 1111,397 1111,238 929,238 929,397"/>
<text text-anchor="middle" x="969" y="250" style="font-family:arial">Item - Admin</text>
</g>
<g id="node2" class="node"><title>:_1</title>
<ellipse cx="456" cy="86" rx="35" ry="18" style="fill:#eedb82;stroke:#eedb82"/>
<text text-anchor="middle" x="456" y="90" style="font-family:arial">OpenURL</text>
</g>
<g id="node4" class="node"><title>http://openurl.org/resolver?</title>
<a xlink:href="http://openurl.org/resolver?" target="_blank" onmouseover="show_status('http://openurl.org/resolver?');">
<ellipse cx="400" cy="176" rx="80" ry="18" style="fill:#dca0dd;stroke:#dca0dd"/>
<text text-anchor="middle" x="400" y="180" style="font-family:arial">http://openurl.org/resolver?</text>
</a></g>
<g id="edge3" class="edge"><title>:_1-&gt;http://openurl.org/resolver?</title>
<a xlink:href="http://www2.elsevier.co.uk/~tony/1014/yads-schema-2002-04-03#resource" target="_blank" onmouseover="show_status('http://www2.elsevier.co.uk/~tony/1014/yads-schema-2002-04-03#resource');">
<path style="fill:none;stroke:#add9e6" d="M445,103C437,117 425,135 416,150"/>
<polygon style="fill:#add9e6;stroke:#add9e6" points="414,148 411,158 418,151 414,148"/>
<text text-anchor="middle" x="475" y="135" style="font-family:arial">has:resource</text>
</a></g>
<g id="node6" class="node"><title>:_2</title>
<a xlink:href="http://www.w3.org/1999/02/22-rdf-syntax-ns#Bag" target="_blank" onmouseover="show_status('http://www.w3.org/1999/02/22-rdf-syntax-ns#Bag');">
<ellipse cx="526" cy="176" rx="28" ry="18" style="fill:#d2d2d2;stroke:#d2d2d2"/>
<text text-anchor="middle" x="526" y="180" style="font-family:arial">rdf:Bag</text>
</a></g>
<g id="edge5" class="edge"><title>:_1-&gt;:_2</title>
<a xlink:href="http://www2.elsevier.co.uk/~tony/1014/yads-schema-2002-04-03#collection" target="_blank" onmouseover="show_status('http://www2.elsevier.co.uk/~tony/1014/yads-schema-2002-04-03#collection');">
<path style="fill:none;stroke:#add9e6" d="M485,96C498,102 511,110 519,122 524,130 527,140 528,149"/>
<polygon style="fill:#add9e6;stroke:#add9e6" points="526,148 528,158 531,148 526,148"/>
<text text-anchor="middle" x="569" y="135" style="font-family:arial">has:collection</text>
</a></g>
<g id="node8" class="node"><title>:_3</title>
<ellipse cx="109" cy="281" rx="27" ry="18" style="fill:#eedb82;stroke:#eedb82"/>
<text text-anchor="middle" x="109" y="285" style="font-family:arial">ref_id</text>
</g>
<g id="edge7" class="edge"><title>:_2-&gt;:_3</title>
<a xlink:href="http://www.w3.org/1999/02/22-rdf-syntax-ns#_1" target="_blank" onmouseover="show_status('http://www.w3.org/1999/02/22-rdf-syntax-ns#_1');">
<path style="fill:none;stroke:#add9e6" d="M500,182C496,187 495,191 488,194 475,201 374,210 359,212 278,224 253,209 175,238 160,244 145,253 133,262"/>
<polygon style="fill:#add9e6;stroke:#add9e6" points="133,259 126,267 136,263 133,259"/>
<text text-anchor="middle" x="401" y="225" style="font-family:arial">rdf:_1</text>
</a></g>
<g id="node10" class="node"><title>:_4</title>
<ellipse cx="310" cy="281" rx="27" ry="18" style="fill:#eedb82;stroke:#eedb82"/>
<text text-anchor="middle" x="310" y="285" style="font-family:arial">req_id</text>
</g>
<g id="edge9" class="edge"><title>:_2-&gt;:_4</title>
<a xlink:href="http://www.w3.org/1999/02/22-rdf-syntax-ns#_2" target="_blank" onmouseover="show_status('http://www.w3.org/1999/02/22-rdf-syntax-ns#_2');">
<path style="fill:none;stroke:#add9e6" d="M503,186C499,189 496,191 489,194 443,217 428,215 381,238 366,246 350,255 337,263"/>
<polygon style="fill:#add9e6;stroke:#add9e6" points="336,261 329,268 339,265 336,261"/>
<text text-anchor="middle" x="473" y="225" style="font-family:arial">rdf:_2</text>
</a></g>
<g id="node12" class="node"><title>:_5</title>
<ellipse cx="475" cy="281" rx="27" ry="18" style="fill:#eedb82;stroke:#eedb82"/>
<text text-anchor="middle" x="475" y="285" style="font-family:arial">rfr_id</text>
</g>
<g id="edge11" class="edge"><title>:_2-&gt;:_5</title>
<a xlink:href="http://www.w3.org/1999/02/22-rdf-syntax-ns#_3" target="_blank" onmouseover="show_status('http://www.w3.org/1999/02/22-rdf-syntax-ns#_3');">
<path style="fill:none;stroke:#add9e6" d="M518,193C509,210 497,236 487,256"/>
<polygon style="fill:#add9e6;stroke:#add9e6" points="485,254 483,264 490,256 485,254"/>
<text text-anchor="middle" x="530" y="225" style="font-family:arial">rdf:_3</text>
</a></g>
<g id="node14" class="node"><title>:_6</title>
<ellipse cx="619" cy="281" rx="27" ry="18" style="fill:#eedb82;stroke:#eedb82"/>
<text text-anchor="middle" x="619" y="285" style="font-family:arial">rfe_id</text>
</g>
<g id="edge13" class="edge"><title>:_2-&gt;:_6</title>
<a xlink:href="http://www.w3.org/1999/02/22-rdf-syntax-ns#_4" target="_blank" onmouseover="show_status('http://www.w3.org/1999/02/22-rdf-syntax-ns#_4');">
<path style="fill:none;stroke:#add9e6" d="M540,192C556,210 581,238 599,258"/>
<polygon style="fill:#add9e6;stroke:#add9e6" points="597,259 605,265 600,256 597,259"/>
<text text-anchor="middle" x="595" y="225" style="font-family:arial">rdf:_4</text>
</a></g>
<g id="node16" class="node"><title>:_7</title>
<ellipse cx="824" cy="281" rx="27" ry="18" style="fill:#eedb82;stroke:#eedb82"/>
<text text-anchor="middle" x="824" y="285" style="font-family:arial">srv_id</text>
</g>
<g id="edge15" class="edge"><title>:_2-&gt;:_7</title>
<a xlink:href="http://www.w3.org/1999/02/22-rdf-syntax-ns#_5" target="_blank" onmouseover="show_status('http://www.w3.org/1999/02/22-rdf-syntax-ns#_5');">
<path style="fill:none;stroke:#add9e6" d="M554,178C602,183 703,198 777,238 787,243 796,251 804,258"/>
<polygon style="fill:#add9e6;stroke:#add9e6" points="802,259 810,265 805,256 802,259"/>
<text text-anchor="middle" x="780" y="225" style="font-family:arial">rdf:_5</text>
</a></g>
<g id="node18" class="node"><title>:_8</title>
<ellipse cx="995" cy="281" rx="33" ry="18" style="fill:#eedb82;stroke:#eedb82"/>
<text text-anchor="middle" x="995" y="285" style="font-family:arial">adm_tim</text>
</g>
<g id="edge17" class="edge"><title>:_2-&gt;:_8</title>
<a xlink:href="http://www.w3.org/1999/02/22-rdf-syntax-ns#_6" target="_blank" onmouseover="show_status('http://www.w3.org/1999/02/22-rdf-syntax-ns#_6');">
<path style="fill:none;stroke:#add9e6" d="M554,177C563,177 571,178 575,178 733,193 779,180 925,238 940,244 955,253 967,262"/>
<polygon style="fill:#add9e6;stroke:#add9e6" points="965,264 975,267 968,260 965,264"/>
<text text-anchor="middle" x="923" y="225" style="font-family:arial">rdf:_6</text>
</a></g>
<g id="node21" class="node"><title>data:,isbn:1861004516</title>
<a xlink:href="" onclick="show_data('isbn:1861004516');" onmouseover="show_status('data:,isbn:1861004516');">
<ellipse cx="99" cy="371" rx="64" ry="18" style="fill:#dca0dd;stroke:#dca0dd"/>
<text text-anchor="middle" x="99" y="375" style="font-family:arial">data:,isbn:1861004516</text>
</a></g>
<g id="edge20" class="edge"><title>:_3-&gt;data:,isbn:1861004516</title>
<a xlink:href="http://www2.elsevier.co.uk/~tony/1014/yads-schema-2002-04-03#resource" target="_blank" onmouseover="show_status('http://www2.elsevier.co.uk/~tony/1014/yads-schema-2002-04-03#resource');">
<path style="fill:none;stroke:#add9e6" d="M101,298C98,304 96,311 94,317 93,326 93,335 94,344"/>
<polygon style="fill:#add9e6;stroke:#add9e6" points="91,343 95,353 96,343 91,343"/>
<text text-anchor="middle" x="138" y="330" style="font-family:arial">has:resource</text>
</a></g>
<g id="node24" class="node"><title>data:,local:104-0011434-46391...8</title>
<a xlink:href="" onclick="show_data('local:104-0011434-4639158');" onmouseover="show_status('data:,local:104-0011434-4639158');">
<ellipse cx="278" cy="371" rx="91" ry="18" style="fill:#dca0dd;stroke:#dca0dd"/>
<text text-anchor="middle" x="278" y="375" style="font-family:arial">data:,local:104-0011434-46391...8</text>
</a></g>
<g id="edge23" class="edge"><title>:_4-&gt;data:,local:104-0011434-46391...8</title>
<a xlink:href="http://www2.elsevier.co.uk/~tony/1014/yads-schema-2002-04-03#resource" target="_blank" onmouseover="show_status('http://www2.elsevier.co.uk/~tony/1014/yads-schema-2002-04-03#resource');">
<path style="fill:none;stroke:#add9e6" d="M304,299C299,312 293,330 287,344"/>
<polygon style="fill:#add9e6;stroke:#add9e6" points="285,343 284,353 290,344 285,343"/>
<text text-anchor="middle" x="339" y="330" style="font-family:arial">has:resource</text>
</a></g>
<g id="node27" class="node"><title>data:,dns:amazon.com</title>
<a xlink:href="" onclick="show_data('dns:amazon.com');" onmouseover="show_status('data:,dns:amazon.com');">
<ellipse cx="461" cy="371" rx="68" ry="18" style="fill:#dca0dd;stroke:#dca0dd"/>
<text text-anchor="middle" x="461" y="375" style="font-family:arial">data:,dns:amazon.com</text>
</a></g>
<g id="edge26" class="edge"><title>:_5-&gt;data:,dns:amazon.com</title>
<a xlink:href="http://www2.elsevier.co.uk/~tony/1014/yads-schema-2002-04-03#resource" target="_blank" onmouseover="show_status('http://www2.elsevier.co.uk/~tony/1014/yads-schema-2002-04-03#resource');">
<path style="fill:none;stroke:#add9e6" d="M467,298C464,304 462,311 460,317 459,326 458,335 458,343"/>
<polygon style="fill:#add9e6;stroke:#add9e6" points="456,343 459,353 460,343 456,343"/>
<text text-anchor="middle" x="504" y="330" style="font-family:arial">has:resource</text>
</a></g>
<g id="node30" class="node"><title>http://www.amazon.com/exec/ob...6</title>
<a xlink:href="http://www.amazon.com/exec/obidos/ASIN/1861004516" target="_blank" onmouseover="show_status('http://www.amazon.com/exec/obidos/ASIN/1861004516');">
<ellipse cx="659" cy="371" rx="106" ry="18" style="fill:#dca0dd;stroke:#dca0dd"/>
<text text-anchor="middle" x="659" y="375" style="font-family:arial">http://www.amazon.com/exec/ob...6</text>
</a></g>
<g id="edge29" class="edge"><title>:_6-&gt;http://www.amazon.com/exec/ob...6</title>
<a xlink:href="http://www2.elsevier.co.uk/~tony/1014/yads-schema-2002-04-03#resource" target="_blank" onmouseover="show_status('http://www2.elsevier.co.uk/~tony/1014/yads-schema-2002-04-03#resource');">
<path style="fill:none;stroke:#add9e6" d="M627,298C633,311 641,330 647,344"/>
<polygon style="fill:#add9e6;stroke:#add9e6" points="645,345 651,353 649,343 645,345"/>
<text text-anchor="middle" x="685" y="330" style="font-family:arial">has:resource</text>
</a></g>
<g id="node33" class="node"><title>data:,local:addtoCart</title>
<a xlink:href="" onclick="show_data('local:addtoCart');" onmouseover="show_status('data:,local:addtoCart');">
<ellipse cx="851" cy="371" rx="62" ry="18" style="fill:#dca0dd;stroke:#dca0dd"/>
<text text-anchor="middle" x="851" y="375" style="font-family:arial">data:,local:addtoCart</text>
</a></g>
<g id="edge32" class="edge"><title>:_7-&gt;data:,local:addtoCart</title>
<a xlink:href="http://www2.elsevier.co.uk/~tony/1014/yads-schema-2002-04-03#resource" target="_blank" onmouseover="show_status('http://www2.elsevier.co.uk/~tony/1014/yads-schema-2002-04-03#resource');">
<path style="fill:none;stroke:#add9e6" d="M829,299C833,312 839,329 843,344"/>
<polygon style="fill:#add9e6;stroke:#add9e6" points="840,344 846,353 845,343 840,344"/>
<text text-anchor="middle" x="882" y="330" style="font-family:arial">has:resource</text>
</a></g>
<g id="node36" class="node"><title>data:,2002-03-20T13:05:54Z</title>
<a xlink:href="" onclick="show_data('2002-03-20T13:05:54Z');" onmouseover="show_status('data:,2002-03-20T13:05:54Z');">
<ellipse cx="1020" cy="371" rx="83" ry="18" style="fill:#dca0dd;stroke:#dca0dd"/>
<text text-anchor="middle" x="1020" y="375" style="font-family:arial">data:,2002-03-20T13:05:54Z</text>
</a></g>
<g id="edge35" class="edge"><title>:_8-&gt;data:,2002-03-20T13:05:54Z</title>
<a xlink:href="http://www2.elsevier.co.uk/~tony/1014/yads-schema-2002-04-03#resource" target="_blank" onmouseover="show_status('http://www2.elsevier.co.uk/~tony/1014/yads-schema-2002-04-03#resource');">
<path style="fill:none;stroke:#add9e6" d="M1000,299C1003,312 1008,329 1012,344"/>
<polygon style="fill:#add9e6;stroke:#add9e6" points="1009,344 1015,353 1014,343 1009,344"/>
<text text-anchor="middle" x="1050" y="330" style="font-family:arial">has:resource</text>
</a></g>
</g>
</svg>
