<?xml version="1.0" encoding="UTF-8" standalone="no"?>
<!DOCTYPE svg PUBLIC "-//W3C//DTD SVG 1.0//EN"
 "http://www.w3.org/TR/2001/REC-SVG-20010904/DTD/svg10.dtd" [
 <!ATTLIST svg xmlns:xlink CDATA #FIXED "http://www.w3.org/1999/xlink">
]>
<!-- Generated by dot version 1.8.5 (Tue Apr 23 17:19:23  2002)
     For user: (Administrator) ,S-1-5-21-1454471165-688789844-1708537768-500   Title: yads    Pages: 1 -->
<svg width="736px" height="448px"
 xmlns="http://www.w3.org/2000/svg" xmlns:xlink="http://www.w3.org/1999/xlink">
<g id="graph0" class="graph" style="font-family:Times-Roman;font-size:11.00">
<title>yads</title>
<text text-anchor="middle" x="368" y="437" style="font-family:arial;font-size:24.00">YADS - A Description Service</text>
<g id="graph2" class="cluster"><title>cluster_1</title>
<polygon style="fill:none;stroke:#d2d2d2;stroke-dasharray:5,2" points="19,405 717,405 717,43 19,43 19,405"/>
<text text-anchor="middle" x="122" y="55" style="font-family:arial">Nest - OpenURL Resolver + Query</text>
</g>
<g id="graph3" class="cluster"><title>cluster_3</title>
<polygon style="fill:none;stroke:#d2d2d2;stroke-dasharray:5,2" points="27,397 205,397 205,238 27,238 27,397"/>
<text text-anchor="middle" x="74" y="250" style="font-family:arial">Item - Referent</text>
</g>
<g id="graph4" class="cluster"><title>cluster_4</title>
<polygon style="fill:none;stroke:#d2d2d2;stroke-dasharray:5,2" points="213,397 411,397 411,238 213,238 213,397"/>
<text text-anchor="middle" x="264" y="250" style="font-family:arial">Item - Requester</text>
</g>
<g id="graph5" class="cluster"><title>cluster_5</title>
<polygon style="fill:none;stroke:#d2d2d2;stroke-dasharray:5,2" points="419,397 561,397 561,238 419,238 419,397"/>
<text text-anchor="middle" x="463" y="250" style="font-family:arial">Item - Referer</text>
</g>
<g id="graph6" class="cluster"><title>cluster_6</title>
<polygon style="fill:none;stroke:#d2d2d2;stroke-dasharray:5,2" points="569,397 709,397 709,238 569,238 569,397"/>
<text text-anchor="middle" x="629" y="250" style="font-family:arial">Item - Service-Type</text>
</g>
<g id="node2" class="node"><title>:_1</title>
<ellipse cx="322" cy="86" rx="35" ry="18" style="fill:#eedb82;stroke:#eedb82"/>
<text text-anchor="middle" x="322" y="90" style="font-family:arial">OpenURL</text>
</g>
<g id="node4" class="node"><title>http://openurl.org/resolver?</title>
<a xlink:href="http://openurl.org/resolver?" target="_blank" onmouseover="show_status('http://openurl.org/resolver?');">
<ellipse cx="266" cy="176" rx="80" ry="18" style="fill:#dca0dd;stroke:#dca0dd"/>
<text text-anchor="middle" x="266" y="180" style="font-family:arial">http://openurl.org/resolver?</text>
</a></g>
<g id="edge3" class="edge"><title>:_1-&gt;http://openurl.org/resolver?</title>
<a xlink:href="http://www2.elsevier.co.uk/~tony/1014/yads-schema-2002-04-03#resource" target="_blank" onmouseover="show_status('http://www2.elsevier.co.uk/~tony/1014/yads-schema-2002-04-03#resource');">
<path style="fill:none;stroke:#add9e6" d="M311,103C303,117 291,135 282,150"/>
<polygon style="fill:#add9e6;stroke:#add9e6" points="280,148 277,158 284,151 280,148"/>
<text text-anchor="middle" x="341" y="135" style="font-family:arial">has:resource</text>
</a></g>
<g id="node6" class="node"><title>:_2</title>
<a xlink:href="http://www.w3.org/1999/02/22-rdf-syntax-ns#Bag" target="_blank" onmouseover="show_status('http://www.w3.org/1999/02/22-rdf-syntax-ns#Bag');">
<ellipse cx="392" cy="176" rx="28" ry="18" style="fill:#d2d2d2;stroke:#d2d2d2"/>
<text text-anchor="middle" x="392" y="180" style="font-family:arial">rdf:Bag</text>
</a></g>
<g id="edge5" class="edge"><title>:_1-&gt;:_2</title>
<a xlink:href="http://www2.elsevier.co.uk/~tony/1014/yads-schema-2002-04-03#collection" target="_blank" onmouseover="show_status('http://www2.elsevier.co.uk/~tony/1014/yads-schema-2002-04-03#collection');">
<path style="fill:none;stroke:#add9e6" d="M351,96C364,102 377,110 385,122 390,130 393,140 394,149"/>
<polygon style="fill:#add9e6;stroke:#add9e6" points="392,148 394,158 397,148 392,148"/>
<text text-anchor="middle" x="435" y="135" style="font-family:arial">has:collection</text>
</a></g>
<g id="node8" class="node"><title>:_3</title>
<ellipse cx="143" cy="281" rx="27" ry="18" style="fill:#eedb82;stroke:#eedb82"/>
<text text-anchor="middle" x="143" y="285" style="font-family:arial">ref_id</text>
</g>
<g id="edge7" class="edge"><title>:_2-&gt;:_3</title>
<a xlink:href="http://www.w3.org/1999/02/22-rdf-syntax-ns#_1" target="_blank" onmouseover="show_status('http://www.w3.org/1999/02/22-rdf-syntax-ns#_1');">
<path style="fill:none;stroke:#add9e6" d="M369,187C365,189 362,192 355,194 293,220 271,210 209,238 195,245 180,254 168,262"/>
<polygon style="fill:#add9e6;stroke:#add9e6" points="168,259 161,267 171,263 168,259"/>
<text text-anchor="middle" x="328" y="225" style="font-family:arial">rdf:_1</text>
</a></g>
<g id="node10" class="node"><title>:_4</title>
<ellipse cx="349" cy="281" rx="27" ry="18" style="fill:#eedb82;stroke:#eedb82"/>
<text text-anchor="middle" x="349" y="285" style="font-family:arial">req_id</text>
</g>
<g id="edge9" class="edge"><title>:_2-&gt;:_4</title>
<a xlink:href="http://www.w3.org/1999/02/22-rdf-syntax-ns#_2" target="_blank" onmouseover="show_status('http://www.w3.org/1999/02/22-rdf-syntax-ns#_2');">
<path style="fill:none;stroke:#add9e6" d="M385,194C378,210 367,236 359,256"/>
<polygon style="fill:#add9e6;stroke:#add9e6" points="357,254 356,264 362,256 357,254"/>
<text text-anchor="middle" x="399" y="225" style="font-family:arial">rdf:_2</text>
</a></g>
<g id="node12" class="node"><title>:_5</title>
<ellipse cx="463" cy="281" rx="27" ry="18" style="fill:#eedb82;stroke:#eedb82"/>
<text text-anchor="middle" x="463" y="285" style="font-family:arial">rfr_id</text>
</g>
<g id="edge11" class="edge"><title>:_2-&gt;:_5</title>
<a xlink:href="http://www.w3.org/1999/02/22-rdf-syntax-ns#_3" target="_blank" onmouseover="show_status('http://www.w3.org/1999/02/22-rdf-syntax-ns#_3');">
<path style="fill:none;stroke:#add9e6" d="M408,191C414,198 420,205 425,212 435,226 444,242 451,256"/>
<polygon style="fill:#add9e6;stroke:#add9e6" points="448,256 455,264 453,254 448,256"/>
<text text-anchor="middle" x="458" y="225" style="font-family:arial">rdf:_3</text>
</a></g>
<g id="node14" class="node"><title>:_6</title>
<ellipse cx="612" cy="281" rx="27" ry="18" style="fill:#eedb82;stroke:#eedb82"/>
<text text-anchor="middle" x="612" y="285" style="font-family:arial">srv_id</text>
</g>
<g id="edge13" class="edge"><title>:_2-&gt;:_6</title>
<a xlink:href="http://www.w3.org/1999/02/22-rdf-syntax-ns#_4" target="_blank" onmouseover="show_status('http://www.w3.org/1999/02/22-rdf-syntax-ns#_4');">
<path style="fill:none;stroke:#add9e6" d="M419,181C483,197 505,201 565,238 574,244 583,252 591,260"/>
<polygon style="fill:#add9e6;stroke:#add9e6" points="589,261 598,266 592,258 589,261"/>
<text text-anchor="middle" x="572" y="225" style="font-family:arial">rdf:_4</text>
</a></g>
<g id="node17" class="node"><title>data:,local:ASIN-1861004516</title>
<a xlink:href="" onclick="show_data('local:ASIN-1861004516');" onmouseover="show_status('data:,local:ASIN-1861004516');">
<ellipse cx="116" cy="371" rx="81" ry="18" style="fill:#dca0dd;stroke:#dca0dd"/>
<text text-anchor="middle" x="116" y="375" style="font-family:arial">data:,local:ASIN-1861004516</text>
</a></g>
<g id="edge16" class="edge"><title>:_3-&gt;data:,local:ASIN-1861004516</title>
<a xlink:href="http://www2.elsevier.co.uk/~tony/1014/yads-schema-2002-04-03#resource" target="_blank" onmouseover="show_status('http://www2.elsevier.co.uk/~tony/1014/yads-schema-2002-04-03#resource');">
<path style="fill:none;stroke:#add9e6" d="M135,299C133,304 130,311 128,317 125,326 123,335 121,344"/>
<polygon style="fill:#add9e6;stroke:#add9e6" points="119,343 119,353 124,344 119,343"/>
<text text-anchor="middle" x="172" y="330" style="font-family:arial">has:resource</text>
</a></g>
<g id="node20" class="node"><title>data:,local:104-0011434-46391...8</title>
<a xlink:href="" onclick="show_data('local:104-0011434-4639158');" onmouseover="show_status('data:,local:104-0011434-4639158');">
<ellipse cx="312" cy="371" rx="91" ry="18" style="fill:#dca0dd;stroke:#dca0dd"/>
<text text-anchor="middle" x="312" y="375" style="font-family:arial">data:,local:104-0011434-46391...8</text>
</a></g>
<g id="edge19" class="edge"><title>:_4-&gt;data:,local:104-0011434-46391...8</title>
<a xlink:href="http://www2.elsevier.co.uk/~tony/1014/yads-schema-2002-04-03#resource" target="_blank" onmouseover="show_status('http://www2.elsevier.co.uk/~tony/1014/yads-schema-2002-04-03#resource');">
<path style="fill:none;stroke:#add9e6" d="M342,299C339,304 337,311 334,317 330,326 327,335 323,344"/>
<polygon style="fill:#add9e6;stroke:#add9e6" points="321,343 320,353 326,344 321,343"/>
<text text-anchor="middle" x="378" y="330" style="font-family:arial">has:resource</text>
</a></g>
<g id="node23" class="node"><title>data:,local:booksales</title>
<a xlink:href="" onclick="show_data('local:booksales');" onmouseover="show_status('data:,local:booksales');">
<ellipse cx="490" cy="371" rx="63" ry="18" style="fill:#dca0dd;stroke:#dca0dd"/>
<text text-anchor="middle" x="490" y="375" style="font-family:arial">data:,local:booksales</text>
</a></g>
<g id="edge22" class="edge"><title>:_5-&gt;data:,local:booksales</title>
<a xlink:href="http://www2.elsevier.co.uk/~tony/1014/yads-schema-2002-04-03#resource" target="_blank" onmouseover="show_status('http://www2.elsevier.co.uk/~tony/1014/yads-schema-2002-04-03#resource');">
<path style="fill:none;stroke:#add9e6" d="M468,299C472,312 478,329 482,344"/>
<polygon style="fill:#add9e6;stroke:#add9e6" points="479,344 485,353 484,343 479,344"/>
<text text-anchor="middle" x="521" y="330" style="font-family:arial">has:resource</text>
</a></g>
<g id="node26" class="node"><title>data:,local:addtoCart</title>
<a xlink:href="" onclick="show_data('local:addtoCart');" onmouseover="show_status('data:,local:addtoCart');">
<ellipse cx="639" cy="371" rx="62" ry="18" style="fill:#dca0dd;stroke:#dca0dd"/>
<text text-anchor="middle" x="639" y="375" style="font-family:arial">data:,local:addtoCart</text>
</a></g>
<g id="edge25" class="edge"><title>:_6-&gt;data:,local:addtoCart</title>
<a xlink:href="http://www2.elsevier.co.uk/~tony/1014/yads-schema-2002-04-03#resource" target="_blank" onmouseover="show_status('http://www2.elsevier.co.uk/~tony/1014/yads-schema-2002-04-03#resource');">
<path style="fill:none;stroke:#add9e6" d="M613,299C614,310 616,323 620,335 621,338 622,341 624,344"/>
<polygon style="fill:#add9e6;stroke:#add9e6" points="622,345 628,353 626,343 622,345"/>
<text text-anchor="middle" x="661" y="330" style="font-family:arial">has:resource</text>
</a></g>
</g>
</svg>
