<?xml version="1.0" encoding="UTF-8" standalone="no"?>
<!DOCTYPE svg PUBLIC "-//W3C//DTD SVG 1.0//EN"
 "http://www.w3.org/TR/2001/REC-SVG-20010904/DTD/svg10.dtd" [
 <!ATTLIST svg xmlns:xlink CDATA #FIXED "http://www.w3.org/1999/xlink">
]>
<!-- Generated by dot version 1.8.5 (Tue Apr 23 17:19:23  2002)
     For user: (Administrator) ,S-1-5-21-1454471165-688789844-1708537768-500   Title: yads    Pages: 1 -->
<svg width="906px" height="448px"
 xmlns="http://www.w3.org/2000/svg" xmlns:xlink="http://www.w3.org/1999/xlink">
<g id="graph0" class="graph" style="font-family:Times-Roman;font-size:11.00">
<title>yads</title>
<text text-anchor="middle" x="453" y="437" style="font-family:arial;font-size:24.00">YADS - A Description Service</text>
<g id="graph2" class="cluster"><title>cluster_1</title>
<polygon style="fill:none;stroke:#d2d2d2;stroke-dasharray:5,2" points="19,405 887,405 887,43 19,43 19,405"/>
<text text-anchor="middle" x="122" y="55" style="font-family:arial">Nest - OpenURL Resolver + Query</text>
</g>
<g id="graph3" class="cluster"><title>cluster_3</title>
<polygon style="fill:none;stroke:#d2d2d2;stroke-dasharray:5,2" points="27,397 124,397 124,238 27,238 27,397"/>
<text text-anchor="middle" x="74" y="250" style="font-family:arial">Item - Referent</text>
</g>
<g id="graph4" class="cluster"><title>cluster_4</title>
<polygon style="fill:none;stroke:#d2d2d2;stroke-dasharray:5,2" points="132,397 230,397 230,238 132,238 132,397"/>
<text text-anchor="middle" x="179" y="250" style="font-family:arial">Item - Referent</text>
</g>
<g id="graph5" class="cluster"><title>cluster_5</title>
<polygon style="fill:none;stroke:#d2d2d2;stroke-dasharray:5,2" points="238,397 335,397 335,238 238,238 238,397"/>
<text text-anchor="middle" x="285" y="250" style="font-family:arial">Item - Referent</text>
</g>
<g id="graph6" class="cluster"><title>cluster_6</title>
<polygon style="fill:none;stroke:#d2d2d2;stroke-dasharray:5,2" points="343,397 555,397 555,238 343,238 343,397"/>
<text text-anchor="middle" x="390" y="250" style="font-family:arial">Item - Referent</text>
</g>
<g id="graph7" class="cluster"><title>cluster_7</title>
<polygon style="fill:none;stroke:#d2d2d2;stroke-dasharray:5,2" points="563,397 660,397 660,238 563,238 563,397"/>
<text text-anchor="middle" x="610" y="250" style="font-family:arial">Item - Referent</text>
</g>
<g id="graph8" class="cluster"><title>cluster_8</title>
<polygon style="fill:none;stroke:#d2d2d2;stroke-dasharray:5,2" points="668,397 765,397 765,238 668,238 668,397"/>
<text text-anchor="middle" x="715" y="250" style="font-family:arial">Item - Referent</text>
</g>
<g id="graph9" class="cluster"><title>cluster_9</title>
<polygon style="fill:none;stroke:#d2d2d2;stroke-dasharray:5,2" points="773,397 879,397 879,238 773,238 773,397"/>
<text text-anchor="middle" x="820" y="250" style="font-family:arial">Item - Referent</text>
</g>
<g id="node2" class="node"><title>:_1</title>
<ellipse cx="379" cy="86" rx="35" ry="18" style="fill:#eedb82;stroke:#eedb82"/>
<text text-anchor="middle" x="379" y="90" style="font-family:arial">OpenURL</text>
</g>
<g id="node4" class="node"><title>http://openurl.org/resolver?</title>
<a xlink:href="http://openurl.org/resolver?" target="_blank" onmouseover="show_status('http://openurl.org/resolver?');">
<ellipse cx="323" cy="176" rx="80" ry="18" style="fill:#dca0dd;stroke:#dca0dd"/>
<text text-anchor="middle" x="323" y="180" style="font-family:arial">http://openurl.org/resolver?</text>
</a></g>
<g id="edge3" class="edge"><title>:_1-&gt;http://openurl.org/resolver?</title>
<a xlink:href="http://www2.elsevier.co.uk/~tony/1014/yads-schema-2002-04-03#resource" target="_blank" onmouseover="show_status('http://www2.elsevier.co.uk/~tony/1014/yads-schema-2002-04-03#resource');">
<path style="fill:none;stroke:#add9e6" d="M368,103C360,117 348,135 339,150"/>
<polygon style="fill:#add9e6;stroke:#add9e6" points="337,148 334,158 341,151 337,148"/>
<text text-anchor="middle" x="398" y="135" style="font-family:arial">has:resource</text>
</a></g>
<g id="node6" class="node"><title>:_2</title>
<a xlink:href="http://www.w3.org/1999/02/22-rdf-syntax-ns#Bag" target="_blank" onmouseover="show_status('http://www.w3.org/1999/02/22-rdf-syntax-ns#Bag');">
<ellipse cx="449" cy="176" rx="28" ry="18" style="fill:#d2d2d2;stroke:#d2d2d2"/>
<text text-anchor="middle" x="449" y="180" style="font-family:arial">rdf:Bag</text>
</a></g>
<g id="edge5" class="edge"><title>:_1-&gt;:_2</title>
<a xlink:href="http://www2.elsevier.co.uk/~tony/1014/yads-schema-2002-04-03#collection" target="_blank" onmouseover="show_status('http://www2.elsevier.co.uk/~tony/1014/yads-schema-2002-04-03#collection');">
<path style="fill:none;stroke:#add9e6" d="M408,96C421,102 434,110 442,122 447,130 450,140 451,149"/>
<polygon style="fill:#add9e6;stroke:#add9e6" points="449,148 451,158 454,148 449,148"/>
<text text-anchor="middle" x="492" y="135" style="font-family:arial">has:collection</text>
</a></g>
<g id="node8" class="node"><title>:_3</title>
<ellipse cx="76" cy="281" rx="38" ry="18" style="fill:#eedb82;stroke:#eedb82"/>
<text text-anchor="middle" x="76" y="285" style="font-family:arial">ref_valfmt</text>
</g>
<g id="edge7" class="edge"><title>:_2-&gt;:_3</title>
<a xlink:href="http://www.w3.org/1999/02/22-rdf-syntax-ns#_1" target="_blank" onmouseover="show_status('http://www.w3.org/1999/02/22-rdf-syntax-ns#_1');">
<path style="fill:none;stroke:#add9e6" d="M423,182C419,187 418,191 411,194 330,231 299,195 211,212 174,220 162,220 128,238 118,243 108,251 100,259"/>
<polygon style="fill:#add9e6;stroke:#add9e6" points="99,257 93,265 102,260 99,257"/>
<text text-anchor="middle" x="380" y="225" style="font-family:arial">rdf:_1</text>
</a></g>
<g id="node10" class="node"><title>:_4</title>
<ellipse cx="181" cy="281" rx="27" ry="18" style="fill:#eedb82;stroke:#eedb82"/>
<text text-anchor="middle" x="181" y="285" style="font-family:arial">aulast</text>
</g>
<g id="edge9" class="edge"><title>:_2-&gt;:_4</title>
<a xlink:href="http://www.w3.org/1999/02/22-rdf-syntax-ns#_2" target="_blank" onmouseover="show_status('http://www.w3.org/1999/02/22-rdf-syntax-ns#_2');">
<path style="fill:none;stroke:#add9e6" d="M423,182C419,187 419,191 412,194 370,216 353,201 307,212 274,221 265,222 234,238 224,244 213,252 204,260"/>
<polygon style="fill:#add9e6;stroke:#add9e6" points="203,258 197,266 206,261 203,258"/>
<text text-anchor="middle" x="341" y="225" style="font-family:arial">rdf:_2</text>
</a></g>
<g id="node12" class="node"><title>:_5</title>
<ellipse cx="287" cy="281" rx="27" ry="18" style="fill:#eedb82;stroke:#eedb82"/>
<text text-anchor="middle" x="287" y="285" style="font-family:arial">auinit</text>
</g>
<g id="edge11" class="edge"><title>:_2-&gt;:_5</title>
<a xlink:href="http://www.w3.org/1999/02/22-rdf-syntax-ns#_3" target="_blank" onmouseover="show_status('http://www.w3.org/1999/02/22-rdf-syntax-ns#_3');">
<path style="fill:none;stroke:#add9e6" d="M427,187C404,199 369,219 339,238 330,245 320,253 311,260"/>
<polygon style="fill:#add9e6;stroke:#add9e6" points="310,258 304,266 313,261 310,258"/>
<text text-anchor="middle" x="408" y="225" style="font-family:arial">rdf:_3</text>
</a></g>
<g id="node14" class="node"><title>:_6</title>
<ellipse cx="449" cy="281" rx="27" ry="18" style="fill:#eedb82;stroke:#eedb82"/>
<text text-anchor="middle" x="449" y="285" style="font-family:arial">stitle</text>
</g>
<g id="edge13" class="edge"><title>:_2-&gt;:_6</title>
<a xlink:href="http://www.w3.org/1999/02/22-rdf-syntax-ns#_4" target="_blank" onmouseover="show_status('http://www.w3.org/1999/02/22-rdf-syntax-ns#_4');">
<path style="fill:none;stroke:#add9e6" d="M449,194C449,210 449,235 449,254"/>
<polygon style="fill:#add9e6;stroke:#add9e6" points="447,253 449,263 452,253 447,253"/>
<text text-anchor="middle" x="470" y="225" style="font-family:arial">rdf:_4</text>
</a></g>
<g id="node16" class="node"><title>:_7</title>
<ellipse cx="599" cy="281" rx="28" ry="18" style="fill:#eedb82;stroke:#eedb82"/>
<text text-anchor="middle" x="599" y="285" style="font-family:arial">volume</text>
</g>
<g id="edge15" class="edge"><title>:_2-&gt;:_7</title>
<a xlink:href="http://www.w3.org/1999/02/22-rdf-syntax-ns#_5" target="_blank" onmouseover="show_status('http://www.w3.org/1999/02/22-rdf-syntax-ns#_5');">
<path style="fill:none;stroke:#add9e6" d="M472,187C495,198 531,217 559,238 566,244 574,251 580,258"/>
<polygon style="fill:#add9e6;stroke:#add9e6" points="578,259 586,265 581,256 578,259"/>
<text text-anchor="middle" x="568" y="225" style="font-family:arial">rdf:_5</text>
</a></g>
<g id="node18" class="node"><title>:_8</title>
<ellipse cx="703" cy="281" rx="27" ry="18" style="fill:#eedb82;stroke:#eedb82"/>
<text text-anchor="middle" x="703" y="285" style="font-family:arial">issue</text>
</g>
<g id="edge17" class="edge"><title>:_2-&gt;:_8</title>
<a xlink:href="http://www.w3.org/1999/02/22-rdf-syntax-ns#_6" target="_blank" onmouseover="show_status('http://www.w3.org/1999/02/22-rdf-syntax-ns#_6');">
<path style="fill:none;stroke:#add9e6" d="M477,179C520,184 605,199 664,238 672,243 679,251 685,258"/>
<polygon style="fill:#add9e6;stroke:#add9e6" points="683,259 691,265 686,256 683,259"/>
<text text-anchor="middle" x="670" y="225" style="font-family:arial">rdf:_6</text>
</a></g>
<g id="node20" class="node"><title>:_9</title>
<ellipse cx="808" cy="281" rx="27" ry="18" style="fill:#eedb82;stroke:#eedb82"/>
<text text-anchor="middle" x="808" y="285" style="font-family:arial">date</text>
</g>
<g id="edge19" class="edge"><title>:_2-&gt;:_9</title>
<a xlink:href="http://www.w3.org/1999/02/22-rdf-syntax-ns#_7" target="_blank" onmouseover="show_status('http://www.w3.org/1999/02/22-rdf-syntax-ns#_7');">
<path style="fill:none;stroke:#add9e6" d="M477,177C480,178 483,178 486,178 500,180 504,180 517,182 597,194 618,192 696,212 730,221 741,219 769,238 776,243 784,251 790,258"/>
<polygon style="fill:#add9e6;stroke:#add9e6" points="788,259 796,265 791,256 788,259"/>
<text text-anchor="middle" x="776" y="225" style="font-family:arial">rdf:_7</text>
</a></g>
<g id="node23" class="node"><title>data:,article</title>
<a xlink:href="" onclick="show_data('article');" onmouseover="show_status('data:,article');">
<ellipse cx="73" cy="371" rx="38" ry="18" style="fill:#dca0dd;stroke:#dca0dd"/>
<text text-anchor="middle" x="73" y="375" style="font-family:arial">data:,article</text>
</a></g>
<g id="edge22" class="edge"><title>:_3-&gt;data:,article</title>
<a xlink:href="http://www2.elsevier.co.uk/~tony/1014/yads-schema-2002-04-03#resource" target="_blank" onmouseover="show_status('http://www2.elsevier.co.uk/~tony/1014/yads-schema-2002-04-03#resource');">
<path style="fill:none;stroke:#add9e6" d="M59,297C54,303 50,310 47,317 44,327 47,337 52,346"/>
<polygon style="fill:#add9e6;stroke:#add9e6" points="50,347 57,354 54,344 50,347"/>
<text text-anchor="middle" x="91" y="330" style="font-family:arial">has:resource</text>
</a></g>
<g id="node26" class="node"><title>data:,Sturino</title>
<a xlink:href="" onclick="show_data('Sturino');" onmouseover="show_status('data:,Sturino');">
<ellipse cx="181" cy="371" rx="41" ry="18" style="fill:#dca0dd;stroke:#dca0dd"/>
<text text-anchor="middle" x="181" y="375" style="font-family:arial">data:,Sturino</text>
</a></g>
<g id="edge25" class="edge"><title>:_4-&gt;data:,Sturino</title>
<a xlink:href="http://www2.elsevier.co.uk/~tony/1014/yads-schema-2002-04-03#resource" target="_blank" onmouseover="show_status('http://www2.elsevier.co.uk/~tony/1014/yads-schema-2002-04-03#resource');">
<path style="fill:none;stroke:#add9e6" d="M166,296C161,302 156,309 153,317 151,325 151,328 153,335 155,339 157,343 159,346"/>
<polygon style="fill:#add9e6;stroke:#add9e6" points="157,347 164,354 161,344 157,347"/>
<text text-anchor="middle" x="197" y="330" style="font-family:arial">has:resource</text>
</a></g>
<g id="node29" class="node"><title>data:,JM</title>
<a xlink:href="" onclick="show_data('JM');" onmouseover="show_status('data:,JM');">
<ellipse cx="276" cy="371" rx="30" ry="18" style="fill:#dca0dd;stroke:#dca0dd"/>
<text text-anchor="middle" x="276" y="375" style="font-family:arial">data:,JM</text>
</a></g>
<g id="edge28" class="edge"><title>:_5-&gt;data:,JM</title>
<a xlink:href="http://www2.elsevier.co.uk/~tony/1014/yads-schema-2002-04-03#resource" target="_blank" onmouseover="show_status('http://www2.elsevier.co.uk/~tony/1014/yads-schema-2002-04-03#resource');">
<path style="fill:none;stroke:#add9e6" d="M271,296C266,302 261,309 258,317 255,326 257,336 261,345"/>
<polygon style="fill:#add9e6;stroke:#add9e6" points="259,346 265,354 263,344 259,346"/>
<text text-anchor="middle" x="302" y="330" style="font-family:arial">has:resource</text>
</a></g>
<g id="node32" class="node"><title>data:,Appl%20Eviron%20Microbi...l</title>
<a xlink:href="" onclick="show_data('Appl%20Eviron%20Microbiol');" onmouseover="show_status('data:,Appl%20Eviron%20Microbiol');">
<ellipse cx="449" cy="371" rx="98" ry="18" style="fill:#dca0dd;stroke:#dca0dd"/>
<text text-anchor="middle" x="449" y="375" style="font-family:arial">data:,Appl%20Eviron%20Microbi...l</text>
</a></g>
<g id="edge31" class="edge"><title>:_6-&gt;data:,Appl%20Eviron%20Microbi...l</title>
<a xlink:href="http://www2.elsevier.co.uk/~tony/1014/yads-schema-2002-04-03#resource" target="_blank" onmouseover="show_status('http://www2.elsevier.co.uk/~tony/1014/yads-schema-2002-04-03#resource');">
<path style="fill:none;stroke:#add9e6" d="M449,299C449,312 449,329 449,344"/>
<polygon style="fill:#add9e6;stroke:#add9e6" points="447,343 449,353 452,343 447,343"/>
<text text-anchor="middle" x="490" y="330" style="font-family:arial">has:resource</text>
</a></g>
<g id="node35" class="node"><title>data:,68</title>
<a xlink:href="" onclick="show_data('68');" onmouseover="show_status('data:,68');">
<ellipse cx="600" cy="371" rx="29" ry="18" style="fill:#dca0dd;stroke:#dca0dd"/>
<text text-anchor="middle" x="600" y="375" style="font-family:arial">data:,68</text>
</a></g>
<g id="edge34" class="edge"><title>:_7-&gt;data:,68</title>
<a xlink:href="http://www2.elsevier.co.uk/~tony/1014/yads-schema-2002-04-03#resource" target="_blank" onmouseover="show_status('http://www2.elsevier.co.uk/~tony/1014/yads-schema-2002-04-03#resource');">
<path style="fill:none;stroke:#add9e6" d="M590,298C587,304 584,311 583,317 582,325 582,328 583,335 584,339 585,342 586,345"/>
<polygon style="fill:#add9e6;stroke:#add9e6" points="584,346 590,354 588,344 584,346"/>
<text text-anchor="middle" x="627" y="330" style="font-family:arial">has:resource</text>
</a></g>
<g id="node38" class="node"><title>data:,2</title>
<a xlink:href="" onclick="show_data('2');" onmouseover="show_status('data:,2');">
<ellipse cx="703" cy="371" rx="27" ry="18" style="fill:#dca0dd;stroke:#dca0dd"/>
<text text-anchor="middle" x="703" y="375" style="font-family:arial">data:,2</text>
</a></g>
<g id="edge37" class="edge"><title>:_8-&gt;data:,2</title>
<a xlink:href="http://www2.elsevier.co.uk/~tony/1014/yads-schema-2002-04-03#resource" target="_blank" onmouseover="show_status('http://www2.elsevier.co.uk/~tony/1014/yads-schema-2002-04-03#resource');">
<path style="fill:none;stroke:#add9e6" d="M695,298C692,304 690,311 688,317 687,325 687,328 688,335 689,338 690,341 691,345"/>
<polygon style="fill:#add9e6;stroke:#add9e6" points="689,346 695,354 693,344 689,346"/>
<text text-anchor="middle" x="732" y="330" style="font-family:arial">has:resource</text>
</a></g>
<g id="node41" class="node"><title>data:,2002-02</title>
<a xlink:href="" onclick="show_data('2002-02');" onmouseover="show_status('data:,2002-02');">
<ellipse cx="826" cy="371" rx="45" ry="18" style="fill:#dca0dd;stroke:#dca0dd"/>
<text text-anchor="middle" x="826" y="375" style="font-family:arial">data:,2002-02</text>
</a></g>
<g id="edge40" class="edge"><title>:_9-&gt;data:,2002-02</title>
<a xlink:href="http://www2.elsevier.co.uk/~tony/1014/yads-schema-2002-04-03#resource" target="_blank" onmouseover="show_status('http://www2.elsevier.co.uk/~tony/1014/yads-schema-2002-04-03#resource');">
<path style="fill:none;stroke:#add9e6" d="M796,297C790,308 785,323 790,335 792,340 794,344 797,348"/>
<polygon style="fill:#add9e6;stroke:#add9e6" points="795,350 804,355 799,346 795,350"/>
<text text-anchor="middle" x="831" y="330" style="font-family:arial">has:resource</text>
</a></g>
</g>
</svg>
