<?xml version="1.0" encoding="UTF-8" standalone="no"?>
<!DOCTYPE svg PUBLIC "-//W3C//DTD SVG 1.0//EN"
 "http://www.w3.org/TR/2001/REC-SVG-20010904/DTD/svg10.dtd" [
 <!ATTLIST svg xmlns:xlink CDATA #FIXED "http://www.w3.org/1999/xlink">
]>
<!-- Generated by dot version 1.8.5 (Tue Apr 23 17:19:23  2002)
     For user: (Administrator) ,S-1-5-21-1454471165-688789844-1708537768-500   Title: yads    Pages: 1 -->
<svg width="652px" height="448px"
 xmlns="http://www.w3.org/2000/svg" xmlns:xlink="http://www.w3.org/1999/xlink">
<g id="graph0" class="graph" style="font-family:Times-Roman;font-size:11.00">
<title>yads</title>
<text text-anchor="middle" x="326" y="437" style="font-family:arial;font-size:24.00">YADS - A Description Service</text>
<g id="graph2" class="cluster"><title>cluster_1</title>
<polygon style="fill:none;stroke:#d2d2d2;stroke-dasharray:5,2" points="19,405 633,405 633,43 19,43 19,405"/>
<text text-anchor="middle" x="122" y="55" style="font-family:arial">Nest - OpenURL Resolver + Query</text>
</g>
<g id="graph3" class="cluster"><title>cluster_3</title>
<polygon style="fill:none;stroke:#d2d2d2;stroke-dasharray:5,2" points="105,397 239,397 239,238 105,238 105,397"/>
<text text-anchor="middle" x="152" y="250" style="font-family:arial">Item - Referent</text>
</g>
<g id="graph4" class="cluster"><title>cluster_4</title>
<polygon style="fill:none;stroke:#d2d2d2;stroke-dasharray:5,2" points="247,397 431,397 431,238 247,238 247,397"/>
<text text-anchor="middle" x="298" y="250" style="font-family:arial">Item - Requester</text>
</g>
<g id="graph5" class="cluster"><title>cluster_5</title>
<polygon style="fill:none;stroke:#d2d2d2;stroke-dasharray:5,2" points="27,307 97,307 97,238 27,238 27,307"/>
<text text-anchor="middle" x="91" y="250" style="font-family:arial">Item - Referring-Entity</text>
</g>
<g id="graph6" class="cluster"><title>cluster_6</title>
<polygon style="fill:none;stroke:#d2d2d2;stroke-dasharray:5,2" points="439,397 625,397 625,238 439,238 439,397"/>
<text text-anchor="middle" x="483" y="250" style="font-family:arial">Item - Referer</text>
</g>
<g id="node2" class="node"><title>:_1</title>
<ellipse cx="201" cy="86" rx="35" ry="18" style="fill:#eedb82;stroke:#eedb82"/>
<text text-anchor="middle" x="201" y="90" style="font-family:arial">OpenURL</text>
</g>
<g id="node4" class="node"><title>http://openurl.org/resolver?</title>
<a xlink:href="http://openurl.org/resolver?" target="_blank" onmouseover="show_status('http://openurl.org/resolver?');">
<ellipse cx="145" cy="176" rx="80" ry="18" style="fill:#dca0dd;stroke:#dca0dd"/>
<text text-anchor="middle" x="145" y="180" style="font-family:arial">http://openurl.org/resolver?</text>
</a></g>
<g id="edge3" class="edge"><title>:_1-&gt;http://openurl.org/resolver?</title>
<a xlink:href="http://www2.elsevier.co.uk/~tony/1014/yads-schema-2002-04-03#resource" target="_blank" onmouseover="show_status('http://www2.elsevier.co.uk/~tony/1014/yads-schema-2002-04-03#resource');">
<path style="fill:none;stroke:#add9e6" d="M190,103C182,117 170,135 161,150"/>
<polygon style="fill:#add9e6;stroke:#add9e6" points="159,148 156,158 163,151 159,148"/>
<text text-anchor="middle" x="220" y="135" style="font-family:arial">has:resource</text>
</a></g>
<g id="node6" class="node"><title>:_2</title>
<a xlink:href="http://www.w3.org/1999/02/22-rdf-syntax-ns#Bag" target="_blank" onmouseover="show_status('http://www.w3.org/1999/02/22-rdf-syntax-ns#Bag');">
<ellipse cx="271" cy="176" rx="28" ry="18" style="fill:#d2d2d2;stroke:#d2d2d2"/>
<text text-anchor="middle" x="271" y="180" style="font-family:arial">rdf:Bag</text>
</a></g>
<g id="edge5" class="edge"><title>:_1-&gt;:_2</title>
<a xlink:href="http://www2.elsevier.co.uk/~tony/1014/yads-schema-2002-04-03#collection" target="_blank" onmouseover="show_status('http://www2.elsevier.co.uk/~tony/1014/yads-schema-2002-04-03#collection');">
<path style="fill:none;stroke:#add9e6" d="M230,96C243,102 256,110 264,122 269,130 272,140 273,149"/>
<polygon style="fill:#add9e6;stroke:#add9e6" points="271,148 273,158 276,148 271,148"/>
<text text-anchor="middle" x="314" y="135" style="font-family:arial">has:collection</text>
</a></g>
<g id="node8" class="node"><title>:_3</title>
<ellipse cx="170" cy="281" rx="27" ry="18" style="fill:#eedb82;stroke:#eedb82"/>
<text text-anchor="middle" x="170" y="285" style="font-family:arial">ref_id</text>
</g>
<g id="edge7" class="edge"><title>:_2-&gt;:_3</title>
<a xlink:href="http://www.w3.org/1999/02/22-rdf-syntax-ns#_1" target="_blank" onmouseover="show_status('http://www.w3.org/1999/02/22-rdf-syntax-ns#_1');">
<path style="fill:none;stroke:#add9e6" d="M256,191C239,210 210,239 191,260"/>
<polygon style="fill:#add9e6;stroke:#add9e6" points="190,257 185,266 194,261 190,257"/>
<text text-anchor="middle" x="259" y="225" style="font-family:arial">rdf:_1</text>
</a></g>
<g id="node10" class="node"><title>:_4</title>
<ellipse cx="310" cy="281" rx="27" ry="18" style="fill:#eedb82;stroke:#eedb82"/>
<text text-anchor="middle" x="310" y="285" style="font-family:arial">req_id</text>
</g>
<g id="edge9" class="edge"><title>:_2-&gt;:_4</title>
<a xlink:href="http://www.w3.org/1999/02/22-rdf-syntax-ns#_2" target="_blank" onmouseover="show_status('http://www.w3.org/1999/02/22-rdf-syntax-ns#_2');">
<path style="fill:none;stroke:#add9e6" d="M278,194C284,210 293,236 301,255"/>
<polygon style="fill:#add9e6;stroke:#add9e6" points="298,255 304,264 303,254 298,255"/>
<text text-anchor="middle" x="312" y="225" style="font-family:arial">rdf:_2</text>
</a></g>
<g id="node12" class="node"><title>:_5</title>
<ellipse cx="62" cy="281" rx="27" ry="18" style="fill:#eedb82;stroke:#eedb82"/>
<text text-anchor="middle" x="62" y="285" style="font-family:arial">rfe_id</text>
</g>
<g id="edge11" class="edge"><title>:_2-&gt;:_5</title>
<a xlink:href="http://www.w3.org/1999/02/22-rdf-syntax-ns#_3" target="_blank" onmouseover="show_status('http://www.w3.org/1999/02/22-rdf-syntax-ns#_3');">
<path style="fill:none;stroke:#add9e6" d="M246,185C243,188 240,191 234,194 210,207 201,204 174,212 142,223 130,219 101,238 94,243 86,251 80,258"/>
<polygon style="fill:#add9e6;stroke:#add9e6" points="79,256 74,265 82,259 79,256"/>
<text text-anchor="middle" x="206" y="225" style="font-family:arial">rdf:_3</text>
</a></g>
<g id="node14" class="node"><title>:_6</title>
<ellipse cx="503" cy="281" rx="27" ry="18" style="fill:#eedb82;stroke:#eedb82"/>
<text text-anchor="middle" x="503" y="285" style="font-family:arial">rfr_id</text>
</g>
<g id="edge13" class="edge"><title>:_2-&gt;:_6</title>
<a xlink:href="http://www.w3.org/1999/02/22-rdf-syntax-ns#_4" target="_blank" onmouseover="show_status('http://www.w3.org/1999/02/22-rdf-syntax-ns#_4');">
<path style="fill:none;stroke:#add9e6" d="M296,184C353,203 375,208 435,238 449,245 464,255 476,263"/>
<polygon style="fill:#add9e6;stroke:#add9e6" points="474,265 484,268 477,261 474,265"/>
<text text-anchor="middle" x="439" y="225" style="font-family:arial">rdf:_4</text>
</a></g>
<g id="node17" class="node"><title>data:,pmid:11823195</title>
<a xlink:href="" onclick="show_data('pmid:11823195');" onmouseover="show_status('data:,pmid:11823195');">
<ellipse cx="172" cy="371" rx="59" ry="18" style="fill:#dca0dd;stroke:#dca0dd"/>
<text text-anchor="middle" x="172" y="375" style="font-family:arial">data:,pmid:11823195</text>
</a></g>
<g id="edge16" class="edge"><title>:_3-&gt;data:,pmid:11823195</title>
<a xlink:href="http://www2.elsevier.co.uk/~tony/1014/yads-schema-2002-04-03#resource" target="_blank" onmouseover="show_status('http://www2.elsevier.co.uk/~tony/1014/yads-schema-2002-04-03#resource');">
<path style="fill:none;stroke:#add9e6" d="M165,299C162,309 160,323 162,335 162,338 163,341 164,343"/>
<polygon style="fill:#add9e6;stroke:#add9e6" points="162,344 166,353 166,343 162,344"/>
<text text-anchor="middle" x="204" y="330" style="font-family:arial">has:resource</text>
</a></g>
<g id="node20" class="node"><title>mailto:joe.doe@greatjob.org</title>
<a xlink:href="mailto:joe.doe@greatjob.org">
<ellipse cx="339" cy="371" rx="84" ry="18" style="fill:#dca0dd;stroke:#dca0dd"/>
<text text-anchor="middle" x="339" y="375" style="font-family:arial">mailto:joe.doe@greatjob.org</text>
</a></g>
<g id="edge19" class="edge"><title>:_4-&gt;mailto:joe.doe@greatjob.org</title>
<a xlink:href="http://www2.elsevier.co.uk/~tony/1014/yads-schema-2002-04-03#resource" target="_blank" onmouseover="show_status('http://www2.elsevier.co.uk/~tony/1014/yads-schema-2002-04-03#resource');">
<path style="fill:none;stroke:#add9e6" d="M316,299C320,312 326,329 330,344"/>
<polygon style="fill:#add9e6;stroke:#add9e6" points="327,344 333,353 332,343 327,344"/>
<text text-anchor="middle" x="369" y="330" style="font-family:arial">has:resource</text>
</a></g>
<g id="edge22" class="edge"><title>:_5-&gt;data:,pmid:11823195</title>
<a xlink:href="http://www2.elsevier.co.uk/~tony/1014/yads-schema-2002-04-03#resource" target="_blank" onmouseover="show_status('http://www2.elsevier.co.uk/~tony/1014/yads-schema-2002-04-03#resource');">
<path style="fill:none;stroke:#add9e6" d="M63,299C65,311 68,325 77,335 87,346 99,353 112,358"/>
<polygon style="fill:#add9e6;stroke:#add9e6" points="111,360 121,361 112,355 111,360"/>
<text text-anchor="middle" x="118" y="330" style="font-family:arial">has:resource</text>
</a></g>
<g id="node25" class="node"><title>data:,dns:ncbi.nlm.nih.gov:pu...d</title>
<a xlink:href="" onclick="show_data('dns:ncbi.nlm.nih.gov:pubmed');" onmouseover="show_status('data:,dns:ncbi.nlm.nih.gov:pubmed');">
<ellipse cx="532" cy="371" rx="85" ry="18" style="fill:#dca0dd;stroke:#dca0dd"/>
<text text-anchor="middle" x="532" y="375" style="font-family:arial">data:,dns:ncbi.nlm.nih.gov:pu...d</text>
</a></g>
<g id="edge25" class="edge"><title>:_6-&gt;data:,dns:ncbi.nlm.nih.gov:pu...d</title>
<a xlink:href="http://www2.elsevier.co.uk/~tony/1014/yads-schema-2002-04-03#resource" target="_blank" onmouseover="show_status('http://www2.elsevier.co.uk/~tony/1014/yads-schema-2002-04-03#resource');">
<path style="fill:none;stroke:#add9e6" d="M509,299C513,312 519,329 523,344"/>
<polygon style="fill:#add9e6;stroke:#add9e6" points="520,344 526,353 525,343 520,344"/>
<text text-anchor="middle" x="560" y="330" style="font-family:arial">has:resource</text>
</a></g>
</g>
</svg>
