<?xml version="1.0" encoding="UTF-8" standalone="no"?>
<!DOCTYPE svg PUBLIC "-//W3C//DTD SVG 1.0//EN"
 "http://www.w3.org/TR/2001/REC-SVG-20010904/DTD/svg10.dtd" [
 <!ATTLIST svg xmlns:xlink CDATA #FIXED "http://www.w3.org/1999/xlink">
]>
<!-- Generated by dot version 1.8.5 (Tue Apr 23 17:19:23  2002)
     For user: (Administrator) ,S-1-5-21-1454471165-688789844-1708537768-500   Title: yads    Pages: 1 -->
<svg width="1918px" height="643px"
 xmlns="http://www.w3.org/2000/svg" xmlns:xlink="http://www.w3.org/1999/xlink">
<g id="graph0" class="graph" style="font-family:Times-Roman;font-size:11.00">
<title>yads</title>
<text text-anchor="middle" x="959" y="632" style="font-family:arial;font-size:24.00">YADS - A Description Service</text>
<g id="graph2" class="cluster"><title>cluster_1</title>
<polygon style="fill:none;stroke:#d2d2d2;stroke-dasharray:5,2" points="19,600 1899,600 1899,43 19,43 19,600"/>
<text text-anchor="middle" x="122" y="55" style="font-family:arial">Nest - OpenURL Resolver + Query</text>
</g>
<g id="graph3" class="cluster"><title>cluster_3</title>
<polygon style="fill:none;stroke:#d2d2d2;stroke-dasharray:5,2" points="72,397 266,397 266,238 72,238 72,397"/>
<text text-anchor="middle" x="119" y="250" style="font-family:arial">Item - Referent</text>
</g>
<g id="graph4" class="cluster"><title>cluster_4</title>
<polygon style="fill:none;stroke:#d2d2d2;stroke-dasharray:5,2" points="274,397 462,397 462,238 274,238 274,397"/>
<text text-anchor="middle" x="318" y="250" style="font-family:arial">Item - Referer</text>
</g>
<g id="graph5" class="cluster"><title>cluster_5</title>
<polygon style="fill:none;stroke:#d2d2d2;stroke-dasharray:5,2" points="27,592 203,592 203,433 27,433 27,592"/>
<text text-anchor="middle" x="91" y="445" style="font-family:arial">Item - Referring-Entity</text>
</g>
<g id="graph6" class="cluster"><title>cluster_6</title>
<polygon style="fill:none;stroke:#d2d2d2;stroke-dasharray:5,2" points="524,397 698,397 698,238 524,238 524,397"/>
<text text-anchor="middle" x="588" y="250" style="font-family:arial">Item - Referring-Entity</text>
</g>
<g id="graph7" class="cluster"><title>cluster_7</title>
<polygon style="fill:none;stroke:#d2d2d2;stroke-dasharray:5,2" points="706,397 820,397 820,238 706,238 706,397"/>
<text text-anchor="middle" x="746" y="250" style="font-family:arial">Item - Admin</text>
</g>
<g id="graph8" class="cluster"><title>cluster_8</title>
<polygon style="fill:none;stroke:#d2d2d2;stroke-dasharray:5,2" points="828,397 1010,397 1010,238 828,238 828,397"/>
<text text-anchor="middle" x="868" y="250" style="font-family:arial">Item - Admin</text>
</g>
<g id="graph9" class="cluster"><title>cluster_11</title>
<polygon style="fill:none;stroke:#d2d2d2;stroke-dasharray:5,2" points="1794,592 1891,592 1891,433 1794,433 1794,592"/>
<text text-anchor="middle" x="1835" y="445" style="font-family:arial">Item - Private</text>
</g>
<g id="graph10" class="cluster"><title>cluster_12</title>
<polygon style="fill:none;stroke:#d2d2d2;stroke-dasharray:5,2" points="309,592 515,592 515,433 309,433 309,592"/>
<text text-anchor="middle" x="350" y="445" style="font-family:arial">Item - Private</text>
</g>
<g id="graph11" class="cluster"><title>cluster_13</title>
<polygon style="fill:none;stroke:#d2d2d2;stroke-dasharray:5,2" points="1692,502 1786,502 1786,433 1692,433 1692,502"/>
<text text-anchor="middle" x="1733" y="445" style="font-family:arial">Item - Private</text>
</g>
<g id="graph12" class="cluster"><title>cluster_14</title>
<polygon style="fill:none;stroke:#d2d2d2;stroke-dasharray:5,2" points="523,592 677,592 677,433 523,433 523,592"/>
<text text-anchor="middle" x="564" y="445" style="font-family:arial">Item - Private</text>
</g>
<g id="graph13" class="cluster"><title>cluster_15</title>
<polygon style="fill:none;stroke:#d2d2d2;stroke-dasharray:5,2" points="685,592 861,592 861,433 685,433 685,592"/>
<text text-anchor="middle" x="726" y="445" style="font-family:arial">Item - Private</text>
</g>
<g id="graph14" class="cluster"><title>cluster_16</title>
<polygon style="fill:none;stroke:#d2d2d2;stroke-dasharray:5,2" points="211,502 301,502 301,433 211,433 211,502"/>
<text text-anchor="middle" x="252" y="445" style="font-family:arial">Item - Private</text>
</g>
<g id="graph15" class="cluster"><title>cluster_17</title>
<polygon style="fill:none;stroke:#d2d2d2;stroke-dasharray:5,2" points="869,592 1061,592 1061,433 869,433 869,592"/>
<text text-anchor="middle" x="910" y="445" style="font-family:arial">Item - Private</text>
</g>
<g id="graph16" class="cluster"><title>cluster_18</title>
<polygon style="fill:none;stroke:#d2d2d2;stroke-dasharray:5,2" points="1069,592 1205,592 1205,433 1069,433 1069,592"/>
<text text-anchor="middle" x="1110" y="445" style="font-family:arial">Item - Private</text>
</g>
<g id="graph17" class="cluster"><title>cluster_19</title>
<polygon style="fill:none;stroke:#d2d2d2;stroke-dasharray:5,2" points="1213,592 1310,592 1310,433 1213,433 1213,592"/>
<text text-anchor="middle" x="1254" y="445" style="font-family:arial">Item - Private</text>
</g>
<g id="graph18" class="cluster"><title>cluster_20</title>
<polygon style="fill:none;stroke:#d2d2d2;stroke-dasharray:5,2" points="1318,592 1502,592 1502,433 1318,433 1318,592"/>
<text text-anchor="middle" x="1359" y="445" style="font-family:arial">Item - Private</text>
</g>
<g id="graph19" class="cluster"><title>cluster_21</title>
<polygon style="fill:none;stroke:#d2d2d2;stroke-dasharray:5,2" points="1510,592 1684,592 1684,433 1510,433 1510,592"/>
<text text-anchor="middle" x="1551" y="445" style="font-family:arial">Item - Private</text>
</g>
<g id="node2" class="node"><title>:_1</title>
<ellipse cx="539" cy="86" rx="35" ry="18" style="fill:#eedb82;stroke:#eedb82"/>
<text text-anchor="middle" x="539" y="90" style="font-family:arial">OpenURL</text>
</g>
<g id="node4" class="node"><title>http://openurl.org/resolver?</title>
<a xlink:href="http://openurl.org/resolver?" target="_blank" onmouseover="show_status('http://openurl.org/resolver?');">
<ellipse cx="483" cy="176" rx="80" ry="18" style="fill:#dca0dd;stroke:#dca0dd"/>
<text text-anchor="middle" x="483" y="180" style="font-family:arial">http://openurl.org/resolver?</text>
</a></g>
<g id="edge3" class="edge"><title>:_1-&gt;http://openurl.org/resolver?</title>
<a xlink:href="http://www2.elsevier.co.uk/~tony/1014/yads-schema-2002-04-03#resource" target="_blank" onmouseover="show_status('http://www2.elsevier.co.uk/~tony/1014/yads-schema-2002-04-03#resource');">
<path style="fill:none;stroke:#add9e6" d="M528,103C520,117 508,135 499,150"/>
<polygon style="fill:#add9e6;stroke:#add9e6" points="497,148 494,158 501,151 497,148"/>
<text text-anchor="middle" x="558" y="135" style="font-family:arial">has:resource</text>
</a></g>
<g id="node6" class="node"><title>:_2</title>
<a xlink:href="http://www.w3.org/1999/02/22-rdf-syntax-ns#Bag" target="_blank" onmouseover="show_status('http://www.w3.org/1999/02/22-rdf-syntax-ns#Bag');">
<ellipse cx="609" cy="176" rx="28" ry="18" style="fill:#d2d2d2;stroke:#d2d2d2"/>
<text text-anchor="middle" x="609" y="180" style="font-family:arial">rdf:Bag</text>
</a></g>
<g id="edge5" class="edge"><title>:_1-&gt;:_2</title>
<a xlink:href="http://www2.elsevier.co.uk/~tony/1014/yads-schema-2002-04-03#collection" target="_blank" onmouseover="show_status('http://www2.elsevier.co.uk/~tony/1014/yads-schema-2002-04-03#collection');">
<path style="fill:none;stroke:#add9e6" d="M568,96C581,102 594,110 602,122 607,130 610,140 611,149"/>
<polygon style="fill:#add9e6;stroke:#add9e6" points="609,148 611,158 614,148 609,148"/>
<text text-anchor="middle" x="652" y="135" style="font-family:arial">has:collection</text>
</a></g>
<g id="node8" class="node"><title>:_3</title>
<ellipse cx="204" cy="281" rx="27" ry="18" style="fill:#eedb82;stroke:#eedb82"/>
<text text-anchor="middle" x="204" y="285" style="font-family:arial">ref_id</text>
</g>
<g id="edge7" class="edge"><title>:_2-&gt;:_3</title>
<a xlink:href="http://www.w3.org/1999/02/22-rdf-syntax-ns#_1" target="_blank" onmouseover="show_status('http://www.w3.org/1999/02/22-rdf-syntax-ns#_1');">
<path style="fill:none;stroke:#add9e6" d="M583,183C580,187 579,191 572,194 562,200 368,210 356,212 317,220 307,222 270,238 256,245 241,254 229,262"/>
<polygon style="fill:#add9e6;stroke:#add9e6" points="229,259 222,267 232,263 229,259"/>
<text text-anchor="middle" x="403" y="225" style="font-family:arial">rdf:_1</text>
</a></g>
<g id="node10" class="node"><title>:_4</title>
<ellipse cx="381" cy="281" rx="27" ry="18" style="fill:#eedb82;stroke:#eedb82"/>
<text text-anchor="middle" x="381" y="285" style="font-family:arial">rfr_id</text>
</g>
<g id="edge9" class="edge"><title>:_2-&gt;:_4</title>
<a xlink:href="http://www.w3.org/1999/02/22-rdf-syntax-ns#_2" target="_blank" onmouseover="show_status('http://www.w3.org/1999/02/22-rdf-syntax-ns#_2');">
<path style="fill:none;stroke:#add9e6" d="M588,188C583,190 577,193 572,194 509,213 486,188 425,212 408,220 402,223 391,238 389,243 386,248 385,254"/>
<polygon style="fill:#add9e6;stroke:#add9e6" points="383,253 383,263 388,254 383,253"/>
<text text-anchor="middle" x="455" y="225" style="font-family:arial">rdf:_2</text>
</a></g>
<g id="node12" class="node"><title>:_5</title>
<ellipse cx="141" cy="476" rx="27" ry="18" style="fill:#eedb82;stroke:#eedb82"/>
<text text-anchor="middle" x="141" y="480" style="font-family:arial">rfe_id</text>
</g>
<g id="edge11" class="edge"><title>:_2-&gt;:_5</title>
<a xlink:href="http://www.w3.org/1999/02/22-rdf-syntax-ns#_3" target="_blank" onmouseover="show_status('http://www.w3.org/1999/02/22-rdf-syntax-ns#_3');">
<path style="fill:none;stroke:#add9e6" d="M590,189C565,207 523,235 520,238 494,268 490,280 477,317 466,352 492,372 466,397 425,439 262,413 207,433 192,439 177,448 165,457"/>
<polygon style="fill:#add9e6;stroke:#add9e6" points="165,454 158,462 168,458 165,454"/>
<text text-anchor="middle" x="501" y="330" style="font-family:arial">rdf:_3</text>
</a></g>
<g id="node14" class="node"><title>:_6</title>
<ellipse cx="609" cy="281" rx="27" ry="18" style="fill:#eedb82;stroke:#eedb82"/>
<text text-anchor="middle" x="609" y="285" style="font-family:arial">rfe_id</text>
</g>
<g id="edge13" class="edge"><title>:_2-&gt;:_6</title>
<a xlink:href="http://www.w3.org/1999/02/22-rdf-syntax-ns#_4" target="_blank" onmouseover="show_status('http://www.w3.org/1999/02/22-rdf-syntax-ns#_4');">
<path style="fill:none;stroke:#add9e6" d="M609,194C609,210 609,235 609,254"/>
<polygon style="fill:#add9e6;stroke:#add9e6" points="607,253 609,263 612,253 607,253"/>
<text text-anchor="middle" x="630" y="225" style="font-family:arial">rdf:_4</text>
</a></g>
<g id="node16" class="node"><title>:_7</title>
<ellipse cx="748" cy="281" rx="34" ry="18" style="fill:#eedb82;stroke:#eedb82"/>
<text text-anchor="middle" x="748" y="285" style="font-family:arial">adm_ver</text>
</g>
<g id="edge15" class="edge"><title>:_2-&gt;:_7</title>
<a xlink:href="http://www.w3.org/1999/02/22-rdf-syntax-ns#_5" target="_blank" onmouseover="show_status('http://www.w3.org/1999/02/22-rdf-syntax-ns#_5');">
<path style="fill:none;stroke:#add9e6" d="M630,188C649,200 679,220 702,238 710,245 718,252 725,259"/>
<polygon style="fill:#add9e6;stroke:#add9e6" points="723,260 732,265 726,257 723,260"/>
<text text-anchor="middle" x="712" y="225" style="font-family:arial">rdf:_5</text>
</a></g>
<g id="node18" class="node"><title>:_8</title>
<ellipse cx="894" cy="281" rx="33" ry="18" style="fill:#eedb82;stroke:#eedb82"/>
<text text-anchor="middle" x="894" y="285" style="font-family:arial">adm_tim</text>
</g>
<g id="edge17" class="edge"><title>:_2-&gt;:_8</title>
<a xlink:href="http://www.w3.org/1999/02/22-rdf-syntax-ns#_6" target="_blank" onmouseover="show_status('http://www.w3.org/1999/02/22-rdf-syntax-ns#_6');">
<path style="fill:none;stroke:#add9e6" d="M637,179C720,196 744,202 824,238 839,245 854,254 866,262"/>
<polygon style="fill:#add9e6;stroke:#add9e6" points="864,264 874,267 867,260 864,264"/>
<text text-anchor="middle" x="826" y="225" style="font-family:arial">rdf:_6</text>
</a></g>
<g id="node20" class="node"><title>:_9</title>
<ellipse cx="1075" cy="281" rx="32" ry="18" style="fill:#eedb82;stroke:#eedb82"/>
<text text-anchor="middle" x="1075" y="285" style="font-family:arial">adm_pid</text>
</g>
<g id="edge19" class="edge"><title>:_2-&gt;:_9</title>
<a xlink:href="http://www.w3.org/1999/02/22-rdf-syntax-ns#_7" target="_blank" onmouseover="show_status('http://www.w3.org/1999/02/22-rdf-syntax-ns#_7');">
<path style="fill:none;stroke:#add9e6" d="M637,178C640,178 643,178 645,178 811,196 861,176 1014,238 1027,244 1040,252 1051,260"/>
<polygon style="fill:#add9e6;stroke:#add9e6" points="1049,261 1058,266 1052,258 1049,261"/>
<text text-anchor="middle" x="1011" y="225" style="font-family:arial">rdf:_7</text>
</a></g>
<g id="node23" class="node"><title>doi:10.1126/science.275.5304....0</title>
<a xlink:href="http://dx.doi.org/10.1126/science.275.5304.1320" target="_blank" onmouseover="show_status('http://dx.doi.org/10.1126/science.275.5304.1320');">
<ellipse cx="169" cy="371" rx="89" ry="18" style="fill:#dca0dd;stroke:#dca0dd"/>
<text text-anchor="middle" x="169" y="375" style="font-family:arial">doi:10.1126/science.275.5304....0</text>
</a></g>
<g id="edge22" class="edge"><title>:_3-&gt;doi:10.1126/science.275.5304....0</title>
<a xlink:href="http://www2.elsevier.co.uk/~tony/1014/yads-schema-2002-04-03#resource" target="_blank" onmouseover="show_status('http://www2.elsevier.co.uk/~tony/1014/yads-schema-2002-04-03#resource');">
<path style="fill:none;stroke:#add9e6" d="M197,299C194,304 192,311 189,317 185,326 182,335 179,344"/>
<polygon style="fill:#add9e6;stroke:#add9e6" points="177,343 176,353 182,344 177,343"/>
<text text-anchor="middle" x="233" y="330" style="font-family:arial">has:resource</text>
</a></g>
<g id="node26" class="node"><title>data:,dns:crossref.org:ideali...m</title>
<a xlink:href="" onclick="show_data('dns:crossref.org:idealibray.com');" onmouseover="show_status('data:,dns:crossref.org:idealibray.com');">
<ellipse cx="368" cy="371" rx="86" ry="18" style="fill:#dca0dd;stroke:#dca0dd"/>
<text text-anchor="middle" x="368" y="375" style="font-family:arial">data:,dns:crossref.org:ideali...m</text>
</a></g>
<g id="edge25" class="edge"><title>:_4-&gt;data:,dns:crossref.org:ideali...m</title>
<a xlink:href="http://www2.elsevier.co.uk/~tony/1014/yads-schema-2002-04-03#resource" target="_blank" onmouseover="show_status('http://www2.elsevier.co.uk/~tony/1014/yads-schema-2002-04-03#resource');">
<path style="fill:none;stroke:#add9e6" d="M354,285C335,289 311,299 299,317 291,330 300,342 315,350"/>
<polygon style="fill:#add9e6;stroke:#add9e6" points="314,352 324,355 316,348 314,352"/>
<text text-anchor="middle" x="343" y="330" style="font-family:arial">has:resource</text>
</a></g>
<g id="node29" class="node"><title>doi:10.1006/mthe.2000.0239</title>
<a xlink:href="http://dx.doi.org/10.1006/mthe.2000.0239" target="_blank" onmouseover="show_status('http://dx.doi.org/10.1006/mthe.2000.0239');">
<ellipse cx="115" cy="566" rx="80" ry="18" style="fill:#dca0dd;stroke:#dca0dd"/>
<text text-anchor="middle" x="115" y="570" style="font-family:arial">doi:10.1006/mthe.2000.0239</text>
</a></g>
<g id="edge28" class="edge"><title>:_5-&gt;doi:10.1006/mthe.2000.0239</title>
<a xlink:href="http://www2.elsevier.co.uk/~tony/1014/yads-schema-2002-04-03#resource" target="_blank" onmouseover="show_status('http://www2.elsevier.co.uk/~tony/1014/yads-schema-2002-04-03#resource');">
<path style="fill:none;stroke:#add9e6" d="M136,494C132,507 127,524 123,539"/>
<polygon style="fill:#add9e6;stroke:#add9e6" points="121,538 120,548 126,539 121,538"/>
<text text-anchor="middle" x="173" y="525" style="font-family:arial">has:resource</text>
</a></g>
<g id="node32" class="node"><title>data:,uri:urn:ISSN:1525-0016</title>
<a xlink:href="" onclick="show_data('uri:urn:ISSN:1525-0016');" onmouseover="show_status('data:,uri:urn:ISSN:1525-0016');">
<ellipse cx="611" cy="371" rx="79" ry="18" style="fill:#dca0dd;stroke:#dca0dd"/>
<text text-anchor="middle" x="611" y="375" style="font-family:arial">data:,uri:urn:ISSN:1525-0016</text>
</a></g>
<g id="edge31" class="edge"><title>:_6-&gt;data:,uri:urn:ISSN:1525-0016</title>
<a xlink:href="http://www2.elsevier.co.uk/~tony/1014/yads-schema-2002-04-03#resource" target="_blank" onmouseover="show_status('http://www2.elsevier.co.uk/~tony/1014/yads-schema-2002-04-03#resource');">
<path style="fill:none;stroke:#add9e6" d="M609,299C610,312 610,329 611,344"/>
<polygon style="fill:#add9e6;stroke:#add9e6" points="609,343 611,353 614,343 609,343"/>
<text text-anchor="middle" x="652" y="330" style="font-family:arial">has:resource</text>
</a></g>
<g id="node35" class="node"><title>data:,openurl.1.0</title>
<a xlink:href="" onclick="show_data('openurl.1.0');" onmouseover="show_status('data:,openurl.1.0');">
<ellipse cx="763" cy="371" rx="49" ry="18" style="fill:#dca0dd;stroke:#dca0dd"/>
<text text-anchor="middle" x="763" y="375" style="font-family:arial">data:,openurl.1.0</text>
</a></g>
<g id="edge34" class="edge"><title>:_7-&gt;data:,openurl.1.0</title>
<a xlink:href="http://www2.elsevier.co.uk/~tony/1014/yads-schema-2002-04-03#resource" target="_blank" onmouseover="show_status('http://www2.elsevier.co.uk/~tony/1014/yads-schema-2002-04-03#resource');">
<path style="fill:none;stroke:#add9e6" d="M743,299C741,310 740,323 743,335 744,338 745,341 747,344"/>
<polygon style="fill:#add9e6;stroke:#add9e6" points="745,345 751,353 749,343 745,345"/>
<text text-anchor="middle" x="784" y="330" style="font-family:arial">has:resource</text>
</a></g>
<g id="node38" class="node"><title>data:,2002-02-20T14:20:03Z</title>
<a xlink:href="" onclick="show_data('2002-02-20T14:20:03Z');" onmouseover="show_status('data:,2002-02-20T14:20:03Z');">
<ellipse cx="919" cy="371" rx="83" ry="18" style="fill:#dca0dd;stroke:#dca0dd"/>
<text text-anchor="middle" x="919" y="375" style="font-family:arial">data:,2002-02-20T14:20:03Z</text>
</a></g>
<g id="edge37" class="edge"><title>:_8-&gt;data:,2002-02-20T14:20:03Z</title>
<a xlink:href="http://www2.elsevier.co.uk/~tony/1014/yads-schema-2002-04-03#resource" target="_blank" onmouseover="show_status('http://www2.elsevier.co.uk/~tony/1014/yads-schema-2002-04-03#resource');">
<path style="fill:none;stroke:#add9e6" d="M868,292C847,302 824,318 835,335 840,342 847,348 854,353"/>
<polygon style="fill:#add9e6;stroke:#add9e6" points="853,355 863,358 855,351 853,355"/>
<text text-anchor="middle" x="878" y="330" style="font-family:arial">has:resource</text>
</a></g>
<g id="node40" class="node"><title>:_10</title>
<a xlink:href="http://www.w3.org/1999/02/22-rdf-syntax-ns#Seq" target="_blank" onmouseover="show_status('http://www.w3.org/1999/02/22-rdf-syntax-ns#Seq');">
<ellipse cx="1094" cy="371" rx="28" ry="18" style="fill:#d2d2d2;stroke:#d2d2d2"/>
<text text-anchor="middle" x="1094" y="375" style="font-family:arial">rdf:Seq</text>
</a></g>
<g id="edge39" class="edge"><title>:_9-&gt;:_10</title>
<a xlink:href="http://www2.elsevier.co.uk/~tony/1014/yads-schema-2002-04-03#collection" target="_blank" onmouseover="show_status('http://www2.elsevier.co.uk/~tony/1014/yads-schema-2002-04-03#collection');">
<path style="fill:none;stroke:#add9e6" d="M1079,299C1081,312 1085,329 1088,344"/>
<polygon style="fill:#add9e6;stroke:#add9e6" points="1085,344 1090,353 1090,343 1085,344"/>
<text text-anchor="middle" x="1129" y="330" style="font-family:arial">has:collection</text>
</a></g>
<g id="node42" class="node"><title>:_11</title>
<ellipse cx="1839" cy="476" rx="37" ry="18" style="fill:#eedb82;stroke:#eedb82"/>
<text text-anchor="middle" x="1839" y="480" style="font-family:arial">cr_setVer</text>
</g>
<g id="edge41" class="edge"><title>:_10-&gt;:_11</title>
<a xlink:href="http://www.w3.org/1999/02/22-rdf-syntax-ns#_1" target="_blank" onmouseover="show_status('http://www.w3.org/1999/02/22-rdf-syntax-ns#_1');">
<path style="fill:none;stroke:#add9e6" d="M1122,371C1154,372 1205,372 1224,373 1443,382 1501,364 1714,407 1749,415 1760,416 1790,433 1799,438 1808,446 1816,453"/>
<polygon style="fill:#add9e6;stroke:#add9e6" points="1814,454 1823,459 1817,451 1814,454"/>
<text text-anchor="middle" x="1794" y="420" style="font-family:arial">rdf:_1</text>
</a></g>
<g id="node44" class="node"><title>:_12</title>
<ellipse cx="452" cy="476" rx="28" ry="18" style="fill:#eedb82;stroke:#eedb82"/>
<text text-anchor="middle" x="452" y="480" style="font-family:arial">cr_key</text>
</g>
<g id="edge43" class="edge"><title>:_10-&gt;:_12</title>
<a xlink:href="http://www.w3.org/1999/02/22-rdf-syntax-ns#_2" target="_blank" onmouseover="show_status('http://www.w3.org/1999/02/22-rdf-syntax-ns#_2');">
<path style="fill:none;stroke:#add9e6" d="M1066,373C1065,373 1064,373 1063,373 1052,377 1026,395 1014,397 1006,400 702,407 693,407 645,412 633,418 584,425 556,430 547,424 519,433 504,439 489,448 477,457"/>
<polygon style="fill:#add9e6;stroke:#add9e6" points="477,454 470,462 480,458 477,454"/>
<text text-anchor="middle" x="798" y="420" style="font-family:arial">rdf:_2</text>
</a></g>
<g id="node46" class="node"><title>:_13</title>
<ellipse cx="1739" cy="476" rx="39" ry="18" style="fill:#eedb82;stroke:#eedb82"/>
<text text-anchor="middle" x="1739" y="480" style="font-family:arial">cr_keyVer</text>
</g>
<g id="edge45" class="edge"><title>:_10-&gt;:_13</title>
<a xlink:href="http://www.w3.org/1999/02/22-rdf-syntax-ns#_3" target="_blank" onmouseover="show_status('http://www.w3.org/1999/02/22-rdf-syntax-ns#_3');">
<path style="fill:none;stroke:#add9e6" d="M1122,372C1136,372 1153,373 1168,373 1330,383 1370,387 1530,407 1601,417 1624,404 1688,433 1698,438 1708,445 1717,453"/>
<polygon style="fill:#add9e6;stroke:#add9e6" points="1715,454 1724,459 1718,451 1715,454"/>
<text text-anchor="middle" x="1688" y="420" style="font-family:arial">rdf:_3</text>
</a></g>
<g id="node48" class="node"><title>:_14</title>
<ellipse cx="610" cy="476" rx="37" ry="18" style="fill:#eedb82;stroke:#eedb82"/>
<text text-anchor="middle" x="610" y="480" style="font-family:arial">cr_datTim</text>
</g>
<g id="edge47" class="edge"><title>:_10-&gt;:_14</title>
<a xlink:href="http://www.w3.org/1999/02/22-rdf-syntax-ns#_4" target="_blank" onmouseover="show_status('http://www.w3.org/1999/02/22-rdf-syntax-ns#_4');">
<path style="fill:none;stroke:#add9e6" d="M1066,373C1054,378 1027,394 1014,397 996,402 863,405 844,407 842,408 684,433 681,433 666,439 651,447 638,456"/>
<polygon style="fill:#add9e6;stroke:#add9e6" points="638,453 631,461 641,457 638,453"/>
<text text-anchor="middle" x="914" y="420" style="font-family:arial">rdf:_4</text>
</a></g>
<g id="node50" class="node"><title>:_15</title>
<ellipse cx="799" cy="476" rx="27" ry="18" style="fill:#eedb82;stroke:#eedb82"/>
<text text-anchor="middle" x="799" y="480" style="font-family:arial">cr_src</text>
</g>
<g id="edge49" class="edge"><title>:_10-&gt;:_15</title>
<a xlink:href="http://www.w3.org/1999/02/22-rdf-syntax-ns#_5" target="_blank" onmouseover="show_status('http://www.w3.org/1999/02/22-rdf-syntax-ns#_5');">
<path style="fill:none;stroke:#add9e6" d="M1067,376C1047,383 1040,390 1014,397 949,417 928,407 865,433 850,440 835,449 824,457"/>
<polygon style="fill:#add9e6;stroke:#add9e6" points="824,454 817,462 827,458 824,454"/>
<text text-anchor="middle" x="1007" y="420" style="font-family:arial">rdf:_5</text>
</a></g>
<g id="node52" class="node"><title>:_16</title>
<ellipse cx="256" cy="476" rx="37" ry="18" style="fill:#eedb82;stroke:#eedb82"/>
<text text-anchor="middle" x="256" y="480" style="font-family:arial">cr_srcDOI</text>
</g>
<g id="edge51" class="edge"><title>:_10-&gt;:_16</title>
<a xlink:href="http://www.w3.org/1999/02/22-rdf-syntax-ns#_6" target="_blank" onmouseover="show_status('http://www.w3.org/1999/02/22-rdf-syntax-ns#_6');">
<path style="fill:none;stroke:#add9e6" d="M1066,373C1064,373 1063,373 1062,373 1053,376 1052,378 1043,382 1030,389 1029,394 1014,397 1011,398 541,407 537,407 510,412 506,421 478,425 441,432 341,419 305,433 295,438 285,445 277,453"/>
<polygon style="fill:#add9e6;stroke:#add9e6" points="276,451 270,459 279,454 276,451"/>
<text text-anchor="middle" x="652" y="420" style="font-family:arial">rdf:_6</text>
</a></g>
<g id="node54" class="node"><title>:_17</title>
<ellipse cx="988" cy="476" rx="37" ry="18" style="fill:#eedb82;stroke:#eedb82"/>
<text text-anchor="middle" x="988" y="480" style="font-family:arial">cr_rtnURL</text>
</g>
<g id="edge53" class="edge"><title>:_10-&gt;:_17</title>
<a xlink:href="http://www.w3.org/1999/02/22-rdf-syntax-ns#_7" target="_blank" onmouseover="show_status('http://www.w3.org/1999/02/22-rdf-syntax-ns#_7');">
<path style="fill:none;stroke:#add9e6" d="M1078,386C1071,393 1062,400 1055,407 1039,423 1022,440 1010,454"/>
<polygon style="fill:#add9e6;stroke:#add9e6" points="1009,451 1004,460 1013,455 1009,451"/>
<text text-anchor="middle" x="1079" y="420" style="font-family:arial">rdf:_7</text>
</a></g>
<g id="node56" class="node"><title>:_18</title>
<ellipse cx="1114" cy="476" rx="35" ry="18" style="fill:#eedb82;stroke:#eedb82"/>
<text text-anchor="middle" x="1114" y="480" style="font-family:arial">cr_rtnTxt</text>
</g>
<g id="edge55" class="edge"><title>:_10-&gt;:_18</title>
<a xlink:href="http://www.w3.org/1999/02/22-rdf-syntax-ns#_8" target="_blank" onmouseover="show_status('http://www.w3.org/1999/02/22-rdf-syntax-ns#_8');">
<path style="fill:none;stroke:#add9e6" d="M1097,389C1100,405 1105,430 1109,449"/>
<polygon style="fill:#add9e6;stroke:#add9e6" points="1106,448 1110,458 1111,448 1106,448"/>
<text text-anchor="middle" x="1125" y="420" style="font-family:arial">rdf:_8</text>
</a></g>
<g id="node58" class="node"><title>:_19</title>
<ellipse cx="1259" cy="476" rx="38" ry="18" style="fill:#eedb82;stroke:#eedb82"/>
<text text-anchor="middle" x="1259" y="480" style="font-family:arial">cr_srvTyp</text>
</g>
<g id="edge57" class="edge"><title>:_10-&gt;:_19</title>
<a xlink:href="http://www.w3.org/1999/02/22-rdf-syntax-ns#_9" target="_blank" onmouseover="show_status('http://www.w3.org/1999/02/22-rdf-syntax-ns#_9');">
<path style="fill:none;stroke:#add9e6" d="M1117,382C1141,393 1179,413 1209,433 1218,439 1227,446 1235,454"/>
<polygon style="fill:#add9e6;stroke:#add9e6" points="1233,455 1242,460 1236,452 1233,455"/>
<text text-anchor="middle" x="1217" y="420" style="font-family:arial">rdf:_9</text>
</a></g>
<g id="node60" class="node"><title>:_20</title>
<ellipse cx="1386" cy="476" rx="36" ry="18" style="fill:#eedb82;stroke:#eedb82"/>
<text text-anchor="middle" x="1386" y="480" style="font-family:arial">cr_workId</text>
</g>
<g id="edge59" class="edge"><title>:_10-&gt;:_20</title>
<a xlink:href="http://www.w3.org/1999/02/22-rdf-syntax-ns#_10" target="_blank" onmouseover="show_status('http://www.w3.org/1999/02/22-rdf-syntax-ns#_10');">
<path style="fill:none;stroke:#add9e6" d="M1122,374C1209,389 1233,395 1314,433 1329,440 1344,449 1356,457"/>
<polygon style="fill:#add9e6;stroke:#add9e6" points="1354,459 1364,462 1357,455 1354,459"/>
<text text-anchor="middle" x="1319" y="420" style="font-family:arial">rdf:_10</text>
</a></g>
<g id="node62" class="node"><title>:_21</title>
<ellipse cx="1570" cy="476" rx="28" ry="18" style="fill:#eedb82;stroke:#eedb82"/>
<text text-anchor="middle" x="1570" y="480" style="font-family:arial">cr_pub</text>
</g>
<g id="edge61" class="edge"><title>:_10-&gt;:_21</title>
<a xlink:href="http://www.w3.org/1999/02/22-rdf-syntax-ns#_11" target="_blank" onmouseover="show_status('http://www.w3.org/1999/02/22-rdf-syntax-ns#_11');">
<path style="fill:none;stroke:#add9e6" d="M1122,372C1129,372 1135,373 1138,373 1303,391 1352,373 1506,433 1520,439 1535,448 1546,456"/>
<polygon style="fill:#add9e6;stroke:#add9e6" points="1544,457 1553,462 1547,454 1544,457"/>
<text text-anchor="middle" x="1504" y="420" style="font-family:arial">rdf:_11</text>
</a></g>
<g id="node65" class="node"><title>data:,01</title>
<a xlink:href="" onclick="show_data('01');" onmouseover="show_status('data:,01');">
<ellipse cx="1830" cy="566" rx="28" ry="18" style="fill:#dca0dd;stroke:#dca0dd"/>
<text text-anchor="middle" x="1830" y="570" style="font-family:arial">data:,01</text>
</a></g>
<g id="edge64" class="edge"><title>:_11-&gt;data:,01</title>
<a xlink:href="http://www2.elsevier.co.uk/~tony/1014/yads-schema-2002-04-03#resource" target="_blank" onmouseover="show_status('http://www2.elsevier.co.uk/~tony/1014/yads-schema-2002-04-03#resource');">
<path style="fill:none;stroke:#add9e6" d="M1818,491C1811,497 1805,504 1802,512 1798,522 1802,533 1808,543"/>
<polygon style="fill:#add9e6;stroke:#add9e6" points="1806,544 1814,551 1810,542 1806,544"/>
<text text-anchor="middle" x="1843" y="525" style="font-family:arial">has:resource</text>
</a></g>
<g id="node68" class="node"><title>data:,cx1Dk0f1ud58jlKfdsAifhe...s</title>
<a xlink:href="" onclick="show_data('cx1Dk0f1ud58jlKfdsAifhe23swkHG^s');" onmouseover="show_status('data:,cx1Dk0f1ud58jlKfdsAifhe23swkHG^s');">
<ellipse cx="412" cy="566" rx="95" ry="18" style="fill:#dca0dd;stroke:#dca0dd"/>
<text text-anchor="middle" x="412" y="570" style="font-family:arial">data:,cx1Dk0f1ud58jlKfdsAifhe...s</text>
</a></g>
<g id="edge67" class="edge"><title>:_12-&gt;data:,cx1Dk0f1ud58jlKfdsAifhe...s</title>
<a xlink:href="http://www2.elsevier.co.uk/~tony/1014/yads-schema-2002-04-03#resource" target="_blank" onmouseover="show_status('http://www2.elsevier.co.uk/~tony/1014/yads-schema-2002-04-03#resource');">
<path style="fill:none;stroke:#add9e6" d="M444,493C438,506 430,525 424,539"/>
<polygon style="fill:#add9e6;stroke:#add9e6" points="422,538 420,548 426,540 422,538"/>
<text text-anchor="middle" x="478" y="525" style="font-family:arial">has:resource</text>
</a></g>
<g id="edge70" class="edge"><title>:_13-&gt;data:,01</title>
<a xlink:href="http://www2.elsevier.co.uk/~tony/1014/yads-schema-2002-04-03#resource" target="_blank" onmouseover="show_status('http://www2.elsevier.co.uk/~tony/1014/yads-schema-2002-04-03#resource');">
<path style="fill:none;stroke:#add9e6" d="M1724,493C1716,504 1708,519 1716,530 1738,562 1761,557 1795,562"/>
<polygon style="fill:#add9e6;stroke:#add9e6" points="1792,564 1802,563 1792,559 1792,564"/>
<text text-anchor="middle" x="1757" y="525" style="font-family:arial">has:resource</text>
</a></g>
<g id="node73" class="node"><title>data:,20020220142003</title>
<a xlink:href="" onclick="show_data('20020220142003');" onmouseover="show_status('data:,20020220142003');">
<ellipse cx="600" cy="566" rx="69" ry="18" style="fill:#dca0dd;stroke:#dca0dd"/>
<text text-anchor="middle" x="600" y="570" style="font-family:arial">data:,20020220142003</text>
</a></g>
<g id="edge73" class="edge"><title>:_14-&gt;data:,20020220142003</title>
<a xlink:href="http://www2.elsevier.co.uk/~tony/1014/yads-schema-2002-04-03#resource" target="_blank" onmouseover="show_status('http://www2.elsevier.co.uk/~tony/1014/yads-schema-2002-04-03#resource');">
<path style="fill:none;stroke:#add9e6" d="M604,494C603,500 601,506 600,512 599,521 598,530 598,538"/>
<polygon style="fill:#add9e6;stroke:#add9e6" points="596,538 599,548 600,538 596,538"/>
<text text-anchor="middle" x="644" y="525" style="font-family:arial">has:resource</text>
</a></g>
<g id="node76" class="node"><title>http://www.idealibrary.com</title>
<a xlink:href="http://www.idealibrary.com" target="_blank" onmouseover="show_status('http://www.idealibrary.com');">
<ellipse cx="773" cy="566" rx="80" ry="18" style="fill:#dca0dd;stroke:#dca0dd"/>
<text text-anchor="middle" x="773" y="570" style="font-family:arial">http://www.idealibrary.com</text>
</a></g>
<g id="edge76" class="edge"><title>:_15-&gt;http://www.idealibrary.com</title>
<a xlink:href="http://www2.elsevier.co.uk/~tony/1014/yads-schema-2002-04-03#resource" target="_blank" onmouseover="show_status('http://www2.elsevier.co.uk/~tony/1014/yads-schema-2002-04-03#resource');">
<path style="fill:none;stroke:#add9e6" d="M791,494C789,499 786,506 784,512 781,521 779,530 778,539"/>
<polygon style="fill:#add9e6;stroke:#add9e6" points="776,538 776,548 781,539 776,538"/>
<text text-anchor="middle" x="828" y="525" style="font-family:arial">has:resource</text>
</a></g>
<g id="edge79" class="edge"><title>:_16-&gt;doi:10.1006/mthe.2000.0239</title>
<a xlink:href="http://www2.elsevier.co.uk/~tony/1014/yads-schema-2002-04-03#resource" target="_blank" onmouseover="show_status('http://www2.elsevier.co.uk/~tony/1014/yads-schema-2002-04-03#resource');">
<path style="fill:none;stroke:#add9e6" d="M240,492C235,498 229,505 224,512 220,520 223,525 216,530 207,539 194,547 181,552"/>
<polygon style="fill:#add9e6;stroke:#add9e6" points="184,548 175,554 185,553 184,548"/>
<text text-anchor="middle" x="268" y="525" style="font-family:arial">has:resource</text>
</a></g>
<g id="node81" class="node"><title>http://www.idealibrary.com/li...f</title>
<a xlink:href="http://www.idealibrary.com/links/doi/10.1006/mthe.2000.0239/ref" target="_blank" onmouseover="show_status('http://www.idealibrary.com/links/doi/10.1006/mthe.2000.0239/ref');">
<ellipse cx="965" cy="566" rx="88" ry="18" style="fill:#dca0dd;stroke:#dca0dd"/>
<text text-anchor="middle" x="965" y="570" style="font-family:arial">http://www.idealibrary.com/li...f</text>
</a></g>
<g id="edge82" class="edge"><title>:_17-&gt;http://www.idealibrary.com/li...f</title>
<a xlink:href="http://www2.elsevier.co.uk/~tony/1014/yads-schema-2002-04-03#resource" target="_blank" onmouseover="show_status('http://www2.elsevier.co.uk/~tony/1014/yads-schema-2002-04-03#resource');">
<path style="fill:none;stroke:#add9e6" d="M983,494C980,507 976,524 972,539"/>
<polygon style="fill:#add9e6;stroke:#add9e6" points="970,538 970,548 975,539 970,538"/>
<text text-anchor="middle" x="1021" y="525" style="font-family:arial">has:resource</text>
</a></g>
<g id="node84" class="node"><title>data:,Click%20Here</title>
<a xlink:href="" onclick="show_data('Click%20Here');" onmouseover="show_status('data:,Click%20Here');">
<ellipse cx="1137" cy="566" rx="60" ry="18" style="fill:#dca0dd;stroke:#dca0dd"/>
<text text-anchor="middle" x="1137" y="570" style="font-family:arial">data:,Click%20Here</text>
</a></g>
<g id="edge85" class="edge"><title>:_18-&gt;data:,Click%20Here</title>
<a xlink:href="http://www2.elsevier.co.uk/~tony/1014/yads-schema-2002-04-03#resource" target="_blank" onmouseover="show_status('http://www2.elsevier.co.uk/~tony/1014/yads-schema-2002-04-03#resource');">
<path style="fill:none;stroke:#add9e6" d="M1119,494C1122,507 1126,524 1130,539"/>
<polygon style="fill:#add9e6;stroke:#add9e6" points="1127,539 1132,548 1132,538 1127,539"/>
<text text-anchor="middle" x="1170" y="525" style="font-family:arial">has:resource</text>
</a></g>
<g id="node87" class="node"><title>data:,html</title>
<a xlink:href="" onclick="show_data('html');" onmouseover="show_status('data:,html');">
<ellipse cx="1254" cy="566" rx="33" ry="18" style="fill:#dca0dd;stroke:#dca0dd"/>
<text text-anchor="middle" x="1254" y="570" style="font-family:arial">data:,html</text>
</a></g>
<g id="edge88" class="edge"><title>:_19-&gt;data:,html</title>
<a xlink:href="http://www2.elsevier.co.uk/~tony/1014/yads-schema-2002-04-03#resource" target="_blank" onmouseover="show_status('http://www2.elsevier.co.uk/~tony/1014/yads-schema-2002-04-03#resource');">
<path style="fill:none;stroke:#add9e6" d="M1244,493C1240,498 1236,505 1233,512 1230,522 1233,532 1237,541"/>
<polygon style="fill:#add9e6;stroke:#add9e6" points="1234,541 1241,549 1239,539 1234,541"/>
<text text-anchor="middle" x="1277" y="525" style="font-family:arial">has:resource</text>
</a></g>
<g id="node90" class="node"><title>data:,Molecular%20Therapy</title>
<a xlink:href="" onclick="show_data('Molecular%20Therapy');" onmouseover="show_status('data:,Molecular%20Therapy');">
<ellipse cx="1410" cy="566" rx="84" ry="18" style="fill:#dca0dd;stroke:#dca0dd"/>
<text text-anchor="middle" x="1410" y="570" style="font-family:arial">data:,Molecular%20Therapy</text>
</a></g>
<g id="edge91" class="edge"><title>:_20-&gt;data:,Molecular%20Therapy</title>
<a xlink:href="http://www2.elsevier.co.uk/~tony/1014/yads-schema-2002-04-03#resource" target="_blank" onmouseover="show_status('http://www2.elsevier.co.uk/~tony/1014/yads-schema-2002-04-03#resource');">
<path style="fill:none;stroke:#add9e6" d="M1391,494C1394,507 1399,524 1403,539"/>
<polygon style="fill:#add9e6;stroke:#add9e6" points="1400,539 1405,548 1405,538 1400,539"/>
<text text-anchor="middle" x="1442" y="525" style="font-family:arial">has:resource</text>
</a></g>
<g id="node93" class="node"><title>data:,Academic%20Press</title>
<a xlink:href="" onclick="show_data('Academic%20Press');" onmouseover="show_status('data:,Academic%20Press');">
<ellipse cx="1597" cy="566" rx="79" ry="18" style="fill:#dca0dd;stroke:#dca0dd"/>
<text text-anchor="middle" x="1597" y="570" style="font-family:arial">data:,Academic%20Press</text>
</a></g>
<g id="edge94" class="edge"><title>:_21-&gt;data:,Academic%20Press</title>
<a xlink:href="http://www2.elsevier.co.uk/~tony/1014/yads-schema-2002-04-03#resource" target="_blank" onmouseover="show_status('http://www2.elsevier.co.uk/~tony/1014/yads-schema-2002-04-03#resource');">
<path style="fill:none;stroke:#add9e6" d="M1575,494C1579,507 1585,524 1589,539"/>
<polygon style="fill:#add9e6;stroke:#add9e6" points="1586,539 1592,548 1591,538 1586,539"/>
<text text-anchor="middle" x="1628" y="525" style="font-family:arial">has:resource</text>
</a></g>
</g>
</svg>
