<?xml version="1.0" encoding="UTF-8" standalone="no"?>
<!DOCTYPE svg PUBLIC "-//W3C//DTD SVG 1.0//EN"
 "http://www.w3.org/TR/2001/REC-SVG-20010904/DTD/svg10.dtd" [
 <!ATTLIST svg xmlns:xlink CDATA #FIXED "http://www.w3.org/1999/xlink">
]>
<!-- Generated by dot version 1.8.5 (Tue Apr 23 17:19:23  2002)
     For user: (Administrator) ,S-1-5-21-1454471165-688789844-1708537768-500   Title: yads    Pages: 1 -->
<svg width="728px" height="448px"
 xmlns="http://www.w3.org/2000/svg" xmlns:xlink="http://www.w3.org/1999/xlink">
<g id="graph0" class="graph" style="font-family:Times-Roman;font-size:11.00">
<title>yads</title>
<text text-anchor="middle" x="364" y="437" style="font-family:arial;font-size:24.00">YADS - A Description Service</text>
<g id="graph2" class="cluster"><title>cluster_1</title>
<polygon style="fill:none;stroke:#d2d2d2;stroke-dasharray:5,2" points="19,405 709,405 709,43 19,43 19,405"/>
<text text-anchor="middle" x="122" y="55" style="font-family:arial">Nest - OpenURL Resolver + Query</text>
</g>
<g id="graph3" class="cluster"><title>cluster_3</title>
<polygon style="fill:none;stroke:#d2d2d2;stroke-dasharray:5,2" points="27,397 201,397 201,238 27,238 27,397"/>
<text text-anchor="middle" x="74" y="250" style="font-family:arial">Item - Referent</text>
</g>
<g id="graph4" class="cluster"><title>cluster_4</title>
<polygon style="fill:none;stroke:#d2d2d2;stroke-dasharray:5,2" points="209,397 363,397 363,238 209,238 209,397"/>
<text text-anchor="middle" x="253" y="250" style="font-family:arial">Item - Referer</text>
</g>
<g id="graph5" class="cluster"><title>cluster_5</title>
<polygon style="fill:none;stroke:#d2d2d2;stroke-dasharray:5,2" points="371,397 505,397 505,238 371,238 371,397"/>
<text text-anchor="middle" x="422" y="250" style="font-family:arial">Item - Requester</text>
</g>
<g id="graph6" class="cluster"><title>cluster_6</title>
<polygon style="fill:none;stroke:#d2d2d2;stroke-dasharray:5,2" points="513,397 701,397 701,238 513,238 513,397"/>
<text text-anchor="middle" x="564" y="250" style="font-family:arial">Item - Requester</text>
</g>
<g id="node2" class="node"><title>:_1</title>
<ellipse cx="290" cy="86" rx="35" ry="18" style="fill:#eedb82;stroke:#eedb82"/>
<text text-anchor="middle" x="290" y="90" style="font-family:arial">OpenURL</text>
</g>
<g id="node4" class="node"><title>http://openurl.org/resolver?</title>
<a xlink:href="http://openurl.org/resolver?" target="_blank" onmouseover="show_status('http://openurl.org/resolver?');">
<ellipse cx="234" cy="176" rx="80" ry="18" style="fill:#dca0dd;stroke:#dca0dd"/>
<text text-anchor="middle" x="234" y="180" style="font-family:arial">http://openurl.org/resolver?</text>
</a></g>
<g id="edge3" class="edge"><title>:_1-&gt;http://openurl.org/resolver?</title>
<a xlink:href="http://www2.elsevier.co.uk/~tony/1014/yads-schema-2002-04-03#resource" target="_blank" onmouseover="show_status('http://www2.elsevier.co.uk/~tony/1014/yads-schema-2002-04-03#resource');">
<path style="fill:none;stroke:#add9e6" d="M279,103C271,117 259,135 250,150"/>
<polygon style="fill:#add9e6;stroke:#add9e6" points="248,148 245,158 252,151 248,148"/>
<text text-anchor="middle" x="309" y="135" style="font-family:arial">has:resource</text>
</a></g>
<g id="node6" class="node"><title>:_2</title>
<a xlink:href="http://www.w3.org/1999/02/22-rdf-syntax-ns#Bag" target="_blank" onmouseover="show_status('http://www.w3.org/1999/02/22-rdf-syntax-ns#Bag');">
<ellipse cx="360" cy="176" rx="28" ry="18" style="fill:#d2d2d2;stroke:#d2d2d2"/>
<text text-anchor="middle" x="360" y="180" style="font-family:arial">rdf:Bag</text>
</a></g>
<g id="edge5" class="edge"><title>:_1-&gt;:_2</title>
<a xlink:href="http://www2.elsevier.co.uk/~tony/1014/yads-schema-2002-04-03#collection" target="_blank" onmouseover="show_status('http://www2.elsevier.co.uk/~tony/1014/yads-schema-2002-04-03#collection');">
<path style="fill:none;stroke:#add9e6" d="M319,96C332,102 345,110 353,122 358,130 361,140 362,149"/>
<polygon style="fill:#add9e6;stroke:#add9e6" points="360,148 362,158 365,148 360,148"/>
<text text-anchor="middle" x="403" y="135" style="font-family:arial">has:collection</text>
</a></g>
<g id="node8" class="node"><title>:_3</title>
<ellipse cx="139" cy="281" rx="27" ry="18" style="fill:#eedb82;stroke:#eedb82"/>
<text text-anchor="middle" x="139" y="285" style="font-family:arial">ref_id</text>
</g>
<g id="edge7" class="edge"><title>:_2-&gt;:_3</title>
<a xlink:href="http://www.w3.org/1999/02/22-rdf-syntax-ns#_1" target="_blank" onmouseover="show_status('http://www.w3.org/1999/02/22-rdf-syntax-ns#_1');">
<path style="fill:none;stroke:#add9e6" d="M336,185C333,188 329,191 323,194 273,220 255,213 205,238 191,245 176,255 164,263"/>
<polygon style="fill:#add9e6;stroke:#add9e6" points="164,260 157,268 167,264 164,260"/>
<text text-anchor="middle" x="305" y="225" style="font-family:arial">rdf:_1</text>
</a></g>
<g id="node10" class="node"><title>:_4</title>
<ellipse cx="301" cy="281" rx="27" ry="18" style="fill:#eedb82;stroke:#eedb82"/>
<text text-anchor="middle" x="301" y="285" style="font-family:arial">rfr_id</text>
</g>
<g id="edge9" class="edge"><title>:_2-&gt;:_4</title>
<a xlink:href="http://www.w3.org/1999/02/22-rdf-syntax-ns#_2" target="_blank" onmouseover="show_status('http://www.w3.org/1999/02/22-rdf-syntax-ns#_2');">
<path style="fill:none;stroke:#add9e6" d="M348,192C344,199 339,206 335,212 327,226 318,242 312,255"/>
<polygon style="fill:#add9e6;stroke:#add9e6" points="310,253 309,263 315,255 310,253"/>
<text text-anchor="middle" x="359" y="225" style="font-family:arial">rdf:_2</text>
</a></g>
<g id="node12" class="node"><title>:_5</title>
<ellipse cx="418" cy="281" rx="39" ry="18" style="fill:#eedb82;stroke:#eedb82"/>
<text text-anchor="middle" x="418" y="285" style="font-family:arial">req_reffmt</text>
</g>
<g id="edge11" class="edge"><title>:_2-&gt;:_5</title>
<a xlink:href="http://www.w3.org/1999/02/22-rdf-syntax-ns#_3" target="_blank" onmouseover="show_status('http://www.w3.org/1999/02/22-rdf-syntax-ns#_3');">
<path style="fill:none;stroke:#add9e6" d="M370,193C379,210 393,236 404,255"/>
<polygon style="fill:#add9e6;stroke:#add9e6" points="401,255 408,263 406,253 401,255"/>
<text text-anchor="middle" x="411" y="225" style="font-family:arial">rdf:_3</text>
</a></g>
<g id="node14" class="node"><title>:_6</title>
<ellipse cx="578" cy="281" rx="29" ry="18" style="fill:#eedb82;stroke:#eedb82"/>
<text text-anchor="middle" x="578" y="285" style="font-family:arial">req_ptr</text>
</g>
<g id="edge13" class="edge"><title>:_2-&gt;:_6</title>
<a xlink:href="http://www.w3.org/1999/02/22-rdf-syntax-ns#_4" target="_blank" onmouseover="show_status('http://www.w3.org/1999/02/22-rdf-syntax-ns#_4');">
<path style="fill:none;stroke:#add9e6" d="M386,183C438,201 455,210 509,238 523,245 538,255 551,263"/>
<polygon style="fill:#add9e6;stroke:#add9e6" points="548,264 558,268 551,260 548,264"/>
<text text-anchor="middle" x="514" y="225" style="font-family:arial">rdf:_4</text>
</a></g>
<g id="node17" class="node"><title>data:,uri:urn:ISSN:1090-3801</title>
<a xlink:href="" onclick="show_data('uri:urn:ISSN:1090-3801');" onmouseover="show_status('data:,uri:urn:ISSN:1090-3801');">
<ellipse cx="114" cy="371" rx="79" ry="18" style="fill:#dca0dd;stroke:#dca0dd"/>
<text text-anchor="middle" x="114" y="375" style="font-family:arial">data:,uri:urn:ISSN:1090-3801</text>
</a></g>
<g id="edge16" class="edge"><title>:_3-&gt;data:,uri:urn:ISSN:1090-3801</title>
<a xlink:href="http://www2.elsevier.co.uk/~tony/1014/yads-schema-2002-04-03#resource" target="_blank" onmouseover="show_status('http://www2.elsevier.co.uk/~tony/1014/yads-schema-2002-04-03#resource');">
<path style="fill:none;stroke:#add9e6" d="M131,298C129,304 126,311 124,317 122,326 120,335 118,344"/>
<polygon style="fill:#add9e6;stroke:#add9e6" points="116,343 117,353 121,343 116,343"/>
<text text-anchor="middle" x="168" y="330" style="font-family:arial">has:resource</text>
</a></g>
<g id="node20" class="node"><title>data:,local:ERL:ULRICH</title>
<a xlink:href="" onclick="show_data('local:ERL:ULRICH');" onmouseover="show_status('data:,local:ERL:ULRICH');">
<ellipse cx="286" cy="371" rx="69" ry="18" style="fill:#dca0dd;stroke:#dca0dd"/>
<text text-anchor="middle" x="286" y="375" style="font-family:arial">data:,local:ERL:ULRICH</text>
</a></g>
<g id="edge19" class="edge"><title>:_4-&gt;data:,local:ERL:ULRICH</title>
<a xlink:href="http://www2.elsevier.co.uk/~tony/1014/yads-schema-2002-04-03#resource" target="_blank" onmouseover="show_status('http://www2.elsevier.co.uk/~tony/1014/yads-schema-2002-04-03#resource');">
<path style="fill:none;stroke:#add9e6" d="M293,298C290,304 288,311 286,317 285,326 284,335 284,343"/>
<polygon style="fill:#add9e6;stroke:#add9e6" points="282,343 284,353 287,343 282,343"/>
<text text-anchor="middle" x="330" y="330" style="font-family:arial">has:resource</text>
</a></g>
<g id="node23" class="node"><title>data:,local:dirformat</title>
<a xlink:href="" onclick="show_data('local:dirformat');" onmouseover="show_status('data:,local:dirformat');">
<ellipse cx="438" cy="371" rx="59" ry="18" style="fill:#dca0dd;stroke:#dca0dd"/>
<text text-anchor="middle" x="438" y="375" style="font-family:arial">data:,local:dirformat</text>
</a></g>
<g id="edge22" class="edge"><title>:_5-&gt;data:,local:dirformat</title>
<a xlink:href="http://www2.elsevier.co.uk/~tony/1014/yads-schema-2002-04-03#resource" target="_blank" onmouseover="show_status('http://www2.elsevier.co.uk/~tony/1014/yads-schema-2002-04-03#resource');">
<path style="fill:none;stroke:#add9e6" d="M421,299C423,310 425,323 428,335 428,338 429,341 430,343"/>
<polygon style="fill:#add9e6;stroke:#add9e6" points="428,344 433,353 433,343 428,344"/>
<text text-anchor="middle" x="469" y="330" style="font-family:arial">has:resource</text>
</a></g>
<g id="node26" class="node"><title>ldap://an.ldap.edu/cn=joe doe</title>
<a xlink:href="ldap://an.ldap.edu/cn=joe doe">
<ellipse cx="607" cy="371" rx="86" ry="18" style="fill:#dca0dd;stroke:#dca0dd"/>
<text text-anchor="middle" x="607" y="375" style="font-family:arial">ldap://an.ldap.edu/cn=joe doe</text>
</a></g>
<g id="edge25" class="edge"><title>:_6-&gt;ldap://an.ldap.edu/cn=joe doe</title>
<a xlink:href="http://www2.elsevier.co.uk/~tony/1014/yads-schema-2002-04-03#resource" target="_blank" onmouseover="show_status('http://www2.elsevier.co.uk/~tony/1014/yads-schema-2002-04-03#resource');">
<path style="fill:none;stroke:#add9e6" d="M584,299C588,312 594,329 598,344"/>
<polygon style="fill:#add9e6;stroke:#add9e6" points="595,344 601,353 600,343 595,344"/>
<text text-anchor="middle" x="635" y="330" style="font-family:arial">has:resource</text>
</a></g>
</g>
</svg>
