<?xml version="1.0" encoding="UTF-8" standalone="no"?>
<!DOCTYPE svg PUBLIC "-//W3C//DTD SVG 1.0//EN"
 "http://www.w3.org/TR/2001/REC-SVG-20010904/DTD/svg10.dtd" [
 <!ATTLIST svg xmlns:xlink CDATA #FIXED "http://www.w3.org/1999/xlink">
]>
<!-- Generated by dot version 1.8.5 (Tue Apr 23 17:19:23  2002)
     For user: (Administrator) ,S-1-5-21-1454471165-688789844-1708537768-500   Title: yads    Pages: 1 -->
<svg width="817px" height="448px"
 xmlns="http://www.w3.org/2000/svg" xmlns:xlink="http://www.w3.org/1999/xlink">
<g id="graph0" class="graph" style="font-family:Times-Roman;font-size:11.00">
<title>yads</title>
<text text-anchor="middle" x="408" y="437" style="font-family:arial;font-size:24.00">YADS - A Description Service</text>
<g id="graph2" class="cluster"><title>cluster_1</title>
<polygon style="fill:none;stroke:#d2d2d2;stroke-dasharray:5,2" points="19,405 798,405 798,43 19,43 19,405"/>
<text text-anchor="middle" x="122" y="55" style="font-family:arial">Nest - OpenURL Resolver + Query</text>
</g>
<g id="graph3" class="cluster"><title>cluster_3</title>
<polygon style="fill:none;stroke:#d2d2d2;stroke-dasharray:5,2" points="27,397 124,397 124,238 27,238 27,397"/>
<text text-anchor="middle" x="74" y="250" style="font-family:arial">Item - Referent</text>
</g>
<g id="graph4" class="cluster"><title>cluster_4</title>
<polygon style="fill:none;stroke:#d2d2d2;stroke-dasharray:5,2" points="132,397 290,397 290,238 132,238 132,397"/>
<text text-anchor="middle" x="179" y="250" style="font-family:arial">Item - Referent</text>
</g>
<g id="graph5" class="cluster"><title>cluster_5</title>
<polygon style="fill:none;stroke:#d2d2d2;stroke-dasharray:5,2" points="298,397 452,397 452,238 298,238 298,397"/>
<text text-anchor="middle" x="342" y="250" style="font-family:arial">Item - Referer</text>
</g>
<g id="graph6" class="cluster"><title>cluster_6</title>
<polygon style="fill:none;stroke:#d2d2d2;stroke-dasharray:5,2" points="460,397 594,397 594,238 460,238 460,397"/>
<text text-anchor="middle" x="511" y="250" style="font-family:arial">Item - Requester</text>
</g>
<g id="graph7" class="cluster"><title>cluster_7</title>
<polygon style="fill:none;stroke:#d2d2d2;stroke-dasharray:5,2" points="602,397 790,397 790,238 602,238 602,397"/>
<text text-anchor="middle" x="653" y="250" style="font-family:arial">Item - Requester</text>
</g>
<g id="node2" class="node"><title>:_1</title>
<ellipse cx="293" cy="86" rx="35" ry="18" style="fill:#eedb82;stroke:#eedb82"/>
<text text-anchor="middle" x="293" y="90" style="font-family:arial">OpenURL</text>
</g>
<g id="node4" class="node"><title>http://openurl.org/resolver?</title>
<a xlink:href="http://openurl.org/resolver?" target="_blank" onmouseover="show_status('http://openurl.org/resolver?');">
<ellipse cx="237" cy="176" rx="80" ry="18" style="fill:#dca0dd;stroke:#dca0dd"/>
<text text-anchor="middle" x="237" y="180" style="font-family:arial">http://openurl.org/resolver?</text>
</a></g>
<g id="edge3" class="edge"><title>:_1-&gt;http://openurl.org/resolver?</title>
<a xlink:href="http://www2.elsevier.co.uk/~tony/1014/yads-schema-2002-04-03#resource" target="_blank" onmouseover="show_status('http://www2.elsevier.co.uk/~tony/1014/yads-schema-2002-04-03#resource');">
<path style="fill:none;stroke:#add9e6" d="M282,103C274,117 262,135 253,150"/>
<polygon style="fill:#add9e6;stroke:#add9e6" points="251,148 248,158 255,151 251,148"/>
<text text-anchor="middle" x="312" y="135" style="font-family:arial">has:resource</text>
</a></g>
<g id="node6" class="node"><title>:_2</title>
<a xlink:href="http://www.w3.org/1999/02/22-rdf-syntax-ns#Bag" target="_blank" onmouseover="show_status('http://www.w3.org/1999/02/22-rdf-syntax-ns#Bag');">
<ellipse cx="363" cy="176" rx="28" ry="18" style="fill:#d2d2d2;stroke:#d2d2d2"/>
<text text-anchor="middle" x="363" y="180" style="font-family:arial">rdf:Bag</text>
</a></g>
<g id="edge5" class="edge"><title>:_1-&gt;:_2</title>
<a xlink:href="http://www2.elsevier.co.uk/~tony/1014/yads-schema-2002-04-03#collection" target="_blank" onmouseover="show_status('http://www2.elsevier.co.uk/~tony/1014/yads-schema-2002-04-03#collection');">
<path style="fill:none;stroke:#add9e6" d="M322,96C335,102 348,110 356,122 361,130 364,140 365,149"/>
<polygon style="fill:#add9e6;stroke:#add9e6" points="363,148 365,158 368,148 363,148"/>
<text text-anchor="middle" x="406" y="135" style="font-family:arial">has:collection</text>
</a></g>
<g id="node8" class="node"><title>:_3</title>
<ellipse cx="76" cy="281" rx="38" ry="18" style="fill:#eedb82;stroke:#eedb82"/>
<text text-anchor="middle" x="76" y="285" style="font-family:arial">ref_valfmt</text>
</g>
<g id="edge7" class="edge"><title>:_2-&gt;:_3</title>
<a xlink:href="http://www.w3.org/1999/02/22-rdf-syntax-ns#_1" target="_blank" onmouseover="show_status('http://www.w3.org/1999/02/22-rdf-syntax-ns#_1');">
<path style="fill:none;stroke:#add9e6" d="M337,184C334,188 332,191 326,194 306,204 149,229 128,238 118,243 108,251 100,258"/>
<polygon style="fill:#add9e6;stroke:#add9e6" points="99,256 93,264 102,259 99,256"/>
<text text-anchor="middle" x="281" y="225" style="font-family:arial">rdf:_1</text>
</a></g>
<g id="node10" class="node"><title>:_4</title>
<ellipse cx="228" cy="281" rx="27" ry="18" style="fill:#eedb82;stroke:#eedb82"/>
<text text-anchor="middle" x="228" y="285" style="font-family:arial">stitle</text>
</g>
<g id="edge9" class="edge"><title>:_2-&gt;:_4</title>
<a xlink:href="http://www.w3.org/1999/02/22-rdf-syntax-ns#_2" target="_blank" onmouseover="show_status('http://www.w3.org/1999/02/22-rdf-syntax-ns#_2');">
<path style="fill:none;stroke:#add9e6" d="M345,190C336,197 326,205 316,212 295,229 270,248 252,262"/>
<polygon style="fill:#add9e6;stroke:#add9e6" points="252,259 246,267 255,263 252,259"/>
<text text-anchor="middle" x="343" y="225" style="font-family:arial">rdf:_2</text>
</a></g>
<g id="node12" class="node"><title>:_5</title>
<ellipse cx="363" cy="281" rx="27" ry="18" style="fill:#eedb82;stroke:#eedb82"/>
<text text-anchor="middle" x="363" y="285" style="font-family:arial">rfr_id</text>
</g>
<g id="edge11" class="edge"><title>:_2-&gt;:_5</title>
<a xlink:href="http://www.w3.org/1999/02/22-rdf-syntax-ns#_3" target="_blank" onmouseover="show_status('http://www.w3.org/1999/02/22-rdf-syntax-ns#_3');">
<path style="fill:none;stroke:#add9e6" d="M363,194C363,210 363,235 363,254"/>
<polygon style="fill:#add9e6;stroke:#add9e6" points="361,253 363,263 366,253 361,253"/>
<text text-anchor="middle" x="384" y="225" style="font-family:arial">rdf:_3</text>
</a></g>
<g id="node14" class="node"><title>:_6</title>
<ellipse cx="507" cy="281" rx="39" ry="18" style="fill:#eedb82;stroke:#eedb82"/>
<text text-anchor="middle" x="507" y="285" style="font-family:arial">req_reffmt</text>
</g>
<g id="edge13" class="edge"><title>:_2-&gt;:_6</title>
<a xlink:href="http://www.w3.org/1999/02/22-rdf-syntax-ns#_4" target="_blank" onmouseover="show_status('http://www.w3.org/1999/02/22-rdf-syntax-ns#_4');">
<path style="fill:none;stroke:#add9e6" d="M383,189C403,201 432,220 456,238 464,244 473,251 482,259"/>
<polygon style="fill:#add9e6;stroke:#add9e6" points="480,260 489,265 483,257 480,260"/>
<text text-anchor="middle" x="466" y="225" style="font-family:arial">rdf:_4</text>
</a></g>
<g id="node16" class="node"><title>:_7</title>
<ellipse cx="667" cy="281" rx="29" ry="18" style="fill:#eedb82;stroke:#eedb82"/>
<text text-anchor="middle" x="667" y="285" style="font-family:arial">req_ptr</text>
</g>
<g id="edge15" class="edge"><title>:_2-&gt;:_7</title>
<a xlink:href="http://www.w3.org/1999/02/22-rdf-syntax-ns#_5" target="_blank" onmouseover="show_status('http://www.w3.org/1999/02/22-rdf-syntax-ns#_5');">
<path style="fill:none;stroke:#add9e6" d="M391,179C482,197 510,200 598,238 613,245 628,254 640,262"/>
<polygon style="fill:#add9e6;stroke:#add9e6" points="638,264 648,267 641,260 638,264"/>
<text text-anchor="middle" x="599" y="225" style="font-family:arial">rdf:_5</text>
</a></g>
<g id="node19" class="node"><title>data:,journal</title>
<a xlink:href="" onclick="show_data('journal');" onmouseover="show_status('data:,journal');">
<ellipse cx="75" cy="371" rx="40" ry="18" style="fill:#dca0dd;stroke:#dca0dd"/>
<text text-anchor="middle" x="75" y="375" style="font-family:arial">data:,journal</text>
</a></g>
<g id="edge18" class="edge"><title>:_3-&gt;data:,journal</title>
<a xlink:href="http://www2.elsevier.co.uk/~tony/1014/yads-schema-2002-04-03#resource" target="_blank" onmouseover="show_status('http://www2.elsevier.co.uk/~tony/1014/yads-schema-2002-04-03#resource');">
<path style="fill:none;stroke:#add9e6" d="M59,297C54,303 50,310 47,317 45,325 45,328 47,335 49,339 51,343 53,346"/>
<polygon style="fill:#add9e6;stroke:#add9e6" points="51,347 58,354 55,344 51,347"/>
<text text-anchor="middle" x="91" y="330" style="font-family:arial">has:resource</text>
</a></g>
<g id="node22" class="node"><title>data:,Eur%20J%20Pain</title>
<a xlink:href="" onclick="show_data('Eur%20J%20Pain');" onmouseover="show_status('data:,Eur%20J%20Pain');">
<ellipse cx="211" cy="371" rx="71" ry="18" style="fill:#dca0dd;stroke:#dca0dd"/>
<text text-anchor="middle" x="211" y="375" style="font-family:arial">data:,Eur%20J%20Pain</text>
</a></g>
<g id="edge21" class="edge"><title>:_4-&gt;data:,Eur%20J%20Pain</title>
<a xlink:href="http://www2.elsevier.co.uk/~tony/1014/yads-schema-2002-04-03#resource" target="_blank" onmouseover="show_status('http://www2.elsevier.co.uk/~tony/1014/yads-schema-2002-04-03#resource');">
<path style="fill:none;stroke:#add9e6" d="M220,298C217,304 215,311 213,317 211,326 210,335 210,344"/>
<polygon style="fill:#add9e6;stroke:#add9e6" points="208,343 210,353 213,343 208,343"/>
<text text-anchor="middle" x="257" y="330" style="font-family:arial">has:resource</text>
</a></g>
<g id="node25" class="node"><title>data:,local:ERL:ULRICH</title>
<a xlink:href="" onclick="show_data('local:ERL:ULRICH');" onmouseover="show_status('data:,local:ERL:ULRICH');">
<ellipse cx="375" cy="371" rx="69" ry="18" style="fill:#dca0dd;stroke:#dca0dd"/>
<text text-anchor="middle" x="375" y="375" style="font-family:arial">data:,local:ERL:ULRICH</text>
</a></g>
<g id="edge24" class="edge"><title>:_5-&gt;data:,local:ERL:ULRICH</title>
<a xlink:href="http://www2.elsevier.co.uk/~tony/1014/yads-schema-2002-04-03#resource" target="_blank" onmouseover="show_status('http://www2.elsevier.co.uk/~tony/1014/yads-schema-2002-04-03#resource');">
<path style="fill:none;stroke:#add9e6" d="M365,299C367,312 369,329 371,344"/>
<polygon style="fill:#add9e6;stroke:#add9e6" points="368,344 373,353 373,343 368,344"/>
<text text-anchor="middle" x="412" y="330" style="font-family:arial">has:resource</text>
</a></g>
<g id="node28" class="node"><title>data:,local:dirformat</title>
<a xlink:href="" onclick="show_data('local:dirformat');" onmouseover="show_status('data:,local:dirformat');">
<ellipse cx="527" cy="371" rx="59" ry="18" style="fill:#dca0dd;stroke:#dca0dd"/>
<text text-anchor="middle" x="527" y="375" style="font-family:arial">data:,local:dirformat</text>
</a></g>
<g id="edge27" class="edge"><title>:_6-&gt;data:,local:dirformat</title>
<a xlink:href="http://www2.elsevier.co.uk/~tony/1014/yads-schema-2002-04-03#resource" target="_blank" onmouseover="show_status('http://www2.elsevier.co.uk/~tony/1014/yads-schema-2002-04-03#resource');">
<path style="fill:none;stroke:#add9e6" d="M510,299C512,310 514,323 517,335 517,338 518,341 519,343"/>
<polygon style="fill:#add9e6;stroke:#add9e6" points="517,344 522,353 522,343 517,344"/>
<text text-anchor="middle" x="558" y="330" style="font-family:arial">has:resource</text>
</a></g>
<g id="node31" class="node"><title>ldap://an.ldap.edu/cn=joe doe</title>
<a xlink:href="ldap://an.ldap.edu/cn=joe doe">
<ellipse cx="696" cy="371" rx="86" ry="18" style="fill:#dca0dd;stroke:#dca0dd"/>
<text text-anchor="middle" x="696" y="375" style="font-family:arial">ldap://an.ldap.edu/cn=joe doe</text>
</a></g>
<g id="edge30" class="edge"><title>:_7-&gt;ldap://an.ldap.edu/cn=joe doe</title>
<a xlink:href="http://www2.elsevier.co.uk/~tony/1014/yads-schema-2002-04-03#resource" target="_blank" onmouseover="show_status('http://www2.elsevier.co.uk/~tony/1014/yads-schema-2002-04-03#resource');">
<path style="fill:none;stroke:#add9e6" d="M673,299C677,312 683,329 687,344"/>
<polygon style="fill:#add9e6;stroke:#add9e6" points="684,344 690,353 689,343 684,344"/>
<text text-anchor="middle" x="724" y="330" style="font-family:arial">has:resource</text>
</a></g>
</g>
</svg>
