<?xml version="1.0" encoding="UTF-8" standalone="no"?>
<!DOCTYPE svg PUBLIC "-//W3C//DTD SVG 1.0//EN"
 "http://www.w3.org/TR/2001/REC-SVG-20010904/DTD/svg10.dtd" [
 <!ATTLIST svg xmlns:xlink CDATA #FIXED "http://www.w3.org/1999/xlink">
]>
<!-- Generated by dot version 1.8.5 (Tue Apr 23 17:19:23  2002)
     For user: (Administrator) ,S-1-5-21-1454471165-688789844-1708537768-500   Title: yads    Pages: 1 -->
<svg width="690px" height="448px"
 xmlns="http://www.w3.org/2000/svg" xmlns:xlink="http://www.w3.org/1999/xlink">
<g id="graph0" class="graph" style="font-family:Times-Roman;font-size:11.00">
<title>yads</title>
<text text-anchor="middle" x="345" y="437" style="font-family:arial;font-size:24.00">YADS - A Description Service</text>
<g id="graph2" class="cluster"><title>cluster_1</title>
<polygon style="fill:none;stroke:#d2d2d2;stroke-dasharray:5,2" points="19,405 671,405 671,43 19,43 19,405"/>
<text text-anchor="middle" x="122" y="55" style="font-family:arial">Nest - OpenURL Resolver + Query</text>
</g>
<g id="graph3" class="cluster"><title>cluster_3</title>
<polygon style="fill:none;stroke:#d2d2d2;stroke-dasharray:5,2" points="27,397 163,397 163,238 27,238 27,397"/>
<text text-anchor="middle" x="74" y="250" style="font-family:arial">Item - Referent</text>
</g>
<g id="graph4" class="cluster"><title>cluster_4</title>
<polygon style="fill:none;stroke:#d2d2d2;stroke-dasharray:5,2" points="171,397 325,397 325,238 171,238 171,397"/>
<text text-anchor="middle" x="215" y="250" style="font-family:arial">Item - Referer</text>
</g>
<g id="graph5" class="cluster"><title>cluster_5</title>
<polygon style="fill:none;stroke:#d2d2d2;stroke-dasharray:5,2" points="333,397 467,397 467,238 333,238 333,397"/>
<text text-anchor="middle" x="384" y="250" style="font-family:arial">Item - Requester</text>
</g>
<g id="graph6" class="cluster"><title>cluster_6</title>
<polygon style="fill:none;stroke:#d2d2d2;stroke-dasharray:5,2" points="475,397 663,397 663,238 475,238 475,397"/>
<text text-anchor="middle" x="526" y="250" style="font-family:arial">Item - Requester</text>
</g>
<g id="node2" class="node"><title>:_1</title>
<ellipse cx="252" cy="86" rx="35" ry="18" style="fill:#eedb82;stroke:#eedb82"/>
<text text-anchor="middle" x="252" y="90" style="font-family:arial">OpenURL</text>
</g>
<g id="node4" class="node"><title>http://openurl.org/resolver?</title>
<a xlink:href="http://openurl.org/resolver?" target="_blank" onmouseover="show_status('http://openurl.org/resolver?');">
<ellipse cx="196" cy="176" rx="80" ry="18" style="fill:#dca0dd;stroke:#dca0dd"/>
<text text-anchor="middle" x="196" y="180" style="font-family:arial">http://openurl.org/resolver?</text>
</a></g>
<g id="edge3" class="edge"><title>:_1-&gt;http://openurl.org/resolver?</title>
<a xlink:href="http://www2.elsevier.co.uk/~tony/1014/yads-schema-2002-04-03#resource" target="_blank" onmouseover="show_status('http://www2.elsevier.co.uk/~tony/1014/yads-schema-2002-04-03#resource');">
<path style="fill:none;stroke:#add9e6" d="M241,103C233,117 221,135 212,150"/>
<polygon style="fill:#add9e6;stroke:#add9e6" points="210,148 207,158 214,151 210,148"/>
<text text-anchor="middle" x="271" y="135" style="font-family:arial">has:resource</text>
</a></g>
<g id="node6" class="node"><title>:_2</title>
<a xlink:href="http://www.w3.org/1999/02/22-rdf-syntax-ns#Bag" target="_blank" onmouseover="show_status('http://www.w3.org/1999/02/22-rdf-syntax-ns#Bag');">
<ellipse cx="322" cy="176" rx="28" ry="18" style="fill:#d2d2d2;stroke:#d2d2d2"/>
<text text-anchor="middle" x="322" y="180" style="font-family:arial">rdf:Bag</text>
</a></g>
<g id="edge5" class="edge"><title>:_1-&gt;:_2</title>
<a xlink:href="http://www2.elsevier.co.uk/~tony/1014/yads-schema-2002-04-03#collection" target="_blank" onmouseover="show_status('http://www2.elsevier.co.uk/~tony/1014/yads-schema-2002-04-03#collection');">
<path style="fill:none;stroke:#add9e6" d="M281,96C294,102 307,110 315,122 320,130 323,140 324,149"/>
<polygon style="fill:#add9e6;stroke:#add9e6" points="322,148 324,158 327,148 322,148"/>
<text text-anchor="middle" x="365" y="135" style="font-family:arial">has:collection</text>
</a></g>
<g id="node8" class="node"><title>:_3</title>
<ellipse cx="101" cy="281" rx="27" ry="18" style="fill:#eedb82;stroke:#eedb82"/>
<text text-anchor="middle" x="101" y="285" style="font-family:arial">ref_id</text>
</g>
<g id="edge7" class="edge"><title>:_2-&gt;:_3</title>
<a xlink:href="http://www.w3.org/1999/02/22-rdf-syntax-ns#_1" target="_blank" onmouseover="show_status('http://www.w3.org/1999/02/22-rdf-syntax-ns#_1');">
<path style="fill:none;stroke:#add9e6" d="M298,185C295,188 291,191 285,194 235,220 217,213 167,238 153,245 138,255 126,263"/>
<polygon style="fill:#add9e6;stroke:#add9e6" points="126,260 119,268 129,264 126,260"/>
<text text-anchor="middle" x="267" y="225" style="font-family:arial">rdf:_1</text>
</a></g>
<g id="node10" class="node"><title>:_4</title>
<ellipse cx="263" cy="281" rx="27" ry="18" style="fill:#eedb82;stroke:#eedb82"/>
<text text-anchor="middle" x="263" y="285" style="font-family:arial">rfr_id</text>
</g>
<g id="edge9" class="edge"><title>:_2-&gt;:_4</title>
<a xlink:href="http://www.w3.org/1999/02/22-rdf-syntax-ns#_2" target="_blank" onmouseover="show_status('http://www.w3.org/1999/02/22-rdf-syntax-ns#_2');">
<path style="fill:none;stroke:#add9e6" d="M310,192C306,199 301,206 297,212 289,226 280,242 274,255"/>
<polygon style="fill:#add9e6;stroke:#add9e6" points="272,253 271,263 277,255 272,253"/>
<text text-anchor="middle" x="321" y="225" style="font-family:arial">rdf:_2</text>
</a></g>
<g id="node12" class="node"><title>:_5</title>
<ellipse cx="380" cy="281" rx="39" ry="18" style="fill:#eedb82;stroke:#eedb82"/>
<text text-anchor="middle" x="380" y="285" style="font-family:arial">req_reffmt</text>
</g>
<g id="edge11" class="edge"><title>:_2-&gt;:_5</title>
<a xlink:href="http://www.w3.org/1999/02/22-rdf-syntax-ns#_3" target="_blank" onmouseover="show_status('http://www.w3.org/1999/02/22-rdf-syntax-ns#_3');">
<path style="fill:none;stroke:#add9e6" d="M332,193C341,210 355,236 366,255"/>
<polygon style="fill:#add9e6;stroke:#add9e6" points="363,255 370,263 368,253 363,255"/>
<text text-anchor="middle" x="373" y="225" style="font-family:arial">rdf:_3</text>
</a></g>
<g id="node14" class="node"><title>:_6</title>
<ellipse cx="540" cy="281" rx="29" ry="18" style="fill:#eedb82;stroke:#eedb82"/>
<text text-anchor="middle" x="540" y="285" style="font-family:arial">req_ptr</text>
</g>
<g id="edge13" class="edge"><title>:_2-&gt;:_6</title>
<a xlink:href="http://www.w3.org/1999/02/22-rdf-syntax-ns#_4" target="_blank" onmouseover="show_status('http://www.w3.org/1999/02/22-rdf-syntax-ns#_4');">
<path style="fill:none;stroke:#add9e6" d="M348,183C400,201 417,210 471,238 485,245 500,255 513,263"/>
<polygon style="fill:#add9e6;stroke:#add9e6" points="510,264 520,268 513,260 510,264"/>
<text text-anchor="middle" x="476" y="225" style="font-family:arial">rdf:_4</text>
</a></g>
<g id="node17" class="node"><title>data:,issn:1090-3801</title>
<a xlink:href="" onclick="show_data('issn:1090-3801');" onmouseover="show_status('data:,issn:1090-3801');">
<ellipse cx="95" cy="371" rx="60" ry="18" style="fill:#dca0dd;stroke:#dca0dd"/>
<text text-anchor="middle" x="95" y="375" style="font-family:arial">data:,issn:1090-3801</text>
</a></g>
<g id="edge16" class="edge"><title>:_3-&gt;data:,issn:1090-3801</title>
<a xlink:href="http://www2.elsevier.co.uk/~tony/1014/yads-schema-2002-04-03#resource" target="_blank" onmouseover="show_status('http://www2.elsevier.co.uk/~tony/1014/yads-schema-2002-04-03#resource');">
<path style="fill:none;stroke:#add9e6" d="M93,298C90,304 88,311 86,317 85,326 85,335 87,344"/>
<polygon style="fill:#add9e6;stroke:#add9e6" points="84,344 89,353 89,343 84,344"/>
<text text-anchor="middle" x="130" y="330" style="font-family:arial">has:resource</text>
</a></g>
<g id="node20" class="node"><title>data:,local:ERL:ULRICH</title>
<a xlink:href="" onclick="show_data('local:ERL:ULRICH');" onmouseover="show_status('data:,local:ERL:ULRICH');">
<ellipse cx="248" cy="371" rx="69" ry="18" style="fill:#dca0dd;stroke:#dca0dd"/>
<text text-anchor="middle" x="248" y="375" style="font-family:arial">data:,local:ERL:ULRICH</text>
</a></g>
<g id="edge19" class="edge"><title>:_4-&gt;data:,local:ERL:ULRICH</title>
<a xlink:href="http://www2.elsevier.co.uk/~tony/1014/yads-schema-2002-04-03#resource" target="_blank" onmouseover="show_status('http://www2.elsevier.co.uk/~tony/1014/yads-schema-2002-04-03#resource');">
<path style="fill:none;stroke:#add9e6" d="M255,298C252,304 250,311 248,317 247,326 246,335 246,343"/>
<polygon style="fill:#add9e6;stroke:#add9e6" points="244,343 246,353 249,343 244,343"/>
<text text-anchor="middle" x="292" y="330" style="font-family:arial">has:resource</text>
</a></g>
<g id="node23" class="node"><title>data:,local:dirformat</title>
<a xlink:href="" onclick="show_data('local:dirformat');" onmouseover="show_status('data:,local:dirformat');">
<ellipse cx="400" cy="371" rx="59" ry="18" style="fill:#dca0dd;stroke:#dca0dd"/>
<text text-anchor="middle" x="400" y="375" style="font-family:arial">data:,local:dirformat</text>
</a></g>
<g id="edge22" class="edge"><title>:_5-&gt;data:,local:dirformat</title>
<a xlink:href="http://www2.elsevier.co.uk/~tony/1014/yads-schema-2002-04-03#resource" target="_blank" onmouseover="show_status('http://www2.elsevier.co.uk/~tony/1014/yads-schema-2002-04-03#resource');">
<path style="fill:none;stroke:#add9e6" d="M383,299C385,310 387,323 390,335 390,338 391,341 392,343"/>
<polygon style="fill:#add9e6;stroke:#add9e6" points="390,344 395,353 395,343 390,344"/>
<text text-anchor="middle" x="431" y="330" style="font-family:arial">has:resource</text>
</a></g>
<g id="node26" class="node"><title>ldap://an.ldap.edu/cn=joe doe</title>
<a xlink:href="ldap://an.ldap.edu/cn=joe doe">
<ellipse cx="569" cy="371" rx="86" ry="18" style="fill:#dca0dd;stroke:#dca0dd"/>
<text text-anchor="middle" x="569" y="375" style="font-family:arial">ldap://an.ldap.edu/cn=joe doe</text>
</a></g>
<g id="edge25" class="edge"><title>:_6-&gt;ldap://an.ldap.edu/cn=joe doe</title>
<a xlink:href="http://www2.elsevier.co.uk/~tony/1014/yads-schema-2002-04-03#resource" target="_blank" onmouseover="show_status('http://www2.elsevier.co.uk/~tony/1014/yads-schema-2002-04-03#resource');">
<path style="fill:none;stroke:#add9e6" d="M546,299C550,312 556,329 560,344"/>
<polygon style="fill:#add9e6;stroke:#add9e6" points="557,344 563,353 562,343 557,344"/>
<text text-anchor="middle" x="597" y="330" style="font-family:arial">has:resource</text>
</a></g>
</g>
</svg>
