<?xml version="1.0" encoding="UTF-8" standalone="no"?>
<!DOCTYPE svg PUBLIC "-//W3C//DTD SVG 1.0//EN"
 "http://www.w3.org/TR/2001/REC-SVG-20010904/DTD/svg10.dtd" [
 <!ATTLIST svg xmlns:xlink CDATA #FIXED "http://www.w3.org/1999/xlink">
]>
<!-- Generated by dot version 1.8.5 (Tue Apr 23 17:19:23  2002)
     For user: (Administrator) ,S-1-5-21-1454471165-688789844-1708537768-500   Title: yads    Pages: 1 -->
<svg width="1038px" height="1266px"
 xmlns="http://www.w3.org/2000/svg" xmlns:xlink="http://www.w3.org/1999/xlink">
<g id="graph0" class="graph" style="font-family:Times-Roman;font-size:11.00">
<title>yads</title>
<text text-anchor="middle" x="519" y="1255" style="font-family:arial;font-size:24.00">YADS - A Description Service</text>
<g id="graph2" class="cluster"><title>cluster_1</title>
<polygon style="fill:none;stroke:#d2d2d2;stroke-dasharray:5,2" points="19,1223 1019,1223 1019,43 19,43 19,1223"/>
<text text-anchor="middle" x="70" y="55" style="font-family:arial">Nest - OpenURL</text>
</g>
<g id="graph3" class="cluster"><title>cluster_3</title>
<polygon style="fill:none;stroke:#d2d2d2;stroke-dasharray:5,2" points="27,1215 1011,1215 1011,238 27,238 27,1215"/>
<text text-anchor="middle" x="68" y="250" style="font-family:arial">Nest - Profile</text>
</g>
<g id="graph4" class="cluster"><title>cluster_5</title>
<polygon style="fill:none;stroke:#d2d2d2;stroke-dasharray:5,2" points="35,795 227,795 227,433 35,433 35,795"/>
<text text-anchor="middle" x="95" y="445" style="font-family:arial">Item - Administration</text>
</g>
<g id="graph5" class="cluster"><title>cluster_7</title>
<polygon style="fill:none;stroke:#d2d2d2;stroke-dasharray:5,2" points="43,787 219,787 219,628 43,628 43,787"/>
<text text-anchor="middle" x="86" y="640" style="font-family:arial">Item - Version</text>
</g>
<g id="graph6" class="cluster"><title>cluster_8</title>
<polygon style="fill:none;stroke:#d2d2d2;stroke-dasharray:5,2" points="235,1207 1003,1207 1003,433 235,433 235,1207"/>
<text text-anchor="middle" x="300" y="445" style="font-family:arial">Item - Context-Object</text>
</g>
<g id="graph7" class="cluster"><title>cluster_10</title>
<polygon style="fill:none;stroke:#d2d2d2;stroke-dasharray:5,2" points="243,1199 995,1199 995,628 243,628 243,1199"/>
<text text-anchor="middle" x="290" y="640" style="font-family:arial">Item - Referent</text>
</g>
<g id="graph8" class="cluster"><title>cluster_12</title>
<polygon style="fill:none;stroke:#d2d2d2;stroke-dasharray:5,2" points="251,988 431,988 431,829 251,829 251,988"/>
<text text-anchor="middle" x="295" y="841" style="font-family:arial">Item - Identifier</text>
</g>
<g id="graph9" class="cluster"><title>cluster_13</title>
<polygon style="fill:none;stroke:#d2d2d2;stroke-dasharray:5,2" points="439,1191 987,1191 987,829 439,829 439,1191"/>
<text text-anchor="middle" x="509" y="841" style="font-family:arial">Nest - Metadata-By-Val</text>
</g>
<g id="graph10" class="cluster"><title>cluster_15</title>
<polygon style="fill:none;stroke:#d2d2d2;stroke-dasharray:5,2" points="447,1183 559,1183 559,1024 447,1024 447,1183"/>
<text text-anchor="middle" x="463" y="1036" style="font-family:arial">Item</text>
</g>
<g id="graph11" class="cluster"><title>cluster_16</title>
<polygon style="fill:none;stroke:#d2d2d2;stroke-dasharray:5,2" points="567,1183 664,1183 664,1024 567,1024 567,1183"/>
<text text-anchor="middle" x="583" y="1036" style="font-family:arial">Item</text>
</g>
<g id="graph12" class="cluster"><title>cluster_17</title>
<polygon style="fill:none;stroke:#d2d2d2;stroke-dasharray:5,2" points="672,1183 769,1183 769,1024 672,1024 672,1183"/>
<text text-anchor="middle" x="688" y="1036" style="font-family:arial">Item</text>
</g>
<g id="graph13" class="cluster"><title>cluster_18</title>
<polygon style="fill:none;stroke:#d2d2d2;stroke-dasharray:5,2" points="777,1183 874,1183 874,1024 777,1024 777,1183"/>
<text text-anchor="middle" x="793" y="1036" style="font-family:arial">Item</text>
</g>
<g id="graph14" class="cluster"><title>cluster_19</title>
<polygon style="fill:none;stroke:#d2d2d2;stroke-dasharray:5,2" points="882,1183 979,1183 979,1024 882,1024 882,1183"/>
<text text-anchor="middle" x="898" y="1036" style="font-family:arial">Item</text>
</g>
<g id="node2" class="node"><title>:_1</title>
<a xlink:href="http://www2.elsevier.co.uk/~tony/1014/yads-schema-2002-04-03#Nest" target="_blank" onmouseover="show_status('http://www2.elsevier.co.uk/~tony/1014/yads-schema-2002-04-03#Nest');">
<ellipse cx="148" cy="86" rx="29" ry="18" style="fill:#d2d2d2;stroke:#d2d2d2"/>
<text text-anchor="middle" x="148" y="90" style="font-family:arial">isa:Nest</text>
</a></g>
<g id="node4" class="node"><title>:</title>
<ellipse cx="99" cy="176" rx="27" ry="18" style="fill:#dca0dd;stroke:#dca0dd"/>
<text text-anchor="middle" x="99" y="180" style="font-family:arial">:</text>
</g>
<g id="edge3" class="edge"><title>:_1-&gt;:</title>
<a xlink:href="http://www2.elsevier.co.uk/~tony/1014/yads-schema-2002-04-03#resource" target="_blank" onmouseover="show_status('http://www2.elsevier.co.uk/~tony/1014/yads-schema-2002-04-03#resource');">
<path style="fill:none;stroke:#add9e6" d="M131,100C124,107 118,114 113,122 109,130 105,140 103,149"/>
<polygon style="fill:#add9e6;stroke:#add9e6" points="101,148 101,158 106,149 101,148"/>
<text text-anchor="middle" x="157" y="135" style="font-family:arial">has:resource</text>
</a></g>
<g id="node6" class="node"><title>:_2</title>
<a xlink:href="http://www.w3.org/1999/02/22-rdf-syntax-ns#Bag" target="_blank" onmouseover="show_status('http://www.w3.org/1999/02/22-rdf-syntax-ns#Bag');">
<ellipse cx="198" cy="176" rx="28" ry="18" style="fill:#d2d2d2;stroke:#d2d2d2"/>
<text text-anchor="middle" x="198" y="180" style="font-family:arial">rdf:Bag</text>
</a></g>
<g id="edge5" class="edge"><title>:_1-&gt;:_2</title>
<a xlink:href="http://www2.elsevier.co.uk/~tony/1014/yads-schema-2002-04-03#collection" target="_blank" onmouseover="show_status('http://www2.elsevier.co.uk/~tony/1014/yads-schema-2002-04-03#collection');">
<path style="fill:none;stroke:#add9e6" d="M172,97C182,103 193,111 198,122 202,130 203,140 203,149"/>
<polygon style="fill:#add9e6;stroke:#add9e6" points="201,148 202,158 206,148 201,148"/>
<text text-anchor="middle" x="245" y="135" style="font-family:arial">has:collection</text>
</a></g>
<g id="node8" class="node"><title>:_3</title>
<a xlink:href="http://www2.elsevier.co.uk/~tony/1014/yads-schema-2002-04-03#Nest" target="_blank" onmouseover="show_status('http://www2.elsevier.co.uk/~tony/1014/yads-schema-2002-04-03#Nest');">
<ellipse cx="198" cy="281" rx="29" ry="18" style="fill:#d2d2d2;stroke:#d2d2d2"/>
<text text-anchor="middle" x="198" y="285" style="font-family:arial">isa:Nest</text>
</a></g>
<g id="edge7" class="edge"><title>:_2-&gt;:_3</title>
<a xlink:href="http://www.w3.org/1999/02/22-rdf-syntax-ns#_1" target="_blank" onmouseover="show_status('http://www.w3.org/1999/02/22-rdf-syntax-ns#_1');">
<path style="fill:none;stroke:#add9e6" d="M198,194C198,210 198,235 198,254"/>
<polygon style="fill:#add9e6;stroke:#add9e6" points="196,253 198,263 201,253 196,253"/>
<text text-anchor="middle" x="218" y="225" style="font-family:arial">rdf:_1</text>
</a></g>
<g id="node11" class="node"><title>node_1</title>
<polygon style="fill:#6497ed;stroke:#6497ed" points="89,353 35,353 35,389 89,389 89,353"/>
<text text-anchor="middle" x="62" y="375" style="font-family:arial">oboe:</text>
</g>
<g id="edge10" class="edge"><title>:_3-&gt;node_1</title>
<a xlink:href="http://www2.elsevier.co.uk/~tony/1014/yads-schema-2002-04-03#directive" target="_blank" onmouseover="show_status('http://www2.elsevier.co.uk/~tony/1014/yads-schema-2002-04-03#directive');">
<path style="fill:none;stroke:#add9e6" d="M173,290C157,297 135,306 118,317 106,325 94,337 84,347"/>
<polygon style="fill:#add9e6;stroke:#add9e6" points="83,344 78,353 87,348 83,344"/>
<text text-anchor="middle" x="162" y="330" style="font-family:arial">has:directive</text>
</a></g>
<g id="node13" class="node"><title>http://www2.elsevier.co.uk/~t...f</title>
<a xlink:href="http://www2.elsevier.co.uk/~tony/oboe/oboe.rdf" target="_blank" onmouseover="show_status('http://www2.elsevier.co.uk/~tony/oboe/oboe.rdf');">
<ellipse cx="198" cy="371" rx="91" ry="18" style="fill:#dca0dd;stroke:#dca0dd"/>
<text text-anchor="middle" x="198" y="375" style="font-family:arial">http://www2.elsevier.co.uk/~t...f</text>
</a></g>
<g id="edge12" class="edge"><title>:_3-&gt;http://www2.elsevier.co.uk/~t...f</title>
<a xlink:href="http://www2.elsevier.co.uk/~tony/1014/yads-schema-2002-04-03#resource" target="_blank" onmouseover="show_status('http://www2.elsevier.co.uk/~tony/1014/yads-schema-2002-04-03#resource');">
<path style="fill:none;stroke:#add9e6" d="M198,299C198,312 198,329 198,344"/>
<polygon style="fill:#add9e6;stroke:#add9e6" points="196,343 198,353 201,343 196,343"/>
<text text-anchor="middle" x="239" y="330" style="font-family:arial">has:resource</text>
</a></g>
<g id="node15" class="node"><title>:_4</title>
<a xlink:href="http://www.w3.org/1999/02/22-rdf-syntax-ns#Bag" target="_blank" onmouseover="show_status('http://www.w3.org/1999/02/22-rdf-syntax-ns#Bag');">
<ellipse cx="335" cy="371" rx="28" ry="18" style="fill:#d2d2d2;stroke:#d2d2d2"/>
<text text-anchor="middle" x="335" y="375" style="font-family:arial">rdf:Bag</text>
</a></g>
<g id="edge14" class="edge"><title>:_3-&gt;:_4</title>
<a xlink:href="http://www2.elsevier.co.uk/~tony/1014/yads-schema-2002-04-03#collection" target="_blank" onmouseover="show_status('http://www2.elsevier.co.uk/~tony/1014/yads-schema-2002-04-03#collection');">
<path style="fill:none;stroke:#add9e6" d="M224,289C242,295 265,305 283,317 296,326 308,338 317,348"/>
<polygon style="fill:#add9e6;stroke:#add9e6" points="314,348 322,355 318,345 314,348"/>
<text text-anchor="middle" x="346" y="330" style="font-family:arial">has:collection</text>
</a></g>
<g id="node17" class="node"><title>:_5</title>
<ellipse cx="145" cy="476" rx="60" ry="18" style="fill:#eedb82;stroke:#eedb82"/>
<text text-anchor="middle" x="145" y="480" style="font-family:arial">oboe:administration</text>
</g>
<g id="edge16" class="edge"><title>:_4-&gt;:_5</title>
<a xlink:href="http://www.w3.org/1999/02/22-rdf-syntax-ns#_1" target="_blank" onmouseover="show_status('http://www.w3.org/1999/02/22-rdf-syntax-ns#_1');">
<path style="fill:none;stroke:#add9e6" d="M314,383C282,401 221,434 182,456"/>
<polygon style="fill:#add9e6;stroke:#add9e6" points="182,453 174,460 184,458 182,453"/>
<text text-anchor="middle" x="293" y="420" style="font-family:arial">rdf:_1</text>
</a></g>
<g id="node19" class="node"><title>:_8</title>
<ellipse cx="335" cy="476" rx="44" ry="18" style="fill:#eedb82;stroke:#eedb82"/>
<text text-anchor="middle" x="335" y="480" style="font-family:arial">oboe:context</text>
</g>
<g id="edge18" class="edge"><title>:_4-&gt;:_8</title>
<a xlink:href="http://www.w3.org/1999/02/22-rdf-syntax-ns#_2" target="_blank" onmouseover="show_status('http://www.w3.org/1999/02/22-rdf-syntax-ns#_2');">
<path style="fill:none;stroke:#add9e6" d="M335,389C335,405 335,430 335,449"/>
<polygon style="fill:#add9e6;stroke:#add9e6" points="333,448 335,458 338,448 333,448"/>
<text text-anchor="middle" x="356" y="420" style="font-family:arial">rdf:_2</text>
</a></g>
<g id="node22" class="node"><title>:_6</title>
<a xlink:href="http://www.w3.org/1999/02/22-rdf-syntax-ns#Bag" target="_blank" onmouseover="show_status('http://www.w3.org/1999/02/22-rdf-syntax-ns#Bag');">
<ellipse cx="134" cy="566" rx="28" ry="18" style="fill:#d2d2d2;stroke:#d2d2d2"/>
<text text-anchor="middle" x="134" y="570" style="font-family:arial">rdf:Bag</text>
</a></g>
<g id="edge21" class="edge"><title>:_5-&gt;:_6</title>
<a xlink:href="http://www2.elsevier.co.uk/~tony/1014/yads-schema-2002-04-03#collection" target="_blank" onmouseover="show_status('http://www2.elsevier.co.uk/~tony/1014/yads-schema-2002-04-03#collection');">
<path style="fill:none;stroke:#add9e6" d="M143,494C141,507 139,524 137,539"/>
<polygon style="fill:#add9e6;stroke:#add9e6" points="135,538 136,548 140,538 135,538"/>
<text text-anchor="middle" x="183" y="525" style="font-family:arial">has:collection</text>
</a></g>
<g id="node30" class="node"><title>:_9</title>
<a xlink:href="http://www.w3.org/1999/02/22-rdf-syntax-ns#Bag" target="_blank" onmouseover="show_status('http://www.w3.org/1999/02/22-rdf-syntax-ns#Bag');">
<ellipse cx="336" cy="566" rx="28" ry="18" style="fill:#d2d2d2;stroke:#d2d2d2"/>
<text text-anchor="middle" x="336" y="570" style="font-family:arial">rdf:Bag</text>
</a></g>
<g id="edge29" class="edge"><title>:_8-&gt;:_9</title>
<a xlink:href="http://www2.elsevier.co.uk/~tony/1014/yads-schema-2002-04-03#collection" target="_blank" onmouseover="show_status('http://www2.elsevier.co.uk/~tony/1014/yads-schema-2002-04-03#collection');">
<path style="fill:none;stroke:#add9e6" d="M335,494C335,507 335,524 336,539"/>
<polygon style="fill:#add9e6;stroke:#add9e6" points="334,538 336,548 339,538 334,538"/>
<text text-anchor="middle" x="377" y="525" style="font-family:arial">has:collection</text>
</a></g>
<g id="node24" class="node"><title>:_7</title>
<ellipse cx="131" cy="671" rx="80" ry="18" style="fill:#eedb82;stroke:#eedb82"/>
<text text-anchor="middle" x="131" y="675" style="font-family:arial">oboe:administration:version</text>
</g>
<g id="edge23" class="edge"><title>:_6-&gt;:_7</title>
<a xlink:href="http://www.w3.org/1999/02/22-rdf-syntax-ns#_1" target="_blank" onmouseover="show_status('http://www.w3.org/1999/02/22-rdf-syntax-ns#_1');">
<path style="fill:none;stroke:#add9e6" d="M133,584C133,600 132,625 132,644"/>
<polygon style="fill:#add9e6;stroke:#add9e6" points="130,643 132,653 135,643 130,643"/>
<text text-anchor="middle" x="154" y="615" style="font-family:arial">rdf:_1</text>
</a></g>
<g id="node27" class="node"><title>data:,Z39.00-00</title>
<a xlink:href="" onclick="show_data('Z39.00-00');" onmouseover="show_status('data:,Z39.00-00');">
<ellipse cx="130" cy="761" rx="50" ry="18" style="fill:#dca0dd;stroke:#dca0dd"/>
<text text-anchor="middle" x="130" y="765" style="font-family:arial">data:,Z39.00-00</text>
</a></g>
<g id="edge26" class="edge"><title>:_7-&gt;data:,Z39.00-00</title>
<a xlink:href="http://www2.elsevier.co.uk/~tony/1014/yads-schema-2002-04-03#resource" target="_blank" onmouseover="show_status('http://www2.elsevier.co.uk/~tony/1014/yads-schema-2002-04-03#resource');">
<path style="fill:none;stroke:#add9e6" d="M131,689C131,702 131,719 130,734"/>
<polygon style="fill:#add9e6;stroke:#add9e6" points="128,733 130,743 133,733 128,733"/>
<text text-anchor="middle" x="172" y="720" style="font-family:arial">has:resource</text>
</a></g>
<g id="node32" class="node"><title>:_10</title>
<ellipse cx="337" cy="671" rx="60" ry="18" style="fill:#eedb82;stroke:#eedb82"/>
<text text-anchor="middle" x="337" y="675" style="font-family:arial">oboe:entity:referent</text>
</g>
<g id="edge31" class="edge"><title>:_9-&gt;:_10</title>
<a xlink:href="http://www.w3.org/1999/02/22-rdf-syntax-ns#_1" target="_blank" onmouseover="show_status('http://www.w3.org/1999/02/22-rdf-syntax-ns#_1');">
<path style="fill:none;stroke:#add9e6" d="M336,584C336,600 336,625 337,644"/>
<polygon style="fill:#add9e6;stroke:#add9e6" points="335,643 337,653 340,643 335,643"/>
<text text-anchor="middle" x="357" y="615" style="font-family:arial">rdf:_1</text>
</a></g>
<g id="node35" class="node"><title>:_11</title>
<a xlink:href="http://www.w3.org/1999/02/22-rdf-syntax-ns#Bag" target="_blank" onmouseover="show_status('http://www.w3.org/1999/02/22-rdf-syntax-ns#Bag');">
<ellipse cx="341" cy="761" rx="28" ry="18" style="fill:#d2d2d2;stroke:#d2d2d2"/>
<text text-anchor="middle" x="341" y="765" style="font-family:arial">rdf:Bag</text>
</a></g>
<g id="edge34" class="edge"><title>:_10-&gt;:_11</title>
<a xlink:href="http://www2.elsevier.co.uk/~tony/1014/yads-schema-2002-04-03#collection" target="_blank" onmouseover="show_status('http://www2.elsevier.co.uk/~tony/1014/yads-schema-2002-04-03#collection');">
<path style="fill:none;stroke:#add9e6" d="M338,689C339,702 340,719 340,734"/>
<polygon style="fill:#add9e6;stroke:#add9e6" points="338,733 340,743 343,733 338,733"/>
<text text-anchor="middle" x="382" y="720" style="font-family:arial">has:collection</text>
</a></g>
<g id="node37" class="node"><title>:_12</title>
<ellipse cx="341" cy="872" rx="73" ry="18" style="fill:#eedb82;stroke:#eedb82"/>
<text text-anchor="middle" x="341" y="876" style="font-family:arial">oboe:descriptor:identifier</text>
</g>
<g id="edge36" class="edge"><title>:_11-&gt;:_12</title>
<a xlink:href="http://www.w3.org/1999/02/22-rdf-syntax-ns#_1" target="_blank" onmouseover="show_status('http://www.w3.org/1999/02/22-rdf-syntax-ns#_1');">
<path style="fill:none;stroke:#add9e6" d="M341,779C341,797 341,824 341,845"/>
<polygon style="fill:#add9e6;stroke:#add9e6" points="339,844 341,854 344,844 339,844"/>
<text text-anchor="middle" x="361" y="816" style="font-family:arial">rdf:_1</text>
</a></g>
<g id="node39" class="node"><title>:_13</title>
<ellipse cx="564" cy="872" rx="96" ry="18" style="fill:#eedb82;stroke:#eedb82"/>
<text text-anchor="middle" x="564" y="876" style="font-family:arial">oboe:descriptor:metadata-by-val</text>
</g>
<g id="edge38" class="edge"><title>:_11-&gt;:_13</title>
<a xlink:href="http://www.w3.org/1999/02/22-rdf-syntax-ns#_2" target="_blank" onmouseover="show_status('http://www.w3.org/1999/02/22-rdf-syntax-ns#_2');">
<path style="fill:none;stroke:#add9e6" d="M363,772C400,790 473,827 520,850"/>
<polygon style="fill:#add9e6;stroke:#add9e6" points="520,853 530,855 522,848 520,853"/>
<text text-anchor="middle" x="482" y="816" style="font-family:arial">rdf:_2</text>
</a></g>
<g id="node42" class="node"><title>data:,ori:doi:10.1045/july99-...n</title>
<a xlink:href="" onclick="show_data('ori:doi:10.1045/july99-caplan');" onmouseover="show_status('data:,ori:doi:10.1045/july99-caplan');">
<ellipse cx="341" cy="962" rx="82" ry="18" style="fill:#dca0dd;stroke:#dca0dd"/>
<text text-anchor="middle" x="341" y="966" style="font-family:arial">data:,ori:doi:10.1045/july99-...n</text>
</a></g>
<g id="edge41" class="edge"><title>:_12-&gt;data:,ori:doi:10.1045/july99-...n</title>
<a xlink:href="http://www2.elsevier.co.uk/~tony/1014/yads-schema-2002-04-03#resource" target="_blank" onmouseover="show_status('http://www2.elsevier.co.uk/~tony/1014/yads-schema-2002-04-03#resource');">
<path style="fill:none;stroke:#add9e6" d="M341,890C341,903 341,920 341,935"/>
<polygon style="fill:#add9e6;stroke:#add9e6" points="339,934 341,944 344,934 339,934"/>
<text text-anchor="middle" x="382" y="921" style="font-family:arial">has:resource</text>
</a></g>
<g id="node45" class="node"><title>data:,ori:schema:jarticle</title>
<a xlink:href="" onclick="show_data('ori:schema:jarticle');" onmouseover="show_status('data:,ori:schema:jarticle');">
<ellipse cx="564" cy="962" rx="69" ry="18" style="fill:#dca0dd;stroke:#dca0dd"/>
<text text-anchor="middle" x="564" y="966" style="font-family:arial">data:,ori:schema:jarticle</text>
</a></g>
<g id="edge44" class="edge"><title>:_13-&gt;data:,ori:schema:jarticle</title>
<a xlink:href="http://www2.elsevier.co.uk/~tony/1014/yads-schema-2002-04-03#resource" target="_blank" onmouseover="show_status('http://www2.elsevier.co.uk/~tony/1014/yads-schema-2002-04-03#resource');">
<path style="fill:none;stroke:#add9e6" d="M564,890C564,903 564,920 564,935"/>
<polygon style="fill:#add9e6;stroke:#add9e6" points="562,934 564,944 567,934 562,934"/>
<text text-anchor="middle" x="605" y="921" style="font-family:arial">has:resource</text>
</a></g>
<g id="node47" class="node"><title>:_14</title>
<a xlink:href="http://www.w3.org/1999/02/22-rdf-syntax-ns#Bag" target="_blank" onmouseover="show_status('http://www.w3.org/1999/02/22-rdf-syntax-ns#Bag');">
<ellipse cx="688" cy="962" rx="28" ry="18" style="fill:#d2d2d2;stroke:#d2d2d2"/>
<text text-anchor="middle" x="688" y="966" style="font-family:arial">rdf:Bag</text>
</a></g>
<g id="edge46" class="edge"><title>:_13-&gt;:_14</title>
<a xlink:href="http://www2.elsevier.co.uk/~tony/1014/yads-schema-2002-04-03#collection" target="_blank" onmouseover="show_status('http://www2.elsevier.co.uk/~tony/1014/yads-schema-2002-04-03#collection');">
<path style="fill:none;stroke:#add9e6" d="M613,888C625,893 638,900 649,908 659,916 668,927 674,937"/>
<polygon style="fill:#add9e6;stroke:#add9e6" points="672,938 679,945 676,935 672,938"/>
<text text-anchor="middle" x="708" y="921" style="font-family:arial">has:collection</text>
</a></g>
<g id="node49" class="node"><title>:_15</title>
<ellipse cx="503" cy="1067" rx="27" ry="18" style="fill:#eedb82;stroke:#eedb82"/>
<text text-anchor="middle" x="503" y="1071" style="font-family:arial">issn</text>
</g>
<g id="edge48" class="edge"><title>:_14-&gt;:_15</title>
<a xlink:href="http://www.w3.org/1999/02/22-rdf-syntax-ns#_1" target="_blank" onmouseover="show_status('http://www.w3.org/1999/02/22-rdf-syntax-ns#_1');">
<path style="fill:none;stroke:#add9e6" d="M662,970C656,976 654,983 642,988 624,998 616,990 596,998 570,1011 543,1031 525,1047"/>
<polygon style="fill:#add9e6;stroke:#add9e6" points="525,1044 519,1052 528,1048 525,1044"/>
<text text-anchor="middle" x="625" y="1011" style="font-family:arial">rdf:_1</text>
</a></g>
<g id="node51" class="node"><title>:_16</title>
<ellipse cx="615" cy="1067" rx="27" ry="18" style="fill:#eedb82;stroke:#eedb82"/>
<text text-anchor="middle" x="615" y="1071" style="font-family:arial">issue</text>
</g>
<g id="edge50" class="edge"><title>:_14-&gt;:_16</title>
<a xlink:href="http://www.w3.org/1999/02/22-rdf-syntax-ns#_2" target="_blank" onmouseover="show_status('http://www.w3.org/1999/02/22-rdf-syntax-ns#_2');">
<path style="fill:none;stroke:#add9e6" d="M671,976C664,983 655,990 649,998 639,1011 631,1028 625,1041"/>
<polygon style="fill:#add9e6;stroke:#add9e6" points="623,1039 622,1049 628,1041 623,1039"/>
<text text-anchor="middle" x="673" y="1011" style="font-family:arial">rdf:_2</text>
</a></g>
<g id="node53" class="node"><title>:_17</title>
<ellipse cx="708" cy="1067" rx="28" ry="18" style="fill:#eedb82;stroke:#eedb82"/>
<text text-anchor="middle" x="708" y="1071" style="font-family:arial">volume</text>
</g>
<g id="edge52" class="edge"><title>:_14-&gt;:_17</title>
<a xlink:href="http://www.w3.org/1999/02/22-rdf-syntax-ns#_3" target="_blank" onmouseover="show_status('http://www.w3.org/1999/02/22-rdf-syntax-ns#_3');">
<path style="fill:none;stroke:#add9e6" d="M691,980C694,996 699,1021 703,1040"/>
<polygon style="fill:#add9e6;stroke:#add9e6" points="700,1039 704,1049 705,1039 700,1039"/>
<text text-anchor="middle" x="719" y="1011" style="font-family:arial">rdf:_3</text>
</a></g>
<g id="node55" class="node"><title>:_18</title>
<ellipse cx="812" cy="1067" rx="27" ry="18" style="fill:#eedb82;stroke:#eedb82"/>
<text text-anchor="middle" x="812" y="1071" style="font-family:arial">aulast</text>
</g>
<g id="edge54" class="edge"><title>:_14-&gt;:_18</title>
<a xlink:href="http://www.w3.org/1999/02/22-rdf-syntax-ns#_4" target="_blank" onmouseover="show_status('http://www.w3.org/1999/02/22-rdf-syntax-ns#_4');">
<path style="fill:none;stroke:#add9e6" d="M709,974C720,981 734,989 745,998 759,1009 762,1012 773,1024 780,1031 786,1038 792,1044"/>
<polygon style="fill:#add9e6;stroke:#add9e6" points="790,1045 798,1051 793,1042 790,1045"/>
<text text-anchor="middle" x="786" y="1011" style="font-family:arial">rdf:_4</text>
</a></g>
<g id="node57" class="node"><title>:_19</title>
<ellipse cx="917" cy="1067" rx="27" ry="18" style="fill:#eedb82;stroke:#eedb82"/>
<text text-anchor="middle" x="917" y="1071" style="font-family:arial">aufirst</text>
</g>
<g id="edge56" class="edge"><title>:_14-&gt;:_19</title>
<a xlink:href="http://www.w3.org/1999/02/22-rdf-syntax-ns#_5" target="_blank" onmouseover="show_status('http://www.w3.org/1999/02/22-rdf-syntax-ns#_5');">
<path style="fill:none;stroke:#add9e6" d="M716,965C789,981 815,980 878,1024 885,1029 893,1037 899,1044"/>
<polygon style="fill:#add9e6;stroke:#add9e6" points="897,1045 905,1051 900,1042 897,1045"/>
<text text-anchor="middle" x="887" y="1011" style="font-family:arial">rdf:_5</text>
</a></g>
<g id="node60" class="node"><title>data:,10829873</title>
<a xlink:href="" onclick="show_data('10829873');" onmouseover="show_status('data:,10829873');">
<ellipse cx="503" cy="1157" rx="48" ry="18" style="fill:#dca0dd;stroke:#dca0dd"/>
<text text-anchor="middle" x="503" y="1161" style="font-family:arial">data:,10829873</text>
</a></g>
<g id="edge59" class="edge"><title>:_15-&gt;data:,10829873</title>
<a xlink:href="http://www2.elsevier.co.uk/~tony/1014/yads-schema-2002-04-03#resource" target="_blank" onmouseover="show_status('http://www2.elsevier.co.uk/~tony/1014/yads-schema-2002-04-03#resource');">
<path style="fill:none;stroke:#add9e6" d="M491,1083C488,1089 484,1096 482,1103 480,1111 480,1114 482,1121 483,1124 484,1127 486,1131"/>
<polygon style="fill:#add9e6;stroke:#add9e6" points="484,1132 490,1140 488,1130 484,1132"/>
<text text-anchor="middle" x="526" y="1116" style="font-family:arial">has:resource</text>
</a></g>
<g id="node63" class="node"><title>data:,7/8</title>
<a xlink:href="" onclick="show_data('7/8');" onmouseover="show_status('data:,7/8');">
<ellipse cx="606" cy="1157" rx="31" ry="18" style="fill:#dca0dd;stroke:#dca0dd"/>
<text text-anchor="middle" x="606" y="1161" style="font-family:arial">data:,7/8</text>
</a></g>
<g id="edge62" class="edge"><title>:_16-&gt;data:,7/8</title>
<a xlink:href="http://www2.elsevier.co.uk/~tony/1014/yads-schema-2002-04-03#resource" target="_blank" onmouseover="show_status('http://www2.elsevier.co.uk/~tony/1014/yads-schema-2002-04-03#resource');">
<path style="fill:none;stroke:#add9e6" d="M600,1082C595,1088 590,1095 587,1103 584,1113 586,1123 590,1132"/>
<polygon style="fill:#add9e6;stroke:#add9e6" points="587,1132 594,1140 592,1130 587,1132"/>
<text text-anchor="middle" x="631" y="1116" style="font-family:arial">has:resource</text>
</a></g>
<g id="node66" class="node"><title>data:,5</title>
<a xlink:href="" onclick="show_data('5');" onmouseover="show_status('data:,5');">
<ellipse cx="707" cy="1157" rx="27" ry="18" style="fill:#dca0dd;stroke:#dca0dd"/>
<text text-anchor="middle" x="707" y="1161" style="font-family:arial">data:,5</text>
</a></g>
<g id="edge65" class="edge"><title>:_17-&gt;data:,5</title>
<a xlink:href="http://www2.elsevier.co.uk/~tony/1014/yads-schema-2002-04-03#resource" target="_blank" onmouseover="show_status('http://www2.elsevier.co.uk/~tony/1014/yads-schema-2002-04-03#resource');">
<path style="fill:none;stroke:#add9e6" d="M699,1084C696,1090 693,1097 692,1103 691,1111 691,1114 692,1121 693,1124 694,1127 695,1131"/>
<polygon style="fill:#add9e6;stroke:#add9e6" points="693,1132 699,1140 697,1130 693,1132"/>
<text text-anchor="middle" x="736" y="1116" style="font-family:arial">has:resource</text>
</a></g>
<g id="node69" class="node"><title>data:,caplan</title>
<a xlink:href="" onclick="show_data('caplan');" onmouseover="show_status('data:,caplan');">
<ellipse cx="825" cy="1157" rx="40" ry="18" style="fill:#dca0dd;stroke:#dca0dd"/>
<text text-anchor="middle" x="825" y="1161" style="font-family:arial">data:,caplan</text>
</a></g>
<g id="edge68" class="edge"><title>:_18-&gt;data:,caplan</title>
<a xlink:href="http://www2.elsevier.co.uk/~tony/1014/yads-schema-2002-04-03#resource" target="_blank" onmouseover="show_status('http://www2.elsevier.co.uk/~tony/1014/yads-schema-2002-04-03#resource');">
<path style="fill:none;stroke:#add9e6" d="M802,1084C797,1095 793,1109 797,1121 799,1125 801,1129 803,1132"/>
<polygon style="fill:#add9e6;stroke:#add9e6" points="801,1133 808,1140 805,1130 801,1133"/>
<text text-anchor="middle" x="838" y="1116" style="font-family:arial">has:resource</text>
</a></g>
<g id="node72" class="node"><title>data:,priscilla</title>
<a xlink:href="" onclick="show_data('priscilla');" onmouseover="show_status('data:,priscilla');">
<ellipse cx="930" cy="1157" rx="40" ry="18" style="fill:#dca0dd;stroke:#dca0dd"/>
<text text-anchor="middle" x="930" y="1161" style="font-family:arial">data:,priscilla</text>
</a></g>
<g id="edge71" class="edge"><title>:_19-&gt;data:,priscilla</title>
<a xlink:href="http://www2.elsevier.co.uk/~tony/1014/yads-schema-2002-04-03#resource" target="_blank" onmouseover="show_status('http://www2.elsevier.co.uk/~tony/1014/yads-schema-2002-04-03#resource');">
<path style="fill:none;stroke:#add9e6" d="M902,1082C893,1093 885,1108 890,1121 892,1126 895,1131 900,1135"/>
<polygon style="fill:#add9e6;stroke:#add9e6" points="898,1137 907,1142 902,1133 898,1137"/>
<text text-anchor="middle" x="931" y="1116" style="font-family:arial">has:resource</text>
</a></g>
</g>
</svg>
