<?xml version="1.0" encoding="UTF-8" standalone="no"?>
<!DOCTYPE svg PUBLIC "-//W3C//DTD SVG 1.0//EN"
 "http://www.w3.org/TR/2001/REC-SVG-20010904/DTD/svg10.dtd" [
 <!ATTLIST svg xmlns:xlink CDATA #FIXED "http://www.w3.org/1999/xlink">
]>
<!-- Generated by dot version 1.8.5 (Tue Apr 23 17:19:23  2002)
     For user: (Administrator) ,S-1-5-21-1454471165-688789844-1708537768-500   Title: yads    Pages: 1 -->
<svg width="890px" height="1063px"
 xmlns="http://www.w3.org/2000/svg" xmlns:xlink="http://www.w3.org/1999/xlink">
<g id="graph0" class="graph" style="font-family:Times-Roman;font-size:11.00">
<title>yads</title>
<text text-anchor="middle" x="445" y="1052" style="font-family:arial;font-size:24.00">YADS - A Description Service</text>
<g id="graph2" class="cluster"><title>cluster_1</title>
<polygon style="fill:none;stroke:#d2d2d2;stroke-dasharray:5,2" points="19,1020 871,1020 871,43 19,43 19,1020"/>
<text text-anchor="middle" x="70" y="55" style="font-family:arial">Nest - OpenURL</text>
</g>
<g id="graph3" class="cluster"><title>cluster_3</title>
<polygon style="fill:none;stroke:#d2d2d2;stroke-dasharray:5,2" points="27,1012 863,1012 863,238 27,238 27,1012"/>
<text text-anchor="middle" x="68" y="250" style="font-family:arial">Nest - Profile</text>
</g>
<g id="graph4" class="cluster"><title>cluster_5</title>
<polygon style="fill:none;stroke:#d2d2d2;stroke-dasharray:5,2" points="35,795 227,795 227,433 35,433 35,795"/>
<text text-anchor="middle" x="95" y="445" style="font-family:arial">Item - Administration</text>
</g>
<g id="graph5" class="cluster"><title>cluster_7</title>
<polygon style="fill:none;stroke:#d2d2d2;stroke-dasharray:5,2" points="43,787 219,787 219,628 43,628 43,787"/>
<text text-anchor="middle" x="86" y="640" style="font-family:arial">Item - Version</text>
</g>
<g id="graph6" class="cluster"><title>cluster_8</title>
<polygon style="fill:none;stroke:#d2d2d2;stroke-dasharray:5,2" points="235,1004 855,1004 855,433 235,433 235,1004"/>
<text text-anchor="middle" x="300" y="445" style="font-family:arial">Item - Context-Object</text>
</g>
<g id="graph7" class="cluster"><title>cluster_10</title>
<polygon style="fill:none;stroke:#d2d2d2;stroke-dasharray:5,2" points="243,996 439,996 439,628 243,628 243,996"/>
<text text-anchor="middle" x="290" y="640" style="font-family:arial">Item - Referent</text>
</g>
<g id="graph8" class="cluster"><title>cluster_12</title>
<polygon style="fill:none;stroke:#d2d2d2;stroke-dasharray:5,2" points="251,988 431,988 431,829 251,829 251,988"/>
<text text-anchor="middle" x="295" y="841" style="font-family:arial">Item - Identifier</text>
</g>
<g id="graph9" class="cluster"><title>cluster_13</title>
<polygon style="fill:none;stroke:#d2d2d2;stroke-dasharray:5,2" points="447,996 637,996 637,628 447,628 447,996"/>
<text text-anchor="middle" x="493" y="640" style="font-family:arial">Item - Referrer</text>
</g>
<g id="graph10" class="cluster"><title>cluster_15</title>
<polygon style="fill:none;stroke:#d2d2d2;stroke-dasharray:5,2" points="455,988 629,988 629,829 455,829 455,988"/>
<text text-anchor="middle" x="499" y="841" style="font-family:arial">Item - Identifier</text>
</g>
<g id="graph11" class="cluster"><title>cluster_16</title>
<polygon style="fill:none;stroke:#d2d2d2;stroke-dasharray:5,2" points="645,996 847,996 847,628 645,628 645,996"/>
<text text-anchor="middle" x="709" y="640" style="font-family:arial">Item - Referring-Entity</text>
</g>
<g id="graph12" class="cluster"><title>cluster_18</title>
<polygon style="fill:none;stroke:#d2d2d2;stroke-dasharray:5,2" points="653,988 839,988 839,829 653,829 653,988"/>
<text text-anchor="middle" x="697" y="841" style="font-family:arial">Item - Identifier</text>
</g>
<g id="node2" class="node"><title>:_1</title>
<a xlink:href="http://www2.elsevier.co.uk/~tony/1014/yads-schema-2002-04-03#Nest" target="_blank" onmouseover="show_status('http://www2.elsevier.co.uk/~tony/1014/yads-schema-2002-04-03#Nest');">
<ellipse cx="179" cy="86" rx="29" ry="18" style="fill:#d2d2d2;stroke:#d2d2d2"/>
<text text-anchor="middle" x="179" y="90" style="font-family:arial">isa:Nest</text>
</a></g>
<g id="node4" class="node"><title>:</title>
<ellipse cx="130" cy="176" rx="27" ry="18" style="fill:#dca0dd;stroke:#dca0dd"/>
<text text-anchor="middle" x="130" y="180" style="font-family:arial">:</text>
</g>
<g id="edge3" class="edge"><title>:_1-&gt;:</title>
<a xlink:href="http://www2.elsevier.co.uk/~tony/1014/yads-schema-2002-04-03#resource" target="_blank" onmouseover="show_status('http://www2.elsevier.co.uk/~tony/1014/yads-schema-2002-04-03#resource');">
<path style="fill:none;stroke:#add9e6" d="M162,100C155,107 149,114 144,122 140,130 136,140 134,149"/>
<polygon style="fill:#add9e6;stroke:#add9e6" points="132,148 132,158 137,149 132,148"/>
<text text-anchor="middle" x="188" y="135" style="font-family:arial">has:resource</text>
</a></g>
<g id="node6" class="node"><title>:_2</title>
<a xlink:href="http://www.w3.org/1999/02/22-rdf-syntax-ns#Bag" target="_blank" onmouseover="show_status('http://www.w3.org/1999/02/22-rdf-syntax-ns#Bag');">
<ellipse cx="229" cy="176" rx="28" ry="18" style="fill:#d2d2d2;stroke:#d2d2d2"/>
<text text-anchor="middle" x="229" y="180" style="font-family:arial">rdf:Bag</text>
</a></g>
<g id="edge5" class="edge"><title>:_1-&gt;:_2</title>
<a xlink:href="http://www2.elsevier.co.uk/~tony/1014/yads-schema-2002-04-03#collection" target="_blank" onmouseover="show_status('http://www2.elsevier.co.uk/~tony/1014/yads-schema-2002-04-03#collection');">
<path style="fill:none;stroke:#add9e6" d="M203,97C213,103 224,111 229,122 233,130 234,140 234,149"/>
<polygon style="fill:#add9e6;stroke:#add9e6" points="232,148 233,158 237,148 232,148"/>
<text text-anchor="middle" x="276" y="135" style="font-family:arial">has:collection</text>
</a></g>
<g id="node8" class="node"><title>:_3</title>
<a xlink:href="http://www2.elsevier.co.uk/~tony/1014/yads-schema-2002-04-03#Nest" target="_blank" onmouseover="show_status('http://www2.elsevier.co.uk/~tony/1014/yads-schema-2002-04-03#Nest');">
<ellipse cx="229" cy="281" rx="29" ry="18" style="fill:#d2d2d2;stroke:#d2d2d2"/>
<text text-anchor="middle" x="229" y="285" style="font-family:arial">isa:Nest</text>
</a></g>
<g id="edge7" class="edge"><title>:_2-&gt;:_3</title>
<a xlink:href="http://www.w3.org/1999/02/22-rdf-syntax-ns#_1" target="_blank" onmouseover="show_status('http://www.w3.org/1999/02/22-rdf-syntax-ns#_1');">
<path style="fill:none;stroke:#add9e6" d="M229,194C229,210 229,235 229,254"/>
<polygon style="fill:#add9e6;stroke:#add9e6" points="227,253 229,263 232,253 227,253"/>
<text text-anchor="middle" x="249" y="225" style="font-family:arial">rdf:_1</text>
</a></g>
<g id="node11" class="node"><title>node_1</title>
<polygon style="fill:#6497ed;stroke:#6497ed" points="120,353 66,353 66,389 120,389 120,353"/>
<text text-anchor="middle" x="93" y="375" style="font-family:arial">oboe:</text>
</g>
<g id="edge10" class="edge"><title>:_3-&gt;node_1</title>
<a xlink:href="http://www2.elsevier.co.uk/~tony/1014/yads-schema-2002-04-03#directive" target="_blank" onmouseover="show_status('http://www2.elsevier.co.uk/~tony/1014/yads-schema-2002-04-03#directive');">
<path style="fill:none;stroke:#add9e6" d="M204,290C188,297 166,306 149,317 137,325 125,337 115,347"/>
<polygon style="fill:#add9e6;stroke:#add9e6" points="114,344 109,353 118,348 114,344"/>
<text text-anchor="middle" x="193" y="330" style="font-family:arial">has:directive</text>
</a></g>
<g id="node13" class="node"><title>http://www2.elsevier.co.uk/~t...f</title>
<a xlink:href="http://www2.elsevier.co.uk/~tony/oboe/oboe.rdf" target="_blank" onmouseover="show_status('http://www2.elsevier.co.uk/~tony/oboe/oboe.rdf');">
<ellipse cx="229" cy="371" rx="91" ry="18" style="fill:#dca0dd;stroke:#dca0dd"/>
<text text-anchor="middle" x="229" y="375" style="font-family:arial">http://www2.elsevier.co.uk/~t...f</text>
</a></g>
<g id="edge12" class="edge"><title>:_3-&gt;http://www2.elsevier.co.uk/~t...f</title>
<a xlink:href="http://www2.elsevier.co.uk/~tony/1014/yads-schema-2002-04-03#resource" target="_blank" onmouseover="show_status('http://www2.elsevier.co.uk/~tony/1014/yads-schema-2002-04-03#resource');">
<path style="fill:none;stroke:#add9e6" d="M229,299C229,312 229,329 229,344"/>
<polygon style="fill:#add9e6;stroke:#add9e6" points="227,343 229,353 232,343 227,343"/>
<text text-anchor="middle" x="270" y="330" style="font-family:arial">has:resource</text>
</a></g>
<g id="node15" class="node"><title>:_4</title>
<a xlink:href="http://www.w3.org/1999/02/22-rdf-syntax-ns#Bag" target="_blank" onmouseover="show_status('http://www.w3.org/1999/02/22-rdf-syntax-ns#Bag');">
<ellipse cx="366" cy="371" rx="28" ry="18" style="fill:#d2d2d2;stroke:#d2d2d2"/>
<text text-anchor="middle" x="366" y="375" style="font-family:arial">rdf:Bag</text>
</a></g>
<g id="edge14" class="edge"><title>:_3-&gt;:_4</title>
<a xlink:href="http://www2.elsevier.co.uk/~tony/1014/yads-schema-2002-04-03#collection" target="_blank" onmouseover="show_status('http://www2.elsevier.co.uk/~tony/1014/yads-schema-2002-04-03#collection');">
<path style="fill:none;stroke:#add9e6" d="M255,289C273,295 296,305 314,317 327,326 339,338 348,348"/>
<polygon style="fill:#add9e6;stroke:#add9e6" points="345,348 353,355 349,345 345,348"/>
<text text-anchor="middle" x="377" y="330" style="font-family:arial">has:collection</text>
</a></g>
<g id="node17" class="node"><title>:_5</title>
<ellipse cx="145" cy="476" rx="60" ry="18" style="fill:#eedb82;stroke:#eedb82"/>
<text text-anchor="middle" x="145" y="480" style="font-family:arial">oboe:administration</text>
</g>
<g id="edge16" class="edge"><title>:_4-&gt;:_5</title>
<a xlink:href="http://www.w3.org/1999/02/22-rdf-syntax-ns#_1" target="_blank" onmouseover="show_status('http://www.w3.org/1999/02/22-rdf-syntax-ns#_1');">
<path style="fill:none;stroke:#add9e6" d="M344,382C339,385 334,387 329,389 286,410 275,413 231,433 216,441 199,449 185,456"/>
<polygon style="fill:#add9e6;stroke:#add9e6" points="184,454 176,460 186,458 184,454"/>
<text text-anchor="middle" x="316" y="420" style="font-family:arial">rdf:_1</text>
</a></g>
<g id="node19" class="node"><title>:_8</title>
<ellipse cx="398" cy="476" rx="44" ry="18" style="fill:#eedb82;stroke:#eedb82"/>
<text text-anchor="middle" x="398" y="480" style="font-family:arial">oboe:context</text>
</g>
<g id="edge18" class="edge"><title>:_4-&gt;:_8</title>
<a xlink:href="http://www.w3.org/1999/02/22-rdf-syntax-ns#_2" target="_blank" onmouseover="show_status('http://www.w3.org/1999/02/22-rdf-syntax-ns#_2');">
<path style="fill:none;stroke:#add9e6" d="M371,389C376,405 384,431 390,450"/>
<polygon style="fill:#add9e6;stroke:#add9e6" points="387,450 393,458 392,448 387,450"/>
<text text-anchor="middle" x="403" y="420" style="font-family:arial">rdf:_2</text>
</a></g>
<g id="node22" class="node"><title>:_6</title>
<a xlink:href="http://www.w3.org/1999/02/22-rdf-syntax-ns#Bag" target="_blank" onmouseover="show_status('http://www.w3.org/1999/02/22-rdf-syntax-ns#Bag');">
<ellipse cx="134" cy="566" rx="28" ry="18" style="fill:#d2d2d2;stroke:#d2d2d2"/>
<text text-anchor="middle" x="134" y="570" style="font-family:arial">rdf:Bag</text>
</a></g>
<g id="edge21" class="edge"><title>:_5-&gt;:_6</title>
<a xlink:href="http://www2.elsevier.co.uk/~tony/1014/yads-schema-2002-04-03#collection" target="_blank" onmouseover="show_status('http://www2.elsevier.co.uk/~tony/1014/yads-schema-2002-04-03#collection');">
<path style="fill:none;stroke:#add9e6" d="M143,494C141,507 139,524 137,539"/>
<polygon style="fill:#add9e6;stroke:#add9e6" points="135,538 136,548 140,538 135,538"/>
<text text-anchor="middle" x="183" y="525" style="font-family:arial">has:collection</text>
</a></g>
<g id="node30" class="node"><title>:_9</title>
<a xlink:href="http://www.w3.org/1999/02/22-rdf-syntax-ns#Bag" target="_blank" onmouseover="show_status('http://www.w3.org/1999/02/22-rdf-syntax-ns#Bag');">
<ellipse cx="417" cy="566" rx="28" ry="18" style="fill:#d2d2d2;stroke:#d2d2d2"/>
<text text-anchor="middle" x="417" y="570" style="font-family:arial">rdf:Bag</text>
</a></g>
<g id="edge29" class="edge"><title>:_8-&gt;:_9</title>
<a xlink:href="http://www2.elsevier.co.uk/~tony/1014/yads-schema-2002-04-03#collection" target="_blank" onmouseover="show_status('http://www2.elsevier.co.uk/~tony/1014/yads-schema-2002-04-03#collection');">
<path style="fill:none;stroke:#add9e6" d="M402,494C404,507 408,524 411,539"/>
<polygon style="fill:#add9e6;stroke:#add9e6" points="408,539 413,548 413,538 408,539"/>
<text text-anchor="middle" x="452" y="525" style="font-family:arial">has:collection</text>
</a></g>
<g id="node24" class="node"><title>:_7</title>
<ellipse cx="131" cy="671" rx="80" ry="18" style="fill:#eedb82;stroke:#eedb82"/>
<text text-anchor="middle" x="131" y="675" style="font-family:arial">oboe:administration:version</text>
</g>
<g id="edge23" class="edge"><title>:_6-&gt;:_7</title>
<a xlink:href="http://www.w3.org/1999/02/22-rdf-syntax-ns#_1" target="_blank" onmouseover="show_status('http://www.w3.org/1999/02/22-rdf-syntax-ns#_1');">
<path style="fill:none;stroke:#add9e6" d="M133,584C133,600 132,625 132,644"/>
<polygon style="fill:#add9e6;stroke:#add9e6" points="130,643 132,653 135,643 130,643"/>
<text text-anchor="middle" x="154" y="615" style="font-family:arial">rdf:_1</text>
</a></g>
<g id="node27" class="node"><title>data:,Z39.00-00</title>
<a xlink:href="" onclick="show_data('Z39.00-00');" onmouseover="show_status('data:,Z39.00-00');">
<ellipse cx="130" cy="761" rx="50" ry="18" style="fill:#dca0dd;stroke:#dca0dd"/>
<text text-anchor="middle" x="130" y="765" style="font-family:arial">data:,Z39.00-00</text>
</a></g>
<g id="edge26" class="edge"><title>:_7-&gt;data:,Z39.00-00</title>
<a xlink:href="http://www2.elsevier.co.uk/~tony/1014/yads-schema-2002-04-03#resource" target="_blank" onmouseover="show_status('http://www2.elsevier.co.uk/~tony/1014/yads-schema-2002-04-03#resource');">
<path style="fill:none;stroke:#add9e6" d="M131,689C131,702 131,719 130,734"/>
<polygon style="fill:#add9e6;stroke:#add9e6" points="128,733 130,743 133,733 128,733"/>
<text text-anchor="middle" x="172" y="720" style="font-family:arial">has:resource</text>
</a></g>
<g id="node32" class="node"><title>:_10</title>
<ellipse cx="361" cy="671" rx="60" ry="18" style="fill:#eedb82;stroke:#eedb82"/>
<text text-anchor="middle" x="361" y="675" style="font-family:arial">oboe:entity:referent</text>
</g>
<g id="edge31" class="edge"><title>:_9-&gt;:_10</title>
<a xlink:href="http://www.w3.org/1999/02/22-rdf-syntax-ns#_1" target="_blank" onmouseover="show_status('http://www.w3.org/1999/02/22-rdf-syntax-ns#_1');">
<path style="fill:none;stroke:#add9e6" d="M408,583C399,600 385,625 375,645"/>
<polygon style="fill:#add9e6;stroke:#add9e6" points="373,643 371,653 378,645 373,643"/>
<text text-anchor="middle" x="419" y="615" style="font-family:arial">rdf:_1</text>
</a></g>
<g id="node34" class="node"><title>:_13</title>
<ellipse cx="526" cy="671" rx="59" ry="18" style="fill:#eedb82;stroke:#eedb82"/>
<text text-anchor="middle" x="526" y="675" style="font-family:arial">oboe:entity:referrer</text>
</g>
<g id="edge33" class="edge"><title>:_9-&gt;:_13</title>
<a xlink:href="http://www.w3.org/1999/02/22-rdf-syntax-ns#_2" target="_blank" onmouseover="show_status('http://www.w3.org/1999/02/22-rdf-syntax-ns#_2');">
<path style="fill:none;stroke:#add9e6" d="M433,581C451,598 480,627 501,647"/>
<polygon style="fill:#add9e6;stroke:#add9e6" points="499,649 508,654 503,645 499,649"/>
<text text-anchor="middle" x="495" y="615" style="font-family:arial">rdf:_2</text>
</a></g>
<g id="node36" class="node"><title>:_16</title>
<ellipse cx="735" cy="671" rx="78" ry="18" style="fill:#eedb82;stroke:#eedb82"/>
<text text-anchor="middle" x="735" y="675" style="font-family:arial">oboe:entity:referring-entity</text>
</g>
<g id="edge35" class="edge"><title>:_9-&gt;:_16</title>
<a xlink:href="http://www.w3.org/1999/02/22-rdf-syntax-ns#_3" target="_blank" onmouseover="show_status('http://www.w3.org/1999/02/22-rdf-syntax-ns#_3');">
<path style="fill:none;stroke:#add9e6" d="M444,570C530,589 555,596 641,628 659,635 677,643 694,650"/>
<polygon style="fill:#add9e6;stroke:#add9e6" points="692,652 702,654 694,647 692,652"/>
<text text-anchor="middle" x="638" y="615" style="font-family:arial">rdf:_3</text>
</a></g>
<g id="node39" class="node"><title>:_11</title>
<a xlink:href="http://www.w3.org/1999/02/22-rdf-syntax-ns#Bag" target="_blank" onmouseover="show_status('http://www.w3.org/1999/02/22-rdf-syntax-ns#Bag');">
<ellipse cx="347" cy="761" rx="28" ry="18" style="fill:#d2d2d2;stroke:#d2d2d2"/>
<text text-anchor="middle" x="347" y="765" style="font-family:arial">rdf:Bag</text>
</a></g>
<g id="edge38" class="edge"><title>:_10-&gt;:_11</title>
<a xlink:href="http://www2.elsevier.co.uk/~tony/1014/yads-schema-2002-04-03#collection" target="_blank" onmouseover="show_status('http://www2.elsevier.co.uk/~tony/1014/yads-schema-2002-04-03#collection');">
<path style="fill:none;stroke:#add9e6" d="M358,689C356,702 353,719 351,734"/>
<polygon style="fill:#add9e6;stroke:#add9e6" points="349,733 350,743 354,733 349,733"/>
<text text-anchor="middle" x="397" y="720" style="font-family:arial">has:collection</text>
</a></g>
<g id="node47" class="node"><title>:_14</title>
<a xlink:href="http://www.w3.org/1999/02/22-rdf-syntax-ns#Bag" target="_blank" onmouseover="show_status('http://www.w3.org/1999/02/22-rdf-syntax-ns#Bag');">
<ellipse cx="535" cy="761" rx="28" ry="18" style="fill:#d2d2d2;stroke:#d2d2d2"/>
<text text-anchor="middle" x="535" y="765" style="font-family:arial">rdf:Bag</text>
</a></g>
<g id="edge46" class="edge"><title>:_13-&gt;:_14</title>
<a xlink:href="http://www2.elsevier.co.uk/~tony/1014/yads-schema-2002-04-03#collection" target="_blank" onmouseover="show_status('http://www2.elsevier.co.uk/~tony/1014/yads-schema-2002-04-03#collection');">
<path style="fill:none;stroke:#add9e6" d="M528,689C529,702 530,719 532,734"/>
<polygon style="fill:#add9e6;stroke:#add9e6" points="529,733 533,743 534,733 529,733"/>
<text text-anchor="middle" x="574" y="720" style="font-family:arial">has:collection</text>
</a></g>
<g id="node55" class="node"><title>:_17</title>
<a xlink:href="http://www.w3.org/1999/02/22-rdf-syntax-ns#Bag" target="_blank" onmouseover="show_status('http://www.w3.org/1999/02/22-rdf-syntax-ns#Bag');">
<ellipse cx="738" cy="761" rx="28" ry="18" style="fill:#d2d2d2;stroke:#d2d2d2"/>
<text text-anchor="middle" x="738" y="765" style="font-family:arial">rdf:Bag</text>
</a></g>
<g id="edge54" class="edge"><title>:_16-&gt;:_17</title>
<a xlink:href="http://www2.elsevier.co.uk/~tony/1014/yads-schema-2002-04-03#collection" target="_blank" onmouseover="show_status('http://www2.elsevier.co.uk/~tony/1014/yads-schema-2002-04-03#collection');">
<path style="fill:none;stroke:#add9e6" d="M736,689C736,702 737,719 737,734"/>
<polygon style="fill:#add9e6;stroke:#add9e6" points="735,733 737,743 740,733 735,733"/>
<text text-anchor="middle" x="777" y="720" style="font-family:arial">has:collection</text>
</a></g>
<g id="node41" class="node"><title>:_12</title>
<ellipse cx="345" cy="872" rx="73" ry="18" style="fill:#eedb82;stroke:#eedb82"/>
<text text-anchor="middle" x="345" y="876" style="font-family:arial">oboe:descriptor:identifier</text>
</g>
<g id="edge40" class="edge"><title>:_11-&gt;:_12</title>
<a xlink:href="http://www.w3.org/1999/02/22-rdf-syntax-ns#_1" target="_blank" onmouseover="show_status('http://www.w3.org/1999/02/22-rdf-syntax-ns#_1');">
<path style="fill:none;stroke:#add9e6" d="M347,779C346,797 346,824 345,845"/>
<polygon style="fill:#add9e6;stroke:#add9e6" points="343,844 345,854 348,844 343,844"/>
<text text-anchor="middle" x="367" y="816" style="font-family:arial">rdf:_1</text>
</a></g>
<g id="node44" class="node"><title>data:,ori:doi:10.1045/july99-...n</title>
<a xlink:href="" onclick="show_data('ori:doi:10.1045/july99-caplan');" onmouseover="show_status('data:,ori:doi:10.1045/july99-caplan');">
<ellipse cx="341" cy="962" rx="82" ry="18" style="fill:#dca0dd;stroke:#dca0dd"/>
<text text-anchor="middle" x="341" y="966" style="font-family:arial">data:,ori:doi:10.1045/july99-...n</text>
</a></g>
<g id="edge43" class="edge"><title>:_12-&gt;data:,ori:doi:10.1045/july99-...n</title>
<a xlink:href="http://www2.elsevier.co.uk/~tony/1014/yads-schema-2002-04-03#resource" target="_blank" onmouseover="show_status('http://www2.elsevier.co.uk/~tony/1014/yads-schema-2002-04-03#resource');">
<path style="fill:none;stroke:#add9e6" d="M344,890C343,903 342,920 342,935"/>
<polygon style="fill:#add9e6;stroke:#add9e6" points="340,934 342,944 345,934 340,934"/>
<text text-anchor="middle" x="386" y="921" style="font-family:arial">has:resource</text>
</a></g>
<g id="node49" class="node"><title>:_15</title>
<ellipse cx="538" cy="872" rx="73" ry="18" style="fill:#eedb82;stroke:#eedb82"/>
<text text-anchor="middle" x="538" y="876" style="font-family:arial">oboe:descriptor:identifier</text>
</g>
<g id="edge48" class="edge"><title>:_14-&gt;:_15</title>
<a xlink:href="http://www.w3.org/1999/02/22-rdf-syntax-ns#_1" target="_blank" onmouseover="show_status('http://www.w3.org/1999/02/22-rdf-syntax-ns#_1');">
<path style="fill:none;stroke:#add9e6" d="M535,779C536,797 537,824 537,845"/>
<polygon style="fill:#add9e6;stroke:#add9e6" points="535,844 537,854 540,844 535,844"/>
<text text-anchor="middle" x="558" y="816" style="font-family:arial">rdf:_1</text>
</a></g>
<g id="node52" class="node"><title>data:,ori:dbid:dlib.org:D-Lib...e</title>
<a xlink:href="" onclick="show_data('ori:dbid:dlib.org:D-Lib%20Magazine');" onmouseover="show_status('data:,ori:dbid:dlib.org:D-Lib%20Magazine');">
<ellipse cx="542" cy="962" rx="79" ry="18" style="fill:#dca0dd;stroke:#dca0dd"/>
<text text-anchor="middle" x="542" y="966" style="font-family:arial">data:,ori:dbid:dlib.org:D-Lib...e</text>
</a></g>
<g id="edge51" class="edge"><title>:_15-&gt;data:,ori:dbid:dlib.org:D-Lib...e</title>
<a xlink:href="http://www2.elsevier.co.uk/~tony/1014/yads-schema-2002-04-03#resource" target="_blank" onmouseover="show_status('http://www2.elsevier.co.uk/~tony/1014/yads-schema-2002-04-03#resource');">
<path style="fill:none;stroke:#add9e6" d="M539,890C540,903 541,920 541,935"/>
<polygon style="fill:#add9e6;stroke:#add9e6" points="539,934 541,944 544,934 539,934"/>
<text text-anchor="middle" x="583" y="921" style="font-family:arial">has:resource</text>
</a></g>
<g id="node57" class="node"><title>:_18</title>
<ellipse cx="740" cy="872" rx="73" ry="18" style="fill:#eedb82;stroke:#eedb82"/>
<text text-anchor="middle" x="740" y="876" style="font-family:arial">oboe:descriptor:identifier</text>
</g>
<g id="edge56" class="edge"><title>:_17-&gt;:_18</title>
<a xlink:href="http://www.w3.org/1999/02/22-rdf-syntax-ns#_1" target="_blank" onmouseover="show_status('http://www.w3.org/1999/02/22-rdf-syntax-ns#_1');">
<path style="fill:none;stroke:#add9e6" d="M738,779C739,797 739,824 740,845"/>
<polygon style="fill:#add9e6;stroke:#add9e6" points="738,844 740,854 743,844 738,844"/>
<text text-anchor="middle" x="758" y="816" style="font-family:arial">rdf:_1</text>
</a></g>
<g id="node60" class="node"><title>data:,ori:doi:10.1045/march20...l</title>
<a xlink:href="" onclick="show_data('ori:doi:10.1045/march2001-vandesompel');" onmouseover="show_status('data:,ori:doi:10.1045/march2001-vandesompel');">
<ellipse cx="746" cy="962" rx="85" ry="18" style="fill:#dca0dd;stroke:#dca0dd"/>
<text text-anchor="middle" x="746" y="966" style="font-family:arial">data:,ori:doi:10.1045/march20...l</text>
</a></g>
<g id="edge59" class="edge"><title>:_18-&gt;data:,ori:doi:10.1045/march20...l</title>
<a xlink:href="http://www2.elsevier.co.uk/~tony/1014/yads-schema-2002-04-03#resource" target="_blank" onmouseover="show_status('http://www2.elsevier.co.uk/~tony/1014/yads-schema-2002-04-03#resource');">
<path style="fill:none;stroke:#add9e6" d="M741,890C742,903 743,920 744,935"/>
<polygon style="fill:#add9e6;stroke:#add9e6" points="741,934 745,944 746,934 741,934"/>
<text text-anchor="middle" x="783" y="921" style="font-family:arial">has:resource</text>
</a></g>
</g>
</svg>
