<?xml version="1.0" encoding="UTF-8" standalone="no"?>
<!DOCTYPE svg PUBLIC "-//W3C//DTD SVG 1.0//EN"
 "http://www.w3.org/TR/2001/REC-SVG-20010904/DTD/svg10.dtd" [
 <!ATTLIST svg xmlns:xlink CDATA #FIXED "http://www.w3.org/1999/xlink">
]>
<!-- Generated by dot version 1.8.5 (Tue Apr 23 17:19:23  2002)
     For user: (Administrator) ,S-1-5-21-1454471165-688789844-1708537768-500   Title: yads    Pages: 1 -->
<svg width="482px" height="1063px"
 xmlns="http://www.w3.org/2000/svg" xmlns:xlink="http://www.w3.org/1999/xlink">
<g id="graph0" class="graph" style="font-family:Times-Roman;font-size:11.00">
<title>yads</title>
<text text-anchor="middle" x="241" y="1052" style="font-family:arial;font-size:24.00">YADS - A Description Service</text>
<g id="graph2" class="cluster"><title>cluster_1</title>
<polygon style="fill:none;stroke:#d2d2d2;stroke-dasharray:5,2" points="19,1020 463,1020 463,43 19,43 19,1020"/>
<text text-anchor="middle" x="70" y="55" style="font-family:arial">Nest - OpenURL</text>
</g>
<g id="graph3" class="cluster"><title>cluster_3</title>
<polygon style="fill:none;stroke:#d2d2d2;stroke-dasharray:5,2" points="27,1012 455,1012 455,238 27,238 27,1012"/>
<text text-anchor="middle" x="68" y="250" style="font-family:arial">Nest - Profile</text>
</g>
<g id="graph4" class="cluster"><title>cluster_5</title>
<polygon style="fill:none;stroke:#d2d2d2;stroke-dasharray:5,2" points="35,795 227,795 227,433 35,433 35,795"/>
<text text-anchor="middle" x="95" y="445" style="font-family:arial">Item - Administration</text>
</g>
<g id="graph5" class="cluster"><title>cluster_7</title>
<polygon style="fill:none;stroke:#d2d2d2;stroke-dasharray:5,2" points="43,787 219,787 219,628 43,628 43,787"/>
<text text-anchor="middle" x="86" y="640" style="font-family:arial">Item - Version</text>
</g>
<g id="graph6" class="cluster"><title>cluster_8</title>
<polygon style="fill:none;stroke:#d2d2d2;stroke-dasharray:5,2" points="235,1004 447,1004 447,433 235,433 235,1004"/>
<text text-anchor="middle" x="300" y="445" style="font-family:arial">Item - Context-Object</text>
</g>
<g id="graph7" class="cluster"><title>cluster_10</title>
<polygon style="fill:none;stroke:#d2d2d2;stroke-dasharray:5,2" points="243,996 439,996 439,628 243,628 243,996"/>
<text text-anchor="middle" x="290" y="640" style="font-family:arial">Item - Referent</text>
</g>
<g id="graph8" class="cluster"><title>cluster_12</title>
<polygon style="fill:none;stroke:#d2d2d2;stroke-dasharray:5,2" points="251,988 431,988 431,829 251,829 251,988"/>
<text text-anchor="middle" x="295" y="841" style="font-family:arial">Item - Identifier</text>
</g>
<g id="node2" class="node"><title>:_1</title>
<a xlink:href="http://www2.elsevier.co.uk/~tony/1014/yads-schema-2002-04-03#Nest" target="_blank" onmouseover="show_status('http://www2.elsevier.co.uk/~tony/1014/yads-schema-2002-04-03#Nest');">
<ellipse cx="148" cy="86" rx="29" ry="18" style="fill:#d2d2d2;stroke:#d2d2d2"/>
<text text-anchor="middle" x="148" y="90" style="font-family:arial">isa:Nest</text>
</a></g>
<g id="node4" class="node"><title>:</title>
<ellipse cx="99" cy="176" rx="27" ry="18" style="fill:#dca0dd;stroke:#dca0dd"/>
<text text-anchor="middle" x="99" y="180" style="font-family:arial">:</text>
</g>
<g id="edge3" class="edge"><title>:_1-&gt;:</title>
<a xlink:href="http://www2.elsevier.co.uk/~tony/1014/yads-schema-2002-04-03#resource" target="_blank" onmouseover="show_status('http://www2.elsevier.co.uk/~tony/1014/yads-schema-2002-04-03#resource');">
<path style="fill:none;stroke:#add9e6" d="M131,100C124,107 118,114 113,122 109,130 105,140 103,149"/>
<polygon style="fill:#add9e6;stroke:#add9e6" points="101,148 101,158 106,149 101,148"/>
<text text-anchor="middle" x="157" y="135" style="font-family:arial">has:resource</text>
</a></g>
<g id="node6" class="node"><title>:_2</title>
<a xlink:href="http://www.w3.org/1999/02/22-rdf-syntax-ns#Bag" target="_blank" onmouseover="show_status('http://www.w3.org/1999/02/22-rdf-syntax-ns#Bag');">
<ellipse cx="198" cy="176" rx="28" ry="18" style="fill:#d2d2d2;stroke:#d2d2d2"/>
<text text-anchor="middle" x="198" y="180" style="font-family:arial">rdf:Bag</text>
</a></g>
<g id="edge5" class="edge"><title>:_1-&gt;:_2</title>
<a xlink:href="http://www2.elsevier.co.uk/~tony/1014/yads-schema-2002-04-03#collection" target="_blank" onmouseover="show_status('http://www2.elsevier.co.uk/~tony/1014/yads-schema-2002-04-03#collection');">
<path style="fill:none;stroke:#add9e6" d="M172,97C182,103 193,111 198,122 202,130 203,140 203,149"/>
<polygon style="fill:#add9e6;stroke:#add9e6" points="201,148 202,158 206,148 201,148"/>
<text text-anchor="middle" x="245" y="135" style="font-family:arial">has:collection</text>
</a></g>
<g id="node8" class="node"><title>:_3</title>
<a xlink:href="http://www2.elsevier.co.uk/~tony/1014/yads-schema-2002-04-03#Nest" target="_blank" onmouseover="show_status('http://www2.elsevier.co.uk/~tony/1014/yads-schema-2002-04-03#Nest');">
<ellipse cx="198" cy="281" rx="29" ry="18" style="fill:#d2d2d2;stroke:#d2d2d2"/>
<text text-anchor="middle" x="198" y="285" style="font-family:arial">isa:Nest</text>
</a></g>
<g id="edge7" class="edge"><title>:_2-&gt;:_3</title>
<a xlink:href="http://www.w3.org/1999/02/22-rdf-syntax-ns#_1" target="_blank" onmouseover="show_status('http://www.w3.org/1999/02/22-rdf-syntax-ns#_1');">
<path style="fill:none;stroke:#add9e6" d="M198,194C198,210 198,235 198,254"/>
<polygon style="fill:#add9e6;stroke:#add9e6" points="196,253 198,263 201,253 196,253"/>
<text text-anchor="middle" x="218" y="225" style="font-family:arial">rdf:_1</text>
</a></g>
<g id="node11" class="node"><title>node_1</title>
<polygon style="fill:#6497ed;stroke:#6497ed" points="89,353 35,353 35,389 89,389 89,353"/>
<text text-anchor="middle" x="62" y="375" style="font-family:arial">oboe:</text>
</g>
<g id="edge10" class="edge"><title>:_3-&gt;node_1</title>
<a xlink:href="http://www2.elsevier.co.uk/~tony/1014/yads-schema-2002-04-03#directive" target="_blank" onmouseover="show_status('http://www2.elsevier.co.uk/~tony/1014/yads-schema-2002-04-03#directive');">
<path style="fill:none;stroke:#add9e6" d="M173,290C157,297 135,306 118,317 106,325 94,337 84,347"/>
<polygon style="fill:#add9e6;stroke:#add9e6" points="83,344 78,353 87,348 83,344"/>
<text text-anchor="middle" x="162" y="330" style="font-family:arial">has:directive</text>
</a></g>
<g id="node13" class="node"><title>http://www2.elsevier.co.uk/~t...f</title>
<a xlink:href="http://www2.elsevier.co.uk/~tony/oboe/oboe.rdf" target="_blank" onmouseover="show_status('http://www2.elsevier.co.uk/~tony/oboe/oboe.rdf');">
<ellipse cx="198" cy="371" rx="91" ry="18" style="fill:#dca0dd;stroke:#dca0dd"/>
<text text-anchor="middle" x="198" y="375" style="font-family:arial">http://www2.elsevier.co.uk/~t...f</text>
</a></g>
<g id="edge12" class="edge"><title>:_3-&gt;http://www2.elsevier.co.uk/~t...f</title>
<a xlink:href="http://www2.elsevier.co.uk/~tony/1014/yads-schema-2002-04-03#resource" target="_blank" onmouseover="show_status('http://www2.elsevier.co.uk/~tony/1014/yads-schema-2002-04-03#resource');">
<path style="fill:none;stroke:#add9e6" d="M198,299C198,312 198,329 198,344"/>
<polygon style="fill:#add9e6;stroke:#add9e6" points="196,343 198,353 201,343 196,343"/>
<text text-anchor="middle" x="239" y="330" style="font-family:arial">has:resource</text>
</a></g>
<g id="node15" class="node"><title>:_4</title>
<a xlink:href="http://www.w3.org/1999/02/22-rdf-syntax-ns#Bag" target="_blank" onmouseover="show_status('http://www.w3.org/1999/02/22-rdf-syntax-ns#Bag');">
<ellipse cx="335" cy="371" rx="28" ry="18" style="fill:#d2d2d2;stroke:#d2d2d2"/>
<text text-anchor="middle" x="335" y="375" style="font-family:arial">rdf:Bag</text>
</a></g>
<g id="edge14" class="edge"><title>:_3-&gt;:_4</title>
<a xlink:href="http://www2.elsevier.co.uk/~tony/1014/yads-schema-2002-04-03#collection" target="_blank" onmouseover="show_status('http://www2.elsevier.co.uk/~tony/1014/yads-schema-2002-04-03#collection');">
<path style="fill:none;stroke:#add9e6" d="M224,289C242,295 265,305 283,317 295,326 307,338 316,348"/>
<polygon style="fill:#add9e6;stroke:#add9e6" points="314,349 322,355 317,346 314,349"/>
<text text-anchor="middle" x="342" y="330" style="font-family:arial">has:collection</text>
</a></g>
<g id="node17" class="node"><title>:_5</title>
<ellipse cx="145" cy="476" rx="60" ry="18" style="fill:#eedb82;stroke:#eedb82"/>
<text text-anchor="middle" x="145" y="480" style="font-family:arial">oboe:administration</text>
</g>
<g id="edge16" class="edge"><title>:_4-&gt;:_5</title>
<a xlink:href="http://www.w3.org/1999/02/22-rdf-syntax-ns#_1" target="_blank" onmouseover="show_status('http://www.w3.org/1999/02/22-rdf-syntax-ns#_1');">
<path style="fill:none;stroke:#add9e6" d="M314,383C282,401 221,434 182,456"/>
<polygon style="fill:#add9e6;stroke:#add9e6" points="182,453 174,460 184,458 182,453"/>
<text text-anchor="middle" x="291" y="420" style="font-family:arial">rdf:_1</text>
</a></g>
<g id="node19" class="node"><title>:_8</title>
<ellipse cx="335" cy="476" rx="44" ry="18" style="fill:#eedb82;stroke:#eedb82"/>
<text text-anchor="middle" x="335" y="480" style="font-family:arial">oboe:context</text>
</g>
<g id="edge18" class="edge"><title>:_4-&gt;:_8</title>
<a xlink:href="http://www.w3.org/1999/02/22-rdf-syntax-ns#_2" target="_blank" onmouseover="show_status('http://www.w3.org/1999/02/22-rdf-syntax-ns#_2');">
<path style="fill:none;stroke:#add9e6" d="M335,389C335,405 335,430 335,449"/>
<polygon style="fill:#add9e6;stroke:#add9e6" points="333,448 335,458 338,448 333,448"/>
<text text-anchor="middle" x="356" y="420" style="font-family:arial">rdf:_2</text>
</a></g>
<g id="node22" class="node"><title>:_6</title>
<a xlink:href="http://www.w3.org/1999/02/22-rdf-syntax-ns#Bag" target="_blank" onmouseover="show_status('http://www.w3.org/1999/02/22-rdf-syntax-ns#Bag');">
<ellipse cx="134" cy="566" rx="28" ry="18" style="fill:#d2d2d2;stroke:#d2d2d2"/>
<text text-anchor="middle" x="134" y="570" style="font-family:arial">rdf:Bag</text>
</a></g>
<g id="edge21" class="edge"><title>:_5-&gt;:_6</title>
<a xlink:href="http://www2.elsevier.co.uk/~tony/1014/yads-schema-2002-04-03#collection" target="_blank" onmouseover="show_status('http://www2.elsevier.co.uk/~tony/1014/yads-schema-2002-04-03#collection');">
<path style="fill:none;stroke:#add9e6" d="M143,494C141,507 139,524 137,539"/>
<polygon style="fill:#add9e6;stroke:#add9e6" points="135,538 136,548 140,538 135,538"/>
<text text-anchor="middle" x="183" y="525" style="font-family:arial">has:collection</text>
</a></g>
<g id="node30" class="node"><title>:_9</title>
<a xlink:href="http://www.w3.org/1999/02/22-rdf-syntax-ns#Bag" target="_blank" onmouseover="show_status('http://www.w3.org/1999/02/22-rdf-syntax-ns#Bag');">
<ellipse cx="335" cy="566" rx="28" ry="18" style="fill:#d2d2d2;stroke:#d2d2d2"/>
<text text-anchor="middle" x="335" y="570" style="font-family:arial">rdf:Bag</text>
</a></g>
<g id="edge29" class="edge"><title>:_8-&gt;:_9</title>
<a xlink:href="http://www2.elsevier.co.uk/~tony/1014/yads-schema-2002-04-03#collection" target="_blank" onmouseover="show_status('http://www2.elsevier.co.uk/~tony/1014/yads-schema-2002-04-03#collection');">
<path style="fill:none;stroke:#add9e6" d="M335,494C335,507 335,524 335,539"/>
<polygon style="fill:#add9e6;stroke:#add9e6" points="333,538 335,548 338,538 333,538"/>
<text text-anchor="middle" x="376" y="525" style="font-family:arial">has:collection</text>
</a></g>
<g id="node24" class="node"><title>:_7</title>
<ellipse cx="131" cy="671" rx="80" ry="18" style="fill:#eedb82;stroke:#eedb82"/>
<text text-anchor="middle" x="131" y="675" style="font-family:arial">oboe:administration:version</text>
</g>
<g id="edge23" class="edge"><title>:_6-&gt;:_7</title>
<a xlink:href="http://www.w3.org/1999/02/22-rdf-syntax-ns#_1" target="_blank" onmouseover="show_status('http://www.w3.org/1999/02/22-rdf-syntax-ns#_1');">
<path style="fill:none;stroke:#add9e6" d="M133,584C133,600 132,625 132,644"/>
<polygon style="fill:#add9e6;stroke:#add9e6" points="130,643 132,653 135,643 130,643"/>
<text text-anchor="middle" x="154" y="615" style="font-family:arial">rdf:_1</text>
</a></g>
<g id="node27" class="node"><title>data:,Z39.00-00</title>
<a xlink:href="" onclick="show_data('Z39.00-00');" onmouseover="show_status('data:,Z39.00-00');">
<ellipse cx="130" cy="761" rx="50" ry="18" style="fill:#dca0dd;stroke:#dca0dd"/>
<text text-anchor="middle" x="130" y="765" style="font-family:arial">data:,Z39.00-00</text>
</a></g>
<g id="edge26" class="edge"><title>:_7-&gt;data:,Z39.00-00</title>
<a xlink:href="http://www2.elsevier.co.uk/~tony/1014/yads-schema-2002-04-03#resource" target="_blank" onmouseover="show_status('http://www2.elsevier.co.uk/~tony/1014/yads-schema-2002-04-03#resource');">
<path style="fill:none;stroke:#add9e6" d="M131,689C131,702 131,719 130,734"/>
<polygon style="fill:#add9e6;stroke:#add9e6" points="128,733 130,743 133,733 128,733"/>
<text text-anchor="middle" x="172" y="720" style="font-family:arial">has:resource</text>
</a></g>
<g id="node32" class="node"><title>:_10</title>
<ellipse cx="335" cy="671" rx="60" ry="18" style="fill:#eedb82;stroke:#eedb82"/>
<text text-anchor="middle" x="335" y="675" style="font-family:arial">oboe:entity:referent</text>
</g>
<g id="edge31" class="edge"><title>:_9-&gt;:_10</title>
<a xlink:href="http://www.w3.org/1999/02/22-rdf-syntax-ns#_1" target="_blank" onmouseover="show_status('http://www.w3.org/1999/02/22-rdf-syntax-ns#_1');">
<path style="fill:none;stroke:#add9e6" d="M335,584C335,600 335,625 335,644"/>
<polygon style="fill:#add9e6;stroke:#add9e6" points="333,643 335,653 338,643 333,643"/>
<text text-anchor="middle" x="355" y="615" style="font-family:arial">rdf:_1</text>
</a></g>
<g id="node35" class="node"><title>:_11</title>
<a xlink:href="http://www.w3.org/1999/02/22-rdf-syntax-ns#Bag" target="_blank" onmouseover="show_status('http://www.w3.org/1999/02/22-rdf-syntax-ns#Bag');">
<ellipse cx="336" cy="761" rx="28" ry="18" style="fill:#d2d2d2;stroke:#d2d2d2"/>
<text text-anchor="middle" x="336" y="765" style="font-family:arial">rdf:Bag</text>
</a></g>
<g id="edge34" class="edge"><title>:_10-&gt;:_11</title>
<a xlink:href="http://www2.elsevier.co.uk/~tony/1014/yads-schema-2002-04-03#collection" target="_blank" onmouseover="show_status('http://www2.elsevier.co.uk/~tony/1014/yads-schema-2002-04-03#collection');">
<path style="fill:none;stroke:#add9e6" d="M335,689C335,702 335,719 336,734"/>
<polygon style="fill:#add9e6;stroke:#add9e6" points="334,733 336,743 339,733 334,733"/>
<text text-anchor="middle" x="376" y="720" style="font-family:arial">has:collection</text>
</a></g>
<g id="node37" class="node"><title>:_12</title>
<ellipse cx="337" cy="872" rx="73" ry="18" style="fill:#eedb82;stroke:#eedb82"/>
<text text-anchor="middle" x="337" y="876" style="font-family:arial">oboe:descriptor:identifier</text>
</g>
<g id="edge36" class="edge"><title>:_11-&gt;:_12</title>
<a xlink:href="http://www.w3.org/1999/02/22-rdf-syntax-ns#_1" target="_blank" onmouseover="show_status('http://www.w3.org/1999/02/22-rdf-syntax-ns#_1');">
<path style="fill:none;stroke:#add9e6" d="M336,779C336,797 336,824 337,845"/>
<polygon style="fill:#add9e6;stroke:#add9e6" points="335,844 337,854 340,844 335,844"/>
<text text-anchor="middle" x="356" y="816" style="font-family:arial">rdf:_1</text>
</a></g>
<g id="node40" class="node"><title>data:,ori:doi:10.1045/july99-...n</title>
<a xlink:href="" onclick="show_data('ori:doi:10.1045/july99-caplan');" onmouseover="show_status('data:,ori:doi:10.1045/july99-caplan');">
<ellipse cx="341" cy="962" rx="82" ry="18" style="fill:#dca0dd;stroke:#dca0dd"/>
<text text-anchor="middle" x="341" y="966" style="font-family:arial">data:,ori:doi:10.1045/july99-...n</text>
</a></g>
<g id="edge39" class="edge"><title>:_12-&gt;data:,ori:doi:10.1045/july99-...n</title>
<a xlink:href="http://www2.elsevier.co.uk/~tony/1014/yads-schema-2002-04-03#resource" target="_blank" onmouseover="show_status('http://www2.elsevier.co.uk/~tony/1014/yads-schema-2002-04-03#resource');">
<path style="fill:none;stroke:#add9e6" d="M338,890C339,903 340,920 340,935"/>
<polygon style="fill:#add9e6;stroke:#add9e6" points="338,934 340,944 343,934 338,934"/>
<text text-anchor="middle" x="380" y="921" style="font-family:arial">has:resource</text>
</a></g>
</g>
</svg>
