<?xml version="1.0" encoding="UTF-8" standalone="no"?>
<!DOCTYPE svg PUBLIC "-//W3C//DTD SVG 1.0//EN"
 "http://www.w3.org/TR/2001/REC-SVG-20010904/DTD/svg10.dtd" [
 <!ATTLIST svg xmlns:xlink CDATA #FIXED "http://www.w3.org/1999/xlink">
]>
<!-- Generated by dot version 1.8.5 (Tue Apr 23 17:19:23  2002)
     For user: (Administrator) ,S-1-5-21-1454471165-688789844-1708537768-500   Title: yads    Pages: 1 -->
<svg width="1058px" height="1063px"
 xmlns="http://www.w3.org/2000/svg" xmlns:xlink="http://www.w3.org/1999/xlink">
<g id="graph0" class="graph" style="font-family:Times-Roman;font-size:11.00">
<title>yads</title>
<text text-anchor="middle" x="529" y="1052" style="font-family:arial;font-size:24.00">YADS - A Description Service</text>
<g id="graph2" class="cluster"><title>cluster_1</title>
<polygon style="fill:none;stroke:#d2d2d2;stroke-dasharray:5,2" points="19,1020 1039,1020 1039,43 19,43 19,1020"/>
<text text-anchor="middle" x="70" y="55" style="font-family:arial">Nest - OpenURL</text>
</g>
<g id="graph3" class="cluster"><title>cluster_3</title>
<polygon style="fill:none;stroke:#d2d2d2;stroke-dasharray:5,2" points="27,1012 1031,1012 1031,238 27,238 27,1012"/>
<text text-anchor="middle" x="68" y="250" style="font-family:arial">Nest - Profile</text>
</g>
<g id="graph4" class="cluster"><title>cluster_5</title>
<polygon style="fill:none;stroke:#d2d2d2;stroke-dasharray:5,2" points="35,795 227,795 227,433 35,433 35,795"/>
<text text-anchor="middle" x="95" y="445" style="font-family:arial">Item - Administration</text>
</g>
<g id="graph5" class="cluster"><title>cluster_7</title>
<polygon style="fill:none;stroke:#d2d2d2;stroke-dasharray:5,2" points="43,787 219,787 219,628 43,628 43,787"/>
<text text-anchor="middle" x="86" y="640" style="font-family:arial">Item - Version</text>
</g>
<g id="graph6" class="cluster"><title>cluster_8</title>
<polygon style="fill:none;stroke:#d2d2d2;stroke-dasharray:5,2" points="235,1004 1023,1004 1023,433 235,433 235,1004"/>
<text text-anchor="middle" x="300" y="445" style="font-family:arial">Item - Context-Object</text>
</g>
<g id="graph7" class="cluster"><title>cluster_10</title>
<polygon style="fill:none;stroke:#d2d2d2;stroke-dasharray:5,2" points="243,996 427,996 427,628 243,628 243,996"/>
<text text-anchor="middle" x="290" y="640" style="font-family:arial">Item - Referent</text>
</g>
<g id="graph8" class="cluster"><title>cluster_12</title>
<polygon style="fill:none;stroke:#d2d2d2;stroke-dasharray:5,2" points="251,988 419,988 419,829 251,829 251,988"/>
<text text-anchor="middle" x="295" y="841" style="font-family:arial">Item - Identifier</text>
</g>
<g id="graph9" class="cluster"><title>cluster_13</title>
<polygon style="fill:none;stroke:#d2d2d2;stroke-dasharray:5,2" points="435,996 613,996 613,628 435,628 435,996"/>
<text text-anchor="middle" x="481" y="640" style="font-family:arial">Item - Referrer</text>
</g>
<g id="graph10" class="cluster"><title>cluster_15</title>
<polygon style="fill:none;stroke:#d2d2d2;stroke-dasharray:5,2" points="443,988 605,988 605,829 443,829 443,988"/>
<text text-anchor="middle" x="487" y="841" style="font-family:arial">Item - Identifier</text>
</g>
<g id="graph11" class="cluster"><title>cluster_16</title>
<polygon style="fill:none;stroke:#d2d2d2;stroke-dasharray:5,2" points="621,996 829,996 829,628 621,628 621,996"/>
<text text-anchor="middle" x="672" y="640" style="font-family:arial">Item - Requester</text>
</g>
<g id="graph12" class="cluster"><title>cluster_18</title>
<polygon style="fill:none;stroke:#d2d2d2;stroke-dasharray:5,2" points="629,988 821,988 821,829 629,829 629,988"/>
<text text-anchor="middle" x="673" y="841" style="font-family:arial">Item - Identifier</text>
</g>
<g id="graph13" class="cluster"><title>cluster_19</title>
<polygon style="fill:none;stroke:#d2d2d2;stroke-dasharray:5,2" points="837,996 1015,996 1015,628 837,628 837,996"/>
<text text-anchor="middle" x="897" y="640" style="font-family:arial">Item - Service-Type</text>
</g>
<g id="graph14" class="cluster"><title>cluster_21</title>
<polygon style="fill:none;stroke:#d2d2d2;stroke-dasharray:5,2" points="845,988 1007,988 1007,829 845,829 845,988"/>
<text text-anchor="middle" x="889" y="841" style="font-family:arial">Item - Identifier</text>
</g>
<g id="node2" class="node"><title>:_1</title>
<a xlink:href="http://www2.elsevier.co.uk/~tony/1014/yads-schema-2002-04-03#Nest" target="_blank" onmouseover="show_status('http://www2.elsevier.co.uk/~tony/1014/yads-schema-2002-04-03#Nest');">
<ellipse cx="195" cy="86" rx="29" ry="18" style="fill:#d2d2d2;stroke:#d2d2d2"/>
<text text-anchor="middle" x="195" y="90" style="font-family:arial">isa:Nest</text>
</a></g>
<g id="node4" class="node"><title>:</title>
<ellipse cx="146" cy="176" rx="27" ry="18" style="fill:#dca0dd;stroke:#dca0dd"/>
<text text-anchor="middle" x="146" y="180" style="font-family:arial">:</text>
</g>
<g id="edge3" class="edge"><title>:_1-&gt;:</title>
<a xlink:href="http://www2.elsevier.co.uk/~tony/1014/yads-schema-2002-04-03#resource" target="_blank" onmouseover="show_status('http://www2.elsevier.co.uk/~tony/1014/yads-schema-2002-04-03#resource');">
<path style="fill:none;stroke:#add9e6" d="M178,100C171,107 165,114 160,122 156,130 152,140 150,149"/>
<polygon style="fill:#add9e6;stroke:#add9e6" points="148,148 148,158 153,149 148,148"/>
<text text-anchor="middle" x="204" y="135" style="font-family:arial">has:resource</text>
</a></g>
<g id="node6" class="node"><title>:_2</title>
<a xlink:href="http://www.w3.org/1999/02/22-rdf-syntax-ns#Bag" target="_blank" onmouseover="show_status('http://www.w3.org/1999/02/22-rdf-syntax-ns#Bag');">
<ellipse cx="245" cy="176" rx="28" ry="18" style="fill:#d2d2d2;stroke:#d2d2d2"/>
<text text-anchor="middle" x="245" y="180" style="font-family:arial">rdf:Bag</text>
</a></g>
<g id="edge5" class="edge"><title>:_1-&gt;:_2</title>
<a xlink:href="http://www2.elsevier.co.uk/~tony/1014/yads-schema-2002-04-03#collection" target="_blank" onmouseover="show_status('http://www2.elsevier.co.uk/~tony/1014/yads-schema-2002-04-03#collection');">
<path style="fill:none;stroke:#add9e6" d="M219,97C229,103 240,111 245,122 249,130 250,140 250,149"/>
<polygon style="fill:#add9e6;stroke:#add9e6" points="248,148 249,158 253,148 248,148"/>
<text text-anchor="middle" x="292" y="135" style="font-family:arial">has:collection</text>
</a></g>
<g id="node8" class="node"><title>:_3</title>
<a xlink:href="http://www2.elsevier.co.uk/~tony/1014/yads-schema-2002-04-03#Nest" target="_blank" onmouseover="show_status('http://www2.elsevier.co.uk/~tony/1014/yads-schema-2002-04-03#Nest');">
<ellipse cx="245" cy="281" rx="29" ry="18" style="fill:#d2d2d2;stroke:#d2d2d2"/>
<text text-anchor="middle" x="245" y="285" style="font-family:arial">isa:Nest</text>
</a></g>
<g id="edge7" class="edge"><title>:_2-&gt;:_3</title>
<a xlink:href="http://www.w3.org/1999/02/22-rdf-syntax-ns#_1" target="_blank" onmouseover="show_status('http://www.w3.org/1999/02/22-rdf-syntax-ns#_1');">
<path style="fill:none;stroke:#add9e6" d="M245,194C245,210 245,235 245,254"/>
<polygon style="fill:#add9e6;stroke:#add9e6" points="243,253 245,263 248,253 243,253"/>
<text text-anchor="middle" x="265" y="225" style="font-family:arial">rdf:_1</text>
</a></g>
<g id="node11" class="node"><title>node_1</title>
<polygon style="fill:#6497ed;stroke:#6497ed" points="136,353 82,353 82,389 136,389 136,353"/>
<text text-anchor="middle" x="109" y="375" style="font-family:arial">oboe:</text>
</g>
<g id="edge10" class="edge"><title>:_3-&gt;node_1</title>
<a xlink:href="http://www2.elsevier.co.uk/~tony/1014/yads-schema-2002-04-03#directive" target="_blank" onmouseover="show_status('http://www2.elsevier.co.uk/~tony/1014/yads-schema-2002-04-03#directive');">
<path style="fill:none;stroke:#add9e6" d="M220,290C204,297 182,306 165,317 153,325 141,337 131,347"/>
<polygon style="fill:#add9e6;stroke:#add9e6" points="130,344 125,353 134,348 130,344"/>
<text text-anchor="middle" x="209" y="330" style="font-family:arial">has:directive</text>
</a></g>
<g id="node13" class="node"><title>http://www2.elsevier.co.uk/~t...f</title>
<a xlink:href="http://www2.elsevier.co.uk/~tony/oboe/oboe.rdf" target="_blank" onmouseover="show_status('http://www2.elsevier.co.uk/~tony/oboe/oboe.rdf');">
<ellipse cx="245" cy="371" rx="91" ry="18" style="fill:#dca0dd;stroke:#dca0dd"/>
<text text-anchor="middle" x="245" y="375" style="font-family:arial">http://www2.elsevier.co.uk/~t...f</text>
</a></g>
<g id="edge12" class="edge"><title>:_3-&gt;http://www2.elsevier.co.uk/~t...f</title>
<a xlink:href="http://www2.elsevier.co.uk/~tony/1014/yads-schema-2002-04-03#resource" target="_blank" onmouseover="show_status('http://www2.elsevier.co.uk/~tony/1014/yads-schema-2002-04-03#resource');">
<path style="fill:none;stroke:#add9e6" d="M245,299C245,312 245,329 245,344"/>
<polygon style="fill:#add9e6;stroke:#add9e6" points="243,343 245,353 248,343 243,343"/>
<text text-anchor="middle" x="286" y="330" style="font-family:arial">has:resource</text>
</a></g>
<g id="node15" class="node"><title>:_4</title>
<a xlink:href="http://www.w3.org/1999/02/22-rdf-syntax-ns#Bag" target="_blank" onmouseover="show_status('http://www.w3.org/1999/02/22-rdf-syntax-ns#Bag');">
<ellipse cx="382" cy="371" rx="28" ry="18" style="fill:#d2d2d2;stroke:#d2d2d2"/>
<text text-anchor="middle" x="382" y="375" style="font-family:arial">rdf:Bag</text>
</a></g>
<g id="edge14" class="edge"><title>:_3-&gt;:_4</title>
<a xlink:href="http://www2.elsevier.co.uk/~tony/1014/yads-schema-2002-04-03#collection" target="_blank" onmouseover="show_status('http://www2.elsevier.co.uk/~tony/1014/yads-schema-2002-04-03#collection');">
<path style="fill:none;stroke:#add9e6" d="M271,289C289,295 312,305 330,317 343,326 355,338 364,348"/>
<polygon style="fill:#add9e6;stroke:#add9e6" points="361,348 369,355 365,345 361,348"/>
<text text-anchor="middle" x="393" y="330" style="font-family:arial">has:collection</text>
</a></g>
<g id="node17" class="node"><title>:_5</title>
<ellipse cx="145" cy="476" rx="60" ry="18" style="fill:#eedb82;stroke:#eedb82"/>
<text text-anchor="middle" x="145" y="480" style="font-family:arial">oboe:administration</text>
</g>
<g id="edge16" class="edge"><title>:_4-&gt;:_5</title>
<a xlink:href="http://www.w3.org/1999/02/22-rdf-syntax-ns#_1" target="_blank" onmouseover="show_status('http://www.w3.org/1999/02/22-rdf-syntax-ns#_1');">
<path style="fill:none;stroke:#add9e6" d="M360,382C355,385 350,387 345,389 296,411 281,412 231,433 215,441 198,449 183,456"/>
<polygon style="fill:#add9e6;stroke:#add9e6" points="183,453 175,460 185,458 183,453"/>
<text text-anchor="middle" x="328" y="420" style="font-family:arial">rdf:_1</text>
</a></g>
<g id="node19" class="node"><title>:_8</title>
<ellipse cx="418" cy="476" rx="44" ry="18" style="fill:#eedb82;stroke:#eedb82"/>
<text text-anchor="middle" x="418" y="480" style="font-family:arial">oboe:context</text>
</g>
<g id="edge18" class="edge"><title>:_4-&gt;:_8</title>
<a xlink:href="http://www.w3.org/1999/02/22-rdf-syntax-ns#_2" target="_blank" onmouseover="show_status('http://www.w3.org/1999/02/22-rdf-syntax-ns#_2');">
<path style="fill:none;stroke:#add9e6" d="M388,389C393,405 402,431 409,450"/>
<polygon style="fill:#add9e6;stroke:#add9e6" points="406,450 412,458 411,448 406,450"/>
<text text-anchor="middle" x="421" y="420" style="font-family:arial">rdf:_2</text>
</a></g>
<g id="node22" class="node"><title>:_6</title>
<a xlink:href="http://www.w3.org/1999/02/22-rdf-syntax-ns#Bag" target="_blank" onmouseover="show_status('http://www.w3.org/1999/02/22-rdf-syntax-ns#Bag');">
<ellipse cx="134" cy="566" rx="28" ry="18" style="fill:#d2d2d2;stroke:#d2d2d2"/>
<text text-anchor="middle" x="134" y="570" style="font-family:arial">rdf:Bag</text>
</a></g>
<g id="edge21" class="edge"><title>:_5-&gt;:_6</title>
<a xlink:href="http://www2.elsevier.co.uk/~tony/1014/yads-schema-2002-04-03#collection" target="_blank" onmouseover="show_status('http://www2.elsevier.co.uk/~tony/1014/yads-schema-2002-04-03#collection');">
<path style="fill:none;stroke:#add9e6" d="M143,494C141,507 139,524 137,539"/>
<polygon style="fill:#add9e6;stroke:#add9e6" points="135,538 136,548 140,538 135,538"/>
<text text-anchor="middle" x="183" y="525" style="font-family:arial">has:collection</text>
</a></g>
<g id="node30" class="node"><title>:_9</title>
<a xlink:href="http://www.w3.org/1999/02/22-rdf-syntax-ns#Bag" target="_blank" onmouseover="show_status('http://www.w3.org/1999/02/22-rdf-syntax-ns#Bag');">
<ellipse cx="524" cy="566" rx="28" ry="18" style="fill:#d2d2d2;stroke:#d2d2d2"/>
<text text-anchor="middle" x="524" y="570" style="font-family:arial">rdf:Bag</text>
</a></g>
<g id="edge29" class="edge"><title>:_8-&gt;:_9</title>
<a xlink:href="http://www2.elsevier.co.uk/~tony/1014/yads-schema-2002-04-03#collection" target="_blank" onmouseover="show_status('http://www2.elsevier.co.uk/~tony/1014/yads-schema-2002-04-03#collection');">
<path style="fill:none;stroke:#add9e6" d="M437,493C455,507 481,529 500,546"/>
<polygon style="fill:#add9e6;stroke:#add9e6" points="498,547 507,552 501,544 498,547"/>
<text text-anchor="middle" x="523" y="525" style="font-family:arial">has:collection</text>
</a></g>
<g id="node24" class="node"><title>:_7</title>
<ellipse cx="131" cy="671" rx="80" ry="18" style="fill:#eedb82;stroke:#eedb82"/>
<text text-anchor="middle" x="131" y="675" style="font-family:arial">oboe:administration:version</text>
</g>
<g id="edge23" class="edge"><title>:_6-&gt;:_7</title>
<a xlink:href="http://www.w3.org/1999/02/22-rdf-syntax-ns#_1" target="_blank" onmouseover="show_status('http://www.w3.org/1999/02/22-rdf-syntax-ns#_1');">
<path style="fill:none;stroke:#add9e6" d="M133,584C133,600 132,625 132,644"/>
<polygon style="fill:#add9e6;stroke:#add9e6" points="130,643 132,653 135,643 130,643"/>
<text text-anchor="middle" x="154" y="615" style="font-family:arial">rdf:_1</text>
</a></g>
<g id="node27" class="node"><title>data:,Z39.00-00</title>
<a xlink:href="" onclick="show_data('Z39.00-00');" onmouseover="show_status('data:,Z39.00-00');">
<ellipse cx="130" cy="761" rx="50" ry="18" style="fill:#dca0dd;stroke:#dca0dd"/>
<text text-anchor="middle" x="130" y="765" style="font-family:arial">data:,Z39.00-00</text>
</a></g>
<g id="edge26" class="edge"><title>:_7-&gt;data:,Z39.00-00</title>
<a xlink:href="http://www2.elsevier.co.uk/~tony/1014/yads-schema-2002-04-03#resource" target="_blank" onmouseover="show_status('http://www2.elsevier.co.uk/~tony/1014/yads-schema-2002-04-03#resource');">
<path style="fill:none;stroke:#add9e6" d="M131,689C131,702 131,719 130,734"/>
<polygon style="fill:#add9e6;stroke:#add9e6" points="128,733 130,743 133,733 128,733"/>
<text text-anchor="middle" x="172" y="720" style="font-family:arial">has:resource</text>
</a></g>
<g id="node32" class="node"><title>:_10</title>
<ellipse cx="349" cy="671" rx="60" ry="18" style="fill:#eedb82;stroke:#eedb82"/>
<text text-anchor="middle" x="349" y="675" style="font-family:arial">oboe:entity:referent</text>
</g>
<g id="edge31" class="edge"><title>:_9-&gt;:_10</title>
<a xlink:href="http://www.w3.org/1999/02/22-rdf-syntax-ns#_1" target="_blank" onmouseover="show_status('http://www.w3.org/1999/02/22-rdf-syntax-ns#_1');">
<path style="fill:none;stroke:#add9e6" d="M503,578C474,596 419,629 383,651"/>
<polygon style="fill:#add9e6;stroke:#add9e6" points="383,648 376,655 386,652 383,648"/>
<text text-anchor="middle" x="487" y="615" style="font-family:arial">rdf:_1</text>
</a></g>
<g id="node34" class="node"><title>:_13</title>
<ellipse cx="524" cy="671" rx="59" ry="18" style="fill:#eedb82;stroke:#eedb82"/>
<text text-anchor="middle" x="524" y="675" style="font-family:arial">oboe:entity:referrer</text>
</g>
<g id="edge33" class="edge"><title>:_9-&gt;:_13</title>
<a xlink:href="http://www.w3.org/1999/02/22-rdf-syntax-ns#_2" target="_blank" onmouseover="show_status('http://www.w3.org/1999/02/22-rdf-syntax-ns#_2');">
<path style="fill:none;stroke:#add9e6" d="M524,584C524,600 524,625 524,644"/>
<polygon style="fill:#add9e6;stroke:#add9e6" points="522,643 524,653 527,643 522,643"/>
<text text-anchor="middle" x="545" y="615" style="font-family:arial">rdf:_2</text>
</a></g>
<g id="node36" class="node"><title>:_16</title>
<ellipse cx="705" cy="671" rx="65" ry="18" style="fill:#eedb82;stroke:#eedb82"/>
<text text-anchor="middle" x="705" y="675" style="font-family:arial">oboe:entity:requester</text>
</g>
<g id="edge35" class="edge"><title>:_9-&gt;:_16</title>
<a xlink:href="http://www.w3.org/1999/02/22-rdf-syntax-ns#_3" target="_blank" onmouseover="show_status('http://www.w3.org/1999/02/22-rdf-syntax-ns#_3');">
<path style="fill:none;stroke:#add9e6" d="M545,578C576,596 633,629 669,651"/>
<polygon style="fill:#add9e6;stroke:#add9e6" points="667,653 677,655 669,648 667,653"/>
<text text-anchor="middle" x="638" y="615" style="font-family:arial">rdf:_3</text>
</a></g>
<g id="node38" class="node"><title>:_19</title>
<ellipse cx="921" cy="671" rx="72" ry="18" style="fill:#eedb82;stroke:#eedb82"/>
<text text-anchor="middle" x="921" y="675" style="font-family:arial">oboe:entity:service-type</text>
</g>
<g id="edge37" class="edge"><title>:_9-&gt;:_19</title>
<a xlink:href="http://www.w3.org/1999/02/22-rdf-syntax-ns#_4" target="_blank" onmouseover="show_status('http://www.w3.org/1999/02/22-rdf-syntax-ns#_4');">
<path style="fill:none;stroke:#add9e6" d="M552,569C676,588 712,587 833,628 850,634 867,643 883,650"/>
<polygon style="fill:#add9e6;stroke:#add9e6" points="881,652 891,654 883,647 881,652"/>
<text text-anchor="middle" x="828" y="615" style="font-family:arial">rdf:_4</text>
</a></g>
<g id="node41" class="node"><title>:_11</title>
<a xlink:href="http://www.w3.org/1999/02/22-rdf-syntax-ns#Bag" target="_blank" onmouseover="show_status('http://www.w3.org/1999/02/22-rdf-syntax-ns#Bag');">
<ellipse cx="335" cy="761" rx="28" ry="18" style="fill:#d2d2d2;stroke:#d2d2d2"/>
<text text-anchor="middle" x="335" y="765" style="font-family:arial">rdf:Bag</text>
</a></g>
<g id="edge40" class="edge"><title>:_10-&gt;:_11</title>
<a xlink:href="http://www2.elsevier.co.uk/~tony/1014/yads-schema-2002-04-03#collection" target="_blank" onmouseover="show_status('http://www2.elsevier.co.uk/~tony/1014/yads-schema-2002-04-03#collection');">
<path style="fill:none;stroke:#add9e6" d="M346,689C344,702 341,719 339,734"/>
<polygon style="fill:#add9e6;stroke:#add9e6" points="337,733 338,743 342,733 337,733"/>
<text text-anchor="middle" x="385" y="720" style="font-family:arial">has:collection</text>
</a></g>
<g id="node49" class="node"><title>:_14</title>
<a xlink:href="http://www.w3.org/1999/02/22-rdf-syntax-ns#Bag" target="_blank" onmouseover="show_status('http://www.w3.org/1999/02/22-rdf-syntax-ns#Bag');">
<ellipse cx="524" cy="761" rx="28" ry="18" style="fill:#d2d2d2;stroke:#d2d2d2"/>
<text text-anchor="middle" x="524" y="765" style="font-family:arial">rdf:Bag</text>
</a></g>
<g id="edge48" class="edge"><title>:_13-&gt;:_14</title>
<a xlink:href="http://www2.elsevier.co.uk/~tony/1014/yads-schema-2002-04-03#collection" target="_blank" onmouseover="show_status('http://www2.elsevier.co.uk/~tony/1014/yads-schema-2002-04-03#collection');">
<path style="fill:none;stroke:#add9e6" d="M524,689C524,702 524,719 524,734"/>
<polygon style="fill:#add9e6;stroke:#add9e6" points="522,733 524,743 527,733 522,733"/>
<text text-anchor="middle" x="565" y="720" style="font-family:arial">has:collection</text>
</a></g>
<g id="node57" class="node"><title>:_17</title>
<a xlink:href="http://www.w3.org/1999/02/22-rdf-syntax-ns#Bag" target="_blank" onmouseover="show_status('http://www.w3.org/1999/02/22-rdf-syntax-ns#Bag');">
<ellipse cx="714" cy="761" rx="28" ry="18" style="fill:#d2d2d2;stroke:#d2d2d2"/>
<text text-anchor="middle" x="714" y="765" style="font-family:arial">rdf:Bag</text>
</a></g>
<g id="edge56" class="edge"><title>:_16-&gt;:_17</title>
<a xlink:href="http://www2.elsevier.co.uk/~tony/1014/yads-schema-2002-04-03#collection" target="_blank" onmouseover="show_status('http://www2.elsevier.co.uk/~tony/1014/yads-schema-2002-04-03#collection');">
<path style="fill:none;stroke:#add9e6" d="M707,689C708,702 709,719 711,734"/>
<polygon style="fill:#add9e6;stroke:#add9e6" points="708,733 712,743 713,733 708,733"/>
<text text-anchor="middle" x="753" y="720" style="font-family:arial">has:collection</text>
</a></g>
<g id="node65" class="node"><title>:_20</title>
<a xlink:href="http://www.w3.org/1999/02/22-rdf-syntax-ns#Bag" target="_blank" onmouseover="show_status('http://www.w3.org/1999/02/22-rdf-syntax-ns#Bag');">
<ellipse cx="924" cy="761" rx="28" ry="18" style="fill:#d2d2d2;stroke:#d2d2d2"/>
<text text-anchor="middle" x="924" y="765" style="font-family:arial">rdf:Bag</text>
</a></g>
<g id="edge64" class="edge"><title>:_19-&gt;:_20</title>
<a xlink:href="http://www2.elsevier.co.uk/~tony/1014/yads-schema-2002-04-03#collection" target="_blank" onmouseover="show_status('http://www2.elsevier.co.uk/~tony/1014/yads-schema-2002-04-03#collection');">
<path style="fill:none;stroke:#add9e6" d="M921,689C921,700 922,713 922,725 922,728 922,730 922,733"/>
<polygon style="fill:#add9e6;stroke:#add9e6" points="920,733 923,743 924,733 920,733"/>
<text text-anchor="middle" x="963" y="720" style="font-family:arial">has:collection</text>
</a></g>
<g id="node43" class="node"><title>:_12</title>
<ellipse cx="333" cy="872" rx="73" ry="18" style="fill:#eedb82;stroke:#eedb82"/>
<text text-anchor="middle" x="333" y="876" style="font-family:arial">oboe:descriptor:identifier</text>
</g>
<g id="edge42" class="edge"><title>:_11-&gt;:_12</title>
<a xlink:href="http://www.w3.org/1999/02/22-rdf-syntax-ns#_1" target="_blank" onmouseover="show_status('http://www.w3.org/1999/02/22-rdf-syntax-ns#_1');">
<path style="fill:none;stroke:#add9e6" d="M335,779C334,797 334,824 333,845"/>
<polygon style="fill:#add9e6;stroke:#add9e6" points="331,844 333,854 336,844 331,844"/>
<text text-anchor="middle" x="355" y="816" style="font-family:arial">rdf:_1</text>
</a></g>
<g id="node46" class="node"><title>data:,_ri:ASIN-1861004516</title>
<a xlink:href="" onclick="show_data('_ri:ASIN-1861004516');" onmouseover="show_status('data:,_ri:ASIN-1861004516');">
<ellipse cx="335" cy="962" rx="76" ry="18" style="fill:#dca0dd;stroke:#dca0dd"/>
<text text-anchor="middle" x="335" y="966" style="font-family:arial">data:,_ri:ASIN-1861004516</text>
</a></g>
<g id="edge45" class="edge"><title>:_12-&gt;data:,_ri:ASIN-1861004516</title>
<a xlink:href="http://www2.elsevier.co.uk/~tony/1014/yads-schema-2002-04-03#resource" target="_blank" onmouseover="show_status('http://www2.elsevier.co.uk/~tony/1014/yads-schema-2002-04-03#resource');">
<path style="fill:none;stroke:#add9e6" d="M333,890C334,903 334,920 335,935"/>
<polygon style="fill:#add9e6;stroke:#add9e6" points="333,934 335,944 338,934 333,934"/>
<text text-anchor="middle" x="376" y="921" style="font-family:arial">has:resource</text>
</a></g>
<g id="node51" class="node"><title>:_15</title>
<ellipse cx="524" cy="872" rx="73" ry="18" style="fill:#eedb82;stroke:#eedb82"/>
<text text-anchor="middle" x="524" y="876" style="font-family:arial">oboe:descriptor:identifier</text>
</g>
<g id="edge50" class="edge"><title>:_14-&gt;:_15</title>
<a xlink:href="http://www.w3.org/1999/02/22-rdf-syntax-ns#_1" target="_blank" onmouseover="show_status('http://www.w3.org/1999/02/22-rdf-syntax-ns#_1');">
<path style="fill:none;stroke:#add9e6" d="M524,779C524,797 524,824 524,845"/>
<polygon style="fill:#add9e6;stroke:#add9e6" points="522,844 524,854 527,844 522,844"/>
<text text-anchor="middle" x="544" y="816" style="font-family:arial">rdf:_1</text>
</a></g>
<g id="node54" class="node"><title>data:,_ri:booksales</title>
<a xlink:href="" onclick="show_data('_ri:booksales');" onmouseover="show_status('data:,_ri:booksales');">
<ellipse cx="516" cy="962" rx="58" ry="18" style="fill:#dca0dd;stroke:#dca0dd"/>
<text text-anchor="middle" x="516" y="966" style="font-family:arial">data:,_ri:booksales</text>
</a></g>
<g id="edge53" class="edge"><title>:_15-&gt;data:,_ri:booksales</title>
<a xlink:href="http://www2.elsevier.co.uk/~tony/1014/yads-schema-2002-04-03#resource" target="_blank" onmouseover="show_status('http://www2.elsevier.co.uk/~tony/1014/yads-schema-2002-04-03#resource');">
<path style="fill:none;stroke:#add9e6" d="M522,890C521,903 520,920 519,935"/>
<polygon style="fill:#add9e6;stroke:#add9e6" points="517,934 518,944 522,934 517,934"/>
<text text-anchor="middle" x="563" y="921" style="font-family:arial">has:resource</text>
</a></g>
<g id="node59" class="node"><title>:_18</title>
<ellipse cx="717" cy="872" rx="73" ry="18" style="fill:#eedb82;stroke:#eedb82"/>
<text text-anchor="middle" x="717" y="876" style="font-family:arial">oboe:descriptor:identifier</text>
</g>
<g id="edge58" class="edge"><title>:_17-&gt;:_18</title>
<a xlink:href="http://www.w3.org/1999/02/22-rdf-syntax-ns#_1" target="_blank" onmouseover="show_status('http://www.w3.org/1999/02/22-rdf-syntax-ns#_1');">
<path style="fill:none;stroke:#add9e6" d="M714,779C715,797 716,824 716,845"/>
<polygon style="fill:#add9e6;stroke:#add9e6" points="714,844 716,854 719,844 714,844"/>
<text text-anchor="middle" x="737" y="816" style="font-family:arial">rdf:_1</text>
</a></g>
<g id="node62" class="node"><title>data:,_ri:104-0011434-4639158</title>
<a xlink:href="" onclick="show_data('_ri:104-0011434-4639158');" onmouseover="show_status('data:,_ri:104-0011434-4639158');">
<ellipse cx="725" cy="962" rx="88" ry="18" style="fill:#dca0dd;stroke:#dca0dd"/>
<text text-anchor="middle" x="725" y="966" style="font-family:arial">data:,_ri:104-0011434-4639158</text>
</a></g>
<g id="edge61" class="edge"><title>:_18-&gt;data:,_ri:104-0011434-4639158</title>
<a xlink:href="http://www2.elsevier.co.uk/~tony/1014/yads-schema-2002-04-03#resource" target="_blank" onmouseover="show_status('http://www2.elsevier.co.uk/~tony/1014/yads-schema-2002-04-03#resource');">
<path style="fill:none;stroke:#add9e6" d="M719,890C720,903 721,920 722,935"/>
<polygon style="fill:#add9e6;stroke:#add9e6" points="719,934 723,944 724,934 719,934"/>
<text text-anchor="middle" x="764" y="921" style="font-family:arial">has:resource</text>
</a></g>
<g id="node67" class="node"><title>:_21</title>
<ellipse cx="926" cy="872" rx="73" ry="18" style="fill:#eedb82;stroke:#eedb82"/>
<text text-anchor="middle" x="926" y="876" style="font-family:arial">oboe:descriptor:identifier</text>
</g>
<g id="edge66" class="edge"><title>:_20-&gt;:_21</title>
<a xlink:href="http://www.w3.org/1999/02/22-rdf-syntax-ns#_1" target="_blank" onmouseover="show_status('http://www.w3.org/1999/02/22-rdf-syntax-ns#_1');">
<path style="fill:none;stroke:#add9e6" d="M924,779C925,797 925,824 926,845"/>
<polygon style="fill:#add9e6;stroke:#add9e6" points="924,844 926,854 929,844 924,844"/>
<text text-anchor="middle" x="944" y="816" style="font-family:arial">rdf:_1</text>
</a></g>
<g id="node70" class="node"><title>data:,_ri:addToCart</title>
<a xlink:href="" onclick="show_data('_ri:addToCart');" onmouseover="show_status('data:,_ri:addToCart');">
<ellipse cx="918" cy="962" rx="60" ry="18" style="fill:#dca0dd;stroke:#dca0dd"/>
<text text-anchor="middle" x="918" y="966" style="font-family:arial">data:,_ri:addToCart</text>
</a></g>
<g id="edge69" class="edge"><title>:_21-&gt;data:,_ri:addToCart</title>
<a xlink:href="http://www2.elsevier.co.uk/~tony/1014/yads-schema-2002-04-03#resource" target="_blank" onmouseover="show_status('http://www2.elsevier.co.uk/~tony/1014/yads-schema-2002-04-03#resource');">
<path style="fill:none;stroke:#add9e6" d="M924,890C923,896 922,902 922,908 921,917 921,926 920,934"/>
<polygon style="fill:#add9e6;stroke:#add9e6" points="918,934 919,944 922,934 918,934"/>
<text text-anchor="middle" x="963" y="921" style="font-family:arial">has:resource</text>
</a></g>
</g>
</svg>
