<?xml version="1.0" encoding="UTF-8" standalone="no"?>
<!DOCTYPE svg PUBLIC "-//W3C//DTD SVG 1.0//EN"
 "http://www.w3.org/TR/2001/REC-SVG-20010904/DTD/svg10.dtd" [
 <!ATTLIST svg xmlns:xlink CDATA #FIXED "http://www.w3.org/1999/xlink">
]>
<!-- Generated by dot version 1.8.5 (Tue Apr 23 17:19:23  2002)
     For user: (Administrator) ,S-1-5-21-1454471165-688789844-1708537768-500   Title: yads    Pages: 1 -->
<svg width="1298px" height="1063px"
 xmlns="http://www.w3.org/2000/svg" xmlns:xlink="http://www.w3.org/1999/xlink">
<g id="graph0" class="graph" style="font-family:Times-Roman;font-size:11.00">
<title>yads</title>
<text text-anchor="middle" x="649" y="1052" style="font-family:arial;font-size:24.00">YADS - A Description Service</text>
<g id="graph2" class="cluster"><title>cluster_1</title>
<polygon style="fill:none;stroke:#d2d2d2;stroke-dasharray:5,2" points="19,1020 1279,1020 1279,43 19,43 19,1020"/>
<text text-anchor="middle" x="70" y="55" style="font-family:arial">Nest - OpenURL</text>
</g>
<g id="graph3" class="cluster"><title>cluster_3</title>
<polygon style="fill:none;stroke:#d2d2d2;stroke-dasharray:5,2" points="27,1012 1271,1012 1271,238 27,238 27,1012"/>
<text text-anchor="middle" x="68" y="250" style="font-family:arial">Nest - Profile</text>
</g>
<g id="graph4" class="cluster"><title>cluster_5</title>
<polygon style="fill:none;stroke:#d2d2d2;stroke-dasharray:5,2" points="35,795 227,795 227,433 35,433 35,795"/>
<text text-anchor="middle" x="95" y="445" style="font-family:arial">Item - Administration</text>
</g>
<g id="graph5" class="cluster"><title>cluster_7</title>
<polygon style="fill:none;stroke:#d2d2d2;stroke-dasharray:5,2" points="43,787 219,787 219,628 43,628 43,787"/>
<text text-anchor="middle" x="86" y="640" style="font-family:arial">Item - Version</text>
</g>
<g id="graph6" class="cluster"><title>cluster_8</title>
<polygon style="fill:none;stroke:#d2d2d2;stroke-dasharray:5,2" points="235,1004 1263,1004 1263,433 235,433 235,1004"/>
<text text-anchor="middle" x="300" y="445" style="font-family:arial">Item - Context-Object</text>
</g>
<g id="graph7" class="cluster"><title>cluster_10</title>
<polygon style="fill:none;stroke:#d2d2d2;stroke-dasharray:5,2" points="243,996 439,996 439,628 243,628 243,996"/>
<text text-anchor="middle" x="290" y="640" style="font-family:arial">Item - Referent</text>
</g>
<g id="graph8" class="cluster"><title>cluster_12</title>
<polygon style="fill:none;stroke:#d2d2d2;stroke-dasharray:5,2" points="251,988 431,988 431,829 251,829 251,988"/>
<text text-anchor="middle" x="295" y="841" style="font-family:arial">Item - Identifier</text>
</g>
<g id="graph9" class="cluster"><title>cluster_13</title>
<polygon style="fill:none;stroke:#d2d2d2;stroke-dasharray:5,2" points="447,996 629,996 629,628 447,628 447,996"/>
<text text-anchor="middle" x="493" y="640" style="font-family:arial">Item - Referrer</text>
</g>
<g id="graph10" class="cluster"><title>cluster_15</title>
<polygon style="fill:none;stroke:#d2d2d2;stroke-dasharray:5,2" points="455,988 621,988 621,829 455,829 455,988"/>
<text text-anchor="middle" x="499" y="841" style="font-family:arial">Item - Identifier</text>
</g>
<g id="graph11" class="cluster"><title>cluster_16</title>
<polygon style="fill:none;stroke:#d2d2d2;stroke-dasharray:5,2" points="637,996 853,996 853,628 637,628 637,996"/>
<text text-anchor="middle" x="701" y="640" style="font-family:arial">Item - Referring-Entity</text>
</g>
<g id="graph12" class="cluster"><title>cluster_18</title>
<polygon style="fill:none;stroke:#d2d2d2;stroke-dasharray:5,2" points="645,988 845,988 845,829 645,829 645,988"/>
<text text-anchor="middle" x="689" y="841" style="font-family:arial">Item - Identifier</text>
</g>
<g id="graph13" class="cluster"><title>cluster_19</title>
<polygon style="fill:none;stroke:#d2d2d2;stroke-dasharray:5,2" points="861,996 1069,996 1069,628 861,628 861,996"/>
<text text-anchor="middle" x="912" y="640" style="font-family:arial">Item - Requester</text>
</g>
<g id="graph14" class="cluster"><title>cluster_21</title>
<polygon style="fill:none;stroke:#d2d2d2;stroke-dasharray:5,2" points="869,988 1061,988 1061,829 869,829 869,988"/>
<text text-anchor="middle" x="913" y="841" style="font-family:arial">Item - Identifier</text>
</g>
<g id="graph15" class="cluster"><title>cluster_22</title>
<polygon style="fill:none;stroke:#d2d2d2;stroke-dasharray:5,2" points="1077,996 1255,996 1255,628 1077,628 1077,996"/>
<text text-anchor="middle" x="1137" y="640" style="font-family:arial">Item - Service-Type</text>
</g>
<g id="graph16" class="cluster"><title>cluster_24</title>
<polygon style="fill:none;stroke:#d2d2d2;stroke-dasharray:5,2" points="1085,988 1247,988 1247,829 1085,829 1085,988"/>
<text text-anchor="middle" x="1129" y="841" style="font-family:arial">Item - Identifier</text>
</g>
<g id="node2" class="node"><title>:_1</title>
<a xlink:href="http://www2.elsevier.co.uk/~tony/1014/yads-schema-2002-04-03#Nest" target="_blank" onmouseover="show_status('http://www2.elsevier.co.uk/~tony/1014/yads-schema-2002-04-03#Nest');">
<ellipse cx="204" cy="86" rx="29" ry="18" style="fill:#d2d2d2;stroke:#d2d2d2"/>
<text text-anchor="middle" x="204" y="90" style="font-family:arial">isa:Nest</text>
</a></g>
<g id="node4" class="node"><title>:</title>
<ellipse cx="155" cy="176" rx="27" ry="18" style="fill:#dca0dd;stroke:#dca0dd"/>
<text text-anchor="middle" x="155" y="180" style="font-family:arial">:</text>
</g>
<g id="edge3" class="edge"><title>:_1-&gt;:</title>
<a xlink:href="http://www2.elsevier.co.uk/~tony/1014/yads-schema-2002-04-03#resource" target="_blank" onmouseover="show_status('http://www2.elsevier.co.uk/~tony/1014/yads-schema-2002-04-03#resource');">
<path style="fill:none;stroke:#add9e6" d="M187,100C180,107 174,114 169,122 165,130 161,140 159,149"/>
<polygon style="fill:#add9e6;stroke:#add9e6" points="157,148 157,158 162,149 157,148"/>
<text text-anchor="middle" x="213" y="135" style="font-family:arial">has:resource</text>
</a></g>
<g id="node6" class="node"><title>:_2</title>
<a xlink:href="http://www.w3.org/1999/02/22-rdf-syntax-ns#Bag" target="_blank" onmouseover="show_status('http://www.w3.org/1999/02/22-rdf-syntax-ns#Bag');">
<ellipse cx="254" cy="176" rx="28" ry="18" style="fill:#d2d2d2;stroke:#d2d2d2"/>
<text text-anchor="middle" x="254" y="180" style="font-family:arial">rdf:Bag</text>
</a></g>
<g id="edge5" class="edge"><title>:_1-&gt;:_2</title>
<a xlink:href="http://www2.elsevier.co.uk/~tony/1014/yads-schema-2002-04-03#collection" target="_blank" onmouseover="show_status('http://www2.elsevier.co.uk/~tony/1014/yads-schema-2002-04-03#collection');">
<path style="fill:none;stroke:#add9e6" d="M228,97C238,103 249,111 254,122 258,130 259,140 259,149"/>
<polygon style="fill:#add9e6;stroke:#add9e6" points="257,148 258,158 262,148 257,148"/>
<text text-anchor="middle" x="301" y="135" style="font-family:arial">has:collection</text>
</a></g>
<g id="node8" class="node"><title>:_3</title>
<a xlink:href="http://www2.elsevier.co.uk/~tony/1014/yads-schema-2002-04-03#Nest" target="_blank" onmouseover="show_status('http://www2.elsevier.co.uk/~tony/1014/yads-schema-2002-04-03#Nest');">
<ellipse cx="254" cy="281" rx="29" ry="18" style="fill:#d2d2d2;stroke:#d2d2d2"/>
<text text-anchor="middle" x="254" y="285" style="font-family:arial">isa:Nest</text>
</a></g>
<g id="edge7" class="edge"><title>:_2-&gt;:_3</title>
<a xlink:href="http://www.w3.org/1999/02/22-rdf-syntax-ns#_1" target="_blank" onmouseover="show_status('http://www.w3.org/1999/02/22-rdf-syntax-ns#_1');">
<path style="fill:none;stroke:#add9e6" d="M254,194C254,210 254,235 254,254"/>
<polygon style="fill:#add9e6;stroke:#add9e6" points="252,253 254,263 257,253 252,253"/>
<text text-anchor="middle" x="274" y="225" style="font-family:arial">rdf:_1</text>
</a></g>
<g id="node11" class="node"><title>node_1</title>
<polygon style="fill:#6497ed;stroke:#6497ed" points="145,353 91,353 91,389 145,389 145,353"/>
<text text-anchor="middle" x="118" y="375" style="font-family:arial">oboe:</text>
</g>
<g id="edge10" class="edge"><title>:_3-&gt;node_1</title>
<a xlink:href="http://www2.elsevier.co.uk/~tony/1014/yads-schema-2002-04-03#directive" target="_blank" onmouseover="show_status('http://www2.elsevier.co.uk/~tony/1014/yads-schema-2002-04-03#directive');">
<path style="fill:none;stroke:#add9e6" d="M229,290C213,297 191,306 174,317 162,325 150,337 140,347"/>
<polygon style="fill:#add9e6;stroke:#add9e6" points="139,344 134,353 143,348 139,344"/>
<text text-anchor="middle" x="218" y="330" style="font-family:arial">has:directive</text>
</a></g>
<g id="node13" class="node"><title>http://www2.elsevier.co.uk/~t...f</title>
<a xlink:href="http://www2.elsevier.co.uk/~tony/oboe/oboe.rdf" target="_blank" onmouseover="show_status('http://www2.elsevier.co.uk/~tony/oboe/oboe.rdf');">
<ellipse cx="254" cy="371" rx="91" ry="18" style="fill:#dca0dd;stroke:#dca0dd"/>
<text text-anchor="middle" x="254" y="375" style="font-family:arial">http://www2.elsevier.co.uk/~t...f</text>
</a></g>
<g id="edge12" class="edge"><title>:_3-&gt;http://www2.elsevier.co.uk/~t...f</title>
<a xlink:href="http://www2.elsevier.co.uk/~tony/1014/yads-schema-2002-04-03#resource" target="_blank" onmouseover="show_status('http://www2.elsevier.co.uk/~tony/1014/yads-schema-2002-04-03#resource');">
<path style="fill:none;stroke:#add9e6" d="M254,299C254,312 254,329 254,344"/>
<polygon style="fill:#add9e6;stroke:#add9e6" points="252,343 254,353 257,343 252,343"/>
<text text-anchor="middle" x="295" y="330" style="font-family:arial">has:resource</text>
</a></g>
<g id="node15" class="node"><title>:_4</title>
<a xlink:href="http://www.w3.org/1999/02/22-rdf-syntax-ns#Bag" target="_blank" onmouseover="show_status('http://www.w3.org/1999/02/22-rdf-syntax-ns#Bag');">
<ellipse cx="391" cy="371" rx="28" ry="18" style="fill:#d2d2d2;stroke:#d2d2d2"/>
<text text-anchor="middle" x="391" y="375" style="font-family:arial">rdf:Bag</text>
</a></g>
<g id="edge14" class="edge"><title>:_3-&gt;:_4</title>
<a xlink:href="http://www2.elsevier.co.uk/~tony/1014/yads-schema-2002-04-03#collection" target="_blank" onmouseover="show_status('http://www2.elsevier.co.uk/~tony/1014/yads-schema-2002-04-03#collection');">
<path style="fill:none;stroke:#add9e6" d="M280,289C298,295 321,305 339,317 352,326 364,338 373,348"/>
<polygon style="fill:#add9e6;stroke:#add9e6" points="370,348 378,355 374,345 370,348"/>
<text text-anchor="middle" x="402" y="330" style="font-family:arial">has:collection</text>
</a></g>
<g id="node17" class="node"><title>:_5</title>
<ellipse cx="145" cy="476" rx="60" ry="18" style="fill:#eedb82;stroke:#eedb82"/>
<text text-anchor="middle" x="145" y="480" style="font-family:arial">oboe:administration</text>
</g>
<g id="edge16" class="edge"><title>:_4-&gt;:_5</title>
<a xlink:href="http://www.w3.org/1999/02/22-rdf-syntax-ns#_1" target="_blank" onmouseover="show_status('http://www.w3.org/1999/02/22-rdf-syntax-ns#_1');">
<path style="fill:none;stroke:#add9e6" d="M369,382C364,385 359,387 354,389 301,412 285,411 231,433 215,440 198,449 183,456"/>
<polygon style="fill:#add9e6;stroke:#add9e6" points="183,453 175,460 185,458 183,453"/>
<text text-anchor="middle" x="334" y="420" style="font-family:arial">rdf:_1</text>
</a></g>
<g id="node19" class="node"><title>:_8</title>
<ellipse cx="448" cy="476" rx="44" ry="18" style="fill:#eedb82;stroke:#eedb82"/>
<text text-anchor="middle" x="448" y="480" style="font-family:arial">oboe:context</text>
</g>
<g id="edge18" class="edge"><title>:_4-&gt;:_8</title>
<a xlink:href="http://www.w3.org/1999/02/22-rdf-syntax-ns#_2" target="_blank" onmouseover="show_status('http://www.w3.org/1999/02/22-rdf-syntax-ns#_2');">
<path style="fill:none;stroke:#add9e6" d="M400,388C410,405 424,431 434,450"/>
<polygon style="fill:#add9e6;stroke:#add9e6" points="431,450 438,458 436,448 431,450"/>
<text text-anchor="middle" x="441" y="420" style="font-family:arial">rdf:_2</text>
</a></g>
<g id="node22" class="node"><title>:_6</title>
<a xlink:href="http://www.w3.org/1999/02/22-rdf-syntax-ns#Bag" target="_blank" onmouseover="show_status('http://www.w3.org/1999/02/22-rdf-syntax-ns#Bag');">
<ellipse cx="134" cy="566" rx="28" ry="18" style="fill:#d2d2d2;stroke:#d2d2d2"/>
<text text-anchor="middle" x="134" y="570" style="font-family:arial">rdf:Bag</text>
</a></g>
<g id="edge21" class="edge"><title>:_5-&gt;:_6</title>
<a xlink:href="http://www2.elsevier.co.uk/~tony/1014/yads-schema-2002-04-03#collection" target="_blank" onmouseover="show_status('http://www2.elsevier.co.uk/~tony/1014/yads-schema-2002-04-03#collection');">
<path style="fill:none;stroke:#add9e6" d="M143,494C141,507 139,524 137,539"/>
<polygon style="fill:#add9e6;stroke:#add9e6" points="135,538 136,548 140,538 135,538"/>
<text text-anchor="middle" x="183" y="525" style="font-family:arial">has:collection</text>
</a></g>
<g id="node30" class="node"><title>:_9</title>
<a xlink:href="http://www.w3.org/1999/02/22-rdf-syntax-ns#Bag" target="_blank" onmouseover="show_status('http://www.w3.org/1999/02/22-rdf-syntax-ns#Bag');">
<ellipse cx="609" cy="566" rx="28" ry="18" style="fill:#d2d2d2;stroke:#d2d2d2"/>
<text text-anchor="middle" x="609" y="570" style="font-family:arial">rdf:Bag</text>
</a></g>
<g id="edge29" class="edge"><title>:_8-&gt;:_9</title>
<a xlink:href="http://www2.elsevier.co.uk/~tony/1014/yads-schema-2002-04-03#collection" target="_blank" onmouseover="show_status('http://www2.elsevier.co.uk/~tony/1014/yads-schema-2002-04-03#collection');">
<path style="fill:none;stroke:#add9e6" d="M474,491C504,507 551,534 581,551"/>
<polygon style="fill:#add9e6;stroke:#add9e6" points="577,552 587,554 579,547 577,552"/>
<text text-anchor="middle" x="585" y="525" style="font-family:arial">has:collection</text>
</a></g>
<g id="node24" class="node"><title>:_7</title>
<ellipse cx="131" cy="671" rx="80" ry="18" style="fill:#eedb82;stroke:#eedb82"/>
<text text-anchor="middle" x="131" y="675" style="font-family:arial">oboe:administration:version</text>
</g>
<g id="edge23" class="edge"><title>:_6-&gt;:_7</title>
<a xlink:href="http://www.w3.org/1999/02/22-rdf-syntax-ns#_1" target="_blank" onmouseover="show_status('http://www.w3.org/1999/02/22-rdf-syntax-ns#_1');">
<path style="fill:none;stroke:#add9e6" d="M133,584C133,600 132,625 132,644"/>
<polygon style="fill:#add9e6;stroke:#add9e6" points="130,643 132,653 135,643 130,643"/>
<text text-anchor="middle" x="154" y="615" style="font-family:arial">rdf:_1</text>
</a></g>
<g id="node27" class="node"><title>data:,Z39.00-00</title>
<a xlink:href="" onclick="show_data('Z39.00-00');" onmouseover="show_status('data:,Z39.00-00');">
<ellipse cx="130" cy="761" rx="50" ry="18" style="fill:#dca0dd;stroke:#dca0dd"/>
<text text-anchor="middle" x="130" y="765" style="font-family:arial">data:,Z39.00-00</text>
</a></g>
<g id="edge26" class="edge"><title>:_7-&gt;data:,Z39.00-00</title>
<a xlink:href="http://www2.elsevier.co.uk/~tony/1014/yads-schema-2002-04-03#resource" target="_blank" onmouseover="show_status('http://www2.elsevier.co.uk/~tony/1014/yads-schema-2002-04-03#resource');">
<path style="fill:none;stroke:#add9e6" d="M131,689C131,702 131,719 130,734"/>
<polygon style="fill:#add9e6;stroke:#add9e6" points="128,733 130,743 133,733 128,733"/>
<text text-anchor="middle" x="172" y="720" style="font-family:arial">has:resource</text>
</a></g>
<g id="node32" class="node"><title>:_10</title>
<ellipse cx="360" cy="671" rx="60" ry="18" style="fill:#eedb82;stroke:#eedb82"/>
<text text-anchor="middle" x="360" y="675" style="font-family:arial">oboe:entity:referent</text>
</g>
<g id="edge31" class="edge"><title>:_9-&gt;:_10</title>
<a xlink:href="http://www.w3.org/1999/02/22-rdf-syntax-ns#_1" target="_blank" onmouseover="show_status('http://www.w3.org/1999/02/22-rdf-syntax-ns#_1');">
<path style="fill:none;stroke:#add9e6" d="M583,573C525,591 506,600 443,628 428,635 412,644 398,651"/>
<polygon style="fill:#add9e6;stroke:#add9e6" points="398,648 390,655 400,653 398,648"/>
<text text-anchor="middle" x="527" y="615" style="font-family:arial">rdf:_1</text>
</a></g>
<g id="node34" class="node"><title>:_13</title>
<ellipse cx="550" cy="671" rx="59" ry="18" style="fill:#eedb82;stroke:#eedb82"/>
<text text-anchor="middle" x="550" y="675" style="font-family:arial">oboe:entity:referrer</text>
</g>
<g id="edge33" class="edge"><title>:_9-&gt;:_13</title>
<a xlink:href="http://www.w3.org/1999/02/22-rdf-syntax-ns#_2" target="_blank" onmouseover="show_status('http://www.w3.org/1999/02/22-rdf-syntax-ns#_2');">
<path style="fill:none;stroke:#add9e6" d="M599,583C589,600 575,626 564,645"/>
<polygon style="fill:#add9e6;stroke:#add9e6" points="562,643 560,653 567,645 562,643"/>
<text text-anchor="middle" x="610" y="615" style="font-family:arial">rdf:_2</text>
</a></g>
<g id="node36" class="node"><title>:_16</title>
<ellipse cx="729" cy="671" rx="78" ry="18" style="fill:#eedb82;stroke:#eedb82"/>
<text text-anchor="middle" x="729" y="675" style="font-family:arial">oboe:entity:referring-entity</text>
</g>
<g id="edge35" class="edge"><title>:_9-&gt;:_16</title>
<a xlink:href="http://www.w3.org/1999/02/22-rdf-syntax-ns#_3" target="_blank" onmouseover="show_status('http://www.w3.org/1999/02/22-rdf-syntax-ns#_3');">
<path style="fill:none;stroke:#add9e6" d="M626,581C646,597 679,626 702,647"/>
<polygon style="fill:#add9e6;stroke:#add9e6" points="700,648 709,653 703,645 700,648"/>
<text text-anchor="middle" x="692" y="615" style="font-family:arial">rdf:_3</text>
</a></g>
<g id="node38" class="node"><title>:_19</title>
<ellipse cx="945" cy="671" rx="65" ry="18" style="fill:#eedb82;stroke:#eedb82"/>
<text text-anchor="middle" x="945" y="675" style="font-family:arial">oboe:entity:requester</text>
</g>
<g id="edge37" class="edge"><title>:_9-&gt;:_19</title>
<a xlink:href="http://www.w3.org/1999/02/22-rdf-syntax-ns#_4" target="_blank" onmouseover="show_status('http://www.w3.org/1999/02/22-rdf-syntax-ns#_4');">
<path style="fill:none;stroke:#add9e6" d="M636,570C733,588 761,593 857,628 874,635 891,643 907,651"/>
<polygon style="fill:#add9e6;stroke:#add9e6" points="905,653 915,655 907,648 905,653"/>
<text text-anchor="middle" x="853" y="615" style="font-family:arial">rdf:_4</text>
</a></g>
<g id="node40" class="node"><title>:_22</title>
<ellipse cx="1161" cy="671" rx="72" ry="18" style="fill:#eedb82;stroke:#eedb82"/>
<text text-anchor="middle" x="1161" y="675" style="font-family:arial">oboe:entity:service-type</text>
</g>
<g id="edge39" class="edge"><title>:_9-&gt;:_22</title>
<a xlink:href="http://www.w3.org/1999/02/22-rdf-syntax-ns#_5" target="_blank" onmouseover="show_status('http://www.w3.org/1999/02/22-rdf-syntax-ns#_5');">
<path style="fill:none;stroke:#add9e6" d="M637,567C711,569 914,580 1073,628 1091,633 1109,642 1124,650"/>
<polygon style="fill:#add9e6;stroke:#add9e6" points="1122,652 1132,654 1124,647 1122,652"/>
<text text-anchor="middle" x="1061" y="615" style="font-family:arial">rdf:_5</text>
</a></g>
<g id="node43" class="node"><title>:_11</title>
<a xlink:href="http://www.w3.org/1999/02/22-rdf-syntax-ns#Bag" target="_blank" onmouseover="show_status('http://www.w3.org/1999/02/22-rdf-syntax-ns#Bag');">
<ellipse cx="347" cy="761" rx="28" ry="18" style="fill:#d2d2d2;stroke:#d2d2d2"/>
<text text-anchor="middle" x="347" y="765" style="font-family:arial">rdf:Bag</text>
</a></g>
<g id="edge42" class="edge"><title>:_10-&gt;:_11</title>
<a xlink:href="http://www2.elsevier.co.uk/~tony/1014/yads-schema-2002-04-03#collection" target="_blank" onmouseover="show_status('http://www2.elsevier.co.uk/~tony/1014/yads-schema-2002-04-03#collection');">
<path style="fill:none;stroke:#add9e6" d="M357,689C355,702 353,719 351,734"/>
<polygon style="fill:#add9e6;stroke:#add9e6" points="349,733 350,743 354,733 349,733"/>
<text text-anchor="middle" x="397" y="720" style="font-family:arial">has:collection</text>
</a></g>
<g id="node51" class="node"><title>:_14</title>
<a xlink:href="http://www.w3.org/1999/02/22-rdf-syntax-ns#Bag" target="_blank" onmouseover="show_status('http://www.w3.org/1999/02/22-rdf-syntax-ns#Bag');">
<ellipse cx="538" cy="761" rx="28" ry="18" style="fill:#d2d2d2;stroke:#d2d2d2"/>
<text text-anchor="middle" x="538" y="765" style="font-family:arial">rdf:Bag</text>
</a></g>
<g id="edge50" class="edge"><title>:_13-&gt;:_14</title>
<a xlink:href="http://www2.elsevier.co.uk/~tony/1014/yads-schema-2002-04-03#collection" target="_blank" onmouseover="show_status('http://www2.elsevier.co.uk/~tony/1014/yads-schema-2002-04-03#collection');">
<path style="fill:none;stroke:#add9e6" d="M548,689C546,702 544,719 542,734"/>
<polygon style="fill:#add9e6;stroke:#add9e6" points="540,733 540,743 545,734 540,733"/>
<text text-anchor="middle" x="587" y="720" style="font-family:arial">has:collection</text>
</a></g>
<g id="node59" class="node"><title>:_17</title>
<a xlink:href="http://www.w3.org/1999/02/22-rdf-syntax-ns#Bag" target="_blank" onmouseover="show_status('http://www.w3.org/1999/02/22-rdf-syntax-ns#Bag');">
<ellipse cx="733" cy="761" rx="28" ry="18" style="fill:#d2d2d2;stroke:#d2d2d2"/>
<text text-anchor="middle" x="733" y="765" style="font-family:arial">rdf:Bag</text>
</a></g>
<g id="edge58" class="edge"><title>:_16-&gt;:_17</title>
<a xlink:href="http://www2.elsevier.co.uk/~tony/1014/yads-schema-2002-04-03#collection" target="_blank" onmouseover="show_status('http://www2.elsevier.co.uk/~tony/1014/yads-schema-2002-04-03#collection');">
<path style="fill:none;stroke:#add9e6" d="M730,689C731,702 732,719 732,734"/>
<polygon style="fill:#add9e6;stroke:#add9e6" points="730,733 732,743 735,733 730,733"/>
<text text-anchor="middle" x="774" y="720" style="font-family:arial">has:collection</text>
</a></g>
<g id="node67" class="node"><title>:_20</title>
<a xlink:href="http://www.w3.org/1999/02/22-rdf-syntax-ns#Bag" target="_blank" onmouseover="show_status('http://www.w3.org/1999/02/22-rdf-syntax-ns#Bag');">
<ellipse cx="954" cy="761" rx="28" ry="18" style="fill:#d2d2d2;stroke:#d2d2d2"/>
<text text-anchor="middle" x="954" y="765" style="font-family:arial">rdf:Bag</text>
</a></g>
<g id="edge66" class="edge"><title>:_19-&gt;:_20</title>
<a xlink:href="http://www2.elsevier.co.uk/~tony/1014/yads-schema-2002-04-03#collection" target="_blank" onmouseover="show_status('http://www2.elsevier.co.uk/~tony/1014/yads-schema-2002-04-03#collection');">
<path style="fill:none;stroke:#add9e6" d="M947,689C948,702 949,719 951,734"/>
<polygon style="fill:#add9e6;stroke:#add9e6" points="948,733 952,743 953,733 948,733"/>
<text text-anchor="middle" x="993" y="720" style="font-family:arial">has:collection</text>
</a></g>
<g id="node75" class="node"><title>:_23</title>
<a xlink:href="http://www.w3.org/1999/02/22-rdf-syntax-ns#Bag" target="_blank" onmouseover="show_status('http://www.w3.org/1999/02/22-rdf-syntax-ns#Bag');">
<ellipse cx="1164" cy="761" rx="28" ry="18" style="fill:#d2d2d2;stroke:#d2d2d2"/>
<text text-anchor="middle" x="1164" y="765" style="font-family:arial">rdf:Bag</text>
</a></g>
<g id="edge74" class="edge"><title>:_22-&gt;:_23</title>
<a xlink:href="http://www2.elsevier.co.uk/~tony/1014/yads-schema-2002-04-03#collection" target="_blank" onmouseover="show_status('http://www2.elsevier.co.uk/~tony/1014/yads-schema-2002-04-03#collection');">
<path style="fill:none;stroke:#add9e6" d="M1161,689C1161,700 1162,713 1162,725 1162,728 1162,730 1162,733"/>
<polygon style="fill:#add9e6;stroke:#add9e6" points="1160,733 1163,743 1164,733 1160,733"/>
<text text-anchor="middle" x="1203" y="720" style="font-family:arial">has:collection</text>
</a></g>
<g id="node45" class="node"><title>:_12</title>
<ellipse cx="346" cy="872" rx="73" ry="18" style="fill:#eedb82;stroke:#eedb82"/>
<text text-anchor="middle" x="346" y="876" style="font-family:arial">oboe:descriptor:identifier</text>
</g>
<g id="edge44" class="edge"><title>:_11-&gt;:_12</title>
<a xlink:href="http://www.w3.org/1999/02/22-rdf-syntax-ns#_1" target="_blank" onmouseover="show_status('http://www.w3.org/1999/02/22-rdf-syntax-ns#_1');">
<path style="fill:none;stroke:#add9e6" d="M347,779C347,797 347,824 346,845"/>
<polygon style="fill:#add9e6;stroke:#add9e6" points="344,844 346,854 349,844 344,844"/>
<text text-anchor="middle" x="367" y="816" style="font-family:arial">rdf:_1</text>
</a></g>
<g id="node48" class="node"><title>data:,uri:urn:ISBN:1861004516</title>
<a xlink:href="" onclick="show_data('uri:urn:ISBN:1861004516');" onmouseover="show_status('data:,uri:urn:ISBN:1861004516');">
<ellipse cx="341" cy="962" rx="82" ry="18" style="fill:#dca0dd;stroke:#dca0dd"/>
<text text-anchor="middle" x="341" y="966" style="font-family:arial">data:,uri:urn:ISBN:1861004516</text>
</a></g>
<g id="edge47" class="edge"><title>:_12-&gt;data:,uri:urn:ISBN:1861004516</title>
<a xlink:href="http://www2.elsevier.co.uk/~tony/1014/yads-schema-2002-04-03#resource" target="_blank" onmouseover="show_status('http://www2.elsevier.co.uk/~tony/1014/yads-schema-2002-04-03#resource');">
<path style="fill:none;stroke:#add9e6" d="M345,890C344,903 343,920 343,935"/>
<polygon style="fill:#add9e6;stroke:#add9e6" points="341,934 342,944 346,934 341,934"/>
<text text-anchor="middle" x="386" y="921" style="font-family:arial">has:resource</text>
</a></g>
<g id="node53" class="node"><title>:_15</title>
<ellipse cx="538" cy="872" rx="73" ry="18" style="fill:#eedb82;stroke:#eedb82"/>
<text text-anchor="middle" x="538" y="876" style="font-family:arial">oboe:descriptor:identifier</text>
</g>
<g id="edge52" class="edge"><title>:_14-&gt;:_15</title>
<a xlink:href="http://www.w3.org/1999/02/22-rdf-syntax-ns#_1" target="_blank" onmouseover="show_status('http://www.w3.org/1999/02/22-rdf-syntax-ns#_1');">
<path style="fill:none;stroke:#add9e6" d="M538,779C538,797 538,824 538,845"/>
<polygon style="fill:#add9e6;stroke:#add9e6" points="536,844 538,854 541,844 536,844"/>
<text text-anchor="middle" x="558" y="816" style="font-family:arial">rdf:_1</text>
</a></g>
<g id="node56" class="node"><title>data:,ori:dns:amazon.com</title>
<a xlink:href="" onclick="show_data('ori:dns:amazon.com');" onmouseover="show_status('data:,ori:dns:amazon.com');">
<ellipse cx="538" cy="962" rx="75" ry="18" style="fill:#dca0dd;stroke:#dca0dd"/>
<text text-anchor="middle" x="538" y="966" style="font-family:arial">data:,ori:dns:amazon.com</text>
</a></g>
<g id="edge55" class="edge"><title>:_15-&gt;data:,ori:dns:amazon.com</title>
<a xlink:href="http://www2.elsevier.co.uk/~tony/1014/yads-schema-2002-04-03#resource" target="_blank" onmouseover="show_status('http://www2.elsevier.co.uk/~tony/1014/yads-schema-2002-04-03#resource');">
<path style="fill:none;stroke:#add9e6" d="M538,890C538,903 538,920 538,935"/>
<polygon style="fill:#add9e6;stroke:#add9e6" points="536,934 538,944 541,934 536,934"/>
<text text-anchor="middle" x="579" y="921" style="font-family:arial">has:resource</text>
</a></g>
<g id="node61" class="node"><title>:_18</title>
<ellipse cx="735" cy="872" rx="73" ry="18" style="fill:#eedb82;stroke:#eedb82"/>
<text text-anchor="middle" x="735" y="876" style="font-family:arial">oboe:descriptor:identifier</text>
</g>
<g id="edge60" class="edge"><title>:_17-&gt;:_18</title>
<a xlink:href="http://www.w3.org/1999/02/22-rdf-syntax-ns#_1" target="_blank" onmouseover="show_status('http://www.w3.org/1999/02/22-rdf-syntax-ns#_1');">
<path style="fill:none;stroke:#add9e6" d="M733,779C734,797 734,824 735,845"/>
<polygon style="fill:#add9e6;stroke:#add9e6" points="733,844 735,854 738,844 733,844"/>
<text text-anchor="middle" x="755" y="816" style="font-family:arial">rdf:_1</text>
</a></g>
<g id="node64" class="node"><title>data:,uri:http://www.amazon.c...6</title>
<a xlink:href="" onclick="show_data('uri:http://www.amazon.com/exec/obidos/ASIN/1861004516');" onmouseover="show_status('data:,uri:http://www.amazon.com/exec/obidos/ASIN/1861004516');">
<ellipse cx="745" cy="962" rx="92" ry="18" style="fill:#dca0dd;stroke:#dca0dd"/>
<text text-anchor="middle" x="745" y="966" style="font-family:arial">data:,uri:http://www.amazon.c...6</text>
</a></g>
<g id="edge63" class="edge"><title>:_18-&gt;data:,uri:http://www.amazon.c...6</title>
<a xlink:href="http://www2.elsevier.co.uk/~tony/1014/yads-schema-2002-04-03#resource" target="_blank" onmouseover="show_status('http://www2.elsevier.co.uk/~tony/1014/yads-schema-2002-04-03#resource');">
<path style="fill:none;stroke:#add9e6" d="M737,890C739,903 740,920 742,935"/>
<polygon style="fill:#add9e6;stroke:#add9e6" points="739,934 743,944 744,934 739,934"/>
<text text-anchor="middle" x="783" y="921" style="font-family:arial">has:resource</text>
</a></g>
<g id="node69" class="node"><title>:_21</title>
<ellipse cx="957" cy="872" rx="73" ry="18" style="fill:#eedb82;stroke:#eedb82"/>
<text text-anchor="middle" x="957" y="876" style="font-family:arial">oboe:descriptor:identifier</text>
</g>
<g id="edge68" class="edge"><title>:_20-&gt;:_21</title>
<a xlink:href="http://www.w3.org/1999/02/22-rdf-syntax-ns#_1" target="_blank" onmouseover="show_status('http://www.w3.org/1999/02/22-rdf-syntax-ns#_1');">
<path style="fill:none;stroke:#add9e6" d="M954,779C955,797 956,824 956,845"/>
<polygon style="fill:#add9e6;stroke:#add9e6" points="954,844 956,854 959,844 954,844"/>
<text text-anchor="middle" x="977" y="816" style="font-family:arial">rdf:_1</text>
</a></g>
<g id="node72" class="node"><title>data:,_ri:104-0011434-4639158</title>
<a xlink:href="" onclick="show_data('_ri:104-0011434-4639158');" onmouseover="show_status('data:,_ri:104-0011434-4639158');">
<ellipse cx="965" cy="962" rx="88" ry="18" style="fill:#dca0dd;stroke:#dca0dd"/>
<text text-anchor="middle" x="965" y="966" style="font-family:arial">data:,_ri:104-0011434-4639158</text>
</a></g>
<g id="edge71" class="edge"><title>:_21-&gt;data:,_ri:104-0011434-4639158</title>
<a xlink:href="http://www2.elsevier.co.uk/~tony/1014/yads-schema-2002-04-03#resource" target="_blank" onmouseover="show_status('http://www2.elsevier.co.uk/~tony/1014/yads-schema-2002-04-03#resource');">
<path style="fill:none;stroke:#add9e6" d="M959,890C960,903 961,920 962,935"/>
<polygon style="fill:#add9e6;stroke:#add9e6" points="959,934 963,944 964,934 959,934"/>
<text text-anchor="middle" x="1004" y="921" style="font-family:arial">has:resource</text>
</a></g>
<g id="node77" class="node"><title>:_24</title>
<ellipse cx="1166" cy="872" rx="73" ry="18" style="fill:#eedb82;stroke:#eedb82"/>
<text text-anchor="middle" x="1166" y="876" style="font-family:arial">oboe:descriptor:identifier</text>
</g>
<g id="edge76" class="edge"><title>:_23-&gt;:_24</title>
<a xlink:href="http://www.w3.org/1999/02/22-rdf-syntax-ns#_1" target="_blank" onmouseover="show_status('http://www.w3.org/1999/02/22-rdf-syntax-ns#_1');">
<path style="fill:none;stroke:#add9e6" d="M1164,779C1165,797 1165,824 1166,845"/>
<polygon style="fill:#add9e6;stroke:#add9e6" points="1164,844 1166,854 1169,844 1164,844"/>
<text text-anchor="middle" x="1184" y="816" style="font-family:arial">rdf:_1</text>
</a></g>
<g id="node80" class="node"><title>data:,_ri:addToCart</title>
<a xlink:href="" onclick="show_data('_ri:addToCart');" onmouseover="show_status('data:,_ri:addToCart');">
<ellipse cx="1158" cy="962" rx="60" ry="18" style="fill:#dca0dd;stroke:#dca0dd"/>
<text text-anchor="middle" x="1158" y="966" style="font-family:arial">data:,_ri:addToCart</text>
</a></g>
<g id="edge79" class="edge"><title>:_24-&gt;data:,_ri:addToCart</title>
<a xlink:href="http://www2.elsevier.co.uk/~tony/1014/yads-schema-2002-04-03#resource" target="_blank" onmouseover="show_status('http://www2.elsevier.co.uk/~tony/1014/yads-schema-2002-04-03#resource');">
<path style="fill:none;stroke:#add9e6" d="M1164,890C1163,896 1162,902 1162,908 1161,917 1161,926 1160,934"/>
<polygon style="fill:#add9e6;stroke:#add9e6" points="1158,934 1159,944 1162,934 1158,934"/>
<text text-anchor="middle" x="1203" y="921" style="font-family:arial">has:resource</text>
</a></g>
</g>
</svg>
