<?xml version="1.0" encoding="UTF-8" standalone="no"?>
<!DOCTYPE svg PUBLIC "-//W3C//DTD SVG 1.0//EN"
 "http://www.w3.org/TR/2001/REC-SVG-20010904/DTD/svg10.dtd" [
 <!ATTLIST svg xmlns:xlink CDATA #FIXED "http://www.w3.org/1999/xlink">
]>
<!-- Generated by dot version 1.8.5 (Tue Apr 23 17:19:23  2002)
     For user: (Administrator) ,S-1-5-21-1454471165-688789844-1708537768-500   Title: yads    Pages: 1 -->
<svg width="1066px" height="1069px"
 xmlns="http://www.w3.org/2000/svg" xmlns:xlink="http://www.w3.org/1999/xlink">
<g id="graph0" class="graph" style="font-family:Times-Roman;font-size:11.00">
<title>yads</title>
<text text-anchor="middle" x="533" y="1058" style="font-family:arial;font-size:24.00">YADS - A Description Service</text>
<g id="graph2" class="cluster"><title>cluster_1</title>
<polygon style="fill:none;stroke:#d2d2d2;stroke-dasharray:5,2" points="19,1026 1047,1026 1047,43 19,43 19,1026"/>
<text text-anchor="middle" x="70" y="55" style="font-family:arial">Nest - OpenURL</text>
</g>
<g id="graph3" class="cluster"><title>cluster_3</title>
<polygon style="fill:none;stroke:#d2d2d2;stroke-dasharray:5,2" points="27,1018 1039,1018 1039,238 27,238 27,1018"/>
<text text-anchor="middle" x="68" y="250" style="font-family:arial">Nest - Profile</text>
</g>
<g id="graph4" class="cluster"><title>cluster_5</title>
<polygon style="fill:none;stroke:#d2d2d2;stroke-dasharray:5,2" points="35,795 227,795 227,433 35,433 35,795"/>
<text text-anchor="middle" x="95" y="445" style="font-family:arial">Item - Administration</text>
</g>
<g id="graph5" class="cluster"><title>cluster_7</title>
<polygon style="fill:none;stroke:#d2d2d2;stroke-dasharray:5,2" points="43,787 219,787 219,628 43,628 43,787"/>
<text text-anchor="middle" x="86" y="640" style="font-family:arial">Item - Version</text>
</g>
<g id="graph6" class="cluster"><title>cluster_8</title>
<polygon style="fill:none;stroke:#d2d2d2;stroke-dasharray:5,2" points="235,1010 1031,1010 1031,433 235,433 235,1010"/>
<text text-anchor="middle" x="300" y="445" style="font-family:arial">Item - Context-Object</text>
</g>
<g id="graph7" class="cluster"><title>cluster_10</title>
<polygon style="fill:none;stroke:#d2d2d2;stroke-dasharray:5,2" points="429,1002 607,1002 607,628 429,628 429,1002"/>
<text text-anchor="middle" x="476" y="640" style="font-family:arial">Item - Referent</text>
</g>
<g id="graph8" class="cluster"><title>cluster_12</title>
<polygon style="fill:none;stroke:#d2d2d2;stroke-dasharray:5,2" points="437,994 599,994 599,829 437,829 437,994"/>
<text text-anchor="middle" x="481" y="841" style="font-family:arial">Item - Identifier</text>
</g>
<g id="graph9" class="cluster"><title>cluster_13</title>
<polygon style="fill:none;stroke:#d2d2d2;stroke-dasharray:5,2" points="615,1002 803,1002 803,628 615,628 615,1002"/>
<text text-anchor="middle" x="661" y="640" style="font-family:arial">Item - Referrer</text>
</g>
<g id="graph10" class="cluster"><title>cluster_15</title>
<polygon style="fill:none;stroke:#d2d2d2;stroke-dasharray:5,2" points="623,994 795,994 795,829 623,829 623,994"/>
<text text-anchor="middle" x="667" y="841" style="font-family:arial">Item - Identifier</text>
</g>
<g id="graph11" class="cluster"><title>cluster_16</title>
<polygon style="fill:none;stroke:#d2d2d2;stroke-dasharray:5,2" points="243,906 421,906 421,628 243,628 243,906"/>
<text text-anchor="middle" x="307" y="640" style="font-family:arial">Item - Referring-Entity</text>
</g>
<g id="graph12" class="cluster"><title>cluster_18</title>
<polygon style="fill:none;stroke:#d2d2d2;stroke-dasharray:5,2" points="251,898 413,898 413,829 251,829 251,898"/>
<text text-anchor="middle" x="295" y="841" style="font-family:arial">Item - Identifier</text>
</g>
<g id="graph13" class="cluster"><title>cluster_19</title>
<polygon style="fill:none;stroke:#d2d2d2;stroke-dasharray:5,2" points="811,1002 1023,1002 1023,628 811,628 811,1002"/>
<text text-anchor="middle" x="862" y="640" style="font-family:arial">Item - Requester</text>
</g>
<g id="graph14" class="cluster"><title>cluster_21</title>
<polygon style="fill:none;stroke:#d2d2d2;stroke-dasharray:5,2" points="819,994 1015,994 1015,829 819,829 819,994"/>
<text text-anchor="middle" x="863" y="841" style="font-family:arial">Item - Identifier</text>
</g>
<g id="node2" class="node"><title>:_1</title>
<a xlink:href="http://www2.elsevier.co.uk/~tony/1014/yads-schema-2002-04-03#Nest" target="_blank" onmouseover="show_status('http://www2.elsevier.co.uk/~tony/1014/yads-schema-2002-04-03#Nest');">
<ellipse cx="194" cy="86" rx="29" ry="18" style="fill:#d2d2d2;stroke:#d2d2d2"/>
<text text-anchor="middle" x="194" y="90" style="font-family:arial">isa:Nest</text>
</a></g>
<g id="node4" class="node"><title>:</title>
<ellipse cx="145" cy="176" rx="27" ry="18" style="fill:#dca0dd;stroke:#dca0dd"/>
<text text-anchor="middle" x="145" y="180" style="font-family:arial">:</text>
</g>
<g id="edge3" class="edge"><title>:_1-&gt;:</title>
<a xlink:href="http://www2.elsevier.co.uk/~tony/1014/yads-schema-2002-04-03#resource" target="_blank" onmouseover="show_status('http://www2.elsevier.co.uk/~tony/1014/yads-schema-2002-04-03#resource');">
<path style="fill:none;stroke:#add9e6" d="M177,100C170,107 164,114 159,122 155,130 151,140 149,149"/>
<polygon style="fill:#add9e6;stroke:#add9e6" points="147,148 147,158 152,149 147,148"/>
<text text-anchor="middle" x="203" y="135" style="font-family:arial">has:resource</text>
</a></g>
<g id="node6" class="node"><title>:_2</title>
<a xlink:href="http://www.w3.org/1999/02/22-rdf-syntax-ns#Bag" target="_blank" onmouseover="show_status('http://www.w3.org/1999/02/22-rdf-syntax-ns#Bag');">
<ellipse cx="244" cy="176" rx="28" ry="18" style="fill:#d2d2d2;stroke:#d2d2d2"/>
<text text-anchor="middle" x="244" y="180" style="font-family:arial">rdf:Bag</text>
</a></g>
<g id="edge5" class="edge"><title>:_1-&gt;:_2</title>
<a xlink:href="http://www2.elsevier.co.uk/~tony/1014/yads-schema-2002-04-03#collection" target="_blank" onmouseover="show_status('http://www2.elsevier.co.uk/~tony/1014/yads-schema-2002-04-03#collection');">
<path style="fill:none;stroke:#add9e6" d="M218,97C228,103 239,111 244,122 248,130 249,140 249,149"/>
<polygon style="fill:#add9e6;stroke:#add9e6" points="247,148 248,158 252,148 247,148"/>
<text text-anchor="middle" x="291" y="135" style="font-family:arial">has:collection</text>
</a></g>
<g id="node8" class="node"><title>:_3</title>
<a xlink:href="http://www2.elsevier.co.uk/~tony/1014/yads-schema-2002-04-03#Nest" target="_blank" onmouseover="show_status('http://www2.elsevier.co.uk/~tony/1014/yads-schema-2002-04-03#Nest');">
<ellipse cx="244" cy="281" rx="29" ry="18" style="fill:#d2d2d2;stroke:#d2d2d2"/>
<text text-anchor="middle" x="244" y="285" style="font-family:arial">isa:Nest</text>
</a></g>
<g id="edge7" class="edge"><title>:_2-&gt;:_3</title>
<a xlink:href="http://www.w3.org/1999/02/22-rdf-syntax-ns#_1" target="_blank" onmouseover="show_status('http://www.w3.org/1999/02/22-rdf-syntax-ns#_1');">
<path style="fill:none;stroke:#add9e6" d="M244,194C244,210 244,235 244,254"/>
<polygon style="fill:#add9e6;stroke:#add9e6" points="242,253 244,263 247,253 242,253"/>
<text text-anchor="middle" x="264" y="225" style="font-family:arial">rdf:_1</text>
</a></g>
<g id="node11" class="node"><title>node_1</title>
<polygon style="fill:#6497ed;stroke:#6497ed" points="135,353 81,353 81,389 135,389 135,353"/>
<text text-anchor="middle" x="108" y="375" style="font-family:arial">oboe:</text>
</g>
<g id="edge10" class="edge"><title>:_3-&gt;node_1</title>
<a xlink:href="http://www2.elsevier.co.uk/~tony/1014/yads-schema-2002-04-03#directive" target="_blank" onmouseover="show_status('http://www2.elsevier.co.uk/~tony/1014/yads-schema-2002-04-03#directive');">
<path style="fill:none;stroke:#add9e6" d="M219,290C203,297 181,306 164,317 152,325 140,337 130,347"/>
<polygon style="fill:#add9e6;stroke:#add9e6" points="129,344 124,353 133,348 129,344"/>
<text text-anchor="middle" x="208" y="330" style="font-family:arial">has:directive</text>
</a></g>
<g id="node13" class="node"><title>http://www2.elsevier.co.uk/~t...f</title>
<a xlink:href="http://www2.elsevier.co.uk/~tony/oboe/oboe.rdf" target="_blank" onmouseover="show_status('http://www2.elsevier.co.uk/~tony/oboe/oboe.rdf');">
<ellipse cx="244" cy="371" rx="91" ry="18" style="fill:#dca0dd;stroke:#dca0dd"/>
<text text-anchor="middle" x="244" y="375" style="font-family:arial">http://www2.elsevier.co.uk/~t...f</text>
</a></g>
<g id="edge12" class="edge"><title>:_3-&gt;http://www2.elsevier.co.uk/~t...f</title>
<a xlink:href="http://www2.elsevier.co.uk/~tony/1014/yads-schema-2002-04-03#resource" target="_blank" onmouseover="show_status('http://www2.elsevier.co.uk/~tony/1014/yads-schema-2002-04-03#resource');">
<path style="fill:none;stroke:#add9e6" d="M244,299C244,312 244,329 244,344"/>
<polygon style="fill:#add9e6;stroke:#add9e6" points="242,343 244,353 247,343 242,343"/>
<text text-anchor="middle" x="285" y="330" style="font-family:arial">has:resource</text>
</a></g>
<g id="node15" class="node"><title>:_4</title>
<a xlink:href="http://www.w3.org/1999/02/22-rdf-syntax-ns#Bag" target="_blank" onmouseover="show_status('http://www.w3.org/1999/02/22-rdf-syntax-ns#Bag');">
<ellipse cx="381" cy="371" rx="28" ry="18" style="fill:#d2d2d2;stroke:#d2d2d2"/>
<text text-anchor="middle" x="381" y="375" style="font-family:arial">rdf:Bag</text>
</a></g>
<g id="edge14" class="edge"><title>:_3-&gt;:_4</title>
<a xlink:href="http://www2.elsevier.co.uk/~tony/1014/yads-schema-2002-04-03#collection" target="_blank" onmouseover="show_status('http://www2.elsevier.co.uk/~tony/1014/yads-schema-2002-04-03#collection');">
<path style="fill:none;stroke:#add9e6" d="M270,289C288,295 311,305 329,317 342,326 354,338 363,348"/>
<polygon style="fill:#add9e6;stroke:#add9e6" points="360,348 368,355 364,345 360,348"/>
<text text-anchor="middle" x="392" y="330" style="font-family:arial">has:collection</text>
</a></g>
<g id="node17" class="node"><title>:_5</title>
<ellipse cx="145" cy="476" rx="60" ry="18" style="fill:#eedb82;stroke:#eedb82"/>
<text text-anchor="middle" x="145" y="480" style="font-family:arial">oboe:administration</text>
</g>
<g id="edge16" class="edge"><title>:_4-&gt;:_5</title>
<a xlink:href="http://www.w3.org/1999/02/22-rdf-syntax-ns#_1" target="_blank" onmouseover="show_status('http://www.w3.org/1999/02/22-rdf-syntax-ns#_1');">
<path style="fill:none;stroke:#add9e6" d="M359,382C354,385 349,387 344,389 295,411 281,412 231,433 215,441 198,449 183,456"/>
<polygon style="fill:#add9e6;stroke:#add9e6" points="183,453 175,460 185,458 183,453"/>
<text text-anchor="middle" x="328" y="420" style="font-family:arial">rdf:_1</text>
</a></g>
<g id="node19" class="node"><title>:_8</title>
<ellipse cx="415" cy="476" rx="44" ry="18" style="fill:#eedb82;stroke:#eedb82"/>
<text text-anchor="middle" x="415" y="480" style="font-family:arial">oboe:context</text>
</g>
<g id="edge18" class="edge"><title>:_4-&gt;:_8</title>
<a xlink:href="http://www.w3.org/1999/02/22-rdf-syntax-ns#_2" target="_blank" onmouseover="show_status('http://www.w3.org/1999/02/22-rdf-syntax-ns#_2');">
<path style="fill:none;stroke:#add9e6" d="M387,389C392,405 400,431 406,450"/>
<polygon style="fill:#add9e6;stroke:#add9e6" points="403,450 409,458 408,448 403,450"/>
<text text-anchor="middle" x="420" y="420" style="font-family:arial">rdf:_2</text>
</a></g>
<g id="node22" class="node"><title>:_6</title>
<a xlink:href="http://www.w3.org/1999/02/22-rdf-syntax-ns#Bag" target="_blank" onmouseover="show_status('http://www.w3.org/1999/02/22-rdf-syntax-ns#Bag');">
<ellipse cx="134" cy="566" rx="28" ry="18" style="fill:#d2d2d2;stroke:#d2d2d2"/>
<text text-anchor="middle" x="134" y="570" style="font-family:arial">rdf:Bag</text>
</a></g>
<g id="edge21" class="edge"><title>:_5-&gt;:_6</title>
<a xlink:href="http://www2.elsevier.co.uk/~tony/1014/yads-schema-2002-04-03#collection" target="_blank" onmouseover="show_status('http://www2.elsevier.co.uk/~tony/1014/yads-schema-2002-04-03#collection');">
<path style="fill:none;stroke:#add9e6" d="M143,494C141,507 139,524 137,539"/>
<polygon style="fill:#add9e6;stroke:#add9e6" points="135,538 136,548 140,538 135,538"/>
<text text-anchor="middle" x="183" y="525" style="font-family:arial">has:collection</text>
</a></g>
<g id="node30" class="node"><title>:_9</title>
<a xlink:href="http://www.w3.org/1999/02/22-rdf-syntax-ns#Bag" target="_blank" onmouseover="show_status('http://www.w3.org/1999/02/22-rdf-syntax-ns#Bag');">
<ellipse cx="518" cy="566" rx="28" ry="18" style="fill:#d2d2d2;stroke:#d2d2d2"/>
<text text-anchor="middle" x="518" y="570" style="font-family:arial">rdf:Bag</text>
</a></g>
<g id="edge29" class="edge"><title>:_8-&gt;:_9</title>
<a xlink:href="http://www2.elsevier.co.uk/~tony/1014/yads-schema-2002-04-03#collection" target="_blank" onmouseover="show_status('http://www2.elsevier.co.uk/~tony/1014/yads-schema-2002-04-03#collection');">
<path style="fill:none;stroke:#add9e6" d="M434,493C451,507 476,529 494,545"/>
<polygon style="fill:#add9e6;stroke:#add9e6" points="492,546 501,551 495,543 492,546"/>
<text text-anchor="middle" x="518" y="525" style="font-family:arial">has:collection</text>
</a></g>
<g id="node24" class="node"><title>:_7</title>
<ellipse cx="131" cy="671" rx="80" ry="18" style="fill:#eedb82;stroke:#eedb82"/>
<text text-anchor="middle" x="131" y="675" style="font-family:arial">oboe:administration:version</text>
</g>
<g id="edge23" class="edge"><title>:_6-&gt;:_7</title>
<a xlink:href="http://www.w3.org/1999/02/22-rdf-syntax-ns#_1" target="_blank" onmouseover="show_status('http://www.w3.org/1999/02/22-rdf-syntax-ns#_1');">
<path style="fill:none;stroke:#add9e6" d="M133,584C133,600 132,625 132,644"/>
<polygon style="fill:#add9e6;stroke:#add9e6" points="130,643 132,653 135,643 130,643"/>
<text text-anchor="middle" x="154" y="615" style="font-family:arial">rdf:_1</text>
</a></g>
<g id="node27" class="node"><title>data:,Z39.00-00</title>
<a xlink:href="" onclick="show_data('Z39.00-00');" onmouseover="show_status('data:,Z39.00-00');">
<ellipse cx="130" cy="761" rx="50" ry="18" style="fill:#dca0dd;stroke:#dca0dd"/>
<text text-anchor="middle" x="130" y="765" style="font-family:arial">data:,Z39.00-00</text>
</a></g>
<g id="edge26" class="edge"><title>:_7-&gt;data:,Z39.00-00</title>
<a xlink:href="http://www2.elsevier.co.uk/~tony/1014/yads-schema-2002-04-03#resource" target="_blank" onmouseover="show_status('http://www2.elsevier.co.uk/~tony/1014/yads-schema-2002-04-03#resource');">
<path style="fill:none;stroke:#add9e6" d="M131,689C131,702 131,719 130,734"/>
<polygon style="fill:#add9e6;stroke:#add9e6" points="128,733 130,743 133,733 128,733"/>
<text text-anchor="middle" x="172" y="720" style="font-family:arial">has:resource</text>
</a></g>
<g id="node32" class="node"><title>:_10</title>
<ellipse cx="518" cy="671" rx="60" ry="18" style="fill:#eedb82;stroke:#eedb82"/>
<text text-anchor="middle" x="518" y="675" style="font-family:arial">oboe:entity:referent</text>
</g>
<g id="edge31" class="edge"><title>:_9-&gt;:_10</title>
<a xlink:href="http://www.w3.org/1999/02/22-rdf-syntax-ns#_1" target="_blank" onmouseover="show_status('http://www.w3.org/1999/02/22-rdf-syntax-ns#_1');">
<path style="fill:none;stroke:#add9e6" d="M518,584C518,600 518,625 518,644"/>
<polygon style="fill:#add9e6;stroke:#add9e6" points="516,643 518,653 521,643 516,643"/>
<text text-anchor="middle" x="538" y="615" style="font-family:arial">rdf:_1</text>
</a></g>
<g id="node34" class="node"><title>:_13</title>
<ellipse cx="693" cy="671" rx="59" ry="18" style="fill:#eedb82;stroke:#eedb82"/>
<text text-anchor="middle" x="693" y="675" style="font-family:arial">oboe:entity:referrer</text>
</g>
<g id="edge33" class="edge"><title>:_9-&gt;:_13</title>
<a xlink:href="http://www.w3.org/1999/02/22-rdf-syntax-ns#_2" target="_blank" onmouseover="show_status('http://www.w3.org/1999/02/22-rdf-syntax-ns#_2');">
<path style="fill:none;stroke:#add9e6" d="M539,578C569,596 623,629 659,651"/>
<polygon style="fill:#add9e6;stroke:#add9e6" points="656,652 666,655 659,648 656,652"/>
<text text-anchor="middle" x="629" y="615" style="font-family:arial">rdf:_2</text>
</a></g>
<g id="node36" class="node"><title>:_16</title>
<ellipse cx="334" cy="671" rx="78" ry="18" style="fill:#eedb82;stroke:#eedb82"/>
<text text-anchor="middle" x="334" y="675" style="font-family:arial">oboe:entity:referring-entity</text>
</g>
<g id="edge35" class="edge"><title>:_9-&gt;:_16</title>
<a xlink:href="http://www.w3.org/1999/02/22-rdf-syntax-ns#_3" target="_blank" onmouseover="show_status('http://www.w3.org/1999/02/22-rdf-syntax-ns#_3');">
<path style="fill:none;stroke:#add9e6" d="M497,578C466,596 409,628 372,650"/>
<polygon style="fill:#add9e6;stroke:#add9e6" points="372,647 364,654 374,652 372,647"/>
<text text-anchor="middle" x="479" y="615" style="font-family:arial">rdf:_3</text>
</a></g>
<g id="node38" class="node"><title>:_19</title>
<ellipse cx="896" cy="671" rx="65" ry="18" style="fill:#eedb82;stroke:#eedb82"/>
<text text-anchor="middle" x="896" y="675" style="font-family:arial">oboe:entity:requester</text>
</g>
<g id="edge37" class="edge"><title>:_9-&gt;:_19</title>
<a xlink:href="http://www.w3.org/1999/02/22-rdf-syntax-ns#_4" target="_blank" onmouseover="show_status('http://www.w3.org/1999/02/22-rdf-syntax-ns#_4');">
<path style="fill:none;stroke:#add9e6" d="M546,569C661,588 694,589 807,628 824,634 842,643 858,651"/>
<polygon style="fill:#add9e6;stroke:#add9e6" points="856,653 866,655 858,648 856,653"/>
<text text-anchor="middle" x="802" y="615" style="font-family:arial">rdf:_4</text>
</a></g>
<g id="node41" class="node"><title>:_11</title>
<a xlink:href="http://www.w3.org/1999/02/22-rdf-syntax-ns#Bag" target="_blank" onmouseover="show_status('http://www.w3.org/1999/02/22-rdf-syntax-ns#Bag');">
<ellipse cx="518" cy="761" rx="28" ry="18" style="fill:#d2d2d2;stroke:#d2d2d2"/>
<text text-anchor="middle" x="518" y="765" style="font-family:arial">rdf:Bag</text>
</a></g>
<g id="edge40" class="edge"><title>:_10-&gt;:_11</title>
<a xlink:href="http://www2.elsevier.co.uk/~tony/1014/yads-schema-2002-04-03#collection" target="_blank" onmouseover="show_status('http://www2.elsevier.co.uk/~tony/1014/yads-schema-2002-04-03#collection');">
<path style="fill:none;stroke:#add9e6" d="M518,689C518,702 518,719 518,734"/>
<polygon style="fill:#add9e6;stroke:#add9e6" points="516,733 518,743 521,733 516,733"/>
<text text-anchor="middle" x="559" y="720" style="font-family:arial">has:collection</text>
</a></g>
<g id="node49" class="node"><title>:_14</title>
<a xlink:href="http://www.w3.org/1999/02/22-rdf-syntax-ns#Bag" target="_blank" onmouseover="show_status('http://www.w3.org/1999/02/22-rdf-syntax-ns#Bag');">
<ellipse cx="702" cy="761" rx="28" ry="18" style="fill:#d2d2d2;stroke:#d2d2d2"/>
<text text-anchor="middle" x="702" y="765" style="font-family:arial">rdf:Bag</text>
</a></g>
<g id="edge48" class="edge"><title>:_13-&gt;:_14</title>
<a xlink:href="http://www2.elsevier.co.uk/~tony/1014/yads-schema-2002-04-03#collection" target="_blank" onmouseover="show_status('http://www2.elsevier.co.uk/~tony/1014/yads-schema-2002-04-03#collection');">
<path style="fill:none;stroke:#add9e6" d="M695,689C696,702 697,719 699,734"/>
<polygon style="fill:#add9e6;stroke:#add9e6" points="696,733 700,743 701,733 696,733"/>
<text text-anchor="middle" x="741" y="720" style="font-family:arial">has:collection</text>
</a></g>
<g id="node57" class="node"><title>:_17</title>
<a xlink:href="http://www.w3.org/1999/02/22-rdf-syntax-ns#Bag" target="_blank" onmouseover="show_status('http://www.w3.org/1999/02/22-rdf-syntax-ns#Bag');">
<ellipse cx="332" cy="761" rx="28" ry="18" style="fill:#d2d2d2;stroke:#d2d2d2"/>
<text text-anchor="middle" x="332" y="765" style="font-family:arial">rdf:Bag</text>
</a></g>
<g id="edge56" class="edge"><title>:_16-&gt;:_17</title>
<a xlink:href="http://www2.elsevier.co.uk/~tony/1014/yads-schema-2002-04-03#collection" target="_blank" onmouseover="show_status('http://www2.elsevier.co.uk/~tony/1014/yads-schema-2002-04-03#collection');">
<path style="fill:none;stroke:#add9e6" d="M334,689C333,702 333,719 332,734"/>
<polygon style="fill:#add9e6;stroke:#add9e6" points="330,733 332,743 335,733 330,733"/>
<text text-anchor="middle" x="375" y="720" style="font-family:arial">has:collection</text>
</a></g>
<g id="node64" class="node"><title>:_20</title>
<a xlink:href="http://www.w3.org/1999/02/22-rdf-syntax-ns#Bag" target="_blank" onmouseover="show_status('http://www.w3.org/1999/02/22-rdf-syntax-ns#Bag');">
<ellipse cx="905" cy="761" rx="28" ry="18" style="fill:#d2d2d2;stroke:#d2d2d2"/>
<text text-anchor="middle" x="905" y="765" style="font-family:arial">rdf:Bag</text>
</a></g>
<g id="edge64" class="edge"><title>:_19-&gt;:_20</title>
<a xlink:href="http://www2.elsevier.co.uk/~tony/1014/yads-schema-2002-04-03#collection" target="_blank" onmouseover="show_status('http://www2.elsevier.co.uk/~tony/1014/yads-schema-2002-04-03#collection');">
<path style="fill:none;stroke:#add9e6" d="M898,689C899,702 900,719 902,734"/>
<polygon style="fill:#add9e6;stroke:#add9e6" points="899,733 903,743 904,733 899,733"/>
<text text-anchor="middle" x="941" y="720" style="font-family:arial">has:collection</text>
</a></g>
<g id="node43" class="node"><title>:_12</title>
<ellipse cx="518" cy="872" rx="73" ry="18" style="fill:#eedb82;stroke:#eedb82"/>
<text text-anchor="middle" x="518" y="876" style="font-family:arial">oboe:descriptor:identifier</text>
</g>
<g id="edge42" class="edge"><title>:_11-&gt;:_12</title>
<a xlink:href="http://www.w3.org/1999/02/22-rdf-syntax-ns#_1" target="_blank" onmouseover="show_status('http://www.w3.org/1999/02/22-rdf-syntax-ns#_1');">
<path style="fill:none;stroke:#add9e6" d="M518,779C518,797 518,824 518,845"/>
<polygon style="fill:#add9e6;stroke:#add9e6" points="516,844 518,854 521,844 516,844"/>
<text text-anchor="middle" x="538" y="816" style="font-family:arial">rdf:_1</text>
</a></g>
<g id="node46" class="node"><title>data:,ori:pmid:11823195</title>
<a xlink:href="" onclick="show_data('ori:pmid:11823195');" onmouseover="show_status('data:,ori:pmid:11823195');">
<ellipse cx="511" cy="968" rx="66" ry="18" style="fill:#dca0dd;stroke:#dca0dd"/>
<text text-anchor="middle" x="511" y="972" style="font-family:arial">data:,ori:pmid:11823195</text>
</a></g>
<g id="edge45" class="edge"><title>:_12-&gt;data:,ori:pmid:11823195</title>
<a xlink:href="http://www2.elsevier.co.uk/~tony/1014/yads-schema-2002-04-03#resource" target="_blank" onmouseover="show_status('http://www2.elsevier.co.uk/~tony/1014/yads-schema-2002-04-03#resource');">
<path style="fill:none;stroke:#add9e6" d="M517,890C516,904 515,925 513,941"/>
<polygon style="fill:#add9e6;stroke:#add9e6" points="511,940 512,950 516,940 511,940"/>
<text text-anchor="middle" x="557" y="927" style="font-family:arial">has:resource</text>
</a></g>
<g id="node51" class="node"><title>:_15</title>
<ellipse cx="705" cy="872" rx="73" ry="18" style="fill:#eedb82;stroke:#eedb82"/>
<text text-anchor="middle" x="705" y="876" style="font-family:arial">oboe:descriptor:identifier</text>
</g>
<g id="edge50" class="edge"><title>:_14-&gt;:_15</title>
<a xlink:href="http://www.w3.org/1999/02/22-rdf-syntax-ns#_1" target="_blank" onmouseover="show_status('http://www.w3.org/1999/02/22-rdf-syntax-ns#_1');">
<path style="fill:none;stroke:#add9e6" d="M702,779C703,797 704,824 704,845"/>
<polygon style="fill:#add9e6;stroke:#add9e6" points="702,844 704,854 707,844 702,844"/>
<text text-anchor="middle" x="725" y="816" style="font-family:arial">rdf:_1</text>
</a></g>
<g id="node54" class="node"><title>data:,ori:dbid:ncbi.nlm.nih.g...d</title>
<a xlink:href="" onclick="show_data('ori:dbid:ncbi.nlm.nih.gov:pubmed');" onmouseover="show_status('data:,ori:dbid:ncbi.nlm.nih.gov:pubmed');">
<ellipse cx="709" cy="968" rx="78" ry="18" style="fill:#dca0dd;stroke:#dca0dd"/>
<text text-anchor="middle" x="709" y="972" style="font-family:arial">data:,ori:dbid:ncbi.nlm.nih.g...d</text>
</a></g>
<g id="edge53" class="edge"><title>:_15-&gt;data:,ori:dbid:ncbi.nlm.nih.g...d</title>
<a xlink:href="http://www2.elsevier.co.uk/~tony/1014/yads-schema-2002-04-03#resource" target="_blank" onmouseover="show_status('http://www2.elsevier.co.uk/~tony/1014/yads-schema-2002-04-03#resource');">
<path style="fill:none;stroke:#add9e6" d="M706,890C707,904 708,925 708,941"/>
<polygon style="fill:#add9e6;stroke:#add9e6" points="706,940 708,950 711,940 706,940"/>
<text text-anchor="middle" x="750" y="927" style="font-family:arial">has:resource</text>
</a></g>
<g id="node59" class="node"><title>:_18</title>
<ellipse cx="332" cy="872" rx="73" ry="18" style="fill:#eedb82;stroke:#eedb82"/>
<text text-anchor="middle" x="332" y="876" style="font-family:arial">oboe:descriptor:identifier</text>
</g>
<g id="edge58" class="edge"><title>:_17-&gt;:_18</title>
<a xlink:href="http://www.w3.org/1999/02/22-rdf-syntax-ns#_1" target="_blank" onmouseover="show_status('http://www.w3.org/1999/02/22-rdf-syntax-ns#_1');">
<path style="fill:none;stroke:#add9e6" d="M332,779C332,797 332,824 332,845"/>
<polygon style="fill:#add9e6;stroke:#add9e6" points="330,844 332,854 335,844 330,844"/>
<text text-anchor="middle" x="352" y="816" style="font-family:arial">rdf:_1</text>
</a></g>
<g id="edge61" class="edge"><title>:_18-&gt;data:,ori:pmid:11823195</title>
<a xlink:href="http://www2.elsevier.co.uk/~tony/1014/yads-schema-2002-04-03#resource" target="_blank" onmouseover="show_status('http://www2.elsevier.co.uk/~tony/1014/yads-schema-2002-04-03#resource');">
<path style="fill:none;stroke:#add9e6" d="M357,889C377,902 405,919 430,932 441,938 454,944 465,949"/>
<polygon style="fill:#add9e6;stroke:#add9e6" points="464,951 474,953 466,947 464,951"/>
<text text-anchor="middle" x="471" y="927" style="font-family:arial">has:resource</text>
</a></g>
<g id="node66" class="node"><title>:_21</title>
<ellipse cx="908" cy="872" rx="73" ry="18" style="fill:#eedb82;stroke:#eedb82"/>
<text text-anchor="middle" x="908" y="876" style="font-family:arial">oboe:descriptor:identifier</text>
</g>
<g id="edge66" class="edge"><title>:_20-&gt;:_21</title>
<a xlink:href="http://www.w3.org/1999/02/22-rdf-syntax-ns#_1" target="_blank" onmouseover="show_status('http://www.w3.org/1999/02/22-rdf-syntax-ns#_1');">
<path style="fill:none;stroke:#add9e6" d="M905,779C906,797 907,824 907,845"/>
<polygon style="fill:#add9e6;stroke:#add9e6" points="905,844 907,854 910,844 905,844"/>
<text text-anchor="middle" x="926" y="816" style="font-family:arial">rdf:_1</text>
</a></g>
<g id="node69" class="node"><title>data:,uri:mailto:joe.doe@grea...g</title>
<a xlink:href="" onclick="show_data('uri:mailto:joe.doe@greatjob.org');" onmouseover="show_status('data:,uri:mailto:joe.doe@greatjob.org');">
<ellipse cx="917" cy="968" rx="90" ry="18" style="fill:#dca0dd;stroke:#dca0dd"/>
<text text-anchor="middle" x="917" y="972" style="font-family:arial">data:,uri:mailto:joe.doe@grea...g</text>
</a></g>
<g id="edge69" class="edge"><title>:_21-&gt;data:,uri:mailto:joe.doe@grea...g</title>
<a xlink:href="http://www2.elsevier.co.uk/~tony/1014/yads-schema-2002-04-03#resource" target="_blank" onmouseover="show_status('http://www2.elsevier.co.uk/~tony/1014/yads-schema-2002-04-03#resource');">
<path style="fill:none;stroke:#add9e6" d="M910,890C911,904 913,925 914,941"/>
<polygon style="fill:#add9e6;stroke:#add9e6" points="911,940 915,950 916,940 911,940"/>
<text text-anchor="middle" x="953" y="927" style="font-family:arial">has:resource</text>
</a></g>
</g>
</svg>
