<?xml version="1.0" encoding="UTF-8" standalone="no"?>
<!DOCTYPE svg PUBLIC "-//W3C//DTD SVG 1.0//EN"
 "http://www.w3.org/TR/2001/REC-SVG-20010904/DTD/svg10.dtd" [
 <!ATTLIST svg xmlns:xlink CDATA #FIXED "http://www.w3.org/1999/xlink">
]>
<!-- Generated by dot version 1.8.5 (Tue Apr 23 17:19:23  2002)
     For user: (Administrator) ,S-1-5-21-1454471165-688789844-1708537768-500   Title: yads    Pages: 1 -->
<svg width="1136px" height="1266px"
 xmlns="http://www.w3.org/2000/svg" xmlns:xlink="http://www.w3.org/1999/xlink">
<g id="graph0" class="graph" style="font-family:Times-Roman;font-size:11.00">
<title>yads</title>
<text text-anchor="middle" x="568" y="1255" style="font-family:arial;font-size:24.00">YADS - A Description Service</text>
<g id="graph2" class="cluster"><title>cluster_1</title>
<polygon style="fill:none;stroke:#d2d2d2;stroke-dasharray:5,2" points="19,1223 1117,1223 1117,43 19,43 19,1223"/>
<text text-anchor="middle" x="70" y="55" style="font-family:arial">Nest - OpenURL</text>
</g>
<g id="graph3" class="cluster"><title>cluster_3</title>
<polygon style="fill:none;stroke:#d2d2d2;stroke-dasharray:5,2" points="27,1215 1109,1215 1109,238 27,238 27,1215"/>
<text text-anchor="middle" x="68" y="250" style="font-family:arial">Nest - Profile</text>
</g>
<g id="graph4" class="cluster"><title>cluster_5</title>
<polygon style="fill:none;stroke:#d2d2d2;stroke-dasharray:5,2" points="35,795 227,795 227,433 35,433 35,795"/>
<text text-anchor="middle" x="95" y="445" style="font-family:arial">Item - Administration</text>
</g>
<g id="graph5" class="cluster"><title>cluster_7</title>
<polygon style="fill:none;stroke:#d2d2d2;stroke-dasharray:5,2" points="43,787 219,787 219,628 43,628 43,787"/>
<text text-anchor="middle" x="86" y="640" style="font-family:arial">Item - Version</text>
</g>
<g id="graph6" class="cluster"><title>cluster_8</title>
<polygon style="fill:none;stroke:#d2d2d2;stroke-dasharray:5,2" points="235,1207 1101,1207 1101,433 235,433 235,1207"/>
<text text-anchor="middle" x="300" y="445" style="font-family:arial">Item - Context-Object</text>
</g>
<g id="graph7" class="cluster"><title>cluster_10</title>
<polygon style="fill:none;stroke:#d2d2d2;stroke-dasharray:5,2" points="243,1199 1093,1199 1093,628 243,628 243,1199"/>
<text text-anchor="middle" x="290" y="640" style="font-family:arial">Item - Referent</text>
</g>
<g id="graph8" class="cluster"><title>cluster_12</title>
<polygon style="fill:none;stroke:#d2d2d2;stroke-dasharray:5,2" points="251,988 413,988 413,829 251,829 251,988"/>
<text text-anchor="middle" x="295" y="841" style="font-family:arial">Item - Identifier</text>
</g>
<g id="graph9" class="cluster"><title>cluster_13</title>
<polygon style="fill:none;stroke:#d2d2d2;stroke-dasharray:5,2" points="421,1191 1085,1191 1085,829 421,829 421,1191"/>
<text text-anchor="middle" x="491" y="841" style="font-family:arial">Nest - Metadata-By-Val</text>
</g>
<g id="graph10" class="cluster"><title>cluster_15</title>
<polygon style="fill:none;stroke:#d2d2d2;stroke-dasharray:5,2" points="429,1183 535,1183 535,1024 429,1024 429,1183"/>
<text text-anchor="middle" x="445" y="1036" style="font-family:arial">Item</text>
</g>
<g id="graph11" class="cluster"><title>cluster_16</title>
<polygon style="fill:none;stroke:#d2d2d2;stroke-dasharray:5,2" points="543,1183 761,1183 761,1024 543,1024 543,1183"/>
<text text-anchor="middle" x="559" y="1036" style="font-family:arial">Item</text>
</g>
<g id="graph12" class="cluster"><title>cluster_17</title>
<polygon style="fill:none;stroke:#d2d2d2;stroke-dasharray:5,2" points="769,1183 866,1183 866,1024 769,1024 769,1183"/>
<text text-anchor="middle" x="785" y="1036" style="font-family:arial">Item</text>
</g>
<g id="graph13" class="cluster"><title>cluster_18</title>
<polygon style="fill:none;stroke:#d2d2d2;stroke-dasharray:5,2" points="874,1183 971,1183 971,1024 874,1024 874,1183"/>
<text text-anchor="middle" x="890" y="1036" style="font-family:arial">Item</text>
</g>
<g id="graph14" class="cluster"><title>cluster_19</title>
<polygon style="fill:none;stroke:#d2d2d2;stroke-dasharray:5,2" points="979,1183 1077,1183 1077,1024 979,1024 979,1183"/>
<text text-anchor="middle" x="995" y="1036" style="font-family:arial">Item</text>
</g>
<g id="node2" class="node"><title>:_1</title>
<a xlink:href="http://www2.elsevier.co.uk/~tony/1014/yads-schema-2002-04-03#Nest" target="_blank" onmouseover="show_status('http://www2.elsevier.co.uk/~tony/1014/yads-schema-2002-04-03#Nest');">
<ellipse cx="148" cy="86" rx="29" ry="18" style="fill:#d2d2d2;stroke:#d2d2d2"/>
<text text-anchor="middle" x="148" y="90" style="font-family:arial">isa:Nest</text>
</a></g>
<g id="node4" class="node"><title>:</title>
<ellipse cx="99" cy="176" rx="27" ry="18" style="fill:#dca0dd;stroke:#dca0dd"/>
<text text-anchor="middle" x="99" y="180" style="font-family:arial">:</text>
</g>
<g id="edge3" class="edge"><title>:_1-&gt;:</title>
<a xlink:href="http://www2.elsevier.co.uk/~tony/1014/yads-schema-2002-04-03#resource" target="_blank" onmouseover="show_status('http://www2.elsevier.co.uk/~tony/1014/yads-schema-2002-04-03#resource');">
<path style="fill:none;stroke:#add9e6" d="M131,100C124,107 118,114 113,122 109,130 105,140 103,149"/>
<polygon style="fill:#add9e6;stroke:#add9e6" points="101,148 101,158 106,149 101,148"/>
<text text-anchor="middle" x="157" y="135" style="font-family:arial">has:resource</text>
</a></g>
<g id="node6" class="node"><title>:_2</title>
<a xlink:href="http://www.w3.org/1999/02/22-rdf-syntax-ns#Bag" target="_blank" onmouseover="show_status('http://www.w3.org/1999/02/22-rdf-syntax-ns#Bag');">
<ellipse cx="198" cy="176" rx="28" ry="18" style="fill:#d2d2d2;stroke:#d2d2d2"/>
<text text-anchor="middle" x="198" y="180" style="font-family:arial">rdf:Bag</text>
</a></g>
<g id="edge5" class="edge"><title>:_1-&gt;:_2</title>
<a xlink:href="http://www2.elsevier.co.uk/~tony/1014/yads-schema-2002-04-03#collection" target="_blank" onmouseover="show_status('http://www2.elsevier.co.uk/~tony/1014/yads-schema-2002-04-03#collection');">
<path style="fill:none;stroke:#add9e6" d="M172,97C182,103 193,111 198,122 202,130 203,140 203,149"/>
<polygon style="fill:#add9e6;stroke:#add9e6" points="201,148 202,158 206,148 201,148"/>
<text text-anchor="middle" x="245" y="135" style="font-family:arial">has:collection</text>
</a></g>
<g id="node8" class="node"><title>:_3</title>
<a xlink:href="http://www2.elsevier.co.uk/~tony/1014/yads-schema-2002-04-03#Nest" target="_blank" onmouseover="show_status('http://www2.elsevier.co.uk/~tony/1014/yads-schema-2002-04-03#Nest');">
<ellipse cx="198" cy="281" rx="29" ry="18" style="fill:#d2d2d2;stroke:#d2d2d2"/>
<text text-anchor="middle" x="198" y="285" style="font-family:arial">isa:Nest</text>
</a></g>
<g id="edge7" class="edge"><title>:_2-&gt;:_3</title>
<a xlink:href="http://www.w3.org/1999/02/22-rdf-syntax-ns#_1" target="_blank" onmouseover="show_status('http://www.w3.org/1999/02/22-rdf-syntax-ns#_1');">
<path style="fill:none;stroke:#add9e6" d="M198,194C198,210 198,235 198,254"/>
<polygon style="fill:#add9e6;stroke:#add9e6" points="196,253 198,263 201,253 196,253"/>
<text text-anchor="middle" x="218" y="225" style="font-family:arial">rdf:_1</text>
</a></g>
<g id="node11" class="node"><title>node_1</title>
<polygon style="fill:#6497ed;stroke:#6497ed" points="89,353 35,353 35,389 89,389 89,353"/>
<text text-anchor="middle" x="62" y="375" style="font-family:arial">oboe:</text>
</g>
<g id="edge10" class="edge"><title>:_3-&gt;node_1</title>
<a xlink:href="http://www2.elsevier.co.uk/~tony/1014/yads-schema-2002-04-03#directive" target="_blank" onmouseover="show_status('http://www2.elsevier.co.uk/~tony/1014/yads-schema-2002-04-03#directive');">
<path style="fill:none;stroke:#add9e6" d="M173,290C157,297 135,306 118,317 106,325 94,337 84,347"/>
<polygon style="fill:#add9e6;stroke:#add9e6" points="83,344 78,353 87,348 83,344"/>
<text text-anchor="middle" x="162" y="330" style="font-family:arial">has:directive</text>
</a></g>
<g id="node13" class="node"><title>http://www2.elsevier.co.uk/~t...f</title>
<a xlink:href="http://www2.elsevier.co.uk/~tony/oboe/oboe.rdf" target="_blank" onmouseover="show_status('http://www2.elsevier.co.uk/~tony/oboe/oboe.rdf');">
<ellipse cx="198" cy="371" rx="91" ry="18" style="fill:#dca0dd;stroke:#dca0dd"/>
<text text-anchor="middle" x="198" y="375" style="font-family:arial">http://www2.elsevier.co.uk/~t...f</text>
</a></g>
<g id="edge12" class="edge"><title>:_3-&gt;http://www2.elsevier.co.uk/~t...f</title>
<a xlink:href="http://www2.elsevier.co.uk/~tony/1014/yads-schema-2002-04-03#resource" target="_blank" onmouseover="show_status('http://www2.elsevier.co.uk/~tony/1014/yads-schema-2002-04-03#resource');">
<path style="fill:none;stroke:#add9e6" d="M198,299C198,312 198,329 198,344"/>
<polygon style="fill:#add9e6;stroke:#add9e6" points="196,343 198,353 201,343 196,343"/>
<text text-anchor="middle" x="239" y="330" style="font-family:arial">has:resource</text>
</a></g>
<g id="node15" class="node"><title>:_4</title>
<a xlink:href="http://www.w3.org/1999/02/22-rdf-syntax-ns#Bag" target="_blank" onmouseover="show_status('http://www.w3.org/1999/02/22-rdf-syntax-ns#Bag');">
<ellipse cx="335" cy="371" rx="28" ry="18" style="fill:#d2d2d2;stroke:#d2d2d2"/>
<text text-anchor="middle" x="335" y="375" style="font-family:arial">rdf:Bag</text>
</a></g>
<g id="edge14" class="edge"><title>:_3-&gt;:_4</title>
<a xlink:href="http://www2.elsevier.co.uk/~tony/1014/yads-schema-2002-04-03#collection" target="_blank" onmouseover="show_status('http://www2.elsevier.co.uk/~tony/1014/yads-schema-2002-04-03#collection');">
<path style="fill:none;stroke:#add9e6" d="M224,289C242,295 265,305 283,317 296,326 308,338 317,348"/>
<polygon style="fill:#add9e6;stroke:#add9e6" points="314,348 322,355 318,345 314,348"/>
<text text-anchor="middle" x="346" y="330" style="font-family:arial">has:collection</text>
</a></g>
<g id="node17" class="node"><title>:_5</title>
<ellipse cx="145" cy="476" rx="60" ry="18" style="fill:#eedb82;stroke:#eedb82"/>
<text text-anchor="middle" x="145" y="480" style="font-family:arial">oboe:administration</text>
</g>
<g id="edge16" class="edge"><title>:_4-&gt;:_5</title>
<a xlink:href="http://www.w3.org/1999/02/22-rdf-syntax-ns#_1" target="_blank" onmouseover="show_status('http://www.w3.org/1999/02/22-rdf-syntax-ns#_1');">
<path style="fill:none;stroke:#add9e6" d="M314,383C282,401 221,434 182,456"/>
<polygon style="fill:#add9e6;stroke:#add9e6" points="182,453 174,460 184,458 182,453"/>
<text text-anchor="middle" x="293" y="420" style="font-family:arial">rdf:_1</text>
</a></g>
<g id="node19" class="node"><title>:_8</title>
<ellipse cx="335" cy="476" rx="44" ry="18" style="fill:#eedb82;stroke:#eedb82"/>
<text text-anchor="middle" x="335" y="480" style="font-family:arial">oboe:context</text>
</g>
<g id="edge18" class="edge"><title>:_4-&gt;:_8</title>
<a xlink:href="http://www.w3.org/1999/02/22-rdf-syntax-ns#_2" target="_blank" onmouseover="show_status('http://www.w3.org/1999/02/22-rdf-syntax-ns#_2');">
<path style="fill:none;stroke:#add9e6" d="M335,389C335,405 335,430 335,449"/>
<polygon style="fill:#add9e6;stroke:#add9e6" points="333,448 335,458 338,448 333,448"/>
<text text-anchor="middle" x="356" y="420" style="font-family:arial">rdf:_2</text>
</a></g>
<g id="node22" class="node"><title>:_6</title>
<a xlink:href="http://www.w3.org/1999/02/22-rdf-syntax-ns#Bag" target="_blank" onmouseover="show_status('http://www.w3.org/1999/02/22-rdf-syntax-ns#Bag');">
<ellipse cx="134" cy="566" rx="28" ry="18" style="fill:#d2d2d2;stroke:#d2d2d2"/>
<text text-anchor="middle" x="134" y="570" style="font-family:arial">rdf:Bag</text>
</a></g>
<g id="edge21" class="edge"><title>:_5-&gt;:_6</title>
<a xlink:href="http://www2.elsevier.co.uk/~tony/1014/yads-schema-2002-04-03#collection" target="_blank" onmouseover="show_status('http://www2.elsevier.co.uk/~tony/1014/yads-schema-2002-04-03#collection');">
<path style="fill:none;stroke:#add9e6" d="M143,494C141,507 139,524 137,539"/>
<polygon style="fill:#add9e6;stroke:#add9e6" points="135,538 136,548 140,538 135,538"/>
<text text-anchor="middle" x="183" y="525" style="font-family:arial">has:collection</text>
</a></g>
<g id="node30" class="node"><title>:_9</title>
<a xlink:href="http://www.w3.org/1999/02/22-rdf-syntax-ns#Bag" target="_blank" onmouseover="show_status('http://www.w3.org/1999/02/22-rdf-syntax-ns#Bag');">
<ellipse cx="335" cy="566" rx="28" ry="18" style="fill:#d2d2d2;stroke:#d2d2d2"/>
<text text-anchor="middle" x="335" y="570" style="font-family:arial">rdf:Bag</text>
</a></g>
<g id="edge29" class="edge"><title>:_8-&gt;:_9</title>
<a xlink:href="http://www2.elsevier.co.uk/~tony/1014/yads-schema-2002-04-03#collection" target="_blank" onmouseover="show_status('http://www2.elsevier.co.uk/~tony/1014/yads-schema-2002-04-03#collection');">
<path style="fill:none;stroke:#add9e6" d="M335,494C335,507 335,524 335,539"/>
<polygon style="fill:#add9e6;stroke:#add9e6" points="333,538 335,548 338,538 333,538"/>
<text text-anchor="middle" x="376" y="525" style="font-family:arial">has:collection</text>
</a></g>
<g id="node24" class="node"><title>:_7</title>
<ellipse cx="131" cy="671" rx="80" ry="18" style="fill:#eedb82;stroke:#eedb82"/>
<text text-anchor="middle" x="131" y="675" style="font-family:arial">oboe:administration:version</text>
</g>
<g id="edge23" class="edge"><title>:_6-&gt;:_7</title>
<a xlink:href="http://www.w3.org/1999/02/22-rdf-syntax-ns#_1" target="_blank" onmouseover="show_status('http://www.w3.org/1999/02/22-rdf-syntax-ns#_1');">
<path style="fill:none;stroke:#add9e6" d="M133,584C133,600 132,625 132,644"/>
<polygon style="fill:#add9e6;stroke:#add9e6" points="130,643 132,653 135,643 130,643"/>
<text text-anchor="middle" x="154" y="615" style="font-family:arial">rdf:_1</text>
</a></g>
<g id="node27" class="node"><title>data:,Z39.00-00</title>
<a xlink:href="" onclick="show_data('Z39.00-00');" onmouseover="show_status('data:,Z39.00-00');">
<ellipse cx="130" cy="761" rx="50" ry="18" style="fill:#dca0dd;stroke:#dca0dd"/>
<text text-anchor="middle" x="130" y="765" style="font-family:arial">data:,Z39.00-00</text>
</a></g>
<g id="edge26" class="edge"><title>:_7-&gt;data:,Z39.00-00</title>
<a xlink:href="http://www2.elsevier.co.uk/~tony/1014/yads-schema-2002-04-03#resource" target="_blank" onmouseover="show_status('http://www2.elsevier.co.uk/~tony/1014/yads-schema-2002-04-03#resource');">
<path style="fill:none;stroke:#add9e6" d="M131,689C131,702 131,719 130,734"/>
<polygon style="fill:#add9e6;stroke:#add9e6" points="128,733 130,743 133,733 128,733"/>
<text text-anchor="middle" x="172" y="720" style="font-family:arial">has:resource</text>
</a></g>
<g id="node32" class="node"><title>:_10</title>
<ellipse cx="335" cy="671" rx="60" ry="18" style="fill:#eedb82;stroke:#eedb82"/>
<text text-anchor="middle" x="335" y="675" style="font-family:arial">oboe:entity:referent</text>
</g>
<g id="edge31" class="edge"><title>:_9-&gt;:_10</title>
<a xlink:href="http://www.w3.org/1999/02/22-rdf-syntax-ns#_1" target="_blank" onmouseover="show_status('http://www.w3.org/1999/02/22-rdf-syntax-ns#_1');">
<path style="fill:none;stroke:#add9e6" d="M335,584C335,600 335,625 335,644"/>
<polygon style="fill:#add9e6;stroke:#add9e6" points="333,643 335,653 338,643 333,643"/>
<text text-anchor="middle" x="355" y="615" style="font-family:arial">rdf:_1</text>
</a></g>
<g id="node35" class="node"><title>:_11</title>
<a xlink:href="http://www.w3.org/1999/02/22-rdf-syntax-ns#Bag" target="_blank" onmouseover="show_status('http://www.w3.org/1999/02/22-rdf-syntax-ns#Bag');">
<ellipse cx="335" cy="761" rx="28" ry="18" style="fill:#d2d2d2;stroke:#d2d2d2"/>
<text text-anchor="middle" x="335" y="765" style="font-family:arial">rdf:Bag</text>
</a></g>
<g id="edge34" class="edge"><title>:_10-&gt;:_11</title>
<a xlink:href="http://www2.elsevier.co.uk/~tony/1014/yads-schema-2002-04-03#collection" target="_blank" onmouseover="show_status('http://www2.elsevier.co.uk/~tony/1014/yads-schema-2002-04-03#collection');">
<path style="fill:none;stroke:#add9e6" d="M335,689C335,702 335,719 335,734"/>
<polygon style="fill:#add9e6;stroke:#add9e6" points="333,733 335,743 338,733 333,733"/>
<text text-anchor="middle" x="376" y="720" style="font-family:arial">has:collection</text>
</a></g>
<g id="node37" class="node"><title>:_12</title>
<ellipse cx="332" cy="872" rx="73" ry="18" style="fill:#eedb82;stroke:#eedb82"/>
<text text-anchor="middle" x="332" y="876" style="font-family:arial">oboe:descriptor:identifier</text>
</g>
<g id="edge36" class="edge"><title>:_11-&gt;:_12</title>
<a xlink:href="http://www.w3.org/1999/02/22-rdf-syntax-ns#_1" target="_blank" onmouseover="show_status('http://www.w3.org/1999/02/22-rdf-syntax-ns#_1');">
<path style="fill:none;stroke:#add9e6" d="M335,779C334,797 333,824 333,845"/>
<polygon style="fill:#add9e6;stroke:#add9e6" points="331,844 333,854 336,844 331,844"/>
<text text-anchor="middle" x="355" y="816" style="font-family:arial">rdf:_1</text>
</a></g>
<g id="node39" class="node"><title>:_13</title>
<ellipse cx="577" cy="872" rx="96" ry="18" style="fill:#eedb82;stroke:#eedb82"/>
<text text-anchor="middle" x="577" y="876" style="font-family:arial">oboe:descriptor:metadata-by-val</text>
</g>
<g id="edge38" class="edge"><title>:_11-&gt;:_13</title>
<a xlink:href="http://www.w3.org/1999/02/22-rdf-syntax-ns#_2" target="_blank" onmouseover="show_status('http://www.w3.org/1999/02/22-rdf-syntax-ns#_2');">
<path style="fill:none;stroke:#add9e6" d="M358,772C399,790 482,828 534,852"/>
<polygon style="fill:#add9e6;stroke:#add9e6" points="531,853 541,855 533,849 531,853"/>
<text text-anchor="middle" x="486" y="816" style="font-family:arial">rdf:_2</text>
</a></g>
<g id="node42" class="node"><title>data:,ori:pmid:11823195</title>
<a xlink:href="" onclick="show_data('ori:pmid:11823195');" onmouseover="show_status('data:,ori:pmid:11823195');">
<ellipse cx="325" cy="962" rx="66" ry="18" style="fill:#dca0dd;stroke:#dca0dd"/>
<text text-anchor="middle" x="325" y="966" style="font-family:arial">data:,ori:pmid:11823195</text>
</a></g>
<g id="edge41" class="edge"><title>:_12-&gt;data:,ori:pmid:11823195</title>
<a xlink:href="http://www2.elsevier.co.uk/~tony/1014/yads-schema-2002-04-03#resource" target="_blank" onmouseover="show_status('http://www2.elsevier.co.uk/~tony/1014/yads-schema-2002-04-03#resource');">
<path style="fill:none;stroke:#add9e6" d="M331,890C330,903 329,920 328,935"/>
<polygon style="fill:#add9e6;stroke:#add9e6" points="326,934 327,944 331,934 326,934"/>
<text text-anchor="middle" x="371" y="921" style="font-family:arial">has:resource</text>
</a></g>
<g id="node45" class="node"><title>data:,ori:schema:jarticle</title>
<a xlink:href="" onclick="show_data('ori:schema:jarticle');" onmouseover="show_status('data:,ori:schema:jarticle');">
<ellipse cx="577" cy="962" rx="69" ry="18" style="fill:#dca0dd;stroke:#dca0dd"/>
<text text-anchor="middle" x="577" y="966" style="font-family:arial">data:,ori:schema:jarticle</text>
</a></g>
<g id="edge44" class="edge"><title>:_13-&gt;data:,ori:schema:jarticle</title>
<a xlink:href="http://www2.elsevier.co.uk/~tony/1014/yads-schema-2002-04-03#resource" target="_blank" onmouseover="show_status('http://www2.elsevier.co.uk/~tony/1014/yads-schema-2002-04-03#resource');">
<path style="fill:none;stroke:#add9e6" d="M577,890C577,903 577,920 577,935"/>
<polygon style="fill:#add9e6;stroke:#add9e6" points="575,934 577,944 580,934 575,934"/>
<text text-anchor="middle" x="618" y="921" style="font-family:arial">has:resource</text>
</a></g>
<g id="node47" class="node"><title>:_14</title>
<a xlink:href="http://www.w3.org/1999/02/22-rdf-syntax-ns#Bag" target="_blank" onmouseover="show_status('http://www.w3.org/1999/02/22-rdf-syntax-ns#Bag');">
<ellipse cx="752" cy="962" rx="28" ry="18" style="fill:#d2d2d2;stroke:#d2d2d2"/>
<text text-anchor="middle" x="752" y="966" style="font-family:arial">rdf:Bag</text>
</a></g>
<g id="edge46" class="edge"><title>:_13-&gt;:_14</title>
<a xlink:href="http://www2.elsevier.co.uk/~tony/1014/yads-schema-2002-04-03#collection" target="_blank" onmouseover="show_status('http://www2.elsevier.co.uk/~tony/1014/yads-schema-2002-04-03#collection');">
<path style="fill:none;stroke:#add9e6" d="M618,888C633,894 648,901 662,908 684,919 707,934 725,945"/>
<polygon style="fill:#add9e6;stroke:#add9e6" points="722,946 732,949 725,942 722,946"/>
<text text-anchor="middle" x="736" y="921" style="font-family:arial">has:collection</text>
</a></g>
<g id="node49" class="node"><title>:_15</title>
<ellipse cx="482" cy="1067" rx="27" ry="18" style="fill:#eedb82;stroke:#eedb82"/>
<text text-anchor="middle" x="482" y="1071" style="font-family:arial">date</text>
</g>
<g id="edge48" class="edge"><title>:_14-&gt;:_15</title>
<a xlink:href="http://www.w3.org/1999/02/22-rdf-syntax-ns#_1" target="_blank" onmouseover="show_status('http://www.w3.org/1999/02/22-rdf-syntax-ns#_1');">
<path style="fill:none;stroke:#add9e6" d="M725,968C682,981 544,1022 539,1024 527,1030 515,1039 506,1046"/>
<polygon style="fill:#add9e6;stroke:#add9e6" points="505,1044 499,1052 508,1047 505,1044"/>
<text text-anchor="middle" x="655" y="1011" style="font-family:arial">rdf:_1</text>
</a></g>
<g id="node51" class="node"><title>:_16</title>
<ellipse cx="699" cy="1067" rx="27" ry="18" style="fill:#eedb82;stroke:#eedb82"/>
<text text-anchor="middle" x="699" y="1071" style="font-family:arial">stitle</text>
</g>
<g id="edge50" class="edge"><title>:_14-&gt;:_16</title>
<a xlink:href="http://www.w3.org/1999/02/22-rdf-syntax-ns#_2" target="_blank" onmouseover="show_status('http://www.w3.org/1999/02/22-rdf-syntax-ns#_2');">
<path style="fill:none;stroke:#add9e6" d="M738,978C733,984 728,991 724,998 717,1012 711,1028 706,1041"/>
<polygon style="fill:#add9e6;stroke:#add9e6" points="704,1039 704,1049 709,1040 704,1039"/>
<text text-anchor="middle" x="748" y="1011" style="font-family:arial">rdf:_2</text>
</a></g>
<g id="node53" class="node"><title>:_17</title>
<ellipse cx="804" cy="1067" rx="27" ry="18" style="fill:#eedb82;stroke:#eedb82"/>
<text text-anchor="middle" x="804" y="1071" style="font-family:arial">issue</text>
</g>
<g id="edge52" class="edge"><title>:_14-&gt;:_17</title>
<a xlink:href="http://www.w3.org/1999/02/22-rdf-syntax-ns#_3" target="_blank" onmouseover="show_status('http://www.w3.org/1999/02/22-rdf-syntax-ns#_3');">
<path style="fill:none;stroke:#add9e6" d="M761,979C769,996 782,1022 791,1042"/>
<polygon style="fill:#add9e6;stroke:#add9e6" points="788,1042 795,1050 793,1040 788,1042"/>
<text text-anchor="middle" x="799" y="1011" style="font-family:arial">rdf:_3</text>
</a></g>
<g id="node55" class="node"><title>:_18</title>
<ellipse cx="910" cy="1067" rx="28" ry="18" style="fill:#eedb82;stroke:#eedb82"/>
<text text-anchor="middle" x="910" y="1071" style="font-family:arial">volume</text>
</g>
<g id="edge54" class="edge"><title>:_14-&gt;:_18</title>
<a xlink:href="http://www.w3.org/1999/02/22-rdf-syntax-ns#_4" target="_blank" onmouseover="show_status('http://www.w3.org/1999/02/22-rdf-syntax-ns#_4');">
<path style="fill:none;stroke:#add9e6" d="M777,970C816,986 832,994 870,1024 877,1030 885,1037 891,1044"/>
<polygon style="fill:#add9e6;stroke:#add9e6" points="889,1045 897,1051 892,1042 889,1045"/>
<text text-anchor="middle" x="880" y="1011" style="font-family:arial">rdf:_4</text>
</a></g>
<g id="node57" class="node"><title>:_19</title>
<ellipse cx="1014" cy="1067" rx="27" ry="18" style="fill:#eedb82;stroke:#eedb82"/>
<text text-anchor="middle" x="1014" y="1071" style="font-family:arial">aulast</text>
</g>
<g id="edge56" class="edge"><title>:_14-&gt;:_19</title>
<a xlink:href="http://www.w3.org/1999/02/22-rdf-syntax-ns#_5" target="_blank" onmouseover="show_status('http://www.w3.org/1999/02/22-rdf-syntax-ns#_5');">
<path style="fill:none;stroke:#add9e6" d="M780,964C825,969 914,983 975,1024 982,1029 990,1037 996,1044"/>
<polygon style="fill:#add9e6;stroke:#add9e6" points="994,1045 1002,1051 997,1042 994,1045"/>
<text text-anchor="middle" x="982" y="1011" style="font-family:arial">rdf:_5</text>
</a></g>
<g id="node60" class="node"><title>data:,2002-02</title>
<a xlink:href="" onclick="show_data('2002-02');" onmouseover="show_status('data:,2002-02');">
<ellipse cx="482" cy="1157" rx="45" ry="18" style="fill:#dca0dd;stroke:#dca0dd"/>
<text text-anchor="middle" x="482" y="1161" style="font-family:arial">data:,2002-02</text>
</a></g>
<g id="edge59" class="edge"><title>:_15-&gt;data:,2002-02</title>
<a xlink:href="http://www2.elsevier.co.uk/~tony/1014/yads-schema-2002-04-03#resource" target="_blank" onmouseover="show_status('http://www2.elsevier.co.uk/~tony/1014/yads-schema-2002-04-03#resource');">
<path style="fill:none;stroke:#add9e6" d="M469,1083C465,1089 460,1096 458,1103 456,1111 456,1114 458,1121 459,1125 461,1128 462,1131"/>
<polygon style="fill:#add9e6;stroke:#add9e6" points="460,1132 467,1140 464,1130 460,1132"/>
<text text-anchor="middle" x="502" y="1116" style="font-family:arial">has:resource</text>
</a></g>
<g id="node63" class="node"><title>data:,Appl%20Environ%20Microb...l</title>
<a xlink:href="" onclick="show_data('Appl%20Environ%20Microbiol');" onmouseover="show_status('data:,Appl%20Environ%20Microbiol');">
<ellipse cx="652" cy="1157" rx="101" ry="18" style="fill:#dca0dd;stroke:#dca0dd"/>
<text text-anchor="middle" x="652" y="1161" style="font-family:arial">data:,Appl%20Environ%20Microb...l</text>
</a></g>
<g id="edge62" class="edge"><title>:_16-&gt;data:,Appl%20Environ%20Microb...l</title>
<a xlink:href="http://www2.elsevier.co.uk/~tony/1014/yads-schema-2002-04-03#resource" target="_blank" onmouseover="show_status('http://www2.elsevier.co.uk/~tony/1014/yads-schema-2002-04-03#resource');">
<path style="fill:none;stroke:#add9e6" d="M690,1084C683,1097 674,1116 666,1131"/>
<polygon style="fill:#add9e6;stroke:#add9e6" points="664,1129 661,1139 668,1132 664,1129"/>
<text text-anchor="middle" x="722" y="1116" style="font-family:arial">has:resource</text>
</a></g>
<g id="node66" class="node"><title>data:,2</title>
<a xlink:href="" onclick="show_data('2');" onmouseover="show_status('data:,2');">
<ellipse cx="804" cy="1157" rx="27" ry="18" style="fill:#dca0dd;stroke:#dca0dd"/>
<text text-anchor="middle" x="804" y="1161" style="font-family:arial">data:,2</text>
</a></g>
<g id="edge65" class="edge"><title>:_17-&gt;data:,2</title>
<a xlink:href="http://www2.elsevier.co.uk/~tony/1014/yads-schema-2002-04-03#resource" target="_blank" onmouseover="show_status('http://www2.elsevier.co.uk/~tony/1014/yads-schema-2002-04-03#resource');">
<path style="fill:none;stroke:#add9e6" d="M796,1084C793,1090 791,1097 789,1103 788,1111 788,1114 789,1121 790,1124 791,1127 792,1131"/>
<polygon style="fill:#add9e6;stroke:#add9e6" points="790,1132 796,1140 794,1130 790,1132"/>
<text text-anchor="middle" x="833" y="1116" style="font-family:arial">has:resource</text>
</a></g>
<g id="node69" class="node"><title>data:,68</title>
<a xlink:href="" onclick="show_data('68');" onmouseover="show_status('data:,68');">
<ellipse cx="911" cy="1157" rx="29" ry="18" style="fill:#dca0dd;stroke:#dca0dd"/>
<text text-anchor="middle" x="911" y="1161" style="font-family:arial">data:,68</text>
</a></g>
<g id="edge68" class="edge"><title>:_18-&gt;data:,68</title>
<a xlink:href="http://www2.elsevier.co.uk/~tony/1014/yads-schema-2002-04-03#resource" target="_blank" onmouseover="show_status('http://www2.elsevier.co.uk/~tony/1014/yads-schema-2002-04-03#resource');">
<path style="fill:none;stroke:#add9e6" d="M901,1084C898,1090 895,1097 894,1103 893,1111 893,1114 894,1121 895,1125 896,1128 897,1131"/>
<polygon style="fill:#add9e6;stroke:#add9e6" points="895,1132 901,1140 899,1130 895,1132"/>
<text text-anchor="middle" x="938" y="1116" style="font-family:arial">has:resource</text>
</a></g>
<g id="node72" class="node"><title>data:,Sturino</title>
<a xlink:href="" onclick="show_data('Sturino');" onmouseover="show_status('data:,Sturino');">
<ellipse cx="1028" cy="1157" rx="41" ry="18" style="fill:#dca0dd;stroke:#dca0dd"/>
<text text-anchor="middle" x="1028" y="1161" style="font-family:arial">data:,Sturino</text>
</a></g>
<g id="edge71" class="edge"><title>:_19-&gt;data:,Sturino</title>
<a xlink:href="http://www2.elsevier.co.uk/~tony/1014/yads-schema-2002-04-03#resource" target="_blank" onmouseover="show_status('http://www2.elsevier.co.uk/~tony/1014/yads-schema-2002-04-03#resource');">
<path style="fill:none;stroke:#add9e6" d="M999,1083C991,1093 983,1108 988,1121 990,1126 993,1131 998,1135"/>
<polygon style="fill:#add9e6;stroke:#add9e6" points="996,1137 1005,1142 1000,1133 996,1137"/>
<text text-anchor="middle" x="1029" y="1116" style="font-family:arial">has:resource</text>
</a></g>
</g>
</svg>
