<?xml version="1.0" encoding="UTF-8" standalone="no"?>
<!DOCTYPE svg PUBLIC "-//W3C//DTD SVG 1.0//EN"
 "http://www.w3.org/TR/2001/REC-SVG-20010904/DTD/svg10.dtd" [
 <!ATTLIST svg xmlns:xlink CDATA #FIXED "http://www.w3.org/1999/xlink">
]>
<!-- Generated by dot version 1.8.5 (Tue Apr 23 17:19:23  2002)
     For user: (Administrator) ,S-1-5-21-1454471165-688789844-1708537768-500   Title: yads    Pages: 1 -->
<svg width="1502px" height="1063px"
 xmlns="http://www.w3.org/2000/svg" xmlns:xlink="http://www.w3.org/1999/xlink">
<g id="graph0" class="graph" style="font-family:Times-Roman;font-size:11.00">
<title>yads</title>
<text text-anchor="middle" x="751" y="1052" style="font-family:arial;font-size:24.00">YADS - A Description Service</text>
<g id="graph2" class="cluster"><title>cluster_1</title>
<polygon style="fill:none;stroke:#d2d2d2;stroke-dasharray:5,2" points="19,1020 1483,1020 1483,43 19,43 19,1020"/>
<text text-anchor="middle" x="70" y="55" style="font-family:arial">Nest - OpenURL</text>
</g>
<g id="graph3" class="cluster"><title>cluster_3</title>
<polygon style="fill:none;stroke:#d2d2d2;stroke-dasharray:5,2" points="27,1012 1475,1012 1475,238 27,238 27,1012"/>
<text text-anchor="middle" x="68" y="250" style="font-family:arial">Nest - Profile</text>
</g>
<g id="graph4" class="cluster"><title>cluster_5</title>
<polygon style="fill:none;stroke:#d2d2d2;stroke-dasharray:5,2" points="35,795 227,795 227,433 35,433 35,795"/>
<text text-anchor="middle" x="95" y="445" style="font-family:arial">Item - Administration</text>
</g>
<g id="graph5" class="cluster"><title>cluster_7</title>
<polygon style="fill:none;stroke:#d2d2d2;stroke-dasharray:5,2" points="43,787 219,787 219,628 43,628 43,787"/>
<text text-anchor="middle" x="86" y="640" style="font-family:arial">Item - Version</text>
</g>
<g id="graph6" class="cluster"><title>cluster_8</title>
<polygon style="fill:none;stroke:#d2d2d2;stroke-dasharray:5,2" points="235,1004 1467,1004 1467,433 235,433 235,1004"/>
<text text-anchor="middle" x="300" y="445" style="font-family:arial">Item - Context-Object</text>
</g>
<g id="graph7" class="cluster"><title>cluster_10</title>
<polygon style="fill:none;stroke:#d2d2d2;stroke-dasharray:5,2" points="243,787 485,787 485,628 243,628 243,787"/>
<text text-anchor="middle" x="344" y="640" style="font-family:arial">Item - Context-Object Private Data</text>
</g>
<g id="graph8" class="cluster"><title>cluster_11</title>
<polygon style="fill:none;stroke:#d2d2d2;stroke-dasharray:5,2" points="493,996 861,996 861,628 493,628 493,996"/>
<text text-anchor="middle" x="540" y="640" style="font-family:arial">Item - Referent</text>
</g>
<g id="graph9" class="cluster"><title>cluster_13</title>
<polygon style="fill:none;stroke:#d2d2d2;stroke-dasharray:5,2" points="501,988 683,988 683,829 501,829 501,988"/>
<text text-anchor="middle" x="545" y="841" style="font-family:arial">Item - Identifier</text>
</g>
<g id="graph10" class="cluster"><title>cluster_14</title>
<polygon style="fill:none;stroke:#d2d2d2;stroke-dasharray:5,2" points="691,988 853,988 853,829 691,829 691,988"/>
<text text-anchor="middle" x="735" y="841" style="font-family:arial">Item - Identifier</text>
</g>
<g id="graph11" class="cluster"><title>cluster_15</title>
<polygon style="fill:none;stroke:#d2d2d2;stroke-dasharray:5,2" points="869,996 1067,996 1067,628 869,628 869,996"/>
<text text-anchor="middle" x="915" y="640" style="font-family:arial">Item - Referrer</text>
</g>
<g id="graph12" class="cluster"><title>cluster_17</title>
<polygon style="fill:none;stroke:#d2d2d2;stroke-dasharray:5,2" points="877,988 1059,988 1059,829 877,829 877,988"/>
<text text-anchor="middle" x="921" y="841" style="font-family:arial">Item - Identifier</text>
</g>
<g id="graph13" class="cluster"><title>cluster_18</title>
<polygon style="fill:none;stroke:#d2d2d2;stroke-dasharray:5,2" points="1075,996 1459,996 1459,628 1075,628 1075,996"/>
<text text-anchor="middle" x="1139" y="640" style="font-family:arial">Item - Referring-Entity</text>
</g>
<g id="graph14" class="cluster"><title>cluster_20</title>
<polygon style="fill:none;stroke:#d2d2d2;stroke-dasharray:5,2" points="1083,988 1269,988 1269,829 1083,829 1083,988"/>
<text text-anchor="middle" x="1127" y="841" style="font-family:arial">Item - Identifier</text>
</g>
<g id="graph15" class="cluster"><title>cluster_21</title>
<polygon style="fill:none;stroke:#d2d2d2;stroke-dasharray:5,2" points="1277,988 1451,988 1451,829 1277,829 1277,988"/>
<text text-anchor="middle" x="1321" y="841" style="font-family:arial">Item - Identifier</text>
</g>
<g id="node2" class="node"><title>:_1</title>
<a xlink:href="http://www2.elsevier.co.uk/~tony/1014/yads-schema-2002-04-03#Nest" target="_blank" onmouseover="show_status('http://www2.elsevier.co.uk/~tony/1014/yads-schema-2002-04-03#Nest');">
<ellipse cx="188" cy="86" rx="29" ry="18" style="fill:#d2d2d2;stroke:#d2d2d2"/>
<text text-anchor="middle" x="188" y="90" style="font-family:arial">isa:Nest</text>
</a></g>
<g id="node4" class="node"><title>:</title>
<ellipse cx="139" cy="176" rx="27" ry="18" style="fill:#dca0dd;stroke:#dca0dd"/>
<text text-anchor="middle" x="139" y="180" style="font-family:arial">:</text>
</g>
<g id="edge3" class="edge"><title>:_1-&gt;:</title>
<a xlink:href="http://www2.elsevier.co.uk/~tony/1014/yads-schema-2002-04-03#resource" target="_blank" onmouseover="show_status('http://www2.elsevier.co.uk/~tony/1014/yads-schema-2002-04-03#resource');">
<path style="fill:none;stroke:#add9e6" d="M171,100C164,107 158,114 153,122 149,130 145,140 143,149"/>
<polygon style="fill:#add9e6;stroke:#add9e6" points="141,148 141,158 146,149 141,148"/>
<text text-anchor="middle" x="197" y="135" style="font-family:arial">has:resource</text>
</a></g>
<g id="node6" class="node"><title>:_2</title>
<a xlink:href="http://www.w3.org/1999/02/22-rdf-syntax-ns#Bag" target="_blank" onmouseover="show_status('http://www.w3.org/1999/02/22-rdf-syntax-ns#Bag');">
<ellipse cx="238" cy="176" rx="28" ry="18" style="fill:#d2d2d2;stroke:#d2d2d2"/>
<text text-anchor="middle" x="238" y="180" style="font-family:arial">rdf:Bag</text>
</a></g>
<g id="edge5" class="edge"><title>:_1-&gt;:_2</title>
<a xlink:href="http://www2.elsevier.co.uk/~tony/1014/yads-schema-2002-04-03#collection" target="_blank" onmouseover="show_status('http://www2.elsevier.co.uk/~tony/1014/yads-schema-2002-04-03#collection');">
<path style="fill:none;stroke:#add9e6" d="M212,97C222,103 233,111 238,122 242,130 243,140 243,149"/>
<polygon style="fill:#add9e6;stroke:#add9e6" points="241,148 242,158 246,148 241,148"/>
<text text-anchor="middle" x="285" y="135" style="font-family:arial">has:collection</text>
</a></g>
<g id="node8" class="node"><title>:_3</title>
<a xlink:href="http://www2.elsevier.co.uk/~tony/1014/yads-schema-2002-04-03#Nest" target="_blank" onmouseover="show_status('http://www2.elsevier.co.uk/~tony/1014/yads-schema-2002-04-03#Nest');">
<ellipse cx="238" cy="281" rx="29" ry="18" style="fill:#d2d2d2;stroke:#d2d2d2"/>
<text text-anchor="middle" x="238" y="285" style="font-family:arial">isa:Nest</text>
</a></g>
<g id="edge7" class="edge"><title>:_2-&gt;:_3</title>
<a xlink:href="http://www.w3.org/1999/02/22-rdf-syntax-ns#_1" target="_blank" onmouseover="show_status('http://www.w3.org/1999/02/22-rdf-syntax-ns#_1');">
<path style="fill:none;stroke:#add9e6" d="M238,194C238,210 238,235 238,254"/>
<polygon style="fill:#add9e6;stroke:#add9e6" points="236,253 238,263 241,253 236,253"/>
<text text-anchor="middle" x="258" y="225" style="font-family:arial">rdf:_1</text>
</a></g>
<g id="node11" class="node"><title>node_1</title>
<polygon style="fill:#6497ed;stroke:#6497ed" points="129,353 75,353 75,389 129,389 129,353"/>
<text text-anchor="middle" x="102" y="375" style="font-family:arial">oboe:</text>
</g>
<g id="edge10" class="edge"><title>:_3-&gt;node_1</title>
<a xlink:href="http://www2.elsevier.co.uk/~tony/1014/yads-schema-2002-04-03#directive" target="_blank" onmouseover="show_status('http://www2.elsevier.co.uk/~tony/1014/yads-schema-2002-04-03#directive');">
<path style="fill:none;stroke:#add9e6" d="M213,290C197,297 175,306 158,317 146,325 134,337 124,347"/>
<polygon style="fill:#add9e6;stroke:#add9e6" points="123,344 118,353 127,348 123,344"/>
<text text-anchor="middle" x="202" y="330" style="font-family:arial">has:directive</text>
</a></g>
<g id="node13" class="node"><title>http://www2.elsevier.co.uk/~t...f</title>
<a xlink:href="http://www2.elsevier.co.uk/~tony/oboe/oboe.rdf" target="_blank" onmouseover="show_status('http://www2.elsevier.co.uk/~tony/oboe/oboe.rdf');">
<ellipse cx="238" cy="371" rx="91" ry="18" style="fill:#dca0dd;stroke:#dca0dd"/>
<text text-anchor="middle" x="238" y="375" style="font-family:arial">http://www2.elsevier.co.uk/~t...f</text>
</a></g>
<g id="edge12" class="edge"><title>:_3-&gt;http://www2.elsevier.co.uk/~t...f</title>
<a xlink:href="http://www2.elsevier.co.uk/~tony/1014/yads-schema-2002-04-03#resource" target="_blank" onmouseover="show_status('http://www2.elsevier.co.uk/~tony/1014/yads-schema-2002-04-03#resource');">
<path style="fill:none;stroke:#add9e6" d="M238,299C238,312 238,329 238,344"/>
<polygon style="fill:#add9e6;stroke:#add9e6" points="236,343 238,353 241,343 236,343"/>
<text text-anchor="middle" x="279" y="330" style="font-family:arial">has:resource</text>
</a></g>
<g id="node15" class="node"><title>:_4</title>
<a xlink:href="http://www.w3.org/1999/02/22-rdf-syntax-ns#Bag" target="_blank" onmouseover="show_status('http://www.w3.org/1999/02/22-rdf-syntax-ns#Bag');">
<ellipse cx="375" cy="371" rx="28" ry="18" style="fill:#d2d2d2;stroke:#d2d2d2"/>
<text text-anchor="middle" x="375" y="375" style="font-family:arial">rdf:Bag</text>
</a></g>
<g id="edge14" class="edge"><title>:_3-&gt;:_4</title>
<a xlink:href="http://www2.elsevier.co.uk/~tony/1014/yads-schema-2002-04-03#collection" target="_blank" onmouseover="show_status('http://www2.elsevier.co.uk/~tony/1014/yads-schema-2002-04-03#collection');">
<path style="fill:none;stroke:#add9e6" d="M264,289C282,295 305,305 323,317 336,326 348,338 357,348"/>
<polygon style="fill:#add9e6;stroke:#add9e6" points="354,348 362,355 358,345 354,348"/>
<text text-anchor="middle" x="386" y="330" style="font-family:arial">has:collection</text>
</a></g>
<g id="node17" class="node"><title>:_5</title>
<ellipse cx="145" cy="476" rx="60" ry="18" style="fill:#eedb82;stroke:#eedb82"/>
<text text-anchor="middle" x="145" y="480" style="font-family:arial">oboe:administration</text>
</g>
<g id="edge16" class="edge"><title>:_4-&gt;:_5</title>
<a xlink:href="http://www.w3.org/1999/02/22-rdf-syntax-ns#_1" target="_blank" onmouseover="show_status('http://www.w3.org/1999/02/22-rdf-syntax-ns#_1');">
<path style="fill:none;stroke:#add9e6" d="M353,382C348,385 343,387 338,389 292,411 278,412 231,433 216,441 199,449 183,456"/>
<polygon style="fill:#add9e6;stroke:#add9e6" points="183,453 175,460 185,458 183,453"/>
<text text-anchor="middle" x="323" y="420" style="font-family:arial">rdf:_1</text>
</a></g>
<g id="node19" class="node"><title>:_8</title>
<ellipse cx="416" cy="476" rx="44" ry="18" style="fill:#eedb82;stroke:#eedb82"/>
<text text-anchor="middle" x="416" y="480" style="font-family:arial">oboe:context</text>
</g>
<g id="edge18" class="edge"><title>:_4-&gt;:_8</title>
<a xlink:href="http://www.w3.org/1999/02/22-rdf-syntax-ns#_2" target="_blank" onmouseover="show_status('http://www.w3.org/1999/02/22-rdf-syntax-ns#_2');">
<path style="fill:none;stroke:#add9e6" d="M382,389C389,405 399,431 406,450"/>
<polygon style="fill:#add9e6;stroke:#add9e6" points="403,450 409,458 408,448 403,450"/>
<text text-anchor="middle" x="417" y="420" style="font-family:arial">rdf:_2</text>
</a></g>
<g id="node22" class="node"><title>:_6</title>
<a xlink:href="http://www.w3.org/1999/02/22-rdf-syntax-ns#Bag" target="_blank" onmouseover="show_status('http://www.w3.org/1999/02/22-rdf-syntax-ns#Bag');">
<ellipse cx="134" cy="566" rx="28" ry="18" style="fill:#d2d2d2;stroke:#d2d2d2"/>
<text text-anchor="middle" x="134" y="570" style="font-family:arial">rdf:Bag</text>
</a></g>
<g id="edge21" class="edge"><title>:_5-&gt;:_6</title>
<a xlink:href="http://www2.elsevier.co.uk/~tony/1014/yads-schema-2002-04-03#collection" target="_blank" onmouseover="show_status('http://www2.elsevier.co.uk/~tony/1014/yads-schema-2002-04-03#collection');">
<path style="fill:none;stroke:#add9e6" d="M143,494C141,507 139,524 137,539"/>
<polygon style="fill:#add9e6;stroke:#add9e6" points="135,538 136,548 140,538 135,538"/>
<text text-anchor="middle" x="183" y="525" style="font-family:arial">has:collection</text>
</a></g>
<g id="node30" class="node"><title>:_9</title>
<a xlink:href="http://www.w3.org/1999/02/22-rdf-syntax-ns#Bag" target="_blank" onmouseover="show_status('http://www.w3.org/1999/02/22-rdf-syntax-ns#Bag');">
<ellipse cx="656" cy="566" rx="28" ry="18" style="fill:#d2d2d2;stroke:#d2d2d2"/>
<text text-anchor="middle" x="656" y="570" style="font-family:arial">rdf:Bag</text>
</a></g>
<g id="edge29" class="edge"><title>:_8-&gt;:_9</title>
<a xlink:href="http://www2.elsevier.co.uk/~tony/1014/yads-schema-2002-04-03#collection" target="_blank" onmouseover="show_status('http://www2.elsevier.co.uk/~tony/1014/yads-schema-2002-04-03#collection');">
<path style="fill:none;stroke:#add9e6" d="M449,488C494,506 576,537 623,554"/>
<polygon style="fill:#add9e6;stroke:#add9e6" points="622,556 632,557 623,551 622,556"/>
<text text-anchor="middle" x="600" y="525" style="font-family:arial">has:collection</text>
</a></g>
<g id="node24" class="node"><title>:_7</title>
<ellipse cx="131" cy="671" rx="80" ry="18" style="fill:#eedb82;stroke:#eedb82"/>
<text text-anchor="middle" x="131" y="675" style="font-family:arial">oboe:administration:version</text>
</g>
<g id="edge23" class="edge"><title>:_6-&gt;:_7</title>
<a xlink:href="http://www.w3.org/1999/02/22-rdf-syntax-ns#_1" target="_blank" onmouseover="show_status('http://www.w3.org/1999/02/22-rdf-syntax-ns#_1');">
<path style="fill:none;stroke:#add9e6" d="M133,584C133,600 132,625 132,644"/>
<polygon style="fill:#add9e6;stroke:#add9e6" points="130,643 132,653 135,643 130,643"/>
<text text-anchor="middle" x="154" y="615" style="font-family:arial">rdf:_1</text>
</a></g>
<g id="node27" class="node"><title>data:,Z39.00-00</title>
<a xlink:href="" onclick="show_data('Z39.00-00');" onmouseover="show_status('data:,Z39.00-00');">
<ellipse cx="130" cy="761" rx="50" ry="18" style="fill:#dca0dd;stroke:#dca0dd"/>
<text text-anchor="middle" x="130" y="765" style="font-family:arial">data:,Z39.00-00</text>
</a></g>
<g id="edge26" class="edge"><title>:_7-&gt;data:,Z39.00-00</title>
<a xlink:href="http://www2.elsevier.co.uk/~tony/1014/yads-schema-2002-04-03#resource" target="_blank" onmouseover="show_status('http://www2.elsevier.co.uk/~tony/1014/yads-schema-2002-04-03#resource');">
<path style="fill:none;stroke:#add9e6" d="M131,689C131,702 131,719 130,734"/>
<polygon style="fill:#add9e6;stroke:#add9e6" points="128,733 130,743 133,733 128,733"/>
<text text-anchor="middle" x="172" y="720" style="font-family:arial">has:resource</text>
</a></g>
<g id="node32" class="node"><title>:_10</title>
<ellipse cx="393" cy="671" rx="56" ry="18" style="fill:#eedb82;stroke:#eedb82"/>
<text text-anchor="middle" x="393" y="675" style="font-family:arial">oboe:private-data</text>
</g>
<g id="edge31" class="edge"><title>:_9-&gt;:_10</title>
<a xlink:href="http://www.w3.org/1999/02/22-rdf-syntax-ns#_1" target="_blank" onmouseover="show_status('http://www.w3.org/1999/02/22-rdf-syntax-ns#_1');">
<path style="fill:none;stroke:#add9e6" d="M631,575C599,587 539,608 489,628 471,636 451,645 433,652"/>
<polygon style="fill:#add9e6;stroke:#add9e6" points="433,649 425,656 435,654 433,649"/>
<text text-anchor="middle" x="583" y="615" style="font-family:arial">rdf:_1</text>
</a></g>
<g id="node34" class="node"><title>:_11</title>
<ellipse cx="656" cy="671" rx="60" ry="18" style="fill:#eedb82;stroke:#eedb82"/>
<text text-anchor="middle" x="656" y="675" style="font-family:arial">oboe:entity:referent</text>
</g>
<g id="edge33" class="edge"><title>:_9-&gt;:_11</title>
<a xlink:href="http://www.w3.org/1999/02/22-rdf-syntax-ns#_2" target="_blank" onmouseover="show_status('http://www.w3.org/1999/02/22-rdf-syntax-ns#_2');">
<path style="fill:none;stroke:#add9e6" d="M656,584C656,600 656,625 656,644"/>
<polygon style="fill:#add9e6;stroke:#add9e6" points="654,643 656,653 659,643 654,643"/>
<text text-anchor="middle" x="677" y="615" style="font-family:arial">rdf:_2</text>
</a></g>
<g id="node36" class="node"><title>:_15</title>
<ellipse cx="949" cy="671" rx="59" ry="18" style="fill:#eedb82;stroke:#eedb82"/>
<text text-anchor="middle" x="949" y="675" style="font-family:arial">oboe:entity:referrer</text>
</g>
<g id="edge35" class="edge"><title>:_9-&gt;:_15</title>
<a xlink:href="http://www.w3.org/1999/02/22-rdf-syntax-ns#_3" target="_blank" onmouseover="show_status('http://www.w3.org/1999/02/22-rdf-syntax-ns#_3');">
<path style="fill:none;stroke:#add9e6" d="M682,572C723,582 802,602 865,628 881,635 898,643 913,651"/>
<polygon style="fill:#add9e6;stroke:#add9e6" points="911,653 921,655 913,648 911,653"/>
<text text-anchor="middle" x="864" y="615" style="font-family:arial">rdf:_3</text>
</a></g>
<g id="node38" class="node"><title>:_18</title>
<ellipse cx="1165" cy="671" rx="78" ry="18" style="fill:#eedb82;stroke:#eedb82"/>
<text text-anchor="middle" x="1165" y="675" style="font-family:arial">oboe:entity:referring-entity</text>
</g>
<g id="edge37" class="edge"><title>:_9-&gt;:_18</title>
<a xlink:href="http://www.w3.org/1999/02/22-rdf-syntax-ns#_4" target="_blank" onmouseover="show_status('http://www.w3.org/1999/02/22-rdf-syntax-ns#_4');">
<path style="fill:none;stroke:#add9e6" d="M684,567C752,572 930,586 1071,628 1090,634 1109,642 1126,650"/>
<polygon style="fill:#add9e6;stroke:#add9e6" points="1124,652 1134,654 1126,647 1124,652"/>
<text text-anchor="middle" x="1059" y="615" style="font-family:arial">rdf:_4</text>
</a></g>
<g id="node41" class="node"><title>cr_setVer = 01 &amp; cr_key = cx1...s</title>
<a xlink:href="cr_setVer = 01 &amp; cr_key = cx1Dk0f1ud58jlKfdsAifhe23swkHG^s &amp; cr_keyVer = 01 &amp; cr_datTim = 20020220142003 &amp; cr_src = idealibrary.com &amp; cr_srcDOI = 10.1006/mthe.2000.0239 &amp; cr_rtnURL = http://www.idealibrary.com/links/doi/10.1006/mthe.2000.0239/ref &amp; cr_rtnTxt = Click Here &amp; cr_srvTyp = html &amp; cr_workId = Molecular Therapy &amp; cr_pub = Academic Press">
<ellipse cx="364" cy="761" rx="113" ry="18" style="fill:#dca0dd;stroke:#dca0dd"/>
<text text-anchor="middle" x="364" y="765" style="font-family:arial">cr_setVer = 01 &amp; cr_key = cx1...s</text>
</a></g>
<g id="edge40" class="edge"><title>:_10-&gt;cr_setVer = 01 &amp; cr_key = cx1...s</title>
<a xlink:href="http://www2.elsevier.co.uk/~tony/1014/yads-schema-2002-04-03#resource" target="_blank" onmouseover="show_status('http://www2.elsevier.co.uk/~tony/1014/yads-schema-2002-04-03#resource');">
<path style="fill:none;stroke:#add9e6" d="M387,689C383,702 377,719 373,734"/>
<polygon style="fill:#add9e6;stroke:#add9e6" points="371,733 370,743 376,734 371,733"/>
<text text-anchor="middle" x="423" y="720" style="font-family:arial">has:resource</text>
</a></g>
<g id="node44" class="node"><title>:_12</title>
<a xlink:href="http://www.w3.org/1999/02/22-rdf-syntax-ns#Bag" target="_blank" onmouseover="show_status('http://www.w3.org/1999/02/22-rdf-syntax-ns#Bag');">
<ellipse cx="656" cy="761" rx="28" ry="18" style="fill:#d2d2d2;stroke:#d2d2d2"/>
<text text-anchor="middle" x="656" y="765" style="font-family:arial">rdf:Bag</text>
</a></g>
<g id="edge43" class="edge"><title>:_11-&gt;:_12</title>
<a xlink:href="http://www2.elsevier.co.uk/~tony/1014/yads-schema-2002-04-03#collection" target="_blank" onmouseover="show_status('http://www2.elsevier.co.uk/~tony/1014/yads-schema-2002-04-03#collection');">
<path style="fill:none;stroke:#add9e6" d="M656,689C656,702 656,719 656,734"/>
<polygon style="fill:#add9e6;stroke:#add9e6" points="654,733 656,743 659,733 654,733"/>
<text text-anchor="middle" x="697" y="720" style="font-family:arial">has:collection</text>
</a></g>
<g id="node57" class="node"><title>:_16</title>
<a xlink:href="http://www.w3.org/1999/02/22-rdf-syntax-ns#Bag" target="_blank" onmouseover="show_status('http://www.w3.org/1999/02/22-rdf-syntax-ns#Bag');">
<ellipse cx="959" cy="761" rx="28" ry="18" style="fill:#d2d2d2;stroke:#d2d2d2"/>
<text text-anchor="middle" x="959" y="765" style="font-family:arial">rdf:Bag</text>
</a></g>
<g id="edge56" class="edge"><title>:_15-&gt;:_16</title>
<a xlink:href="http://www2.elsevier.co.uk/~tony/1014/yads-schema-2002-04-03#collection" target="_blank" onmouseover="show_status('http://www2.elsevier.co.uk/~tony/1014/yads-schema-2002-04-03#collection');">
<path style="fill:none;stroke:#add9e6" d="M951,689C953,702 954,719 956,734"/>
<polygon style="fill:#add9e6;stroke:#add9e6" points="953,733 957,743 958,733 953,733"/>
<text text-anchor="middle" x="997" y="720" style="font-family:arial">has:collection</text>
</a></g>
<g id="node65" class="node"><title>:_19</title>
<a xlink:href="http://www.w3.org/1999/02/22-rdf-syntax-ns#Bag" target="_blank" onmouseover="show_status('http://www.w3.org/1999/02/22-rdf-syntax-ns#Bag');">
<ellipse cx="1176" cy="761" rx="28" ry="18" style="fill:#d2d2d2;stroke:#d2d2d2"/>
<text text-anchor="middle" x="1176" y="765" style="font-family:arial">rdf:Bag</text>
</a></g>
<g id="edge64" class="edge"><title>:_18-&gt;:_19</title>
<a xlink:href="http://www2.elsevier.co.uk/~tony/1014/yads-schema-2002-04-03#collection" target="_blank" onmouseover="show_status('http://www2.elsevier.co.uk/~tony/1014/yads-schema-2002-04-03#collection');">
<path style="fill:none;stroke:#add9e6" d="M1167,689C1169,702 1171,719 1173,734"/>
<polygon style="fill:#add9e6;stroke:#add9e6" points="1170,733 1174,743 1175,733 1170,733"/>
<text text-anchor="middle" x="1214" y="720" style="font-family:arial">has:collection</text>
</a></g>
<g id="node46" class="node"><title>:_13</title>
<ellipse cx="598" cy="872" rx="73" ry="18" style="fill:#eedb82;stroke:#eedb82"/>
<text text-anchor="middle" x="598" y="876" style="font-family:arial">oboe:descriptor:identifier</text>
</g>
<g id="edge45" class="edge"><title>:_12-&gt;:_13</title>
<a xlink:href="http://www.w3.org/1999/02/22-rdf-syntax-ns#_1" target="_blank" onmouseover="show_status('http://www.w3.org/1999/02/22-rdf-syntax-ns#_1');">
<path style="fill:none;stroke:#add9e6" d="M647,778C637,797 622,825 611,846"/>
<polygon style="fill:#add9e6;stroke:#add9e6" points="609,844 607,854 614,846 609,844"/>
<text text-anchor="middle" x="655" y="816" style="font-family:arial">rdf:_1</text>
</a></g>
<g id="node48" class="node"><title>:_14</title>
<ellipse cx="772" cy="872" rx="73" ry="18" style="fill:#eedb82;stroke:#eedb82"/>
<text text-anchor="middle" x="772" y="876" style="font-family:arial">oboe:descriptor:identifier</text>
</g>
<g id="edge47" class="edge"><title>:_12-&gt;:_14</title>
<a xlink:href="http://www.w3.org/1999/02/22-rdf-syntax-ns#_2" target="_blank" onmouseover="show_status('http://www.w3.org/1999/02/22-rdf-syntax-ns#_2');">
<path style="fill:none;stroke:#add9e6" d="M672,776C691,794 724,826 746,847"/>
<polygon style="fill:#add9e6;stroke:#add9e6" points="744,849 753,854 748,845 744,849"/>
<text text-anchor="middle" x="740" y="816" style="font-family:arial">rdf:_2</text>
</a></g>
<g id="node51" class="node"><title>data:,ori:doi:10.1126/science...0</title>
<a xlink:href="" onclick="show_data('ori:doi:10.1126/science.275.5304.1320');" onmouseover="show_status('data:,ori:doi:10.1126/science.275.5304.1320');">
<ellipse cx="592" cy="962" rx="83" ry="18" style="fill:#dca0dd;stroke:#dca0dd"/>
<text text-anchor="middle" x="592" y="966" style="font-family:arial">data:,ori:doi:10.1126/science...0</text>
</a></g>
<g id="edge50" class="edge"><title>:_13-&gt;data:,ori:doi:10.1126/science...0</title>
<a xlink:href="http://www2.elsevier.co.uk/~tony/1014/yads-schema-2002-04-03#resource" target="_blank" onmouseover="show_status('http://www2.elsevier.co.uk/~tony/1014/yads-schema-2002-04-03#resource');">
<path style="fill:none;stroke:#add9e6" d="M597,890C596,903 595,920 594,935"/>
<polygon style="fill:#add9e6;stroke:#add9e6" points="592,934 593,944 597,934 592,934"/>
<text text-anchor="middle" x="638" y="921" style="font-family:arial">has:resource</text>
</a></g>
<g id="node54" class="node"><title>data:,ori:pmid:9036860</title>
<a xlink:href="" onclick="show_data('ori:pmid:9036860');" onmouseover="show_status('data:,ori:pmid:9036860');">
<ellipse cx="766" cy="962" rx="67" ry="18" style="fill:#dca0dd;stroke:#dca0dd"/>
<text text-anchor="middle" x="766" y="966" style="font-family:arial">data:,ori:pmid:9036860</text>
</a></g>
<g id="edge53" class="edge"><title>:_14-&gt;data:,ori:pmid:9036860</title>
<a xlink:href="http://www2.elsevier.co.uk/~tony/1014/yads-schema-2002-04-03#resource" target="_blank" onmouseover="show_status('http://www2.elsevier.co.uk/~tony/1014/yads-schema-2002-04-03#resource');">
<path style="fill:none;stroke:#add9e6" d="M771,890C770,903 769,920 768,935"/>
<polygon style="fill:#add9e6;stroke:#add9e6" points="766,934 767,944 771,934 766,934"/>
<text text-anchor="middle" x="812" y="921" style="font-family:arial">has:resource</text>
</a></g>
<g id="node59" class="node"><title>:_17</title>
<ellipse cx="963" cy="872" rx="73" ry="18" style="fill:#eedb82;stroke:#eedb82"/>
<text text-anchor="middle" x="963" y="876" style="font-family:arial">oboe:descriptor:identifier</text>
</g>
<g id="edge58" class="edge"><title>:_16-&gt;:_17</title>
<a xlink:href="http://www.w3.org/1999/02/22-rdf-syntax-ns#_1" target="_blank" onmouseover="show_status('http://www.w3.org/1999/02/22-rdf-syntax-ns#_1');">
<path style="fill:none;stroke:#add9e6" d="M960,779C961,797 962,824 962,845"/>
<polygon style="fill:#add9e6;stroke:#add9e6" points="960,844 962,854 965,844 960,844"/>
<text text-anchor="middle" x="983" y="816" style="font-family:arial">rdf:_1</text>
</a></g>
<g id="node62" class="node"><title>data:,ori:dbid:elsevier.com:S...t</title>
<a xlink:href="" onclick="show_data('ori:dbid:elsevier.com:ScienceDirect');" onmouseover="show_status('data:,ori:dbid:elsevier.com:ScienceDirect');">
<ellipse cx="968" cy="962" rx="83" ry="18" style="fill:#dca0dd;stroke:#dca0dd"/>
<text text-anchor="middle" x="968" y="966" style="font-family:arial">data:,ori:dbid:elsevier.com:S...t</text>
</a></g>
<g id="edge61" class="edge"><title>:_17-&gt;data:,ori:dbid:elsevier.com:S...t</title>
<a xlink:href="http://www2.elsevier.co.uk/~tony/1014/yads-schema-2002-04-03#resource" target="_blank" onmouseover="show_status('http://www2.elsevier.co.uk/~tony/1014/yads-schema-2002-04-03#resource');">
<path style="fill:none;stroke:#add9e6" d="M964,890C965,903 966,920 966,935"/>
<polygon style="fill:#add9e6;stroke:#add9e6" points="963,934 967,944 968,934 963,934"/>
<text text-anchor="middle" x="1008" y="921" style="font-family:arial">has:resource</text>
</a></g>
<g id="node67" class="node"><title>:_20</title>
<ellipse cx="1176" cy="872" rx="73" ry="18" style="fill:#eedb82;stroke:#eedb82"/>
<text text-anchor="middle" x="1176" y="876" style="font-family:arial">oboe:descriptor:identifier</text>
</g>
<g id="edge66" class="edge"><title>:_19-&gt;:_20</title>
<a xlink:href="http://www.w3.org/1999/02/22-rdf-syntax-ns#_1" target="_blank" onmouseover="show_status('http://www.w3.org/1999/02/22-rdf-syntax-ns#_1');">
<path style="fill:none;stroke:#add9e6" d="M1176,779C1176,797 1176,824 1176,845"/>
<polygon style="fill:#add9e6;stroke:#add9e6" points="1174,844 1176,854 1179,844 1174,844"/>
<text text-anchor="middle" x="1196" y="816" style="font-family:arial">rdf:_1</text>
</a></g>
<g id="node69" class="node"><title>:_21</title>
<ellipse cx="1360" cy="872" rx="73" ry="18" style="fill:#eedb82;stroke:#eedb82"/>
<text text-anchor="middle" x="1360" y="876" style="font-family:arial">oboe:descriptor:identifier</text>
</g>
<g id="edge68" class="edge"><title>:_19-&gt;:_21</title>
<a xlink:href="http://www.w3.org/1999/02/22-rdf-syntax-ns#_2" target="_blank" onmouseover="show_status('http://www.w3.org/1999/02/22-rdf-syntax-ns#_2');">
<path style="fill:none;stroke:#add9e6" d="M1197,774C1228,793 1286,828 1324,850"/>
<polygon style="fill:#add9e6;stroke:#add9e6" points="1322,852 1332,855 1325,848 1322,852"/>
<text text-anchor="middle" x="1295" y="816" style="font-family:arial">rdf:_2</text>
</a></g>
<g id="node72" class="node"><title>data:,ori:doi:10.1006/mthe.20...9</title>
<a xlink:href="" onclick="show_data('ori:doi:10.1006/mthe.2000.0239');" onmouseover="show_status('data:,ori:doi:10.1006/mthe.2000.0239');">
<ellipse cx="1176" cy="962" rx="85" ry="18" style="fill:#dca0dd;stroke:#dca0dd"/>
<text text-anchor="middle" x="1176" y="966" style="font-family:arial">data:,ori:doi:10.1006/mthe.20...9</text>
</a></g>
<g id="edge71" class="edge"><title>:_20-&gt;data:,ori:doi:10.1006/mthe.20...9</title>
<a xlink:href="http://www2.elsevier.co.uk/~tony/1014/yads-schema-2002-04-03#resource" target="_blank" onmouseover="show_status('http://www2.elsevier.co.uk/~tony/1014/yads-schema-2002-04-03#resource');">
<path style="fill:none;stroke:#add9e6" d="M1176,890C1176,903 1176,920 1176,935"/>
<polygon style="fill:#add9e6;stroke:#add9e6" points="1174,934 1176,944 1179,934 1174,934"/>
<text text-anchor="middle" x="1217" y="921" style="font-family:arial">has:resource</text>
</a></g>
<g id="node75" class="node"><title>data:,uri:urn:ISSN:1525-0016</title>
<a xlink:href="" onclick="show_data('uri:urn:ISSN:1525-0016');" onmouseover="show_status('data:,uri:urn:ISSN:1525-0016');">
<ellipse cx="1364" cy="962" rx="79" ry="18" style="fill:#dca0dd;stroke:#dca0dd"/>
<text text-anchor="middle" x="1364" y="966" style="font-family:arial">data:,uri:urn:ISSN:1525-0016</text>
</a></g>
<g id="edge74" class="edge"><title>:_21-&gt;data:,uri:urn:ISSN:1525-0016</title>
<a xlink:href="http://www2.elsevier.co.uk/~tony/1014/yads-schema-2002-04-03#resource" target="_blank" onmouseover="show_status('http://www2.elsevier.co.uk/~tony/1014/yads-schema-2002-04-03#resource');">
<path style="fill:none;stroke:#add9e6" d="M1360,890C1361,901 1361,914 1362,926 1362,929 1362,931 1362,934"/>
<polygon style="fill:#add9e6;stroke:#add9e6" points="1360,934 1363,944 1364,934 1360,934"/>
<text text-anchor="middle" x="1403" y="921" style="font-family:arial">has:resource</text>
</a></g>
</g>
</svg>
