<?xml version="1.0" encoding="UTF-8" standalone="no"?>
<!DOCTYPE svg PUBLIC "-//W3C//DTD SVG 1.0//EN"
 "http://www.w3.org/TR/2001/REC-SVG-20010904/DTD/svg10.dtd" [
 <!ATTLIST svg xmlns:xlink CDATA #FIXED "http://www.w3.org/1999/xlink">
]>
<!-- Generated by dot version 1.8.5 (Tue Apr 23 17:19:23  2002)
     For user: (Administrator) ,S-1-5-21-1454471165-688789844-1708537768-500   Title: yads    Pages: 1 -->
<svg width="1976px" height="1272px"
 xmlns="http://www.w3.org/2000/svg" xmlns:xlink="http://www.w3.org/1999/xlink">
<g id="graph0" class="graph" style="font-family:Times-Roman;font-size:11.00">
<title>yads</title>
<text text-anchor="middle" x="988" y="1261" style="font-family:arial;font-size:24.00">YADS - A Description Service</text>
<g id="graph2" class="cluster"><title>cluster_1</title>
<polygon style="fill:none;stroke:#d2d2d2;stroke-dasharray:5,2" points="19,1229 1957,1229 1957,43 19,43 19,1229"/>
<text text-anchor="middle" x="70" y="55" style="font-family:arial">Nest - OpenURL</text>
</g>
<g id="graph3" class="cluster"><title>cluster_3</title>
<polygon style="fill:none;stroke:#d2d2d2;stroke-dasharray:5,2" points="27,1221 1949,1221 1949,238 27,238 27,1221"/>
<text text-anchor="middle" x="68" y="250" style="font-family:arial">Nest - Profile</text>
</g>
<g id="graph4" class="cluster"><title>cluster_5</title>
<polygon style="fill:none;stroke:#d2d2d2;stroke-dasharray:5,2" points="35,795 171,795 171,433 35,433 35,795"/>
<text text-anchor="middle" x="95" y="445" style="font-family:arial">Item - Administration</text>
</g>
<g id="graph5" class="cluster"><title>cluster_7</title>
<polygon style="fill:none;stroke:#d2d2d2;stroke-dasharray:5,2" points="43,787 159,787 159,628 43,628 43,787"/>
<text text-anchor="middle" x="86" y="640" style="font-family:arial">Item - Version</text>
</g>
<g id="graph6" class="cluster"><title>cluster_8</title>
<polygon style="fill:none;stroke:#d2d2d2;stroke-dasharray:5,2" points="179,1213 1941,1213 1941,433 179,433 179,1213"/>
<text text-anchor="middle" x="242" y="445" style="font-family:arial">Item - ContextObject</text>
</g>
<g id="graph7" class="cluster"><title>cluster_10</title>
<polygon style="fill:none;stroke:#d2d2d2;stroke-dasharray:5,2" points="187,1205 1167,1205 1167,628 187,628 187,1205"/>
<text text-anchor="middle" x="234" y="640" style="font-family:arial">Item - Referent</text>
</g>
<g id="graph8" class="cluster"><title>cluster_12</title>
<polygon style="fill:none;stroke:#d2d2d2;stroke-dasharray:5,2" points="195,1197 1159,1197 1159,829 195,829 195,1197"/>
<text text-anchor="middle" x="243" y="841" style="font-family:arial">Item - Metadata</text>
</g>
<g id="graph9" class="cluster"><title>cluster_14</title>
<polygon style="fill:none;stroke:#d2d2d2;stroke-dasharray:5,2" points="203,1189 371,1189 371,1030 203,1030 203,1189"/>
<text text-anchor="middle" x="219" y="1042" style="font-family:arial">Item</text>
</g>
<g id="graph10" class="cluster"><title>cluster_15</title>
<polygon style="fill:none;stroke:#d2d2d2;stroke-dasharray:5,2" points="379,1189 597,1189 597,1030 379,1030 379,1189"/>
<text text-anchor="middle" x="395" y="1042" style="font-family:arial">Item</text>
</g>
<g id="graph11" class="cluster"><title>cluster_16</title>
<polygon style="fill:none;stroke:#d2d2d2;stroke-dasharray:5,2" points="605,1189 777,1189 777,1030 605,1030 605,1189"/>
<text text-anchor="middle" x="621" y="1042" style="font-family:arial">Item</text>
</g>
<g id="graph12" class="cluster"><title>cluster_17</title>
<polygon style="fill:none;stroke:#d2d2d2;stroke-dasharray:5,2" points="785,1189 967,1189 967,1030 785,1030 785,1189"/>
<text text-anchor="middle" x="801" y="1042" style="font-family:arial">Item</text>
</g>
<g id="graph13" class="cluster"><title>cluster_18</title>
<polygon style="fill:none;stroke:#d2d2d2;stroke-dasharray:5,2" points="975,1189 1151,1189 1151,1030 975,1030 975,1189"/>
<text text-anchor="middle" x="991" y="1042" style="font-family:arial">Item</text>
</g>
<g id="graph14" class="cluster"><title>cluster_19</title>
<polygon style="fill:none;stroke:#d2d2d2;stroke-dasharray:5,2" points="1175,996 1363,996 1363,628 1175,628 1175,996"/>
<text text-anchor="middle" x="1221" y="640" style="font-family:arial">Item - Referrer</text>
</g>
<g id="graph15" class="cluster"><title>cluster_21</title>
<polygon style="fill:none;stroke:#d2d2d2;stroke-dasharray:5,2" points="1183,988 1355,988 1355,829 1183,829 1183,988"/>
<text text-anchor="middle" x="1227" y="841" style="font-family:arial">Item - Identifier</text>
</g>
<g id="graph16" class="cluster"><title>cluster_22</title>
<polygon style="fill:none;stroke:#d2d2d2;stroke-dasharray:5,2" points="1371,996 1535,996 1535,628 1371,628 1371,996"/>
<text text-anchor="middle" x="1435" y="640" style="font-family:arial">Item - Referring-entity</text>
</g>
<g id="graph17" class="cluster"><title>cluster_24</title>
<polygon style="fill:none;stroke:#d2d2d2;stroke-dasharray:5,2" points="1379,988 1527,988 1527,829 1379,829 1379,988"/>
<text text-anchor="middle" x="1423" y="841" style="font-family:arial">Item - Identifier</text>
</g>
<g id="graph18" class="cluster"><title>cluster_25</title>
<polygon style="fill:none;stroke:#d2d2d2;stroke-dasharray:5,2" points="1543,996 1755,996 1755,628 1543,628 1543,996"/>
<text text-anchor="middle" x="1594" y="640" style="font-family:arial">Item - Requester</text>
</g>
<g id="graph19" class="cluster"><title>cluster_27</title>
<polygon style="fill:none;stroke:#d2d2d2;stroke-dasharray:5,2" points="1551,988 1747,988 1747,829 1551,829 1551,988"/>
<text text-anchor="middle" x="1595" y="841" style="font-family:arial">Item - Identifier</text>
</g>
<g id="graph20" class="cluster"><title>cluster_28</title>
<polygon style="fill:none;stroke:#d2d2d2;stroke-dasharray:5,2" points="1763,996 1933,996 1933,628 1763,628 1763,996"/>
<text text-anchor="middle" x="1820" y="640" style="font-family:arial">Item - Service-type</text>
</g>
<g id="graph21" class="cluster"><title>cluster_30</title>
<polygon style="fill:none;stroke:#d2d2d2;stroke-dasharray:5,2" points="1771,988 1925,988 1925,829 1771,829 1771,988"/>
<text text-anchor="middle" x="1815" y="841" style="font-family:arial">Item - Identifier</text>
</g>
<g id="node2" class="node"><title>:_1</title>
<a xlink:href="http://www2.elsevier.co.uk/~tony/1014/yads-schema-2002-04-03#Nest" target="_blank" onmouseover="show_status('http://www2.elsevier.co.uk/~tony/1014/yads-schema-2002-04-03#Nest');">
<ellipse cx="119" cy="86" rx="29" ry="18" style="fill:#d2d2d2;stroke:#d2d2d2"/>
<text text-anchor="middle" x="119" y="90" style="font-family:arial">isa:Nest</text>
</a></g>
<g id="node4" class="node"><title>:</title>
<ellipse cx="70" cy="176" rx="27" ry="18" style="fill:#dca0dd;stroke:#dca0dd"/>
<text text-anchor="middle" x="70" y="180" style="font-family:arial">:</text>
</g>
<g id="edge3" class="edge"><title>:_1-&gt;:</title>
<a xlink:href="http://www2.elsevier.co.uk/~tony/1014/yads-schema-2002-04-03#resource" target="_blank" onmouseover="show_status('http://www2.elsevier.co.uk/~tony/1014/yads-schema-2002-04-03#resource');">
<path style="fill:none;stroke:#add9e6" d="M102,100C95,107 89,114 84,122 80,130 76,140 74,149"/>
<polygon style="fill:#add9e6;stroke:#add9e6" points="72,148 72,158 77,149 72,148"/>
<text text-anchor="middle" x="128" y="135" style="font-family:arial">has:resource</text>
</a></g>
<g id="node6" class="node"><title>:_2</title>
<a xlink:href="http://www.w3.org/1999/02/22-rdf-syntax-ns#Bag" target="_blank" onmouseover="show_status('http://www.w3.org/1999/02/22-rdf-syntax-ns#Bag');">
<ellipse cx="169" cy="176" rx="28" ry="18" style="fill:#d2d2d2;stroke:#d2d2d2"/>
<text text-anchor="middle" x="169" y="180" style="font-family:arial">rdf:Bag</text>
</a></g>
<g id="edge5" class="edge"><title>:_1-&gt;:_2</title>
<a xlink:href="http://www2.elsevier.co.uk/~tony/1014/yads-schema-2002-04-03#collection" target="_blank" onmouseover="show_status('http://www2.elsevier.co.uk/~tony/1014/yads-schema-2002-04-03#collection');">
<path style="fill:none;stroke:#add9e6" d="M143,97C153,103 164,111 169,122 173,130 174,140 174,149"/>
<polygon style="fill:#add9e6;stroke:#add9e6" points="172,148 173,158 177,148 172,148"/>
<text text-anchor="middle" x="216" y="135" style="font-family:arial">has:collection</text>
</a></g>
<g id="node8" class="node"><title>:_3</title>
<a xlink:href="http://www2.elsevier.co.uk/~tony/1014/yads-schema-2002-04-03#Nest" target="_blank" onmouseover="show_status('http://www2.elsevier.co.uk/~tony/1014/yads-schema-2002-04-03#Nest');">
<ellipse cx="169" cy="281" rx="29" ry="18" style="fill:#d2d2d2;stroke:#d2d2d2"/>
<text text-anchor="middle" x="169" y="285" style="font-family:arial">isa:Nest</text>
</a></g>
<g id="edge7" class="edge"><title>:_2-&gt;:_3</title>
<a xlink:href="http://www.w3.org/1999/02/22-rdf-syntax-ns#_1" target="_blank" onmouseover="show_status('http://www.w3.org/1999/02/22-rdf-syntax-ns#_1');">
<path style="fill:none;stroke:#add9e6" d="M169,194C169,210 169,235 169,254"/>
<polygon style="fill:#add9e6;stroke:#add9e6" points="167,253 169,263 172,253 167,253"/>
<text text-anchor="middle" x="189" y="225" style="font-family:arial">rdf:_1</text>
</a></g>
<g id="node11" class="node"><title>node_1</title>
<polygon style="fill:#6497ed;stroke:#6497ed" points="102,353 48,353 48,389 102,389 102,353"/>
<text text-anchor="middle" x="75" y="375" style="font-family:arial">oboe:</text>
</g>
<g id="edge10" class="edge"><title>:_3-&gt;node_1</title>
<a xlink:href="http://www2.elsevier.co.uk/~tony/1014/yads-schema-2002-04-03#directive" target="_blank" onmouseover="show_status('http://www2.elsevier.co.uk/~tony/1014/yads-schema-2002-04-03#directive');">
<path style="fill:none;stroke:#add9e6" d="M141,285C121,290 96,299 82,317 77,324 74,335 73,344"/>
<polygon style="fill:#add9e6;stroke:#add9e6" points="71,343 73,353 76,343 71,343"/>
<text text-anchor="middle" x="123" y="330" style="font-family:arial">has:directive</text>
</a></g>
<g id="node13" class="node"><title>:_4</title>
<a xlink:href="http://www.w3.org/1999/02/22-rdf-syntax-ns#Bag" target="_blank" onmouseover="show_status('http://www.w3.org/1999/02/22-rdf-syntax-ns#Bag');">
<ellipse cx="154" cy="371" rx="28" ry="18" style="fill:#d2d2d2;stroke:#d2d2d2"/>
<text text-anchor="middle" x="154" y="375" style="font-family:arial">rdf:Bag</text>
</a></g>
<g id="edge12" class="edge"><title>:_3-&gt;:_4</title>
<a xlink:href="http://www2.elsevier.co.uk/~tony/1014/yads-schema-2002-04-03#collection" target="_blank" onmouseover="show_status('http://www2.elsevier.co.uk/~tony/1014/yads-schema-2002-04-03#collection');">
<path style="fill:none;stroke:#add9e6" d="M166,299C164,312 161,329 159,344"/>
<polygon style="fill:#add9e6;stroke:#add9e6" points="157,343 157,353 162,344 157,343"/>
<text text-anchor="middle" x="205" y="330" style="font-family:arial">has:collection</text>
</a></g>
<g id="node15" class="node"><title>http://www2.elsevier.co.uk/~t...f</title>
<a xlink:href="http://www2.elsevier.co.uk/~tony/oboe.rdf" target="_blank" onmouseover="show_status('http://www2.elsevier.co.uk/~tony/oboe.rdf');">
<ellipse cx="291" cy="371" rx="91" ry="18" style="fill:#dca0dd;stroke:#dca0dd"/>
<text text-anchor="middle" x="291" y="375" style="font-family:arial">http://www2.elsevier.co.uk/~t...f</text>
</a></g>
<g id="edge14" class="edge"><title>:_3-&gt;http://www2.elsevier.co.uk/~t...f</title>
<a xlink:href="http://www2.elsevier.co.uk/~tony/1014/yads-schema-2002-04-03#resource" target="_blank" onmouseover="show_status('http://www2.elsevier.co.uk/~tony/1014/yads-schema-2002-04-03#resource');">
<path style="fill:none;stroke:#add9e6" d="M195,289C212,295 233,304 249,317 259,325 268,335 275,345"/>
<polygon style="fill:#add9e6;stroke:#add9e6" points="273,346 280,353 277,343 273,346"/>
<text text-anchor="middle" x="309" y="330" style="font-family:arial">has:resource</text>
</a></g>
<g id="node17" class="node"><title>:_5</title>
<ellipse cx="103" cy="476" rx="60" ry="18" style="fill:#eedb82;stroke:#eedb82"/>
<text text-anchor="middle" x="103" y="480" style="font-family:arial">oboe:administration</text>
</g>
<g id="edge16" class="edge"><title>:_4-&gt;:_5</title>
<a xlink:href="http://www.w3.org/1999/02/22-rdf-syntax-ns#_1" target="_blank" onmouseover="show_status('http://www.w3.org/1999/02/22-rdf-syntax-ns#_1');">
<path style="fill:none;stroke:#add9e6" d="M146,388C137,405 125,430 116,450"/>
<polygon style="fill:#add9e6;stroke:#add9e6" points="114,448 112,458 119,450 114,448"/>
<text text-anchor="middle" x="157" y="420" style="font-family:arial">rdf:_1</text>
</a></g>
<g id="node19" class="node"><title>:_8</title>
<ellipse cx="771" cy="476" rx="63" ry="18" style="fill:#eedb82;stroke:#eedb82"/>
<text text-anchor="middle" x="771" y="480" style="font-family:arial">oboe:context-object</text>
</g>
<g id="edge18" class="edge"><title>:_4-&gt;:_8</title>
<a xlink:href="http://www.w3.org/1999/02/22-rdf-syntax-ns#_2" target="_blank" onmouseover="show_status('http://www.w3.org/1999/02/22-rdf-syntax-ns#_2');">
<path style="fill:none;stroke:#add9e6" d="M175,383C180,385 186,387 191,389 369,444 588,465 699,472"/>
<polygon style="fill:#add9e6;stroke:#add9e6" points="699,474 709,473 699,470 699,474"/>
<text text-anchor="middle" x="350" y="420" style="font-family:arial">rdf:_2</text>
</a></g>
<g id="node22" class="node"><title>:_6</title>
<a xlink:href="http://www.w3.org/1999/02/22-rdf-syntax-ns#Bag" target="_blank" onmouseover="show_status('http://www.w3.org/1999/02/22-rdf-syntax-ns#Bag');">
<ellipse cx="88" cy="566" rx="28" ry="18" style="fill:#d2d2d2;stroke:#d2d2d2"/>
<text text-anchor="middle" x="88" y="570" style="font-family:arial">rdf:Bag</text>
</a></g>
<g id="edge21" class="edge"><title>:_5-&gt;:_6</title>
<a xlink:href="http://www2.elsevier.co.uk/~tony/1014/yads-schema-2002-04-03#collection" target="_blank" onmouseover="show_status('http://www2.elsevier.co.uk/~tony/1014/yads-schema-2002-04-03#collection');">
<path style="fill:none;stroke:#add9e6" d="M98,494C97,500 95,506 94,512 93,521 91,530 90,539"/>
<polygon style="fill:#add9e6;stroke:#add9e6" points="88,538 89,548 93,538 88,538"/>
<text text-anchor="middle" x="138" y="525" style="font-family:arial">has:collection</text>
</a></g>
<g id="node30" class="node"><title>:_9</title>
<a xlink:href="http://www.w3.org/1999/02/22-rdf-syntax-ns#Bag" target="_blank" onmouseover="show_status('http://www.w3.org/1999/02/22-rdf-syntax-ns#Bag');">
<ellipse cx="1344" cy="566" rx="28" ry="18" style="fill:#d2d2d2;stroke:#d2d2d2"/>
<text text-anchor="middle" x="1344" y="570" style="font-family:arial">rdf:Bag</text>
</a></g>
<g id="edge29" class="edge"><title>:_8-&gt;:_9</title>
<a xlink:href="http://www2.elsevier.co.uk/~tony/1014/yads-schema-2002-04-03#collection" target="_blank" onmouseover="show_status('http://www2.elsevier.co.uk/~tony/1014/yads-schema-2002-04-03#collection');">
<path style="fill:none;stroke:#add9e6" d="M826,485C943,502 1211,545 1309,561"/>
<polygon style="fill:#add9e6;stroke:#add9e6" points="1307,563 1317,562 1307,558 1307,563"/>
<text text-anchor="middle" x="1151" y="525" style="font-family:arial">has:collection</text>
</a></g>
<g id="node24" class="node"><title>:_7</title>
<ellipse cx="94" cy="671" rx="43" ry="18" style="fill:#eedb82;stroke:#eedb82"/>
<text text-anchor="middle" x="94" y="675" style="font-family:arial">oboe:version</text>
</g>
<g id="edge23" class="edge"><title>:_6-&gt;:_7</title>
<a xlink:href="http://www.w3.org/1999/02/22-rdf-syntax-ns#_1" target="_blank" onmouseover="show_status('http://www.w3.org/1999/02/22-rdf-syntax-ns#_1');">
<path style="fill:none;stroke:#add9e6" d="M89,584C90,600 91,625 93,644"/>
<polygon style="fill:#add9e6;stroke:#add9e6" points="91,643 93,653 96,643 91,643"/>
<text text-anchor="middle" x="112" y="615" style="font-family:arial">rdf:_1</text>
</a></g>
<g id="node27" class="node"><title>data:,Z39.00-00</title>
<a xlink:href="" onclick="show_data('Z39.00-00');" onmouseover="show_status('data:,Z39.00-00');">
<ellipse cx="101" cy="761" rx="50" ry="18" style="fill:#dca0dd;stroke:#dca0dd"/>
<text text-anchor="middle" x="101" y="765" style="font-family:arial">data:,Z39.00-00</text>
</a></g>
<g id="edge26" class="edge"><title>:_7-&gt;data:,Z39.00-00</title>
<a xlink:href="http://www2.elsevier.co.uk/~tony/1014/yads-schema-2002-04-03#resource" target="_blank" onmouseover="show_status('http://www2.elsevier.co.uk/~tony/1014/yads-schema-2002-04-03#resource');">
<path style="fill:none;stroke:#add9e6" d="M95,689C96,702 97,719 98,734"/>
<polygon style="fill:#add9e6;stroke:#add9e6" points="95,733 99,743 100,733 95,733"/>
<text text-anchor="middle" x="140" y="720" style="font-family:arial">has:resource</text>
</a></g>
<g id="node32" class="node"><title>:_10</title>
<ellipse cx="1078" cy="671" rx="45" ry="18" style="fill:#eedb82;stroke:#eedb82"/>
<text text-anchor="middle" x="1078" y="675" style="font-family:arial">oboe:referent</text>
</g>
<g id="edge31" class="edge"><title>:_9-&gt;:_10</title>
<a xlink:href="http://www.w3.org/1999/02/22-rdf-syntax-ns#_1" target="_blank" onmouseover="show_status('http://www.w3.org/1999/02/22-rdf-syntax-ns#_1');">
<path style="fill:none;stroke:#add9e6" d="M1318,573C1258,592 1237,601 1171,628 1152,636 1132,645 1115,653"/>
<polygon style="fill:#add9e6;stroke:#add9e6" points="1115,650 1107,657 1117,655 1115,650"/>
<text text-anchor="middle" x="1261" y="615" style="font-family:arial">rdf:_1</text>
</a></g>
<g id="node34" class="node"><title>:_19</title>
<ellipse cx="1292" cy="671" rx="44" ry="18" style="fill:#eedb82;stroke:#eedb82"/>
<text text-anchor="middle" x="1292" y="675" style="font-family:arial">oboe:referrer</text>
</g>
<g id="edge33" class="edge"><title>:_9-&gt;:_19</title>
<a xlink:href="http://www.w3.org/1999/02/22-rdf-syntax-ns#_2" target="_blank" onmouseover="show_status('http://www.w3.org/1999/02/22-rdf-syntax-ns#_2');">
<path style="fill:none;stroke:#add9e6" d="M1335,583C1327,600 1315,626 1305,645"/>
<polygon style="fill:#add9e6;stroke:#add9e6" points="1303,643 1301,653 1308,645 1303,643"/>
<text text-anchor="middle" x="1348" y="615" style="font-family:arial">rdf:_2</text>
</a></g>
<g id="node36" class="node"><title>:_22</title>
<ellipse cx="1441" cy="671" rx="62" ry="18" style="fill:#eedb82;stroke:#eedb82"/>
<text text-anchor="middle" x="1441" y="675" style="font-family:arial">oboe:referring-entity</text>
</g>
<g id="edge35" class="edge"><title>:_9-&gt;:_22</title>
<a xlink:href="http://www.w3.org/1999/02/22-rdf-syntax-ns#_3" target="_blank" onmouseover="show_status('http://www.w3.org/1999/02/22-rdf-syntax-ns#_3');">
<path style="fill:none;stroke:#add9e6" d="M1358,581C1374,599 1400,627 1419,647"/>
<polygon style="fill:#add9e6;stroke:#add9e6" points="1416,648 1425,653 1420,644 1416,648"/>
<text text-anchor="middle" x="1415" y="615" style="font-family:arial">rdf:_3</text>
</a></g>
<g id="node38" class="node"><title>:_25</title>
<ellipse cx="1613" cy="671" rx="49" ry="18" style="fill:#eedb82;stroke:#eedb82"/>
<text text-anchor="middle" x="1613" y="675" style="font-family:arial">oboe:requester</text>
</g>
<g id="edge37" class="edge"><title>:_9-&gt;:_25</title>
<a xlink:href="http://www.w3.org/1999/02/22-rdf-syntax-ns#_4" target="_blank" onmouseover="show_status('http://www.w3.org/1999/02/22-rdf-syntax-ns#_4');">
<path style="fill:none;stroke:#add9e6" d="M1371,571C1443,589 1466,596 1539,628 1553,635 1568,643 1581,651"/>
<polygon style="fill:#add9e6;stroke:#add9e6" points="1579,653 1589,655 1581,648 1579,653"/>
<text text-anchor="middle" x="1540" y="615" style="font-family:arial">rdf:_4</text>
</a></g>
<g id="node40" class="node"><title>:_28</title>
<ellipse cx="1830" cy="671" rx="57" ry="18" style="fill:#eedb82;stroke:#eedb82"/>
<text text-anchor="middle" x="1830" y="675" style="font-family:arial">oboe:service-type</text>
</g>
<g id="edge39" class="edge"><title>:_9-&gt;:_28</title>
<a xlink:href="http://www.w3.org/1999/02/22-rdf-syntax-ns#_5" target="_blank" onmouseover="show_status('http://www.w3.org/1999/02/22-rdf-syntax-ns#_5');">
<path style="fill:none;stroke:#add9e6" d="M1372,568C1545,588 1596,569 1759,628 1773,633 1787,641 1799,649"/>
<polygon style="fill:#add9e6;stroke:#add9e6" points="1797,651 1807,654 1800,647 1797,651"/>
<text text-anchor="middle" x="1755" y="615" style="font-family:arial">rdf:_5</text>
</a></g>
<g id="node43" class="node"><title>:_11</title>
<a xlink:href="http://www.w3.org/1999/02/22-rdf-syntax-ns#Bag" target="_blank" onmouseover="show_status('http://www.w3.org/1999/02/22-rdf-syntax-ns#Bag');">
<ellipse cx="1055" cy="761" rx="28" ry="18" style="fill:#d2d2d2;stroke:#d2d2d2"/>
<text text-anchor="middle" x="1055" y="765" style="font-family:arial">rdf:Bag</text>
</a></g>
<g id="edge42" class="edge"><title>:_10-&gt;:_11</title>
<a xlink:href="http://www2.elsevier.co.uk/~tony/1014/yads-schema-2002-04-03#collection" target="_blank" onmouseover="show_status('http://www2.elsevier.co.uk/~tony/1014/yads-schema-2002-04-03#collection');">
<path style="fill:none;stroke:#add9e6" d="M1073,689C1070,702 1066,720 1062,734"/>
<polygon style="fill:#add9e6;stroke:#add9e6" points="1060,733 1060,743 1065,734 1060,733"/>
<text text-anchor="middle" x="1111" y="720" style="font-family:arial">has:collection</text>
</a></g>
<g id="node76" class="node"><title>:_20</title>
<a xlink:href="http://www.w3.org/1999/02/22-rdf-syntax-ns#Bag" target="_blank" onmouseover="show_status('http://www.w3.org/1999/02/22-rdf-syntax-ns#Bag');">
<ellipse cx="1271" cy="761" rx="28" ry="18" style="fill:#d2d2d2;stroke:#d2d2d2"/>
<text text-anchor="middle" x="1271" y="765" style="font-family:arial">rdf:Bag</text>
</a></g>
<g id="edge75" class="edge"><title>:_19-&gt;:_20</title>
<a xlink:href="http://www2.elsevier.co.uk/~tony/1014/yads-schema-2002-04-03#collection" target="_blank" onmouseover="show_status('http://www2.elsevier.co.uk/~tony/1014/yads-schema-2002-04-03#collection');">
<path style="fill:none;stroke:#add9e6" d="M1288,689C1285,702 1281,719 1277,734"/>
<polygon style="fill:#add9e6;stroke:#add9e6" points="1275,733 1275,743 1280,734 1275,733"/>
<text text-anchor="middle" x="1326" y="720" style="font-family:arial">has:collection</text>
</a></g>
<g id="node84" class="node"><title>:_23</title>
<a xlink:href="http://www.w3.org/1999/02/22-rdf-syntax-ns#Bag" target="_blank" onmouseover="show_status('http://www.w3.org/1999/02/22-rdf-syntax-ns#Bag');">
<ellipse cx="1439" cy="761" rx="28" ry="18" style="fill:#d2d2d2;stroke:#d2d2d2"/>
<text text-anchor="middle" x="1439" y="765" style="font-family:arial">rdf:Bag</text>
</a></g>
<g id="edge83" class="edge"><title>:_22-&gt;:_23</title>
<a xlink:href="http://www2.elsevier.co.uk/~tony/1014/yads-schema-2002-04-03#collection" target="_blank" onmouseover="show_status('http://www2.elsevier.co.uk/~tony/1014/yads-schema-2002-04-03#collection');">
<path style="fill:none;stroke:#add9e6" d="M1441,689C1440,702 1440,719 1439,734"/>
<polygon style="fill:#add9e6;stroke:#add9e6" points="1437,733 1439,743 1442,733 1437,733"/>
<text text-anchor="middle" x="1482" y="720" style="font-family:arial">has:collection</text>
</a></g>
<g id="node92" class="node"><title>:_26</title>
<a xlink:href="http://www.w3.org/1999/02/22-rdf-syntax-ns#Bag" target="_blank" onmouseover="show_status('http://www.w3.org/1999/02/22-rdf-syntax-ns#Bag');">
<ellipse cx="1622" cy="761" rx="28" ry="18" style="fill:#d2d2d2;stroke:#d2d2d2"/>
<text text-anchor="middle" x="1622" y="765" style="font-family:arial">rdf:Bag</text>
</a></g>
<g id="edge91" class="edge"><title>:_25-&gt;:_26</title>
<a xlink:href="http://www2.elsevier.co.uk/~tony/1014/yads-schema-2002-04-03#collection" target="_blank" onmouseover="show_status('http://www2.elsevier.co.uk/~tony/1014/yads-schema-2002-04-03#collection');">
<path style="fill:none;stroke:#add9e6" d="M1615,689C1616,702 1617,719 1619,734"/>
<polygon style="fill:#add9e6;stroke:#add9e6" points="1616,733 1620,743 1621,733 1616,733"/>
<text text-anchor="middle" x="1661" y="720" style="font-family:arial">has:collection</text>
</a></g>
<g id="node100" class="node"><title>:_29</title>
<a xlink:href="http://www.w3.org/1999/02/22-rdf-syntax-ns#Bag" target="_blank" onmouseover="show_status('http://www.w3.org/1999/02/22-rdf-syntax-ns#Bag');">
<ellipse cx="1831" cy="761" rx="28" ry="18" style="fill:#d2d2d2;stroke:#d2d2d2"/>
<text text-anchor="middle" x="1831" y="765" style="font-family:arial">rdf:Bag</text>
</a></g>
<g id="edge99" class="edge"><title>:_28-&gt;:_29</title>
<a xlink:href="http://www2.elsevier.co.uk/~tony/1014/yads-schema-2002-04-03#collection" target="_blank" onmouseover="show_status('http://www2.elsevier.co.uk/~tony/1014/yads-schema-2002-04-03#collection');">
<path style="fill:none;stroke:#add9e6" d="M1830,689C1830,702 1830,719 1831,734"/>
<polygon style="fill:#add9e6;stroke:#add9e6" points="1829,733 1831,743 1834,733 1829,733"/>
<text text-anchor="middle" x="1871" y="720" style="font-family:arial">has:collection</text>
</a></g>
<g id="node45" class="node"><title>:_12</title>
<ellipse cx="1042" cy="872" rx="49" ry="18" style="fill:#eedb82;stroke:#eedb82"/>
<text text-anchor="middle" x="1042" y="876" style="font-family:arial">oboe:metadata</text>
</g>
<g id="edge44" class="edge"><title>:_11-&gt;:_12</title>
<a xlink:href="http://www.w3.org/1999/02/22-rdf-syntax-ns#_1" target="_blank" onmouseover="show_status('http://www.w3.org/1999/02/22-rdf-syntax-ns#_1');">
<path style="fill:none;stroke:#add9e6" d="M1053,779C1050,797 1048,824 1045,845"/>
<polygon style="fill:#add9e6;stroke:#add9e6" points="1043,844 1044,854 1048,844 1043,844"/>
<text text-anchor="middle" x="1071" y="816" style="font-family:arial">rdf:_1</text>
</a></g>
<g id="node48" class="node"><title>:_13</title>
<a xlink:href="http://www.w3.org/1999/02/22-rdf-syntax-ns#Bag" target="_blank" onmouseover="show_status('http://www.w3.org/1999/02/22-rdf-syntax-ns#Bag');">
<ellipse cx="752" cy="962" rx="28" ry="18" style="fill:#d2d2d2;stroke:#d2d2d2"/>
<text text-anchor="middle" x="752" y="966" style="font-family:arial">rdf:Bag</text>
</a></g>
<g id="edge47" class="edge"><title>:_12-&gt;:_13</title>
<a xlink:href="http://www2.elsevier.co.uk/~tony/1014/yads-schema-2002-04-03#collection" target="_blank" onmouseover="show_status('http://www2.elsevier.co.uk/~tony/1014/yads-schema-2002-04-03#collection');">
<path style="fill:none;stroke:#add9e6" d="M1004,884C947,901 839,935 785,952"/>
<polygon style="fill:#add9e6;stroke:#add9e6" points="787,949 778,954 788,954 787,949"/>
<text text-anchor="middle" x="966" y="921" style="font-family:arial">has:collection</text>
</a></g>
<g id="node50" class="node"><title>:_14</title>
<ellipse cx="287" cy="1073" rx="76" ry="18" style="fill:#eedb82;stroke:#eedb82"/>
<text text-anchor="middle" x="287" y="1077" style="font-family:arial">oboe:schema:jarticle:date</text>
</g>
<g id="edge49" class="edge"><title>:_13-&gt;:_14</title>
<a xlink:href="http://www.w3.org/1999/02/22-rdf-syntax-ns#_1" target="_blank" onmouseover="show_status('http://www.w3.org/1999/02/22-rdf-syntax-ns#_1');">
<path style="fill:none;stroke:#add9e6" d="M724,964C660,970 502,989 375,1030 358,1036 340,1044 324,1052"/>
<polygon style="fill:#add9e6;stroke:#add9e6" points="324,1049 316,1056 326,1054 324,1049"/>
<text text-anchor="middle" x="498" y="1017" style="font-family:arial">rdf:_1</text>
</a></g>
<g id="node52" class="node"><title>:_15</title>
<ellipse cx="506" cy="1073" rx="76" ry="18" style="fill:#eedb82;stroke:#eedb82"/>
<text text-anchor="middle" x="506" y="1077" style="font-family:arial">oboe:schema:jarticle:stitle</text>
</g>
<g id="edge51" class="edge"><title>:_13-&gt;:_15</title>
<a xlink:href="http://www.w3.org/1999/02/22-rdf-syntax-ns#_2" target="_blank" onmouseover="show_status('http://www.w3.org/1999/02/22-rdf-syntax-ns#_2');">
<path style="fill:none;stroke:#add9e6" d="M728,972C663,1001 591,1034 547,1054"/>
<polygon style="fill:#add9e6;stroke:#add9e6" points="549,1050 541,1057 551,1055 549,1050"/>
<text text-anchor="middle" x="685" y="1017" style="font-family:arial">rdf:_2</text>
</a></g>
<g id="node54" class="node"><title>:_16</title>
<ellipse cx="691" cy="1073" rx="78" ry="18" style="fill:#eedb82;stroke:#eedb82"/>
<text text-anchor="middle" x="691" y="1077" style="font-family:arial">oboe:schema:jarticle:issue</text>
</g>
<g id="edge53" class="edge"><title>:_13-&gt;:_16</title>
<a xlink:href="http://www.w3.org/1999/02/22-rdf-syntax-ns#_3" target="_blank" onmouseover="show_status('http://www.w3.org/1999/02/22-rdf-syntax-ns#_3');">
<path style="fill:none;stroke:#add9e6" d="M742,979C732,998 716,1026 705,1047"/>
<polygon style="fill:#add9e6;stroke:#add9e6" points="703,1045 701,1055 708,1047 703,1045"/>
<text text-anchor="middle" x="751" y="1017" style="font-family:arial">rdf:_3</text>
</a></g>
<g id="node56" class="node"><title>:_17</title>
<ellipse cx="876" cy="1073" rx="83" ry="18" style="fill:#eedb82;stroke:#eedb82"/>
<text text-anchor="middle" x="876" y="1077" style="font-family:arial">oboe:schema:jarticle:volume</text>
</g>
<g id="edge55" class="edge"><title>:_13-&gt;:_17</title>
<a xlink:href="http://www.w3.org/1999/02/22-rdf-syntax-ns#_4" target="_blank" onmouseover="show_status('http://www.w3.org/1999/02/22-rdf-syntax-ns#_4');">
<path style="fill:none;stroke:#add9e6" d="M768,977C789,995 824,1027 848,1048"/>
<polygon style="fill:#add9e6;stroke:#add9e6" points="847,1050 856,1055 850,1047 847,1050"/>
<text text-anchor="middle" x="840" y="1017" style="font-family:arial">rdf:_4</text>
</a></g>
<g id="node58" class="node"><title>:_18</title>
<ellipse cx="1063" cy="1073" rx="80" ry="18" style="fill:#eedb82;stroke:#eedb82"/>
<text text-anchor="middle" x="1063" y="1077" style="font-family:arial">oboe:schema:jarticle:aulast</text>
</g>
<g id="edge57" class="edge"><title>:_13-&gt;:_18</title>
<a xlink:href="http://www.w3.org/1999/02/22-rdf-syntax-ns#_5" target="_blank" onmouseover="show_status('http://www.w3.org/1999/02/22-rdf-syntax-ns#_5');">
<path style="fill:none;stroke:#add9e6" d="M778,969C862,992 886,997 971,1030 988,1037 1006,1045 1022,1052"/>
<polygon style="fill:#add9e6;stroke:#add9e6" points="1020,1054 1030,1056 1022,1049 1020,1054"/>
<text text-anchor="middle" x="969" y="1017" style="font-family:arial">rdf:_5</text>
</a></g>
<g id="node61" class="node"><title>data:,2002-02</title>
<a xlink:href="" onclick="show_data('2002-02');" onmouseover="show_status('data:,2002-02');">
<ellipse cx="282" cy="1163" rx="45" ry="18" style="fill:#dca0dd;stroke:#dca0dd"/>
<text text-anchor="middle" x="282" y="1167" style="font-family:arial">data:,2002-02</text>
</a></g>
<g id="edge60" class="edge"><title>:_14-&gt;data:,2002-02</title>
<a xlink:href="http://www2.elsevier.co.uk/~tony/1014/yads-schema-2002-04-03#resource" target="_blank" onmouseover="show_status('http://www2.elsevier.co.uk/~tony/1014/yads-schema-2002-04-03#resource');">
<path style="fill:none;stroke:#add9e6" d="M286,1091C285,1104 284,1121 284,1136"/>
<polygon style="fill:#add9e6;stroke:#add9e6" points="282,1135 283,1145 287,1135 282,1135"/>
<text text-anchor="middle" x="327" y="1122" style="font-family:arial">has:resource</text>
</a></g>
<g id="node64" class="node"><title>data:,Appl%20Environ%20Microb...l</title>
<a xlink:href="" onclick="show_data('Appl%20Environ%20Microbiol');" onmouseover="show_status('data:,Appl%20Environ%20Microbiol');">
<ellipse cx="488" cy="1163" rx="101" ry="18" style="fill:#dca0dd;stroke:#dca0dd"/>
<text text-anchor="middle" x="488" y="1167" style="font-family:arial">data:,Appl%20Environ%20Microb...l</text>
</a></g>
<g id="edge63" class="edge"><title>:_15-&gt;data:,Appl%20Environ%20Microb...l</title>
<a xlink:href="http://www2.elsevier.co.uk/~tony/1014/yads-schema-2002-04-03#resource" target="_blank" onmouseover="show_status('http://www2.elsevier.co.uk/~tony/1014/yads-schema-2002-04-03#resource');">
<path style="fill:none;stroke:#add9e6" d="M502,1091C500,1104 496,1121 494,1136"/>
<polygon style="fill:#add9e6;stroke:#add9e6" points="492,1135 492,1145 497,1136 492,1135"/>
<text text-anchor="middle" x="541" y="1122" style="font-family:arial">has:resource</text>
</a></g>
<g id="node67" class="node"><title>data:,2</title>
<a xlink:href="" onclick="show_data('2');" onmouseover="show_status('data:,2');">
<ellipse cx="688" cy="1163" rx="27" ry="18" style="fill:#dca0dd;stroke:#dca0dd"/>
<text text-anchor="middle" x="688" y="1167" style="font-family:arial">data:,2</text>
</a></g>
<g id="edge66" class="edge"><title>:_16-&gt;data:,2</title>
<a xlink:href="http://www2.elsevier.co.uk/~tony/1014/yads-schema-2002-04-03#resource" target="_blank" onmouseover="show_status('http://www2.elsevier.co.uk/~tony/1014/yads-schema-2002-04-03#resource');">
<path style="fill:none;stroke:#add9e6" d="M690,1091C690,1104 689,1121 689,1136"/>
<polygon style="fill:#add9e6;stroke:#add9e6" points="687,1135 689,1145 692,1135 687,1135"/>
<text text-anchor="middle" x="732" y="1122" style="font-family:arial">has:resource</text>
</a></g>
<g id="node70" class="node"><title>data:,68</title>
<a xlink:href="" onclick="show_data('68');" onmouseover="show_status('data:,68');">
<ellipse cx="876" cy="1163" rx="29" ry="18" style="fill:#dca0dd;stroke:#dca0dd"/>
<text text-anchor="middle" x="876" y="1167" style="font-family:arial">data:,68</text>
</a></g>
<g id="edge69" class="edge"><title>:_17-&gt;data:,68</title>
<a xlink:href="http://www2.elsevier.co.uk/~tony/1014/yads-schema-2002-04-03#resource" target="_blank" onmouseover="show_status('http://www2.elsevier.co.uk/~tony/1014/yads-schema-2002-04-03#resource');">
<path style="fill:none;stroke:#add9e6" d="M876,1091C876,1104 876,1121 876,1136"/>
<polygon style="fill:#add9e6;stroke:#add9e6" points="874,1135 876,1145 879,1135 874,1135"/>
<text text-anchor="middle" x="917" y="1122" style="font-family:arial">has:resource</text>
</a></g>
<g id="node73" class="node"><title>data:,Sturino</title>
<a xlink:href="" onclick="show_data('Sturino');" onmouseover="show_status('data:,Sturino');">
<ellipse cx="1062" cy="1163" rx="41" ry="18" style="fill:#dca0dd;stroke:#dca0dd"/>
<text text-anchor="middle" x="1062" y="1167" style="font-family:arial">data:,Sturino</text>
</a></g>
<g id="edge72" class="edge"><title>:_18-&gt;data:,Sturino</title>
<a xlink:href="http://www2.elsevier.co.uk/~tony/1014/yads-schema-2002-04-03#resource" target="_blank" onmouseover="show_status('http://www2.elsevier.co.uk/~tony/1014/yads-schema-2002-04-03#resource');">
<path style="fill:none;stroke:#add9e6" d="M1063,1091C1063,1104 1063,1121 1062,1136"/>
<polygon style="fill:#add9e6;stroke:#add9e6" points="1060,1135 1062,1145 1065,1135 1060,1135"/>
<text text-anchor="middle" x="1104" y="1122" style="font-family:arial">has:resource</text>
</a></g>
<g id="node78" class="node"><title>:_21</title>
<ellipse cx="1270" cy="872" rx="45" ry="18" style="fill:#eedb82;stroke:#eedb82"/>
<text text-anchor="middle" x="1270" y="876" style="font-family:arial">oboe:identifier</text>
</g>
<g id="edge77" class="edge"><title>:_20-&gt;:_21</title>
<a xlink:href="http://www.w3.org/1999/02/22-rdf-syntax-ns#_1" target="_blank" onmouseover="show_status('http://www.w3.org/1999/02/22-rdf-syntax-ns#_1');">
<path style="fill:none;stroke:#add9e6" d="M1271,779C1271,797 1271,824 1270,845"/>
<polygon style="fill:#add9e6;stroke:#add9e6" points="1268,844 1270,854 1273,844 1268,844"/>
<text text-anchor="middle" x="1291" y="816" style="font-family:arial">rdf:_1</text>
</a></g>
<g id="node81" class="node"><title>data:,ori:dbid:ncbi.nlm.nih.g...d</title>
<a xlink:href="" onclick="show_data('ori:dbid:ncbi.nlm.nih.gov:pubmed');" onmouseover="show_status('data:,ori:dbid:ncbi.nlm.nih.gov:pubmed');">
<ellipse cx="1269" cy="962" rx="78" ry="18" style="fill:#dca0dd;stroke:#dca0dd"/>
<text text-anchor="middle" x="1269" y="966" style="font-family:arial">data:,ori:dbid:ncbi.nlm.nih.g...d</text>
</a></g>
<g id="edge80" class="edge"><title>:_21-&gt;data:,ori:dbid:ncbi.nlm.nih.g...d</title>
<a xlink:href="http://www2.elsevier.co.uk/~tony/1014/yads-schema-2002-04-03#resource" target="_blank" onmouseover="show_status('http://www2.elsevier.co.uk/~tony/1014/yads-schema-2002-04-03#resource');">
<path style="fill:none;stroke:#add9e6" d="M1270,890C1270,903 1270,920 1269,935"/>
<polygon style="fill:#add9e6;stroke:#add9e6" points="1267,934 1269,944 1272,934 1267,934"/>
<text text-anchor="middle" x="1311" y="921" style="font-family:arial">has:resource</text>
</a></g>
<g id="node86" class="node"><title>:_24</title>
<ellipse cx="1439" cy="872" rx="45" ry="18" style="fill:#eedb82;stroke:#eedb82"/>
<text text-anchor="middle" x="1439" y="876" style="font-family:arial">oboe:identifier</text>
</g>
<g id="edge85" class="edge"><title>:_23-&gt;:_24</title>
<a xlink:href="http://www.w3.org/1999/02/22-rdf-syntax-ns#_1" target="_blank" onmouseover="show_status('http://www.w3.org/1999/02/22-rdf-syntax-ns#_1');">
<path style="fill:none;stroke:#add9e6" d="M1439,779C1439,797 1439,824 1439,845"/>
<polygon style="fill:#add9e6;stroke:#add9e6" points="1437,844 1439,854 1442,844 1437,844"/>
<text text-anchor="middle" x="1459" y="816" style="font-family:arial">rdf:_1</text>
</a></g>
<g id="node89" class="node"><title>data:,ori:pmid:11823195</title>
<a xlink:href="" onclick="show_data('ori:pmid:11823195');" onmouseover="show_status('data:,ori:pmid:11823195');">
<ellipse cx="1453" cy="962" rx="66" ry="18" style="fill:#dca0dd;stroke:#dca0dd"/>
<text text-anchor="middle" x="1453" y="966" style="font-family:arial">data:,ori:pmid:11823195</text>
</a></g>
<g id="edge88" class="edge"><title>:_24-&gt;data:,ori:pmid:11823195</title>
<a xlink:href="http://www2.elsevier.co.uk/~tony/1014/yads-schema-2002-04-03#resource" target="_blank" onmouseover="show_status('http://www2.elsevier.co.uk/~tony/1014/yads-schema-2002-04-03#resource');">
<path style="fill:none;stroke:#add9e6" d="M1442,890C1444,903 1447,920 1449,935"/>
<polygon style="fill:#add9e6;stroke:#add9e6" points="1446,934 1450,944 1451,934 1446,934"/>
<text text-anchor="middle" x="1489" y="921" style="font-family:arial">has:resource</text>
</a></g>
<g id="node94" class="node"><title>:_27</title>
<ellipse cx="1626" cy="872" rx="45" ry="18" style="fill:#eedb82;stroke:#eedb82"/>
<text text-anchor="middle" x="1626" y="876" style="font-family:arial">oboe:identifier</text>
</g>
<g id="edge93" class="edge"><title>:_26-&gt;:_27</title>
<a xlink:href="http://www.w3.org/1999/02/22-rdf-syntax-ns#_1" target="_blank" onmouseover="show_status('http://www.w3.org/1999/02/22-rdf-syntax-ns#_1');">
<path style="fill:none;stroke:#add9e6" d="M1623,779C1624,797 1625,824 1625,845"/>
<polygon style="fill:#add9e6;stroke:#add9e6" points="1623,844 1625,854 1628,844 1623,844"/>
<text text-anchor="middle" x="1646" y="816" style="font-family:arial">rdf:_1</text>
</a></g>
<g id="node97" class="node"><title>data:,uri:mailto:joe.doe@grea...g</title>
<a xlink:href="" onclick="show_data('uri:mailto:joe.doe@greatjob.org');" onmouseover="show_status('data:,uri:mailto:joe.doe@greatjob.org');">
<ellipse cx="1649" cy="962" rx="90" ry="18" style="fill:#dca0dd;stroke:#dca0dd"/>
<text text-anchor="middle" x="1649" y="966" style="font-family:arial">data:,uri:mailto:joe.doe@grea...g</text>
</a></g>
<g id="edge96" class="edge"><title>:_27-&gt;data:,uri:mailto:joe.doe@grea...g</title>
<a xlink:href="http://www2.elsevier.co.uk/~tony/1014/yads-schema-2002-04-03#resource" target="_blank" onmouseover="show_status('http://www2.elsevier.co.uk/~tony/1014/yads-schema-2002-04-03#resource');">
<path style="fill:none;stroke:#add9e6" d="M1631,890C1634,903 1638,920 1642,935"/>
<polygon style="fill:#add9e6;stroke:#add9e6" points="1639,935 1644,944 1644,934 1639,935"/>
<text text-anchor="middle" x="1682" y="921" style="font-family:arial">has:resource</text>
</a></g>
<g id="node102" class="node"><title>:_30</title>
<ellipse cx="1831" cy="872" rx="45" ry="18" style="fill:#eedb82;stroke:#eedb82"/>
<text text-anchor="middle" x="1831" y="876" style="font-family:arial">oboe:identifier</text>
</g>
<g id="edge101" class="edge"><title>:_29-&gt;:_30</title>
<a xlink:href="http://www.w3.org/1999/02/22-rdf-syntax-ns#_1" target="_blank" onmouseover="show_status('http://www.w3.org/1999/02/22-rdf-syntax-ns#_1');">
<path style="fill:none;stroke:#add9e6" d="M1831,779C1831,797 1831,824 1831,845"/>
<polygon style="fill:#add9e6;stroke:#add9e6" points="1829,844 1831,854 1834,844 1829,844"/>
<text text-anchor="middle" x="1851" y="816" style="font-family:arial">rdf:_1</text>
</a></g>
<g id="node105" class="node"><title>data:,_ri:oboe:no_strict</title>
<a xlink:href="" onclick="show_data('_ri:oboe:no_strict');" onmouseover="show_status('data:,_ri:oboe:no_strict');">
<ellipse cx="1848" cy="962" rx="69" ry="18" style="fill:#dca0dd;stroke:#dca0dd"/>
<text text-anchor="middle" x="1848" y="966" style="font-family:arial">data:,_ri:oboe:no_strict</text>
</a></g>
<g id="edge104" class="edge"><title>:_30-&gt;data:,_ri:oboe:no_strict</title>
<a xlink:href="http://www2.elsevier.co.uk/~tony/1014/yads-schema-2002-04-03#resource" target="_blank" onmouseover="show_status('http://www2.elsevier.co.uk/~tony/1014/yads-schema-2002-04-03#resource');">
<path style="fill:none;stroke:#add9e6" d="M1832,890C1832,901 1834,914 1836,926 1836,929 1837,932 1838,934"/>
<polygon style="fill:#add9e6;stroke:#add9e6" points="1836,935 1841,944 1841,934 1836,935"/>
<text text-anchor="middle" x="1877" y="921" style="font-family:arial">has:resource</text>
</a></g>
</g>
</svg>
